<?xml version="1.0" encoding="utf-8"?>
<!-- Generator: Adobe Illustrator 19.1.0, SVG Export Plug-In . SVG Version: 6.00 Build 0)  -->
<svg version="1.1" id="Layer_1" xmlns="http://www.w3.org/2000/svg" xmlns:xlink="http://www.w3.org/1999/xlink" x="0px" y="0px"
	 viewBox="0 0 24 24" style="enable-background:new 0 0 24 24;" xml:space="preserve">
<g id="sortable">
	<path id="menu-hamburger_1_" style="fill-rule:evenodd;clip-rule:evenodd;" d="M8,9.75C8,9.888,8.112,10,8.25,10h9.5
		C17.888,10,18,9.888,18,9.75v-1.5C18,8.112,17.888,8,17.75,8h-9.5C8.112,8,8,8.112,8,8.25V9.75z M8,12.75
		C8,12.888,8.112,13,8.25,13h9.5c0.138,0,0.25-0.112,0.25-0.25v-1.5c0-0.138-0.112-0.25-0.25-0.25h-9.5C8.112,11,8,11.112,8,11.25
		V12.75z M8,15.75C8,15.888,8.112,16,8.25,16h9.5c0.138,0,0.25-0.112,0.25-0.25v-1.5c0-0.138-0.112-0.25-0.25-0.25h-9.5
		C8.112,14,8,14.112,8,14.25V15.75z"/>
</g>
</svg>
