<?xml version="1.0" encoding="utf-8"?>
<!-- Generator: Adobe Illustrator 19.1.0, SVG Export Plug-In . SVG Version: 6.00 Build 0)  -->
<svg version="1.1" id="Layer_1" xmlns="http://www.w3.org/2000/svg" xmlns:xlink="http://www.w3.org/1999/xlink" x="0px" y="0px"
	 viewBox="0 0 24 24" style="enable-background:new 0 0 24 24;" xml:space="preserve">
<g id="save">
	<path d="M11,6.5C11,6.225,11.225,6,11.5,6h2C13.775,6,14,6.225,14,6.5V10h2.445c0.275,0,0.35,0.167,0.166,0.372l-3.828,4.256
		c-0.184,0.205-0.484,0.204-0.667-0.002l-3.784-4.253C8.15,10.168,8.225,10,8.5,10H11V6.5z M18,15.5V18H7v-2.5
		C7,15.225,7.225,15,7.5,15h10C17.775,15,18,15.225,18,15.5z M17,16h-1v0.5h1V16z"/>
</g>
</svg>
