<?xml version="1.0" encoding="utf-8"?>
<!-- Generator: Adobe Illustrator 19.1.0, SVG Export Plug-In . SVG Version: 6.00 Build 0)  -->
<svg version="1.1" id="Layer_1" xmlns="http://www.w3.org/2000/svg" xmlns:xlink="http://www.w3.org/1999/xlink" x="0px" y="0px"
	 viewBox="0 0 24 24" style="enable-background:new 0 0 24 24;" xml:space="preserve">
<g id="edit">
	<path d="M11.406,12.394l3.553-3.552l1.131,1.131l-3.618,3.618l-1.61,0.499L11.406,12.394z M16,7.869l1.08-1.149
		c0,0,0.436-0.205,0.92,0.279s0.212,0.852,0.212,0.852L17.131,9L16,7.869z"/>
	<path d="M15,13.185V15c0,0.55-0.45,1-1,1H9c-0.55,0-1-0.45-1-1v-5c0-0.55,0.45-1,1-1h3.679l1.149-1.148l0.718-0.718
		C14.22,7.055,13.878,7,13.5,7h-4C7.3,7,6,8.3,6,10.5v4C6,16.7,7.3,18,9.5,18h4c2.156,0,3.5-1.281,3.5-3.5c0,0,0-2.039,0-3.315
		L15,13.185z"/>
</g>
</svg>
