<?xml version="1.0" encoding="utf-8"?>
<!-- Generator: Adobe Illustrator 19.1.0, SVG Export Plug-In . SVG Version: 6.00 Build 0)  -->
<svg version="1.1" id="Layer_1" xmlns="http://www.w3.org/2000/svg" xmlns:xlink="http://www.w3.org/1999/xlink" x="0px" y="0px"
	 viewBox="0 0 24 24" style="enable-background:new 0 0 24 24;" xml:space="preserve">
<g id="calendar_1_">
	<g>
		<path d="M17.5,7H17V6.5C17,6.225,16.775,6,16.5,6h-1C15.225,6,15,6.225,15,6.5V7h-5V6.5C10,6.225,9.775,6,9.5,6h-1
			C8.225,6,8,6.225,8,6.5V7H7.5C7.225,7,7,7.225,7,7.5V9h11V7.5C18,7.225,17.775,7,17.5,7z"/>
		<path d="M7,17.5C7,17.775,7.225,18,7.5,18h10c0.275,0,0.5-0.225,0.5-0.5V10H7V17.5z M16,12h1v1h-1V12z M16,14h1v1h-1V14z M16,16h1
			v1h-1V16z M14,12h1v1h-1V12z M14,14h1v1h-1V14z M14,16h1v1h-1V16z M12,12h1v1h-1V12z M12,14h1v1h-1V14z M12,16h1v1h-1V16z M10,12
			h1v1h-1V12z M10,14h1v1h-1V14z M10,16h1v1h-1V16z M8,12h1v1H8V12z M8,14h1v1H8V14z M8,16h1v1H8V16z"/>
	</g>
</g>
</svg>
