<?xml version="1.0" encoding="utf-8"?>
<!-- Generator: Adobe Illustrator 19.1.0, SVG Export Plug-In . SVG Version: 6.00 Build 0)  -->
<svg version="1.1" id="Layer_1" xmlns="http://www.w3.org/2000/svg" xmlns:xlink="http://www.w3.org/1999/xlink" x="0px" y="0px"
	 viewBox="0 0 24 24" style="enable-background:new 0 0 24 24;" xml:space="preserve">
<g id="fast-forward_1_">
	<path style="fill-rule:evenodd;clip-rule:evenodd;" d="M6.358,7.349L11,11.875V7.5c0-0.275,0.161-0.343,0.358-0.151L16,11.875V7.5
		C16,7.224,16.224,7,16.5,7h1C17.776,7,18,7.224,18,7.5v10c0,0.276-0.224,0.5-0.5,0.5h-1c-0.276,0-0.5-0.224-0.5-0.5v-4.375
		l-4.642,4.526C11.161,17.843,11,17.775,11,17.5v-4.375l-4.642,4.526C6.161,17.843,6,17.775,6,17.5v-10
		C6,7.225,6.161,7.157,6.358,7.349z"/>
</g>
</svg>
