<?xml version="1.0" encoding="utf-8"?>
<!-- Generator: Adobe Illustrator 19.1.0, SVG Export Plug-In . SVG Version: 6.00 Build 0)  -->
<svg version="1.1" id="Layer_1" xmlns="http://www.w3.org/2000/svg" xmlns:xlink="http://www.w3.org/1999/xlink" x="0px" y="0px"
	 viewBox="0 0 24 24" style="enable-background:new 0 0 24 24;" xml:space="preserve">
<g id="hash">
	<path d="M18.25,9H16.5l0.459-2.753C16.982,6.11,16.888,6,16.75,6h-1.5c-0.138,0-0.268,0.11-0.291,0.247L14.5,9h-2l0.459-2.753
		C12.982,6.11,12.888,6,12.75,6h-1.5c-0.138,0-0.268,0.11-0.291,0.247L10.5,9H8.75C8.612,9,8.482,9.11,8.459,9.247l-0.251,1.507
		C8.185,10.89,8.279,11,8.417,11h1.75l-0.333,2h-1.75c-0.138,0-0.268,0.11-0.291,0.247l-0.251,1.507C7.518,14.89,7.612,15,7.75,15
		H9.5l-0.459,2.753C9.018,17.89,9.112,18,9.25,18h1.5c0.138,0,0.268-0.11,0.291-0.247L11.5,15h2l-0.459,2.753
		C13.018,17.89,13.112,18,13.25,18h1.5c0.138,0,0.268-0.11,0.291-0.247L15.5,15h1.75c0.138,0,0.268-0.11,0.291-0.247l0.251-1.507
		C17.815,13.11,17.721,13,17.583,13h-1.75l0.333-2h1.75c0.138,0,0.268-0.11,0.291-0.247l0.251-1.507C18.482,9.11,18.388,9,18.25,9z
		 M11.833,13l0.333-2h2l-0.333,2H11.833z"/>
</g>
</svg>
