<?xml version="1.0" encoding="utf-8"?>
<!-- Generator: Adobe Illustrator 19.1.0, SVG Export Plug-In . SVG Version: 6.00 Build 0)  -->
<svg version="1.1" id="Layer_1" xmlns="http://www.w3.org/2000/svg" xmlns:xlink="http://www.w3.org/1999/xlink" x="0px" y="0px"
	 viewBox="0 0 24 24" style="enable-background:new 0 0 24 24;" xml:space="preserve">
<g id="flash">
	<path d="M11.025,17.984l-0.084-0.086c-0.078-0.1-0.059-0.229-0.038-0.318C10.951,17.377,12.5,13,12.5,13H9.476
		c-0.139,0-0.255-0.072-0.311-0.191c-0.06-0.128-0.035-0.286,0.063-0.404c1.785-2.035,5.25-5.926,5.358-6.063
		c0.08-0.133,0.191-0.156,0.249-0.156h0.092l0.087,0.085c0.039,0.047,0.079,0.133,0.052,0.274c-0.042,0.192-1.522,4.297-1.567,4.463
		L16.505,11c0.148,0,0.265,0.064,0.318,0.173c0.054,0.11,0.033,0.24-0.058,0.357c-0.003,0.003-5.29,6.184-5.383,6.302
		c-0.082,0.102-0.17,0.152-0.261,0.152H11.025z"/>
</g>
</svg>
