<?xml version="1.0" encoding="utf-8"?>
<!-- Generator: Adobe Illustrator 19.1.0, SVG Export Plug-In . SVG Version: 6.00 Build 0)  -->
<svg version="1.1" id="Layer_1" xmlns="http://www.w3.org/2000/svg" xmlns:xlink="http://www.w3.org/1999/xlink" x="0px" y="0px"
	 viewBox="0 0 24 24" style="enable-background:new 0 0 24 24;" xml:space="preserve">
<g id="save-file">
	<path d="M17,9h-2V7L17,9z M11.8,13.8v-2h3.4v2H17V10h-3V6H8.25C8.112,6,8,6.112,8,6.25v7.55H11.8z M14.802,18h1.948
		c0.138,0,0.25-0.113,0.25-0.25v-1.949L14.802,18z M8,13.801v3.949C8,17.888,8.112,18,8.25,18h3.948L8,13.801z M13.5,17.121
		L15.621,15H14v-2h-1v2h-1.621L13.5,17.121z"/>
</g>
</svg>
