<?xml version="1.0" encoding="utf-8"?>
<!-- Generator: Adobe Illustrator 19.1.0, SVG Export Plug-In . SVG Version: 6.00 Build 0)  -->
<svg version="1.1" id="Layer_1" xmlns="http://www.w3.org/2000/svg" xmlns:xlink="http://www.w3.org/1999/xlink" x="0px" y="0px"
	 viewBox="0 0 24 24" style="enable-background:new 0 0 24 24;" xml:space="preserve">
<g id="circle-arrow-left_3_">
	<path id="circle-arrow_2_" d="M7.219,12c0,3.191,2.588,5.781,5.781,5.781s5.781-2.59,5.781-5.781c0-3.193-2.588-5.781-5.781-5.781
		S7.219,8.807,7.219,12z M9.856,11.685l2.756-2.239C12.825,9.273,13,9.356,13,9.631V11h2.75c0.138,0,0.25,0.113,0.25,0.25v1.5
		c0,0.137-0.112,0.25-0.25,0.25H13v1.369c0,0.275-0.175,0.358-0.388,0.185l-2.756-2.239C9.643,12.142,9.643,11.858,9.856,11.685z"/>
</g>
</svg>
