<?xml version="1.0" encoding="utf-8"?>
<!-- Generator: Adobe Illustrator 19.1.0, SVG Export Plug-In . SVG Version: 6.00 Build 0)  -->
<svg version="1.1" id="Layer_1" xmlns="http://www.w3.org/2000/svg" xmlns:xlink="http://www.w3.org/1999/xlink" x="0px" y="0px"
	 viewBox="0 0 24 24" style="enable-background:new 0 0 24 24;" xml:space="preserve">
<g id="th">
	<path id="path_12_" style="fill-rule:evenodd;clip-rule:evenodd;" d="M17,7.5C17,7.225,16.775,7,16.5,7h-2
		C14.225,7,14,7.225,14,7.5v2c0,0.275,0.225,0.5,0.5,0.5h2c0.275,0,0.5-0.225,0.5-0.5V7.5z M17,11.5c0-0.275-0.225-0.5-0.5-0.5h-2
		c-0.275,0-0.5,0.225-0.5,0.5v2c0,0.275,0.225,0.5,0.5,0.5h2c0.275,0,0.5-0.225,0.5-0.5V11.5z M17,15.5c0-0.275-0.225-0.5-0.5-0.5
		h-2c-0.275,0-0.5,0.225-0.5,0.5v2c0,0.275,0.225,0.5,0.5,0.5h2c0.275,0,0.5-0.225,0.5-0.5V15.5z M13,7.5C13,7.225,12.775,7,12.5,7
		h-2C10.225,7,10,7.225,10,7.5v2c0,0.275,0.225,0.5,0.5,0.5h2c0.275,0,0.5-0.225,0.5-0.5V7.5z M13,11.5c0-0.275-0.225-0.5-0.5-0.5
		h-2c-0.275,0-0.5,0.225-0.5,0.5v2c0,0.275,0.225,0.5,0.5,0.5h2c0.275,0,0.5-0.225,0.5-0.5V11.5z M13,15.5
		c0-0.275-0.225-0.5-0.5-0.5h-2c-0.275,0-0.5,0.225-0.5,0.5v2c0,0.275,0.225,0.5,0.5,0.5h2c0.275,0,0.5-0.225,0.5-0.5V15.5z M9,7.5
		C9,7.225,8.775,7,8.5,7h-2C6.225,7,6,7.225,6,7.5v2C6,9.775,6.225,10,6.5,10h2C8.775,10,9,9.775,9,9.5V7.5z M9,11.5
		C9,11.225,8.775,11,8.5,11h-2C6.225,11,6,11.225,6,11.5v2C6,13.775,6.225,14,6.5,14h2C8.775,14,9,13.775,9,13.5V11.5z M9,15.5
		C9,15.225,8.775,15,8.5,15h-2C6.225,15,6,15.225,6,15.5v2C6,17.775,6.225,18,6.5,18h2C8.775,18,9,17.775,9,17.5V15.5z"/>
</g>
</svg>
