<?xml version="1.0" encoding="utf-8"?>
<!-- Generator: Adobe Illustrator 19.1.0, SVG Export Plug-In . SVG Version: 6.00 Build 0)  -->
<svg version="1.1" id="Layer_1" xmlns="http://www.w3.org/2000/svg" xmlns:xlink="http://www.w3.org/1999/xlink" x="0px" y="0px"
	 viewBox="0 0 24 24" style="enable-background:new 0 0 24 24;" xml:space="preserve">
<g id="snowflake">
	<path d="M18.771,14.097c0.027,0.048,0.011,0.109-0.037,0.137l-0.933,0.539v1.077c0,0.055-0.045,0.1-0.1,0.1h-1.4
		c-0.055,0-0.1-0.045-0.1-0.1v-1.077L13.8,13.386v2.773l0.933,0.539c0.048,0.028,0.064,0.089,0.037,0.137l-0.7,1.211
		c-0.027,0.048-0.089,0.064-0.137,0.037L13,17.544l-0.933,0.538c-0.048,0.028-0.109,0.011-0.137-0.037l-0.7-1.211
		c-0.027-0.048-0.011-0.109,0.037-0.137l0.933-0.539v-2.773l-2.402,1.387v1.077c0,0.055-0.045,0.1-0.1,0.1h-1.4
		c-0.055,0-0.1-0.045-0.1-0.1v-1.077l-0.933-0.539c-0.048-0.028-0.064-0.089-0.037-0.137l0.7-1.212
		c0.027-0.048,0.089-0.064,0.137-0.037l0.932,0.538L11.4,12l-2.401-1.386l-0.932,0.538c-0.048,0.028-0.109,0.011-0.137-0.037
		l-0.7-1.212C7.202,9.855,7.218,9.794,7.266,9.766l0.933-0.539V8.151c0-0.055,0.045-0.1,0.1-0.1h1.4c0.055,0,0.1,0.045,0.1,0.1
		v1.077l2.402,1.387V7.842l-0.933-0.539c-0.048-0.028-0.064-0.089-0.037-0.137l0.7-1.211c0.027-0.048,0.089-0.064,0.137-0.037
		L13,6.456l0.933-0.538c0.048-0.027,0.109-0.011,0.137,0.037l0.7,1.211c0.027,0.048,0.011,0.109-0.037,0.137L13.8,7.842v2.773
		l2.402-1.387V8.151c0-0.055,0.045-0.1,0.1-0.1h1.4c0.055,0,0.1,0.045,0.1,0.1v1.077l0.933,0.539
		c0.048,0.028,0.064,0.089,0.037,0.137l-0.7,1.212c-0.027,0.048-0.089,0.064-0.137,0.037l-0.932-0.538L14.6,12l2.401,1.386
		l0.932-0.538c0.048-0.028,0.109-0.011,0.137,0.037L18.771,14.097z"/>
</g>
</svg>
