<?xml version="1.0" encoding="utf-8"?>
<!-- Generator: Adobe Illustrator 19.1.0, SVG Export Plug-In . SVG Version: 6.00 Build 0)  -->
<svg version="1.1" id="Layer_1" xmlns="http://www.w3.org/2000/svg" xmlns:xlink="http://www.w3.org/1999/xlink" x="0px" y="0px"
	 viewBox="0 0 24 24" style="enable-background:new 0 0 24 24;" xml:space="preserve">
<g id="object-align-left">
	<path d="M8,6v12H7V6H8z M9.5,13C9.225,13,9,13.225,9,13.5v4C9,17.775,9.225,18,9.5,18h9c0.275,0,0.5-0.225,0.5-0.5v-4
		c0-0.275-0.225-0.5-0.5-0.5H9.5z M13,8h-3v3h3V8L13,8z M13.5,7C13.775,7,14,7.225,14,7.5v4c0,0.275-0.225,0.5-0.5,0.5h-4
		C9.225,12,9,11.775,9,11.5v-4C9,7.225,9.225,7,9.5,7H13.5L13.5,7z"/>
</g>
</svg>
