<?xml version="1.0" encoding="utf-8"?>
<!-- Generator: Adobe Illustrator 19.1.0, SVG Export Plug-In . SVG Version: 6.00 Build 0)  -->
<svg version="1.1" id="Layer_1" xmlns="http://www.w3.org/2000/svg" xmlns:xlink="http://www.w3.org/1999/xlink" x="0px" y="0px"
	 viewBox="0 0 24 24" style="enable-background:new 0 0 24 24;" xml:space="preserve">
<g id="heart-empty">
	<path d="M13.495,8.511c-1.859-2.847-5.5-0.98-5.5,1.646c0,2.023,3.165,3.768,5.5,6.96c2.334-3.192,5.499-4.936,5.499-6.96
		C18.994,7.53,15.47,5.664,13.495,8.511z M15.578,12.906c-0.669,0.654-1.839,1.875-2.083,1.875s-1.373-1.204-2.042-1.859
		c-1.125-1.102-2.158-2.059-2.158-2.766c0-1.055,0.915-1.872,1.79-1.872c1.212,0,1.766,1.825,2.379,1.825s1.332-1.825,2.491-1.825
		c0.868,0,1.738,0.8,1.738,1.872C17.693,10.863,16.703,11.805,15.578,12.906z"/>
</g>
</svg>
