<?xml version="1.0" encoding="utf-8"?>
<!-- Generator: Adobe Illustrator 19.1.0, SVG Export Plug-In . SVG Version: 6.00 Build 0)  -->
<svg version="1.1" id="Layer_1" xmlns="http://www.w3.org/2000/svg" xmlns:xlink="http://www.w3.org/1999/xlink" x="0px" y="0px"
	 viewBox="0 0 24 24" style="enable-background:new 0 0 24 24;" xml:space="preserve">
<g id="oil">
	<path d="M18.5,17h-10C8.224,17,8,16.776,8,16.5S8.224,16,8.5,16H9v-2H8.5C8.224,14,8,13.776,8,13.5S8.224,13,8.5,13H9v-2H8.5
		C8.224,11,8,10.776,8,10.5S8.224,10,8.5,10H9V8H8.5C8.224,8,8,7.776,8,7.5C8,7.224,8.224,7,8.5,7h10C18.776,7,19,7.224,19,7.5
		C19,7.776,18.776,8,18.5,8H18v2h0.5c0.276,0,0.5,0.224,0.5,0.5S18.776,11,18.5,11H18v2h0.5c0.276,0,0.5,0.224,0.5,0.5
		S18.776,14,18.5,14H18v2h0.5c0.276,0,0.5,0.224,0.5,0.5S18.776,17,18.5,17z"/>
</g>
</svg>
