<?xml version="1.0" encoding="utf-8"?>
<!-- Generator: Adobe Illustrator 19.1.0, SVG Export Plug-In . SVG Version: 6.00 Build 0)  -->
<svg version="1.1" id="Layer_1" xmlns="http://www.w3.org/2000/svg" xmlns:xlink="http://www.w3.org/1999/xlink" x="0px" y="0px"
	 viewBox="0 0 24 24" style="enable-background:new 0 0 24 24;" xml:space="preserve">
<g id="ok-sign">
	<path d="M12,6.229c-3.187,0-5.771,2.584-5.771,5.771S8.813,17.771,12,17.771s5.771-2.584,5.771-5.771S15.187,6.229,12,6.229z
		 M15.39,11.328l-3.75,3.755c-0.097,0.097-0.256,0.097-0.353,0l-2.413-2.416c-0.097-0.097-0.097-0.256,0-0.354l1.391-1.391
		c0.097-0.097,0.256-0.097,0.354,0l0.844,0.845l2.184-2.185c0.097-0.097,0.256-0.097,0.353,0l1.39,1.391
		C15.487,11.072,15.487,11.231,15.39,11.328z"/>
</g>
</svg>
