<?xml version="1.0" encoding="utf-8"?>
<!-- Generator: Adobe Illustrator 19.1.0, SVG Export Plug-In . SVG Version: 6.00 Build 0)  -->
<svg version="1.1" id="Layer_1" xmlns="http://www.w3.org/2000/svg" xmlns:xlink="http://www.w3.org/1999/xlink" x="0px" y="0px"
	 viewBox="0 0 24 24" style="enable-background:new 0 0 24 24;" xml:space="preserve">
<g id="floppy-saved">
	<path d="M19.38,12.681L18.32,11.62c-0.097-0.097-0.256-0.097-0.354,0l-2.967,2.967l-0.789-0.789c-0.097-0.097-0.256-0.097-0.354,0
		l-1.061,1.061c-0.097,0.097-0.097,0.256,0,0.354l2.027,2.025c0.097,0.097,0.256,0.097,0.354,0l4.204-4.203
		C19.478,12.937,19.478,12.778,19.38,12.681z M12.125,13H9v4H7.5C7.225,17,7,16.775,7,16.5V6.502C7,6.227,7.225,6,7.5,6H10v3h5V6
		h0.999L18,8.001L17.976,9.49l-2.988,2.988l-0.946-0.946c-0.119-0.119-0.313-0.119-0.432,0L12.125,13z M14,8h-1V6h1V8z"/>
</g>
</svg>
