<?xml version="1.0" encoding="utf-8"?>
<!-- Generator: Adobe Illustrator 19.1.0, SVG Export Plug-In . SVG Version: 6.00 Build 0)  -->
<svg version="1.1" id="Layer_1" xmlns="http://www.w3.org/2000/svg" xmlns:xlink="http://www.w3.org/1999/xlink" x="0px" y="0px"
	 viewBox="0 0 24 24" style="enable-background:new 0 0 24 24;" xml:space="preserve">
<g id="knight_1_">
	<path d="M7.671,10.342C7.302,9.604,7.675,9,8.5,9H12V8h-1V6h1V5h2v1h1v2h-1v1h3.5c0.825,0,1.198,0.604,0.829,1.342l-0.658,1.317
		c-0.265,0.53-0.579,1.04-0.814,1.342H9.143c-0.234-0.301-0.549-0.812-0.814-1.342L7.671,10.342z M17.75,16l-1.375-1H16.5
		c0.276,0,0.5-0.224,0.5-0.5S16.776,14,16.5,14h-7C9.224,14,9,14.224,9,14.5S9.224,15,9.5,15h0.125L8.25,16H17.75z M18.5,17h-11
		C7.225,17,7,17.225,7,17.5V18h12v-0.5C19,17.225,18.775,17,18.5,17z"/>
</g>
</svg>
