<?xml version="1.0" encoding="utf-8"?>
<!-- Generator: Adobe Illustrator 19.1.0, SVG Export Plug-In . SVG Version: 6.00 Build 0)  -->
<svg version="1.1" id="Layer_1" xmlns="http://www.w3.org/2000/svg" xmlns:xlink="http://www.w3.org/1999/xlink" x="0px" y="0px"
	 viewBox="0 0 24 24" style="enable-background:new 0 0 24 24;" xml:space="preserve">
<g id="hand-top">
	<g id="hand_x5F_right_1_">
		<path style="opacity:0.3;" d="M13.608,8.758C13.393,8.697,13,8.5,13,8.275v1.537l4,1.656v-1.403L13.608,8.758z"/>
		<path d="M18,9.852v3.419C18,13.35,16.442,15,16.252,15c0,0-4.861,0-5.252,0c-0.391,0-0.732-0.564-0.732-0.564l-2.299-3.624
			c-0.095-0.192-0.089-0.379,0.062-0.531l1.121-1.097c0.179-0.179,0.461-0.182,0.66-0.028l1.211,0.848
			c-0.004-1.005-0.008-2.078-0.008-3.019c0-1.07,0.484-1.922,1.484-1.922S14,5.93,14,7v1.062l3.391,1.308
			C17.607,9.432,18,9.629,18,9.852z M17,13v-2.935l-3.392-1.308C13.393,8.697,13,8.5,13,8.275c0,0,0-1.572,0-2.025s-1-0.469-1,0
			c0,0.469,0,4.564,0,4.564c0,0.19,0.018,0.365-0.154,0.449c-0.17,0.085-0.312,0.065-0.464-0.051L9.547,9.75l-0.828,0.859L11.083,14
			h5.026L17,13z"/>
		<path d="M16.5,18c0.275,0,0.5-0.225,0.5-0.5v-1c0-0.275-0.225-0.5-0.5-0.5h-5c-0.275,0-0.5,0.225-0.5,0.5v1
			c0,0.275,0.225,0.5,0.5,0.5H16.5z"/>
	</g>
</g>
</svg>
