<?xml version="1.0" encoding="utf-8"?>
<!-- Generator: Adobe Illustrator 19.1.0, SVG Export Plug-In . SVG Version: 6.00 Build 0)  -->
<svg version="1.1" id="Layer_1" xmlns="http://www.w3.org/2000/svg" xmlns:xlink="http://www.w3.org/1999/xlink" x="0px" y="0px"
	 viewBox="0 0 24 24" style="enable-background:new 0 0 24 24;" xml:space="preserve">
<g id="info-sign">
	<path d="M12,6.229c-3.187,0-5.771,2.584-5.771,5.771S8.813,17.771,12,17.771s5.771-2.584,5.771-5.771S15.187,6.229,12,6.229z
		 M11,8.25C11,8.113,11.112,8,11.25,8h1.5C12.888,8,13,8.113,13,8.25v1.5C13,9.887,12.888,10,12.75,10h-1.5
		C11.112,10,11,9.887,11,9.75V8.25z M14,14.75c0,0.137-0.112,0.25-0.25,0.25h-3.5C10.112,15,10,14.887,10,14.75v-0.5
		c0-0.137,0.112-0.25,0.25-0.25H11v-2h-0.75C10.112,12,10,11.887,10,11.75v-0.5c0-0.137,0.112-0.25,0.25-0.25h2.5
		c0.138,0,0.25,0.113,0.25,0.25V14h0.75c0.138,0,0.25,0.113,0.25,0.25V14.75z"/>
</g>
</svg>
