<?xml version="1.0" encoding="utf-8"?>
<!-- Generator: Adobe Illustrator 19.1.0, SVG Export Plug-In . SVG Version: 6.00 Build 0)  -->
<svg version="1.1" id="Layer_1" xmlns="http://www.w3.org/2000/svg" xmlns:xlink="http://www.w3.org/1999/xlink" x="0px" y="0px"
	 viewBox="0 0 24 24" style="enable-background:new 0 0 24 24;" xml:space="preserve">
<g id="floppy-remove">
	<path d="M14,8h-1V6h1V8z M15.634,10.381c0.282,0.282,1.335,1.335,1.335,1.335l1.03-1.03V8.001L15.999,6H15v3h-5V6H7.499
		C7.225,6,7,6.227,7,6.502V16.5C7,16.775,7.225,17,7.499,17H9v-4h3.294c0,0,2.369-2.368,2.658-2.657
		C15.156,10.14,15.432,10.179,15.634,10.381z"/>
	<path d="M18.414,15l1.311-1.311c0.194-0.194,0.194-0.513,0-0.707l-0.707-0.707c-0.194-0.195-0.513-0.195-0.707,0L17,13.586
		l-1.311-1.311c-0.194-0.195-0.513-0.195-0.707,0l-0.707,0.707c-0.194,0.195-0.194,0.513,0,0.707L15.586,15l-1.311,1.311
		c-0.194,0.194-0.194,0.513,0,0.707l0.707,0.707c0.194,0.194,0.513,0.194,0.707,0L17,16.414l1.311,1.311
		c0.194,0.194,0.513,0.194,0.707,0l0.707-0.707c0.194-0.195,0.194-0.513,0-0.707L18.414,15z"/>
</g>
</svg>
