<?xml version="1.0" encoding="utf-8"?>
<!-- Generator: Adobe Illustrator 19.1.0, SVG Export Plug-In . SVG Version: 6.00 Build 0)  -->
<svg version="1.1" id="Layer_1" xmlns="http://www.w3.org/2000/svg" xmlns:xlink="http://www.w3.org/1999/xlink" x="0px" y="0px"
	 viewBox="0 0 24 24" style="enable-background:new 0 0 24 24;" xml:space="preserve">
<g id="envelope_2_">
	<path id="path_3_" d="M12.176,12.854c-0.097,0.097-0.256,0.097-0.353,0L6.176,7.177C6.079,7.08,6.113,7,6.25,7h11.5
		c0.138,0,0.171,0.08,0.074,0.177L12.176,12.854z M12.177,14.823c-0.097,0.097-0.256,0.097-0.354,0l-1.646-1.646
		c-0.097-0.097-0.256-0.097-0.354,0l-3.646,3.646C6.08,16.92,6.113,17,6.25,17h11.5c0.138,0,0.17-0.08,0.073-0.177l-3.646-3.646
		c-0.097-0.097-0.256-0.097-0.354,0L12.177,14.823z M15.177,11.823c-0.097,0.097-0.097,0.256,0,0.354l2.646,2.646
		C17.92,14.92,18,14.887,18,14.75v-5.5c0-0.137-0.08-0.17-0.177-0.073L15.177,11.823z M6.177,9.177C6.08,9.08,6,9.113,6,9.25v5.5
		c0,0.137,0.08,0.17,0.177,0.073l2.646-2.646c0.097-0.097,0.097-0.256,0-0.354L6.177,9.177z"/>
</g>
</svg>
