<?xml version="1.0" encoding="utf-8"?>
<!-- Generator: Adobe Illustrator 19.1.0, SVG Export Plug-In . SVG Version: 6.00 Build 0)  -->
<svg version="1.1" id="Layer_1" xmlns="http://www.w3.org/2000/svg" xmlns:xlink="http://www.w3.org/1999/xlink" x="0px" y="0px"
	 viewBox="0 0 24 24" style="enable-background:new 0 0 24 24;" xml:space="preserve">
<g id="download">
	<path id="path_35_" d="M12,6.228c-3.188,0-5.771,2.584-5.771,5.772S8.812,17.771,12,17.771c3.187,0,5.771-2.584,5.771-5.771
		S15.187,6.228,12,6.228z M12,16.271c-2.355,0-4.271-1.916-4.271-4.271S9.645,7.728,12,7.728S16.271,9.644,16.271,12
		S14.355,16.271,12,16.271z"/>
	<path id="path_34_" d="M14.369,12H13V9.25C13,9.112,12.888,9,12.75,9h-1.5C11.112,9,11,9.112,11,9.25V12H9.631
		c-0.275,0-0.358,0.175-0.185,0.388l2.239,2.756c0.173,0.213,0.457,0.213,0.63,0l2.239-2.756C14.727,12.175,14.644,12,14.369,12z"/>
</g>
</svg>
