<?xml version="1.0" encoding="utf-8"?>
<!-- Generator: Adobe Illustrator 19.1.0, SVG Export Plug-In . SVG Version: 6.00 Build 0)  -->
<svg version="1.1" id="Layer_1" xmlns="http://www.w3.org/2000/svg" xmlns:xlink="http://www.w3.org/1999/xlink" x="0px" y="0px"
	 viewBox="0 0 24 24" style="enable-background:new 0 0 24 24;" xml:space="preserve">
<g id="font">
	<path id="path_63_" d="M18,17.338V18h-4.17c0,0,0-0.355,0-0.662c0.75,0,1.002-0.771,0.799-1.321
		c-0.148-0.403-0.824-2.22-0.824-2.22h-3.91c0,0-0.574,1.455-0.918,2.348c-0.344,0.895,0.462,1.193,1.203,1.193
		c0,0.418,0,0.662,0,0.662H6.531v-0.662c0,0,0.562-0.24,0.838-0.515c0.276-0.276,0.517-0.75,0.517-0.75L11.881,6.01h0.931
		l3.849,9.977c0,0,0.201,0.504,0.6,0.925C17.662,17.332,18,17.338,18,17.338z M13.56,12.787l-1.616-4.566l-1.787,4.566H13.56z"/>
</g>
</svg>
