<?xml version="1.0" encoding="utf-8"?>
<!-- Generator: Adobe Illustrator 19.1.0, SVG Export Plug-In . SVG Version: 6.00 Build 0)  -->
<svg version="1.1" id="Layer_1" xmlns="http://www.w3.org/2000/svg" xmlns:xlink="http://www.w3.org/1999/xlink" x="0px" y="0px"
	 viewBox="0 0 24 24" style="enable-background:new 0 0 24 24;" xml:space="preserve">
<g id="coffee-cup">
	<path d="M17.75,18h-9.5c-0.138,0-0.329-0.079-0.427-0.177l-0.646-0.646C7.079,17.079,7,16.888,7,16.75v-0.5
		C7,16.112,7.112,16,7.25,16h11.5c0.138,0,0.25,0.112,0.25,0.25v0.5c0,0.138-0.079,0.329-0.177,0.427l-0.646,0.646
		C18.079,17.921,17.888,18,17.75,18z M19,10.014c0,1.695-1.021,2.99-3.007,2.99c0,1.123-0.905,1.998-2.005,1.995l-4-0.01
		C8.888,14.988,7.997,14.1,8,13V7.25C8,7.112,8.112,7,8.25,7L16,7.007C17.979,7.007,19,8.319,19,10.014z M17.3,10
		c0-1.106-1.3-1-1.3-1v2C16,11,17.3,11.106,17.3,10z"/>
</g>
</svg>
