<?xml version="1.0" encoding="utf-8"?>
<!-- Generator: Adobe Illustrator 19.1.0, SVG Export Plug-In . SVG Version: 6.00 Build 0)  -->
<svg version="1.1" id="Layer_1" xmlns="http://www.w3.org/2000/svg" xmlns:xlink="http://www.w3.org/1999/xlink" x="0px" y="0px"
	 viewBox="0 0 24 24" style="enable-background:new 0 0 24 24;" xml:space="preserve">
<g id="baby-formula">
	<path d="M15,9h-4V8.5c0-0.738,0.405-1.376,1-1.723V6c0-0.552,0.448-1,1-1c0.552,0,1,0.448,1,1v0.777c0.595,0.346,1,0.984,1,1.723V9
		z M15,15h2v-1h-2v-1h2v-1h-2v-1h1.723c-0.346-0.595-0.984-1-1.723-1h-4c-1.105,0-2,0.895-2,2v4c0,1.104,0.895,2,2,2h4
		c1.105,0,2-0.896,2-2h-2V15z"/>
</g>
</svg>
