<?xml version="1.0" encoding="utf-8"?>
<!-- Generator: Adobe Illustrator 19.1.0, SVG Export Plug-In . SVG Version: 6.00 Build 0)  -->
<svg version="1.1" id="Layer_1" xmlns="http://www.w3.org/2000/svg" xmlns:xlink="http://www.w3.org/1999/xlink" x="0px" y="0px"
	 viewBox="0 0 24 24" style="enable-background:new 0 0 24 24;" xml:space="preserve">
<g id="bullhorn">
	<g>
		<path d="M6,11.5V12c0,1,1,1,1,1v-2.5C7,10.5,6,10.562,6,11.5z"/>
		<path d="M18.5,7C18.225,7,18,7.225,18,7.5V16c0,0.275,0.225,0.5,0.5,0.5S19,16.275,19,16V7.5C19,7.225,18.775,7,18.5,7z"/>
		<path d="M8.25,10C7.975,10,8,10.225,8,10.5V13c0,0.143,0.555,3.508,0.555,3.508C8.604,16.779,8.808,17,9.083,17h0.834
			c0.275,0,0.465,0.027,0.423-0.244L9.873,14h0.377L17,16V7.5L10.25,10H8.25z"/>
	</g>
</g>
</svg>
