<?xml version="1.0" encoding="utf-8"?>
<!-- Generator: Adobe Illustrator 19.1.0, SVG Export Plug-In . SVG Version: 6.00 Build 0)  -->
<svg version="1.1" id="Layer_1" xmlns="http://www.w3.org/2000/svg" xmlns:xlink="http://www.w3.org/1999/xlink" x="0px" y="0px"
	 viewBox="0 0 24 24" style="enable-background:new 0 0 24 24;" xml:space="preserve">
<g id="sort-by-alphabet">
	<g>
		<path d="M11,15V6H9v9H7.5c-0.275,0-0.341,0.169-0.146,0.364l2.293,2.495c0.194,0.195,0.513,0.197,0.707,0.003l2.293-2.499
			C12.841,15.168,12.775,15,12.5,15H11z"/>
		<path d="M14,6v5h1v-1h1v1h1V6H14z M16.008,9h-1V7h1V9z"/>
		<polygon points="14,14 16,14 14,16.5 14,18 17,18 17,17 15,17 17,14.5 17,13 14,13 		"/>
	</g>
</g>
</svg>
