<?xml version="1.0" encoding="utf-8"?>
<!-- Generator: Adobe Illustrator 19.1.0, SVG Export Plug-In . SVG Version: 6.00 Build 0)  -->
<svg version="1.1" id="Layer_1" xmlns="http://www.w3.org/2000/svg" xmlns:xlink="http://www.w3.org/1999/xlink" x="0px" y="0px"
	 viewBox="0 0 24 24" style="enable-background:new 0 0 24 24;" xml:space="preserve">
<g id="transfer">
	<path d="M11,10h-1V8h1V10z M8.5,10H9V8H8.5C8.225,8,8,8.225,8,8.5v1C8,9.775,8.225,10,8.5,10z M18.828,8.646l-2.475-2.293
		C16.159,6.159,16,6.225,16,6.5V8h-4v2h4v1.5c0,0.275,0.159,0.341,0.354,0.146l2.475-2.293C19.023,9.159,19.023,8.841,18.828,8.646z
		 M15,15h1v-2h-1V15z M18,14.5v-1c0-0.275-0.22-0.5-0.495-0.5H17v2h0.505C17.78,15,18,14.775,18,14.5z M7.176,14.354l2.473,2.293
		C9.843,16.841,10,16.775,10,16.5V15h4v-2h-4v-1.5c0-0.275-0.157-0.341-0.351-0.146l-2.472,2.293
		C6.983,13.841,6.981,14.159,7.176,14.354z"/>
</g>
</svg>
