<?xml version="1.0" encoding="utf-8"?>
<!-- Generator: Adobe Illustrator 19.1.0, SVG Export Plug-In . SVG Version: 6.00 Build 0)  -->
<svg version="1.1" id="Layer_1" xmlns="http://www.w3.org/2000/svg" xmlns:xlink="http://www.w3.org/1999/xlink" x="0px" y="0px"
	 viewBox="0 0 24 24" style="enable-background:new 0 0 24 24;" xml:space="preserve">
<g id="hand-down">
	<g id="hand_x5F_top_1_">
		<g id="hand_x5F_right_2_">
			<path style="opacity:0.3;" d="M12.608,14.242C12.393,14.303,12,14.5,12,14.725v-1.537l4-1.656v1.403L12.608,14.242z"/>
			<path d="M16.391,13.63L13,14.938V16c0,1.07-0.5,1.938-1.5,1.938s-1.484-0.852-1.484-1.922c0-0.941,0.004-2.015,0.008-3.019
				l-1.211,0.848c-0.199,0.153-0.481,0.15-0.66-0.028l-1.121-1.097c-0.151-0.152-0.157-0.339-0.062-0.531l2.299-3.624
				C9.268,8.564,9.609,8,10,8c0.391,0,5.252,0,5.252,0C15.442,8,17,9.65,17,9.729v3.419C17,13.371,16.607,13.568,16.391,13.63z
				 M15.109,9h-5.026l-2.364,3.391l0.828,0.859l1.835-1.463c0.151-0.116,0.294-0.136,0.464-0.051C11.018,11.82,11,11.995,11,12.186
				c0,0,0,4.096,0,4.564c0,0.469,1,0.453,1,0s0-2.025,0-2.025c0-0.225,0.393-0.422,0.608-0.482L16,12.935V10L15.109,9z"/>
			<path d="M15.5,7C15.775,7,16,6.775,16,6.5v-1C16,5.225,15.775,5,15.5,5h-5C10.225,5,10,5.225,10,5.5v1C10,6.775,10.225,7,10.5,7
				H15.5z"/>
		</g>
	</g>
</g>
</svg>
