<?xml version="1.0" encoding="utf-8"?>
<!-- Generator: Adobe Illustrator 19.1.0, SVG Export Plug-In . SVG Version: 6.00 Build 0)  -->
<svg version="1.1" id="Layer_1" xmlns="http://www.w3.org/2000/svg" xmlns:xlink="http://www.w3.org/1999/xlink" x="0px" y="0px"
	 viewBox="0 0 24 24" style="enable-background:new 0 0 24 24;" xml:space="preserve">
<g id="rotate-left">
	<path d="M8.211,6.054l1.347,1.347c0.966-0.731,2.165-1.172,3.47-1.172c3.187,0,5.771,2.584,5.771,5.771
		c0,2.558-1.672,4.71-3.977,5.466c-0.462,0.155-0.834,0.225-1.545,0.3c-0.137,0.014-0.25-0.106-0.25-0.244v-1
		c0-0.138,0.112-0.24,0.249-0.258c0.685-0.087,1.038-0.177,1.526-0.4C16.274,15.193,17.3,13.719,17.3,12
		c0-2.355-1.916-4.271-4.271-4.271c-0.89,0-1.704,0.289-2.383,0.759l1.33,1.33C12.076,9.918,12.042,10,11.9,10H8.279
		c-0.138,0-0.25-0.113-0.25-0.25V6.129C8.029,5.987,8.111,5.953,8.211,6.054z M13,11c-0.552,0-1,0.448-1,1s0.448,1,1,1s1-0.448,1-1
		S13.552,11,13,11z"/>
</g>
</svg>
