<?xml version="1.0" encoding="utf-8"?>
<!-- Generator: Adobe Illustrator 19.1.0, SVG Export Plug-In . SVG Version: 6.00 Build 0)  -->
<svg version="1.1" id="Layer_1" xmlns="http://www.w3.org/2000/svg" xmlns:xlink="http://www.w3.org/1999/xlink" x="0px" y="0px"
	 viewBox="0 0 24 24" style="enable-background:new 0 0 24 24;" xml:space="preserve">
<g id="subscript">
	<path d="M18,13v3h-2v1h2v1h-3v-3h2v-1h-2v-1H18z M7,8v3c0,0,0,0,0.498,0C7.5,10,8.115,10,9,10h1c0,0,0,5,0,5.5S9,16,9,16v1h4v-1
		c0,0-1,0-1-0.5s0-5.5,0-5.5h1c0.885,0,1.5,0,1.502,1C15,11,15,11,15,11V8H7z"/>
</g>
</svg>
