<?xml version="1.0" encoding="utf-8"?>
<!-- Generator: Adobe Illustrator 19.1.0, SVG Export Plug-In . SVG Version: 6.00 Build 0)  -->
<svg version="1.1" id="Layer_1" xmlns="http://www.w3.org/2000/svg" xmlns:xlink="http://www.w3.org/1999/xlink" x="0px" y="0px"
	 viewBox="0 0 24 24" style="enable-background:new 0 0 24 24;" xml:space="preserve">
<g id="tasks">
	<g id="tasks_x5F_alt">
		<path d="M19,12c0-0.553-0.447-1-1-1H8c-0.553,0-1,0.447-1,1v1c0,0.553,0.447,1,1,1h10c0.553,0,1-0.447,1-1V12z M18,13H8v-1h10V13z
			 M19,16c0-0.553-0.447-1-1-1H8c-0.553,0-1,0.447-1,1v1c0,0.553,0.447,1,1,1h10c0.553,0,1-0.447,1-1V16z M18,17H8v-1h10V17z M19,8
			c0-0.553-0.447-1-1-1H8C7.447,7,7,7.447,7,8v1c0,0.553,0.447,1,1,1h10c0.553,0,1-0.447,1-1V8z M18,9H8V8h10V9z"/>
	</g>
	<rect x="8" y="8" style="opacity:0.5;" width="8" height="1"/>
	<rect x="8" y="12" style="opacity:0.5;" width="5" height="1"/>
	<rect x="8" y="16" style="opacity:0.5;" width="7" height="1"/>
</g>
</svg>
