<?xml version="1.0" encoding="utf-8"?>
<!-- Generator: Adobe Illustrator 19.1.0, SVG Export Plug-In . SVG Version: 6.00 Build 0)  -->
<svg version="1.1" id="Layer_1" xmlns="http://www.w3.org/2000/svg" xmlns:xlink="http://www.w3.org/1999/xlink" x="0px" y="0px"
	 viewBox="0 0 24 24" style="enable-background:new 0 0 24 24;" xml:space="preserve">
<g id="export">
	<path d="M18,15.5V18H7v-2.5C7,15.225,7.225,15,7.5,15h10C17.775,15,18,15.225,18,15.5z M17,16h-1v0.5h1V16z M10.896,9.992
		l1.55-1.546l-2.093-2.093c-0.194-0.194-0.129-0.353,0.146-0.352l5.986,0.023c0.275,0.001,0.5,0.227,0.501,0.502l0.012,5.974
		c0,0.275-0.158,0.341-0.353,0.146l-2.079-2.079l-1.55,1.546L10.896,9.992z M12.241,12.884l-2.121-2.122l-0.766,0.764
		c-0.195,0.194-0.195,0.512-0.001,0.706l1.415,1.415c0.194,0.194,0.513,0.195,0.708,0.001L12.241,12.884z"/>
</g>
</svg>
