<?xml version="1.0" encoding="utf-8"?>
<!-- Generator: Adobe Illustrator 19.1.0, SVG Export Plug-In . SVG Version: 6.00 Build 0)  -->
<svg version="1.1" id="Layer_1" xmlns="http://www.w3.org/2000/svg" xmlns:xlink="http://www.w3.org/1999/xlink" x="0px" y="0px"
	 viewBox="0 0 24 24" style="enable-background:new 0 0 24 24;" xml:space="preserve">
<g id="list">
	<path id="path_93_" style="fill-rule:evenodd;clip-rule:evenodd;" d="M6,17.5C6,17.775,6.225,18,6.5,18h1C7.775,18,8,17.775,8,17.5
		v-1C8,16.225,7.775,16,7.5,16h-1C6.225,16,6,16.225,6,16.5V17.5z"/>
	<path id="path_92_" style="fill-rule:evenodd;clip-rule:evenodd;" d="M6,14.5C6,14.775,6.225,15,6.5,15h1C7.775,15,8,14.775,8,14.5
		v-1C8,13.225,7.775,13,7.5,13h-1C6.225,13,6,13.225,6,13.5V14.5z"/>
	<path id="path_90_" style="fill-rule:evenodd;clip-rule:evenodd;" d="M6,11.5C6,11.775,6.225,12,6.5,12h1C7.775,12,8,11.775,8,11.5
		v-1C8,10.225,7.775,10,7.5,10h-1C6.225,10,6,10.225,6,10.5V11.5z"/>
	<path id="path_91_" style="fill-rule:evenodd;clip-rule:evenodd;" d="M6,8.5C6,8.775,6.225,9,6.5,9h1C7.775,9,8,8.775,8,8.5v-1
		C8,7.225,7.775,7,7.5,7h-1C6.225,7,6,7.225,6,7.5V8.5z"/>
	<path id="path_89_" style="fill-rule:evenodd;clip-rule:evenodd;" d="M9,17.5C9,17.775,9.225,18,9.5,18h8
		c0.275,0,0.5-0.225,0.5-0.5v-1c0-0.275-0.225-0.5-0.5-0.5h-8C9.225,16,9,16.225,9,16.5V17.5z"/>
	<path id="path_88_" style="fill-rule:evenodd;clip-rule:evenodd;" d="M9,14.5C9,14.775,9.225,15,9.5,15h8
		c0.275,0,0.5-0.225,0.5-0.5v-1c0-0.275-0.225-0.5-0.5-0.5h-8C9.225,13,9,13.225,9,13.5V14.5z"/>
	<path id="path_87_" style="fill-rule:evenodd;clip-rule:evenodd;" d="M9,11.5C9,11.775,9.225,12,9.5,12h8
		c0.275,0,0.5-0.225,0.5-0.5v-1c0-0.275-0.225-0.5-0.5-0.5h-8C9.225,10,9,10.225,9,10.5V11.5z"/>
	<path id="path_86_" style="fill-rule:evenodd;clip-rule:evenodd;" d="M9,8.5C9,8.775,9.225,9,9.5,9h8C17.775,9,18,8.775,18,8.5v-1
		C18,7.225,17.775,7,17.5,7h-8C9.225,7,9,7.225,9,7.5V8.5z"/>
</g>
</svg>
