<?xml version="1.0" encoding="utf-8"?>
<!-- Generator: Adobe Illustrator 19.1.0, SVG Export Plug-In . SVG Version: 6.00 Build 0)  -->
<svg version="1.1" id="Layer_1" xmlns="http://www.w3.org/2000/svg" xmlns:xlink="http://www.w3.org/1999/xlink" x="0px" y="0px"
	 viewBox="0 0 24 24" style="enable-background:new 0 0 24 24;" xml:space="preserve">
<g id="sort">
	<path d="M17,18V9h1.5c0.275,0,0.341-0.159,0.146-0.354l-2.293-2.49c-0.194-0.195-0.513-0.195-0.707,0l-2.293,2.49
		C13.159,8.841,13.225,9,13.5,9H15v9H17z M9,6v9H7.5c-0.275,0-0.341,0.17-0.146,0.364l2.293,2.495
		c0.194,0.195,0.513,0.197,0.707,0.003l2.293-2.499C12.841,15.168,12.775,15,12.5,15H11V6H9z"/>
</g>
</svg>
