<?xml version="1.0" encoding="utf-8"?>
<!-- Generator: Adobe Illustrator 21.1.0, SVG Export Plug-In . SVG Version: 6.00 Build 0)  -->
<svg version="1.1" id="Layer_1" xmlns="http://www.w3.org/2000/svg" xmlns:xlink="http://www.w3.org/1999/xlink" x="0px" y="0px"
	 viewBox="0 0 175 115.4" style="enable-background:new 0 0 175 115.4;" xml:space="preserve">
<style type="text/css">
	.st0{fill:#FFFFFF;}
</style>
<title>Asset 3</title>
<g id="Layer_2">
	<g id="Layer_1-2">
		<path class="st0" d="M53,40.1c-16.5,0-30,13.4-30,30s13.4,30,30,30s30-13.4,30-30l0,0C82.9,53.5,69.5,40.1,53,40.1z M59.8,68.6
			c0,0.1,0,0.3,0,0.4c0,0.5-0.2,0.6-0.7,0.7c-1.2,0-2.4,0-3.5,0c-0.7,0-0.7,0-0.7,0.7c0,5.3,0,10.5,0,15.8c0,1,0,1-1,1h-5.9
			c-0.7,0-0.7,0-0.7-0.7c0-1.7,0-3.5,0-5.2c0-3.5,0-7.1,0-10.6c0-0.1,0-0.2,0-0.4c0-0.5,0-0.5-0.5-0.5h-2.2c-0.6,0-0.7-0.1-0.7-0.7
			c0-1.8,0-3.6,0-5.4c0-0.5,0-0.5,0.5-0.5c0.8,0,1.6,0,2.3,0c0.5,0,0.5,0,0.5-0.5c0-1.1,0-2.2,0-3.2c0-1.4,0.3-2.9,1-4.1
			c1-2,3.1-3.3,5.4-3.3h0.1c0,0,0,0,0,0h6.5v0.1l0,0c0.1,0.1,0.1,0.3,0.1,0.4c0,1.7,0,3.4,0,5.2c0,0.5-0.1,0.6-0.6,0.6
			c-0.9,0-1.7,0-2.6,0h-0.6c-0.8-0.1-1.5,0.4-1.6,1.2c0,0.1,0,0.3,0,0.4c0,1,0,2.1,0,3.1c0,0.4,0.2,0.4,0.5,0.4h4.2
			c0.2,0,0.3,0,0.5,0c0.2,0,0.3,0.1,0.3,0.3C60.2,65.1,60,66.9,59.8,68.6L59.8,68.6z"/>
		<path class="st0" d="M122,40.1c-16.5,0-30,13.4-30,30s13.4,30,30,30s30-13.4,30-30S138.6,40.1,122,40.1
			C122,40.1,122,40.1,122,40.1z M136.2,61.7c-0.6,0.8-1.3,1.5-2.1,2.1c-0.1,0.1-0.2,0.3-0.2,0.4c0.1,3.9-1.1,7.8-3.5,11
			c-1.8,2.6-4.4,4.6-7.3,5.7c-2.3,0.9-4.8,1.3-7.4,1.2c-2.2-0.1-4.4-0.6-6.5-1.5c-0.7-0.3-1.4-0.7-2.1-1.2c1.6,0.1,3.2,0,4.7-0.4
			c1.5-0.4,3-1.2,4.2-2.2c-0.4,0-0.9-0.1-1.3-0.2c-2-0.5-3.6-1.9-4.3-3.9c-0.1-0.1,0-0.2,0.1-0.2c0.7,0.1,1.5,0.1,2.3-0.1l0.3-0.1
			c-2.8-0.6-4.8-3-4.8-5.9c0-0.2,0.1-0.1,0.2-0.1c0.7,0.4,1.4,0.6,2.2,0.6h0.2h0.1c-1.5-1-2.4-2.6-2.6-4.4c-0.2-1.3,0.1-2.6,0.8-3.7
			c0.3,0.3,0.6,0.7,0.9,1c2.1,2.2,4.8,3.9,7.7,4.7c1.3,0.4,2.5,0.6,3.9,0.7c0.2,0,0.1-0.1,0.1-0.2c-0.2-1.1-0.1-2.2,0.2-3.2
			c1.1-3.2,4.6-4.8,7.8-3.7c0.8,0.3,1.6,0.8,2.2,1.4c0.1,0.1,0.3,0.2,0.5,0.1c1.1-0.3,2.3-0.7,3.3-1.2l0.1-0.1c0,0,0.1-0.1,0.2,0
			s0,0.1,0,0.2c-0.4,1.2-1.2,2.2-2.2,2.9l-0.2,0.2c0,0,0,0,0,0.1l1.1-0.2c0.4-0.1,0.8-0.2,1.1-0.3c0.4-0.1,0.7-0.3,1.1-0.4
			C136.6,61.2,136.4,61.5,136.2,61.7z"/>
	</g>
</g>
</svg>
