<?xml version="1.0" encoding="utf-8"?>
<!-- Generator: Adobe Illustrator 21.1.0, SVG Export Plug-In . SVG Version: 6.00 Build 0)  -->
<svg version="1.1" id="Layer_1" xmlns="http://www.w3.org/2000/svg" xmlns:xlink="http://www.w3.org/1999/xlink" x="0px" y="0px"
	 viewBox="0 0 175 175" style="enable-background:new 0 0 175 175;" xml:space="preserve">
<style type="text/css">
	.st0{fill:#FFFFFF;}
</style>
<title>Asset 2</title>
<g id="Layer_2">
	<g id="Layer_1-2">
		<path class="st0" d="M76.1,97.3c4,0,6-2.7,6-8.1c0-5.4-2-8.1-6-8.1c-1.7-0.1-3.4,0.7-4.5,2.1c-1,1.4-1.5,3.4-1.5,6.1
			s0.5,4.7,1.5,6.1C72.7,96.6,74.4,97.4,76.1,97.3z"/>
		<path class="st0" d="M143.6,108.9c5.1-13.3,5.3-27.9,0.6-41.3H30.9c-4.7,13.4-4.5,28,0.5,41.3H143.6z M117.9,77.1h13.6v4.2h-8.6
			v5.3h8v4.2h-8V97h8.6v4.2h-13.6V77.1z M93.2,77.1H111v4.3h-6.4v19.8h-5V81.4h-6.4V77.1z M67.8,79.9c1.9-2.1,4.7-3.2,8.3-3.2
			s6.4,1.1,8.3,3.2c1.9,2.1,2.9,5.2,2.9,9.2c0,4-1,7.1-2.9,9.2c-1.9,2.1-4.7,3.2-8.3,3.2c-3.6,0-6.4-1.1-8.3-3.2
			c-1.9-2.1-2.9-5.2-2.9-9.3C64.9,85,65.9,82,67.8,79.9L67.8,79.9z M47.7,91.4c0.2,0.8,0.5,1.8,0.8,3c0.3,1.1,0.4,1.9,0.5,2.4
			c0.3-1.8,0.7-3.6,1.2-5.3l4.5-14.4h5l-8,24.1h-5.4l-8-24.1h5L47.7,91.4z"/>
		<path class="st0" d="M142.3,63.1c-13.5-30.3-48.9-43.9-79.2-30.5c-13.6,6-24.4,16.9-30.5,30.5H142.3z M128,52.6l1.4-2.9l1.4,2.9
			l3.2,0.5l-2.3,2.3l0.5,3.2l-2.9-1.5l-2.9,1.5l0.5-3.2l-2.3-2.3L128,52.6z M111.2,52.6l1.4-2.9l1.4,2.9l3.2,0.5l-2.3,2.3l0.5,3.2
			l-2.9-1.5l-2.9,1.5l0.5-3.2l-2.3-2.3L111.2,52.6z M94.4,52.6l1.5-2.9l1.4,2.9l3.2,0.5l-2.3,2.3l0.5,3.2L95.9,57L93,58.5l0.5-3.2
			l-2.4-2.3L94.4,52.6z M77.7,52.6l1.4-2.9l1.4,2.9l3.2,0.5l-2.3,2.3l0.5,3.2L79.1,57l-2.8,1.5l0.5-3.2l-2.3-2.3L77.7,52.6z
			 M60.9,52.6l1.4-2.9l1.4,2.9l3.2,0.5l-2.3,2.3l0.5,3.2l-2.9-1.5l-2.9,1.5l0.5-3.2l-2.3-2.3L60.9,52.6z M45.6,49.7l1.4,2.9l3.2,0.5
			l-2.3,2.3l0.5,3.2l-2.9-1.5l-2.9,1.5l0.5-3.2l-2.3-2.3l3.2-0.5L45.6,49.7z"/>
		<path class="st0" d="M33.3,113.4c14.3,29.9,50.2,42.5,80.1,28.2c12.3-5.9,22.3-15.9,28.2-28.2H33.3z M48.4,126.9l-2.9-1.5
			l-2.9,1.5l0.5-3.2l-2.3-2.3l3.2-0.5l1.4-2.9l1.4,2.9l3.2,0.5l-2.3,2.3L48.4,126.9z M65.2,126.9l-2.9-1.5l-2.9,1.5l0.5-3.2
			l-2.3-2.3l3.2-0.5l1.4-2.9l1.4,2.9l3.2,0.5l-2.3,2.3L65.2,126.9z M82,126.9l-2.9-1.5l-2.9,1.5l0.5-3.2l-2.3-2.3l3.2-0.5l1.4-2.9
			l1.4,2.9l3.2,0.5l-2.3,2.3L82,126.9z M98.7,126.9l-2.8-1.5l-2.9,1.5l0.5-3.2l-2.3-2.3l3.2-0.5l1.4-2.9l1.4,2.9l3.2,0.5l-2.3,2.3
			L98.7,126.9z M115.5,126.9l-2.9-1.5l-2.9,1.5l0.5-3.2l-2.3-2.3l3.2-0.5l1.4-2.9l1.4,2.9l3.2,0.5l-2.3,2.3L115.5,126.9z
			 M129.4,125.3l-2.9,1.5l0.5-3.2l-2.3-2.3l3.2-0.5l1.4-2.9l1.4,2.9l3.2,0.5l-2.3,2.3l0.5,3.2L129.4,125.3z"/>
	</g>
</g>
</svg>
