<?xml version="1.0" encoding="utf-8"?>
<!-- Generator: Adobe Illustrator 21.1.0, SVG Export Plug-In . SVG Version: 6.00 Build 0)  -->
<svg version="1.1" id="Layer_1" xmlns="http://www.w3.org/2000/svg" xmlns:xlink="http://www.w3.org/1999/xlink" x="0px" y="0px"
	 viewBox="0 0 200 200" style="enable-background:new 0 0 200 200;" xml:space="preserve">
<style type="text/css">
	.st0{fill:#010201;}
	.st1{fill:#010101;}
	.st2{fill:none;stroke:#000000;stroke-width:5;stroke-miterlimit:10;}
	.st3{fill:#FFFFFF;}
	.st4{enable-background:new    ;}
	.st5{fill:#F04B24;}
	.st6{fill:none;stroke:#F04B24;stroke-width:5;stroke-miterlimit:10;}
	.st7{fill:#010201;stroke:#010201;stroke-width:4;stroke-miterlimit:10;}
	.st8{fill:none;stroke:#010201;stroke-width:5;stroke-miterlimit:10;}
</style>
<g>
	<path class="st0" d="M1011.5,227.2h-78.9c-17.3,0-31.4,14.1-31.4,31.4v4.1c0,17.3,14.1,31.4,31.4,31.4h7.2
		c7.3,20,7.7,20.1,9.5,20.1s2.2,0,9.9-20.1h25.6c7.3,20,7.7,20.1,9.5,20.1s2.2,0,9.9-20.1h7.2c17.3,0,31.4-14.1,31.4-31.4v-4.1
		C1042.9,241.3,1028.8,227.2,1011.5,227.2z"/>
	<path class="st0" d="M994.3,316.1c-3.4,0-3.9-1-10.9-20.1h-22.9c-7.4,19.1-8,20.1-11.3,20.1c-3.4,0-3.9-1-10.9-20.1h-5.8
		c-18.4,0-33.4-15-33.4-33.4v-4.1c0-18.4,15-33.4,33.4-33.4h78.9c18.4,0,33.4,15,33.4,33.4v4.1c0,18.4-15,33.4-33.4,33.4h-5.9
		C998.2,315.4,997.7,316.1,994.3,316.1z M957.8,292.1h28.4l0.5,1.3c3.5,9.5,6.4,17.5,7.5,18.7c0.1,0,0.1,0,0.2,0
		c1.1-1.3,4.3-9.3,8-18.8l0.5-1.3h8.6c16.2,0,29.4-13.2,29.4-29.4v-4.1c0-16.2-13.2-29.4-29.4-29.4h-78.9
		c-16.2,0-29.4,13.2-29.4,29.4v4.1c0,16.2,13.2,29.4,29.4,29.4h8.6l0.5,1.3c3.5,9.5,6.4,17.5,7.5,18.7c0.1,0,0.1,0,0.2,0
		c1.1-1.3,4.3-9.3,8-18.8L957.8,292.1z"/>
</g>
<path d="M234.2,498.4l-12,5.6l-33.8,15.8l57.1,122.5l33.8-15.8l12-5.6l33.8-15.8L268,482.6L234.2,498.4z M223.9,507.6l12-5.6
	l27.1-12.7l-4.1,13.7l-18.5,8.6l-12,5.6l-18.5,8.6l-13.2-5.7L223.9,507.6z M194.4,521.4L194.4,521.4L194.4,521.4L194.4,521.4z
	 M319.2,603.4l-29.6,13.8l-12,5.6L248,636.6l-52.2-111.9l13.7,5.9l20.6-9.6l12-5.6l20.6-9.6l4.3-14.3L319.2,603.4z M265.5,488.3
	L265.5,488.3L265.5,488.3L265.5,488.3z"/>
<g>
	<path class="st1" d="M145.6,114.2c-12.2-22.3-24.3-44.7-36.5-67c-0.7-1.3-1.5-2.6-2.7-3.5c-0.5,0-0.9,0-1.4,0
		c-5.7,1.5-9.6,5.4-13.1,9.7c-4.4,5.4-8.5,11.1-12.3,16.9c-3.2,4.8-7,9-12.1,11.7c-3.6,1.9-7.1,3.9-10.6,5.8
		c-9.6,5.2-19.1,10.4-28.6,15.8c-5.3,3.1-7,6.8-5.9,12.7c0.1,0.7,0.2,1.4,0.1,2.1c-0.5,0.6-1,1.3-1.5,2c-1.1,1.3-1.7,2.9-2.1,4.5
		c-0.6,1.9-0.9,3.9-0.9,5.9c0,10.8,8.8,19.5,19.6,19.5c1.1,0,2.2-0.1,3.2-0.3c1.1,0.1,2.1,0.5,3.1,1.4c2.2,2,5,2.9,7.9,2
		c2-0.6,2.8,0.2,3.8,1.4c5,5.8,10,11.7,15.1,17.4c2.6,2.9,4.6,7.8,7.9,8.1c3.2,0.3,6.7-3.3,10.1-5.2c0.1-0.1,0.2-0.1,0.3-0.2
		c1.8-0.7,2.3-1.6,0.7-3.2c-2.1-2.1-3.8-4.6-5.9-6.6c-2.8-2.8-5.3-5.7-5.9-9.3c1.1-2.2,1.3-5.2,0.3-8.2c-0.6-1.9-1.6-3.5-2.8-4.7
		c-0.1-0.8,0-1.5,0.4-2.1c1.7-2.4,5.5-3.4,8.3-5.1c0.5-0.3,1-0.6,1.5-0.9c11.2-7.1,23.3-10.6,36.7-9c7.3,0.9,14.3-0.5,20.9-3.9
		C147.4,119.7,147.9,118.4,145.6,114.2z M131.8,115.2c-6.5,2.2-13.2,2.9-19.9,2.8c-9.6-0.2-18.4,2.1-26.5,7.2c-4.7,3-7,2.5-11.1-1.2
		c-6.7-6.2-10.6-13.8-11.5-22.8c-0.3-3.7,1.1-6.8,4.4-8.2c11-4.7,17.9-13.6,24-23.2c2.7-4.2,6.3-7.7,10.1-10.9
		c1.1-1,1.8-1.6,2.8,0.2c9.7,17.9,19.4,35.9,29.1,53.7C134.3,114.8,132.9,114.9,131.8,115.2z"/>
	<path class="st1" d="M123,59.7c0.6,0.4,1.3,0.6,2,0.6c0.1,0,0.3,0,0.4,0c0.9-0.1,1.7-0.5,2.2-1.1l30.6-35.1l0,0
		c1.1-1.3,0.9-3.2-0.5-4.2s-3.5-0.8-4.6,0.5l-30.6,35.1c-0.5,0.6-0.8,1.4-0.7,2.2S122.4,59.2,123,59.7z"/>
	<path class="st1" d="M188.1,90.5c-0.5-0.7-1.2-1-1.9-1.1L145,88.1c-1.5-0.1-2.8,1.4-2.8,3.3s1.2,3.5,2.7,3.5l41.2,1.4
		c0.1,0,0.1,0,0.2,0c0.7,0,1.3-0.4,1.8-0.9c0.5-0.6,0.8-1.5,0.8-2.4S188.6,91.2,188.1,90.5z"/>
	<path class="st1" d="M133.7,73.8c0.4,0.8,1,1.5,1.9,1.8c0.3,0.1,0.7,0.2,1.1,0.2c0.5,0,1.1-0.1,1.6-0.3l35.4-15.7
		c1.7-0.8,2.5-2.8,1.7-4.5c-0.4-0.8-1-1.5-1.9-1.8s-1.8-0.3-2.6,0.1l-35.4,15.7C133.8,70,133,72,133.7,73.8z"/>
</g>
<g id="JUADeV.tif">
	
		<image style="overflow:visible;enable-background:new    ;" width="176" height="150" id="Layer_0" xlink:href="EBACDDC17D7D5D08.png"  transform="matrix(0.9943 0 0 1 -284 297)">
	</image>
</g>
<g id="_x35_rPaUE.tif">
	
		<image style="overflow:visible;enable-background:new    ;" width="165" height="147" id="Layer_0_1_" xlink:href="EBACDDC17D7D5D09.png"  transform="matrix(0.9939 0 0 0.9932 676.2198 679.2319)">
	</image>
</g>
<g id="sY1AYo.tif">
	
		<image style="overflow:visible;enable-background:new    ;" width="113" height="173" id="Layer_0_2_" xlink:href="EBACDDC17D7D5D0F.png"  transform="matrix(0.9912 0 0 0.9942 821.9492 673.444)">
	</image>
</g>
<g id="suOqSU.tif_1_">
	
		<image style="overflow:visible;enable-background:new    ;" width="116" height="111" id="Layer_0_6_" xlink:href="EBACDDC17D7D5D0A.png"  transform="matrix(0.9914 0 0 0.991 718.3333 122.3333)">
	</image>
</g>
<path d="M416.7,285.2l-70.5-32.9l-16.5,35.4l-16.1-34.4L284.1,267l-10.5,4.9l-29.5,13.8l49.9,107l29.5-13.8l5.5-2.6l37.1,17.3
	L416.7,285.2z M366.7,360.2L333,344.5l1.2-2.5l33.7,15.7L366.7,360.2z M337.9,310.6c1.5,0.7,2.1,2.5,1.4,4s-2.5,2.1-4,1.4
	s-2.1-2.5-1.4-4C334.6,310.6,336.4,309.9,337.9,310.6z M327.9,324.9c0.7-1.5,2.5-2.1,4-1.4s2.1,2.5,1.4,4s-2.5,2.1-4,1.4
	C327.9,328.2,327.2,326.4,327.9,324.9z M372.6,347.3l-33.7-15.7l1.2-2.5l33.7,15.7L372.6,347.3z M339.9,299.3c0.7-1.5,2.5-2.1,4-1.4
	s2.1,2.5,1.4,4s-2.5,2.1-4,1.4C339.8,302.5,339.2,300.8,339.9,299.3z M378.6,334.5l-33.7-15.7l1.2-2.5l33.7,15.7L378.6,334.5z
	 M384.6,321.7L350.9,306l1.2-2.5l33.7,15.7L384.6,321.7z M386.7,286.2l3.9,1.2l3.2-2.5l0.1,4.1l3.4,2.2l-3.8,1.3l-1.1,3.9l-2.5-3.2
	l-4,0.2l2.3-3.3L386.7,286.2z M370.1,278.5l3.9,1.2l3.2-2.5l0.1,4.1l3.4,2.2l-3.8,1.3l-1.1,3.9l-2.5-3.2l-4,0.2l2.3-3.3L370.1,278.5
	z M353.5,270.8l3.9,1.2l3.2-2.5l0.1,4.1l3.4,2.2l-3.8,1.3l-1.1,3.9l-2.5-3.2l-4,0.2l2.3-3.3L353.5,270.8z M336.1,278.6l66.9,31.2
	l-1.2,2.5l-66.9-31.2L336.1,278.6z M311.4,258.2L311.4,258.2L311.4,258.2L311.4,258.2z M275.1,275.1l10.5-4.9l23.7-11.1l-3.6,12
	l-16.2,7.5l-10.5,4.9l-16.2,7.5l-11.5-5L275.1,275.1z M249.3,287.2L249.3,287.2L249.3,287.2L249.3,287.2z M322.1,375.8l-25.8,12
	L250.6,290l11.9,5.2l18-8.4l10.5-4.9l18-8.4l3.7-12.5l14.7,31.5l-31.8,68.3l29.3,13.7L322.1,375.8z M327.4,340.3
	c-0.7,1.5-2.5,2.1-4,1.4s-2.1-2.5-1.4-4s2.5-2.1,4-1.4C327.4,337,328,338.8,327.4,340.3z M321.4,353.1c-0.7,1.5-2.5,2.1-4,1.4
	s-2.1-2.5-1.4-4s2.5-2.1,4-1.4C321.4,349.8,322.1,351.6,321.4,353.1z M360.7,373L327,357.3l1.2-2.5l33.7,15.7L360.7,373z"/>
<g>
	
		<rect x="269.6" y="468.3" transform="matrix(0.4226 -0.9063 0.9063 0.4226 -268.7874 598.7737)" class="st2" width="131.9" height="84.1"/>
	<rect x="348.5" y="436.5" transform="matrix(0.4226 -0.9063 0.9063 0.4226 -231.7277 593.7536)" width="3.2" height="84.5"/>
	<g>
		<rect x="347.9" y="477" transform="matrix(0.4226 -0.9063 0.9063 0.4226 -249.836 604.4763)" width="3.2" height="42.6"/>
		<ellipse transform="matrix(0.4226 -0.9063 0.9063 0.4226 -254.4496 569.8242)" cx="320" cy="484.6" rx="3.4" ry="3.4"/>
	</g>
	<g>
		<rect x="341" y="491.7" transform="matrix(0.4226 -0.9063 0.9063 0.4226 -267.1166 606.7199)" width="3.2" height="42.6"/>
		<ellipse transform="matrix(0.4226 -0.9063 0.9063 0.4226 -271.6379 572.1624)" cx="313.2" cy="499.3" rx="3.4" ry="3.4"/>
	</g>
	<g>
		<rect x="334.2" y="506.4" transform="matrix(0.4226 -0.9063 0.9063 0.4226 -284.3791 609.0237)" width="3.2" height="42.6"/>
		<ellipse transform="matrix(0.4226 -0.9063 0.9063 0.4226 -289.0072 574.4261)" cx="306.3" cy="514" rx="3.4" ry="3.4"/>
	</g>
	<g>
		<rect x="327.3" y="521.1" transform="matrix(0.4226 -0.9063 0.9063 0.4226 -301.6598 611.2673)" width="3.2" height="42.6"/>
		<ellipse transform="matrix(0.4226 -0.9063 0.9063 0.4226 -306.2277 576.5976)" cx="299.4" cy="528.6" rx="3.4" ry="3.4"/>
	</g>
	<g>
		<rect x="320.5" y="535.7" transform="matrix(0.4226 -0.9063 0.9063 0.4226 -318.862 613.553)" width="3.2" height="42.6"/>
		<ellipse transform="matrix(0.4226 -0.9063 0.9063 0.4226 -323.4903 578.8472)" cx="292.6" cy="543.3" rx="3.4" ry="3.4"/>
	</g>
	<polygon points="340.6,449 340.7,453.6 344.6,456.2 340.2,457.7 339,462.2 336.2,458.5 331.6,458.7 334.2,454.9 332.6,450.6 
		337,451.9 	"/>
	<polygon points="359.6,457.8 359.7,462.5 363.6,465 359.2,466.6 358,471 355.2,467.3 350.5,467.6 353.2,463.8 351.5,459.4 
		356,460.7 	"/>
	<polygon points="378.5,466.7 378.6,471.3 382.5,473.9 378.1,475.4 376.9,479.9 374.1,476.2 369.5,476.4 372.1,472.6 370.5,468.3 
		374.9,469.6 	"/>
</g>
<g>
	<path d="M469.3-169.5c-12.5-28-40.5-47.5-73.1-47.5s-60.6,19.5-73.1,47.5H469.3z M450.2-183.5l1.9-3.9l1.9,3.9l4.3,0.6l-3.1,3
		l0.7,4.3l-3.8-2l-3.8,2l0.7-4.3l-3.1-3L450.2-183.5z M427.8-183.5l1.9-3.9l1.9,3.9l4.3,0.6l-3.1,3l0.7,4.3l-3.8-2l-3.8,2l0.7-4.3
		l-3.1-3L427.8-183.5z M405.4-183.5l1.9-3.9l1.9,3.9l4.3,0.6l-3.1,3l0.7,4.3l-3.8-2l-3.8,2l0.7-4.3l-3.1-3L405.4-183.5z
		 M383.1-183.5l1.9-3.9l1.9,3.9l4.3,0.6l-3.1,3l0.7,4.3l-3.8-2l-3.8,2l0.7-4.3l-3.1-3L383.1-183.5z M360.7-183.5l1.9-3.9l1.9,3.9
		l4.3,0.6l-3.1,3l0.7,4.3l-3.8-2l-3.8,2l0.7-4.3l-3.1-3L360.7-183.5z M340.3-187.4l1.9,3.9l4.3,0.6l-3.1,3l0.7,4.3l-3.8-2l-3.8,2
		l0.7-4.3l-3.1-3l4.3-0.6L340.3-187.4z"/>
	<path d="M383.3-148.2c-3.2,0-5.6,1.1-7.2,3.3s-2.4,5.5-2.4,9.8s0.8,7.6,2.4,9.8c1.6,2.2,4,3.3,7.2,3.3c6.4,0,9.6-4.3,9.6-13
		C392.8-143.8,389.6-148.2,383.3-148.2z"/>
	<path d="M471.7-163.5h-151c-2.9,8.3-4.5,17.2-4.5,26.5c0,44.2,35.8,80,80,80s80-35.8,80-80C476.2-146.3,474.6-155.2,471.7-163.5z
		 M344.1-84.5l-3.8-2l-3.8,2l0.7-4.3l-3.1-3l4.3-0.6l1.9-3.9l1.9,3.9l4.3,0.6l-3.1,3L344.1-84.5z M340.5-115.7l-12.8-38.7h8.1
		l7.1,23c0.4,1.4,0.8,2.9,1.2,4.8c0.4,1.8,0.7,3.1,0.8,3.8c0.2-1.6,0.8-4.5,1.9-8.5l7.2-23h8.1l-12.9,38.7h-8.7L340.5-115.7
		L340.5-115.7z M366.5-84.5l-3.8-2l-3.8,2l0.7-4.3l-3.1-3l4.3-0.6l1.9-3.9l1.9,3.9l4.3,0.6l-3.1,3L366.5-84.5z M388.8-84.5l-3.8-2
		l-3.8,2l0.7-4.3l-3.1-3l4.3-0.6l1.9-3.9l1.9,3.9l4.3,0.6l-3.1,3L388.8-84.5z M383.2-115.2c-5.8,0-10.2-1.7-13.4-5.2
		s-4.7-8.4-4.7-14.8c0-6.4,1.6-11.4,4.7-14.8c3.1-3.4,7.6-5.1,13.4-5.1s10.3,1.7,13.3,5.1c3.1,3.4,4.6,8.3,4.6,14.8
		c0,6.4-1.6,11.3-4.7,14.8S389-115.2,383.2-115.2z M411.2-84.5l-3.8-2l-3.8,2l0.7-4.3l-3.1-3l4.3-0.6l1.9-3.9l1.9,3.9l4.3,0.6
		l-3.1,3L411.2-84.5z M405.4-147.6v-6.8H434v6.8h-10.3v31.9h-8v-31.9H405.4z M433.6-84.5l-3.8-2l-3.8,2l0.7-4.3l-3.1-3l4.3-0.6
		l1.9-3.9l1.9,3.9l4.3,0.6l-3.1,3L433.6-84.5z M455.9-84.5l-3.8-2l-3.8,2l0.7-4.3l-3.1-3l4.3-0.6l1.9-3.9l1.9,3.9l4.3,0.6l-3.1,3
		L455.9-84.5z M460.6-139.2v6.7h-12.8v10h13.8v6.8h-21.8v-38.7h21.8v6.7h-13.8v8.5H460.6z"/>
</g>
<rect x="254.4" y="131.4" class="st3" width="152.7" height="6"/>
<g>
	<path d="M313.1,110.6c4.7,0,7-3.2,7-9.5s-2.3-9.5-7-9.5c-2.3,0-4.1,0.8-5.3,2.4c-1.2,1.6-1.8,4-1.8,7.1s0.6,5.5,1.8,7.1
		C309,109.8,310.8,110.6,313.1,110.6z"/>
	<path d="M391.9,124.2c3-7.8,4.6-16.2,4.6-25c0-8.1-1.4-16-4-23.2H260.2c-2.6,7.3-4,15.1-4,23.2c0,8.8,1.6,17.3,4.6,25H391.9z
		 M362,87h15.9v4.9h-10v6.2h9.3v4.9h-9.3v7.3h10v4.9H362V87z M333.1,87h20.8v5h-7.5v23.2h-5.8V92h-7.5V87z M303.4,90.3
		c2.3-2.5,5.5-3.7,9.8-3.7c4.2,0,7.5,1.2,9.7,3.7s3.4,6.1,3.4,10.8c0,4.7-1.1,8.2-3.4,10.8c-2.3,2.5-5.5,3.8-9.7,3.8
		s-7.5-1.3-9.7-3.8c-2.3-2.5-3.4-6.1-3.4-10.8C300,96.3,301.1,92.8,303.4,90.3z M279.9,103.8c0.3,1,0.6,2.1,0.9,3.5
		c0.3,1.3,0.5,2.2,0.6,2.7c0.1-1.2,0.6-3.3,1.4-6.2L288,87h5.9l-9.4,28.2h-6.4L268.8,87h5.9L279.9,103.8z"/>
	<path d="M390.5,70.6C379.6,46.1,355,29,326.4,29s-53.2,17.1-64.1,41.7L390.5,70.6L390.5,70.6z M373.7,58.4l1.7-3.4l1.7,3.4l3.8,0.5
		l-2.7,2.6l0.6,3.7l-3.4-1.8l-3.4,1.8l0.6-3.7l-2.7-2.6L373.7,58.4z M354.1,58.4l1.7-3.4l1.7,3.4l3.8,0.5l-2.7,2.6l0.6,3.7l-3.4-1.8
		l-3.4,1.8l0.6-3.7l-2.7-2.6L354.1,58.4z M334.5,58.4l1.7-3.4l1.7,3.4l3.8,0.5l-2.7,2.6l0.6,3.7l-3.4-1.8l-3.4,1.8l0.6-3.7l-2.7-2.6
		L334.5,58.4z M314.9,58.4l1.7-3.4l1.7,3.4l3.8,0.5l-2.7,2.6l0.6,3.7l-3.4-1.8l-3.4,1.8l0.6-3.7l-2.7-2.6L314.9,58.4z M295.3,58.4
		L297,55l1.7,3.4l3.8,0.5l-2.7,2.6l0.6,3.7l-3.4-1.8l-3.4,1.8l0.6-3.7l-2.7-2.6L295.3,58.4z M277.4,54.9l1.7,3.4l3.8,0.5l-2.7,2.6
		l0.6,3.7l-3.4-1.8l-3.4,1.8l0.6-3.7l-2.7-2.6l3.8-0.5L277.4,54.9z"/>
	<path d="M263.1,129.5c11.3,23.6,35.4,39.9,63.3,39.9s52-16.3,63.3-39.9H263.1z M280.7,145.2l-3.4-1.8l-3.4,1.8l0.6-3.7l-2.7-2.6
		l3.8-0.5l1.7-3.4l1.7,3.4l3.8,0.5l-2.7,2.6L280.7,145.2z M300.3,145.2l-3.4-1.8l-3.4,1.8l0.6-3.7l-2.7-2.6l3.8-0.5l1.7-3.4l1.7,3.4
		l3.8,0.5l-2.7,2.6L300.3,145.2z M319.9,145.2l-3.4-1.8l-3.4,1.8l0.6-3.7l-2.7-2.6l3.8-0.5l1.7-3.4l1.7,3.4l3.8,0.5l-2.7,2.6
		L319.9,145.2z M339.5,145.2l-3.4-1.8l-3.4,1.8l0.6-3.7l-2.7-2.6l3.8-0.5l1.7-3.4l1.7,3.4l3.8,0.5l-2.7,2.6L339.5,145.2z
		 M359.2,145.2l-3.4-1.8l-3.4,1.8l0.6-3.7l-2.7-2.6l3.8-0.5l1.7-3.4l1.7,3.4l3.8,0.5l-2.7,2.6L359.2,145.2z M375.4,143.4l-3.4,1.8
		l0.6-3.7l-2.7-2.6l3.8-0.5l1.7-3.4l1.7,3.4l3.8,0.5l-2.7,2.6l0.6,3.7L375.4,143.4z"/>
</g>
<rect x="77.7" y="-87.9" class="st3" width="152.7" height="6"/>
<circle cx="154" cy="-115.5" r="80"/>
<text transform="matrix(0.9777 0 0 1 88.3809 -96.1904)" class="st3" style="font-family:'OpenSans-Bold'; font-size:45px; letter-spacing:4.1;">Vote</text>
<g>
	<g>
		<polygon class="st3" points="98.1,-165.9 100.1,-162 104.3,-161.4 101.2,-158.4 102,-154.1 98.1,-156.1 94.3,-154.1 95,-158.4 
			91.9,-161.4 96.2,-162 		"/>
		<polygon class="st3" points="120.5,-165.9 122.4,-162 126.7,-161.4 123.6,-158.4 124.3,-154.1 120.5,-156.1 116.7,-154.1 
			117.4,-158.4 114.3,-161.4 118.6,-162 		"/>
		<polygon class="st3" points="142.9,-165.9 144.8,-162 149.1,-161.4 146,-158.4 146.7,-154.1 142.9,-156.1 139,-154.1 
			139.8,-158.4 136.7,-161.4 141,-162 		"/>
		<polygon class="st3" points="165.2,-165.9 167.1,-162 171.4,-161.4 168.3,-158.4 169.1,-154.1 165.2,-156.1 161.4,-154.1 
			162.1,-158.4 159,-161.4 163.3,-162 		"/>
		<polygon class="st3" points="187.6,-165.9 189.5,-162 193.8,-161.4 190.7,-158.4 191.4,-154.1 187.6,-156.1 183.8,-154.1 
			184.5,-158.4 181.4,-161.4 185.7,-162 		"/>
		<polygon class="st3" points="209.9,-165.9 211.9,-162 216.1,-161.4 213,-158.4 213.8,-154.1 209.9,-156.1 206.1,-154.1 
			206.9,-158.4 203.8,-161.4 208,-162 		"/>
	</g>
	<g>
		<polygon class="st3" points="98.1,-74.8 100.1,-70.9 104.3,-70.3 101.2,-67.3 102,-63 98.1,-65 94.3,-63 95,-67.3 91.9,-70.3 
			96.2,-70.9 		"/>
		<polygon class="st3" points="120.5,-74.8 122.4,-70.9 126.7,-70.3 123.6,-67.3 124.3,-63 120.5,-65 116.7,-63 117.4,-67.3 
			114.3,-70.3 118.6,-70.9 		"/>
		<polygon class="st3" points="142.9,-74.8 144.8,-70.9 149.1,-70.3 146,-67.3 146.7,-63 142.9,-65 139,-63 139.8,-67.3 
			136.7,-70.3 141,-70.9 		"/>
		<polygon class="st3" points="165.2,-74.8 167.1,-70.9 171.4,-70.3 168.3,-67.3 169.1,-63 165.2,-65 161.4,-63 162.1,-67.3 
			159,-70.3 163.3,-70.9 		"/>
		<polygon class="st3" points="187.6,-74.8 189.5,-70.9 193.8,-70.3 190.7,-67.3 191.4,-63 187.6,-65 183.8,-63 184.5,-67.3 
			181.4,-70.3 185.7,-70.9 		"/>
		<polygon class="st3" points="209.9,-74.8 211.9,-70.9 216.1,-70.3 213,-67.3 213.8,-63 209.9,-65 206.1,-63 206.9,-67.3 
			203.8,-70.3 208,-70.9 		"/>
	</g>
</g>
<rect x="77.7" y="-148" class="st3" width="152.7" height="6"/>
<rect x="77.7" y="-83.9" class="st3" width="152.7" height="6"/>
<g id="Tq0s7Q.tif">
	
		<image style="overflow:visible;enable-background:new    ;" width="162" height="188" id="Layer_0_4_" xlink:href="EBACDDC17D7D5D0B.png"  transform="matrix(0.9938 0 0 1 706.8506 229)">
	</image>
</g>
<g>
	<circle class="st5" cx="-134.2" cy="341.2" r="14.5"/>
	<polygon class="st5" points="-109.1,391.6 -116.4,360.8 -116.9,361.2 -116.9,360.5 -152.9,360.5 -152.8,361.4 -160,391.6 
		-148.2,401.2 -142.9,447 -122.9,447 -119.6,400.2 	"/>
</g>
<g>
	<path class="st6" d="M787.6,102.2c-3.4-2.7-25.8-2.5-42.9-1.7c1.6-5.4,5.8-20.8,5.2-24.9c-1.2-7.8-12.9-12-17.6-7.3
		c3.1,16.6-9,30.2-11.5,33.9c-0.5,0-0.8,0.1-0.8,0.1v58c0,0,48.8,5.3,53.7,3C778.4,160.8,793.9,107.2,787.6,102.2z"/>
	<rect x="697.1" y="99.3" class="st5" width="23.2" height="64.6"/>
</g>
<path class="st0" d="M619.8,91.1c0.3-1.5,0.3-2.9,0.1-4.1c0-0.2,0-0.5,0-0.7c-2.5-11.7-11.1-14-21.3-13.8c-6.2,0.1-12.3,0-18.9,0
	c0.6-2.7,1.2-5,1.7-7.4c2.9-12.5-3-24.7-14.4-29.8c-7.9-3.5-14.7,1.1-14.3,9.6c0.5,12.5-2.9,23.7-11.8,32.8
	c-1.4,1.4-2.8,2.2-4.9,2.5c-9.2,1.1-18.3,1.4-27.3-1.2c-3.6-1-6,0.1-6.7,4.4c-2.8,16.6-4.4,33.2-2.1,50c1,6.8,1.5,10.4,3.3,12.5
	c0.9,2.4,8.6,4.1,17.9,3.7c1.5-0.1,2.9-0.2,4.3-0.3l0.8-0.1c0,0,0,0,0.1,0c1.7-0.2,3.3-0.5,4.7-0.8c0.7-0.1,1.3-0.3,1.9-0.5
	c2.1-0.6,3.8-1.3,4.8-2.1c6.1-2.1,12.5-1.5,18.8-1.2c12.3,0.6,24.7,0.5,37-0.2c9.2-0.5,13-3.7,14.5-12.8c0.3-1.8,0.8-3.2,2-4.7
	c2.8-3.4,8.4-24.2,7.7-28.6c-0.2-1-0.2-1.9-0.1-2.8C618.6,94.6,619.4,93,619.8,91.1z M529.3,139.9c-5.6,1.1-11.2,0.6-16.8,0.1
	c-2.5-0.2-2.8-1.9-3.2-4c-3.4-15.1-1.5-30.2,0.3-45.2c0.2-1.7,0.7-2.4,2.7-2c5.4,1.1,10.9,1.1,16.3,0.7c2.2-0.2,3,0.1,2.6,2.8
	c-0.6,4.9-0.5,9.9-0.7,13.2c0.1,10.9,0,20.3,2.2,29.5C533.5,138.2,532.3,139.3,529.3,139.9z M608.8,99.6c1.6,2.5,0.8,6-1.7,7.5
	c-3.4,2-3.4,4.5-2.7,7.6c0.2,1.2,0.8,2.8,0.3,3.6c-3.3,4.8-5.7,9.7-6.3,15.6c-0.2,2-3.3,1.8-5.1,1.9c-7.2,0.3-14.5,0.5-21.7,0.4
	c-8.8-0.1-17.7,0.3-26.5-0.8c-2.4-0.3-3.6-0.7-4-3.5c-2-13.2-2.5-26.4-0.9-39.6c0.2-1.5,0.6-2.6,1.8-3.6
	c14-11.4,20.3-26.2,19.6-44.2c0-0.5,0.2-1,0.3-1.5c8.8,2.8,13.3,10.8,11.1,19.9c-0.9,3.8-1.9,7.5-2.1,11.4c-0.3,6.4,1.4,8.1,7.7,7.3
	c8.5-1,16.9-1.3,25.4,0c6.5,1,8.4,4.6,5.2,10.3C607.5,94.7,606.9,96.6,608.8,99.6z"/>
<g>
	<circle class="st0" cx="538.2" cy="337.6" r="10.5"/>
	<polygon class="st0" points="550.7,352.1 550.7,351.6 524.7,351.6 524.8,352.2 519.6,374 528.1,381 531.9,414 546.4,414 
		548.7,380.2 556.4,374 551,351.8 	"/>
	<circle class="st0" cx="582.3" cy="337.6" r="10.5"/>
	<polygon class="st0" points="594.8,352.1 594.8,351.6 568.8,351.6 568.8,352.2 563.6,374 572.2,381 576,414 590.5,414 592.8,380.2 
		600.4,374 595.1,351.8 	"/>
	<path class="st0" d="M547.3,261.7c-3.1-0.5-6.2-0.4-9.3,0c-2.3,0.3-2.9-0.3-2.8-2.7c0.1-1.4,0.4-2.8,0.8-4.2
		c0.8-3.3-0.9-6.3-4.1-7.3c0,0.2-0.1,0.4-0.1,0.5c0.3,6.6-2,12-7.2,16.2c-0.4,0.4-0.6,0.8-0.7,1.3c-0.6,4.9-0.4,9.7,0.3,14.5
		c0.2,1,0.6,1.2,1.5,1.3c3.2,0.4,6.5,0.3,9.7,0.3c2.7,0,5.3,0,8-0.1c0.7,0,1.8,0,1.9-0.7c0.2-2.2,1.1-4,2.3-5.7
		c0.2-0.3,0-0.9-0.1-1.3c-0.2-1.1-0.3-2.1,1-2.8c0.9-0.6,1.2-1.9,0.6-2.8c-0.7-1.1-0.5-1.8,0.1-2.8
		C550.4,263.3,549.7,262,547.3,261.7z"/>
	<path class="st0" d="M592.7,249.4c-3.2-0.4-6.5-0.3-9.7-0.3c-2.7,0-5.3,0-8,0.1c-0.7,0-1.8,0-1.9,0.7c-0.2,2.2-1.1,4-2.3,5.7
		c-0.2,0.3,0,0.9,0.1,1.3c0.2,1.1,0.3,2.1-1,2.8c-0.9,0.6-1.2,1.9-0.6,2.8c0.7,1.1,0.5,1.8-0.1,2.8c-1.2,2.1-0.5,3.4,1.9,3.8
		c3.1,0.5,6.2,0.4,9.3,0c2.3-0.3,2.9,0.3,2.8,2.7c-0.1,1.4-0.4,2.8-0.8,4.2c-0.8,3.3,0.9,6.3,4.1,7.3c0-0.2,0.1-0.4,0.1-0.5
		c-0.3-6.6,2-12,7.2-16.2c0.4-0.4,0.6-0.8,0.7-1.3c0.6-4.9,0.4-9.7-0.3-14.5C594,249.7,593.6,249.6,592.7,249.4z"/>
	<path class="st0" d="M520.4,270.4c0.1-1.2,0-3,0.3-4.8c0.1-1-0.2-1.1-1-1c-2,0.2-4,0.1-6-0.3c-0.7-0.1-0.9,0.1-1,0.7
		c-0.7,5.5-1.4,11-0.1,16.6c0.2,0.8,0.3,1.4,1.2,1.5c2.1,0.2,4.1,0.4,6.2,0c1.1-0.2,1.5-0.6,1.3-1.8
		C520.4,277.8,520.4,274.4,520.4,270.4z"/>
	<path class="st0" d="M599.2,232.5h-78.9c-18.4,0-33.4,15-33.4,33.4v4.1c0,18.4,15,33.4,33.4,33.4h5.8c7,19.1,7.5,20.1,10.9,20.1
		c3.3,0,3.9-1,11.3-20.1h22.9c7,19.1,7.5,20.1,10.9,20.1c3.3,0,3.8-0.8,11.3-20.1h5.9c18.4,0,33.4-15,33.4-33.4v-4.1
		C632.6,247.5,617.6,232.5,599.2,232.5z M553.2,265.1c-0.1,0.7-0.4,1.3-0.8,1.7c0,0.3,0,0.7,0,1c0.3,1.6-1.8,9.2-2.8,10.5
		c-0.4,0.5-0.6,1-0.7,1.7c-0.6,3.3-2,4.5-5.3,4.7c-4.5,0.2-9.1,0.3-13.6,0.1c-2.3-0.1-4.7-0.3-6.9,0.4c-0.4,0.3-1,0.5-1.8,0.8
		c-0.2,0.1-0.5,0.1-0.7,0.2c-0.5,0.1-1.1,0.2-1.7,0.3l0,0h-0.3c-0.5,0.1-1,0.1-1.6,0.1c-3.4,0.1-6.2-0.5-6.6-1.4
		c-0.7-0.7-0.9-2.1-1.2-4.6c-0.9-6.2-0.3-12.3,0.8-18.4c0.3-1.6,1.2-2,2.5-1.6c3.3,0.9,6.6,0.8,10,0.4c0.8-0.1,1.3-0.4,1.8-0.9
		c3.3-3.4,4.5-7.5,4.3-12.1c-0.1-3.1,2.4-4.8,5.3-3.5c4.2,1.9,6.3,6.3,5.3,10.9c-0.2,0.9-0.4,1.7-0.6,2.7c2.4,0,4.7,0,6.9,0
		c3.7,0,6.9,0.8,7.8,5.1c0,0.1,0,0.2,0,0.3C553.3,264.1,553.3,264.6,553.2,265.1z M608.5,268.5c-0.3,1.6-1.2,2-2.5,1.6
		c-3.3-0.9-6.6-0.8-10-0.4c-0.8,0.1-1.3,0.4-1.8,0.9c-3.3,3.4-4.5,7.5-4.3,12.1c0.1,3.1-2.4,4.8-5.3,3.5c-4.2-1.9-6.3-6.3-5.3-10.9
		c0.2-0.9,0.4-1.7,0.6-2.7c-2.4,0-4.7,0-6.9,0c-3.7,0-6.9-0.8-7.8-5.1c0-0.1,0-0.2,0-0.3c-0.1-0.5-0.1-1,0-1.5
		c0.1-0.7,0.4-1.3,0.8-1.7c0-0.3,0-0.7,0-1c-0.3-1.6,1.8-9.2,2.8-10.5c0.4-0.5,0.6-1,0.7-1.7c0.6-3.3,2-4.5,5.3-4.7
		c4.5-0.2,9.1-0.3,13.6-0.1c2.3,0.1,4.7,0.3,6.9-0.4c0.4-0.3,1-0.5,1.8-0.8c0.2-0.1,0.5-0.1,0.7-0.2c0.5-0.1,1.1-0.2,1.7-0.3l0,0
		h0.3c0.5-0.1,1-0.1,1.6-0.1c3.4-0.1,6.2,0.5,6.6,1.4c0.7,0.7,0.9,2.1,1.2,4.6C610.1,256.3,609.5,262.4,608.5,268.5z"/>
	<path class="st0" d="M604.6,247.8c-2.1-0.2-4.1-0.4-6.2,0c-1.1,0.2-1.5,0.6-1.3,1.8c0.8,3.4,0.8,6.8,0.8,10.8c-0.1,1.2,0,3-0.3,4.8
		c-0.1,1,0.2,1.1,1,1c2-0.2,4-0.1,6,0.3c0.7,0.1,0.9-0.1,1-0.7c0.7-5.5,1.4-11,0.1-16.6C605.7,248.5,605.6,247.9,604.6,247.8z"/>
</g>
<path class="st7" d="M603.9,489.4H525c-17.3,0-31.4,14.1-31.4,31.4v4.1c0,17.3,14.1,31.4,31.4,31.4h7.2c7.3,20,7.7,20.1,9.5,20.1
	s2.2,0,9.9-20.1h25.6c7.3,20,7.7,20.1,9.5,20.1s2.2,0,9.9-20.1h7.2c17.3,0,31.4-14.1,31.4-31.4v-4.1
	C635.4,503.5,621.3,489.4,603.9,489.4z"/>
<g>
	<circle cx="543" cy="592.6" r="10.5"/>
	<polygon points="561.1,629 555.8,606.7 555.5,607 555.5,606.5 529.5,606.5 529.6,607.1 524.4,629 532.9,635.9 536.7,668.9 
		551.2,668.9 553.5,635.1 	"/>
</g>
<g>
	<circle cx="587.1" cy="592.6" r="10.5"/>
	<polygon points="605.2,629 599.9,606.7 599.6,607 599.6,606.5 573.6,606.5 573.6,607.1 568.4,629 577,635.9 580.8,668.9 
		595.3,668.9 597.6,635.1 	"/>
</g>
<g>
	<path class="st3" d="M557.9,520.1c0.1-0.5,0.1-1.1,0-1.5c0-0.1,0-0.2,0-0.3c-0.9-4.3-4.1-5.1-7.8-5.1c-2.3,0-4.5,0-6.9,0
		c0.2-1,0.4-1.8,0.6-2.7c1.1-4.6-1.1-9-5.3-10.9c-2.9-1.3-5.4,0.4-5.3,3.5c0.2,4.6-1.1,8.7-4.3,12.1c-0.5,0.5-1,0.8-1.8,0.9
		c-3.4,0.4-6.7,0.5-10-0.4c-1.3-0.4-2.2,0-2.5,1.6c-1,6.1-1.6,12.2-0.8,18.4c0.4,2.5,0.5,3.8,1.2,4.6c0.3,0.9,3.1,1.5,6.6,1.4
		c0.5,0,1.1-0.1,1.6-0.1h0.3l0,0c0.6-0.1,1.2-0.2,1.7-0.3c0.2,0,0.5-0.1,0.7-0.2c0.8-0.2,1.4-0.5,1.8-0.8c2.2-0.8,4.6-0.6,6.9-0.4
		c4.5,0.2,9.1,0.2,13.6-0.1c3.4-0.2,4.8-1.3,5.3-4.7c0.1-0.7,0.3-1.2,0.7-1.7c1-1.3,3.1-8.9,2.8-10.5c-0.1-0.4-0.1-0.7,0-1
		C557.5,521.3,557.8,520.8,557.9,520.1z M524.7,538c-2.1,0.4-4.1,0.2-6.2,0c-0.9-0.1-1-0.7-1.2-1.5c-1.3-5.5-0.6-11.1,0.1-16.6
		c0.1-0.6,0.3-0.9,1-0.7c2,0.4,4,0.4,6,0.3c0.8-0.1,1.1,0,1,1c-0.2,1.8-0.2,3.6-0.3,4.8c0,4,0,7.4,0.8,10.8
		C526.3,537.3,525.8,537.8,524.7,538z M553.9,523.2c0.6,0.9,0.3,2.2-0.6,2.8c-1.3,0.7-1.2,1.7-1,2.8c0.1,0.4,0.3,1,0.1,1.3
		c-1.2,1.7-2.1,3.6-2.3,5.7c-0.1,0.7-1.2,0.7-1.9,0.7c-2.7,0.1-5.3,0.2-8,0.1c-3.2,0-6.5,0.1-9.7-0.3c-0.9-0.1-1.3-0.3-1.5-1.3
		c-0.7-4.8-0.9-9.7-0.3-14.5c0.1-0.5,0.2-1,0.7-1.3c5.1-4.2,7.5-9.6,7.2-16.2c0-0.2,0.1-0.4,0.1-0.5c3.2,1,4.9,4,4.1,7.3
		c-0.3,1.4-0.7,2.8-0.8,4.2c-0.1,2.3,0.5,3,2.8,2.7c3.1-0.4,6.2-0.5,9.3,0c2.4,0.4,3.1,1.7,1.9,3.8
		C553.4,521.4,553.2,522.1,553.9,523.2z"/>
	<path class="st3" d="M570,520.7c-0.1,0.5-0.1,1.1,0,1.5c0,0.1,0,0.2,0,0.3c0.9,4.3,4.1,5.1,7.8,5.1c2.3,0,4.5,0,6.9,0
		c-0.2,1-0.4,1.8-0.6,2.7c-1.1,4.6,1.1,9,5.3,10.9c2.9,1.3,5.4-0.4,5.3-3.5c-0.2-4.6,1.1-8.7,4.3-12.1c0.5-0.5,1-0.8,1.8-0.9
		c3.4-0.4,6.7-0.5,10,0.4c1.3,0.4,2.2,0,2.5-1.6c1-6.1,1.6-12.2,0.8-18.4c-0.4-2.5-0.5-3.8-1.2-4.6c-0.3-0.9-3.1-1.5-6.6-1.4
		c-0.5,0-1.1,0.1-1.6,0.1h-0.3l0,0c-0.6,0.1-1.2,0.2-1.7,0.3c-0.2,0-0.5,0.1-0.7,0.2c-0.8,0.2-1.4,0.5-1.8,0.8
		c-2.2,0.8-4.6,0.6-6.9,0.4c-4.5-0.2-9.1-0.2-13.6,0.1c-3.4,0.2-4.8,1.3-5.3,4.7c-0.1,0.7-0.3,1.2-0.7,1.7c-1,1.3-3.1,8.9-2.8,10.5
		c0.1,0.4,0.1,0.7,0,1C570.5,519.4,570.2,520,570,520.7z M603.3,502.8c2.1-0.4,4.1-0.2,6.2,0c0.9,0.1,1,0.7,1.2,1.5
		c1.3,5.5,0.6,11.1-0.1,16.6c-0.1,0.6-0.3,0.9-1,0.7c-2-0.4-4-0.4-6-0.3c-0.8,0.1-1.1,0-1-1c0.2-1.8,0.2-3.6,0.3-4.8
		c0-4,0-7.4-0.8-10.8C601.7,503.4,602.2,503,603.3,502.8z M574.1,517.6c-0.6-0.9-0.3-2.2,0.6-2.8c1.3-0.7,1.2-1.7,1-2.8
		c-0.1-0.4-0.3-1-0.1-1.3c1.2-1.7,2.1-3.6,2.3-5.7c0.1-0.7,1.2-0.7,1.9-0.7c2.7-0.1,5.3-0.2,8-0.1c3.2,0,6.5-0.1,9.7,0.3
		c0.9,0.1,1.3,0.3,1.5,1.3c0.7,4.8,0.9,9.7,0.3,14.5c-0.1,0.5-0.2,1-0.7,1.3c-5.1,4.2-7.5,9.6-7.2,16.2c0,0.2-0.1,0.4-0.1,0.5
		c-3.2-1-4.9-4-4.1-7.3c0.3-1.4,0.7-2.8,0.8-4.2c0.1-2.3-0.5-3-2.8-2.7c-3.1,0.4-6.2,0.5-9.3,0c-2.4-0.4-3.1-1.7-1.9-3.8
		C574.5,519.4,574.8,518.6,574.1,517.6z"/>
</g>
<path class="st8" d="M826.8,496.8h-89.4c-18.2,0-33.1-14.9-33.1-33.1v-4.6c0-18.2,14.9-33.1,33.1-33.1h89.4
	c18.2,0,33.1,14.9,33.1,33.1v4.6C859.9,481.9,845,496.8,826.8,496.8z"/>
<polyline class="st8" points="748.6,497.5 757.3,519.5 766.6,497.5 "/>
<g>
	<path d="M49.9,275.5c-24,0-43.4,19.4-43.4,43.4s19.4,43.4,43.4,43.4s43.4-19.4,43.4-43.4S73.9,275.5,49.9,275.5z M59.8,316.8
		c0,0.2,0,0.4-0.1,0.6c-0.1,0.8-0.2,0.9-1,0.9c-1.7,0-3.4,0-5.1,0c-1.1,0-1.1,0-1.1,1c0,7.6,0,15.2,0,22.8c0,1.4,0,1.4-1.4,1.4
		c-2.9,0-5.7,0-8.6,0c-1,0-1,0-1-1.1c0-2.5,0-5.1,0-7.6c0-5.1,0-10.2,0-15.4c0-0.2,0-0.4,0-0.5c0-0.7-0.1-0.7-0.7-0.7
		c-1.1,0-2.1,0-3.2,0c-0.9,0-1-0.1-1-1c0-2.6,0-5.2,0-7.8c0-0.7,0.1-0.7,0.7-0.7c1.1,0,2.3,0,3.4,0c0.7,0,0.8-0.1,0.8-0.8
		c0-1.6,0-3.1,0-4.7c0-2.1,0.4-4.2,1.4-6c1.7-3,4.2-4.7,7.8-4.8h0.1c0,0,0,0,0-0.1c0.2,0,0.5,0,0.7,0c0.1,0,0.2,0,0.2,0
		c0.9,0,1.9,0,2.8,0c0.5,0,0.9,0,1.4,0c0.4,0,0.8,0,1.2,0c0.5,0,0.9,0,1.4,0c0.6,0,1.2,0,1.8,0v0.1l0,0c0.1,0.2,0.1,0.4,0.1,0.6
		c0,2.5,0,5,0,7.5c0,0.7-0.1,0.8-0.8,0.8c-1.3,0-2.5,0-3.8,0c-0.3,0-0.6,0-0.9,0c-1.5,0-2.2,0.7-2.3,2.2s0,3,0,4.6
		c0,0.5,0.3,0.6,0.7,0.6c2,0,4.1,0,6.1,0c0.2,0,0.5,0,0.7,0s0.4,0.1,0.4,0.4C60.3,311.8,60,314.3,59.8,316.8z"/>
	<path d="M149.9,275.5c-24,0-43.4,19.4-43.4,43.4s19.4,43.4,43.4,43.4s43.4-19.4,43.4-43.4C193.3,294.9,173.9,275.5,149.9,275.5z
		 M170.5,306.9c-0.9,1.1-1.9,2.1-3.1,3c-0.2,0.2-0.3,0.3-0.3,0.6c0.1,5.8-1.6,11.1-5,15.9c-2.7,3.8-6.2,6.6-10.5,8.3
		c-3.4,1.4-7,1.9-10.6,1.8c-3.3-0.1-6.4-0.9-9.4-2.2c-1.1-0.5-2.1-1-3.1-1.7c2.3,0.2,4.6,0,6.8-0.6s4.3-1.6,6.2-3.1
		c-0.7-0.1-1.3-0.1-1.9-0.3c-3-0.8-5.1-2.7-6.2-5.6c-0.1-0.2-0.1-0.3,0.2-0.2c1.1,0.2,2.2,0.1,3.3-0.1c0.1,0,0.2-0.1,0.4-0.1
		c-1.7-0.4-3.1-1.1-4.3-2.3c-1.7-1.7-2.7-3.8-2.7-6.2c0-0.3,0.1-0.2,0.3-0.1c1,0.5,2.1,0.8,3.2,0.9c0.1,0,0.2,0,0.4,0c0,0,0,0,0.1,0
		c-2.2-1.6-3.5-3.7-3.8-6.3c-0.2-1.9,0.2-3.7,1.1-5.4c0.4,0.5,0.8,0.9,1.3,1.4c3.1,3.3,6.8,5.5,11.2,6.8c1.8,0.5,3.7,0.8,5.6,1
		c0.3,0,0.2-0.2,0.2-0.3c-0.3-1.6-0.2-3.2,0.4-4.7c1.1-2.9,3.2-4.8,6.2-5.6c3.1-0.8,5.9,0,8.3,2.2c0.2,0.2,0.4,0.3,0.7,0.2
		c1.7-0.4,3.3-1,4.8-1.8c0.1,0,0.1,0,0.2-0.1c0.1,0,0.1-0.1,0.2,0c0.1,0.1,0,0.1,0,0.2c-0.6,1.8-1.7,3.1-3.2,4.2
		c-0.1,0.1-0.2,0.1-0.3,0.2c0,0,0,0,0,0.1c0.6-0.1,1.1-0.2,1.6-0.3c0.6-0.1,1.1-0.3,1.6-0.4c0.5-0.2,1-0.4,1.6-0.5
		C171.1,306,170.8,306.5,170.5,306.9z"/>
</g>
<circle cx="28.1" cy="505.4" r="30.1"/>
<circle cx="97.5" cy="505.4" r="30.1"/>
<path class="st3" d="M35.1,498.5c-0.2,0-0.3,0-0.5,0c-1.4,0-2.8,0-4.3,0c-0.3,0-0.5,0-0.5-0.4c0-1.1,0-2.1,0-3.2
	c0-1,0.6-1.5,1.6-1.5c0.2,0,0.4,0,0.6,0c0.9,0,1.8,0,2.6,0c0.5,0,0.6-0.1,0.6-0.6c0-1.7,0-3.5,0-5.2c0-0.1,0-0.3-0.1-0.4l0,0
	c0,0,0,0,0-0.1c-0.4,0-0.8,0-1.2,0c-0.3,0-0.6,0-1,0c-0.3,0-0.5,0-0.8,0s-0.6,0-1,0c-0.6,0-1.3,0-1.9,0c-0.1,0-0.1,0-0.2,0
	c-0.2,0-0.3,0-0.5,0l0,0c0,0,0,0-0.1,0c-2.4,0.1-4.2,1.2-5.4,3.3c-0.7,1.3-1,2.7-1,4.2c0,1.1,0,2.2,0,3.2c0,0.5,0,0.5-0.5,0.5
	c-0.8,0-1.6,0-2.4,0c-0.5,0-0.5,0.1-0.5,0.5c0,1.8,0,3.6,0,5.4c0,0.6,0,0.7,0.7,0.7s1.5,0,2.2,0c0.5,0,0.5,0,0.5,0.5
	c0,0.1,0,0.2,0,0.4c0,3.6,0,7.1,0,10.7c0,1.8,0,3.5,0,5.3c0,0.7,0,0.7,0.7,0.7c2,0,4,0,6,0c1,0,1,0,1-1c0-5.3,0-10.6,0-15.8
	c0-0.7,0-0.7,0.7-0.7c1.2,0,2.4,0,3.6,0c0.5,0,0.7-0.1,0.7-0.7c0-0.1,0-0.3,0-0.4c0.2-1.7,0.4-3.5,0.4-5.2
	C35.4,498.5,35.3,498.5,35.1,498.5z"/>
<g id="ToidlI.tif_1_">
	<g>
		<path class="st3" d="M84.6,494.4c0.3,0.3,0.6,0.7,0.9,1c2.2,2.3,4.7,3.8,7.7,4.7c1.3,0.4,2.6,0.6,3.9,0.7c0.2,0,0.1-0.1,0.1-0.2
			c-0.2-1.1-0.2-2.2,0.2-3.3c0.8-2,2.2-3.4,4.3-3.9c2.2-0.5,4.1,0,5.7,1.6c0.1,0.1,0.3,0.2,0.5,0.1c1.2-0.3,2.3-0.7,3.3-1.2
			c0,0,0.1,0,0.1-0.1c0,0,0.1-0.1,0.2,0c0.1,0,0,0.1,0,0.2c-0.4,1.2-1.2,2.2-2.3,2.9c-0.1,0.1-0.1,0.1-0.2,0.2c0,0,0,0,0,0.1
			c0.4-0.1,0.8-0.1,1.1-0.2c0.4-0.1,0.8-0.2,1.1-0.3c0.4-0.1,0.7-0.3,1.1-0.4c-0.2,0.3-0.4,0.6-0.6,0.9c-0.6,0.8-1.3,1.5-2.2,2.1
			c-0.2,0.1-0.2,0.2-0.2,0.4c0.1,4.1-1.1,7.7-3.5,11c-1.9,2.6-4.3,4.6-7.3,5.8c-2.4,0.9-4.8,1.3-7.4,1.2c-2.3-0.1-4.4-0.6-6.5-1.5
			c-0.7-0.3-1.5-0.7-2.2-1.2c1.6,0.1,3.2,0,4.7-0.4s3-1.1,4.3-2.2c-0.5,0-0.9-0.1-1.3-0.2c-2.1-0.6-3.5-1.9-4.3-3.9
			c-0.1-0.1,0-0.2,0.1-0.2c0.8,0.1,1.5,0.1,2.3-0.1c0.1,0,0.2,0,0.3-0.1c-1.2-0.3-2.2-0.8-3-1.6c-1.2-1.2-1.8-2.6-1.9-4.3
			c0-0.2,0.1-0.1,0.2-0.1c0.7,0.4,1.4,0.6,2.2,0.6c0.1,0,0.2,0,0.2,0s0,0,0.1,0c-1.5-1.1-2.4-2.6-2.6-4.4
			C83.7,496.8,84,495.5,84.6,494.4z"/>
	</g>
</g>
<g>
	<path class="st1" d="M-397.6-75c-0.3-2.1-1.9-3.3-4.1-4c-19.5-5.6-38.3-13.9-58.3-18c-1.3,0-2.7,0-4,0c-2.3,1-4.8,1-7.1,2
		c-16.1,7.3-32.2,14.5-48.4,21.6c-4.9,2.1-6.8,5.5-6.8,10.4c-0.1,5.8,0,11.7,0,17.5c0,8.6-0.1,8.5-8.2,12.1
		c-18.5,8.1-36.7,16.6-55.1,24.8c-2.9,1.3-5.9,2.4-7.4,5.6c0,35,0,70,0,105c0.3,0.4,0.6,0.7,1,1c0.7,0,1.3,0,2,0c31.3,0,62.7,0,94,0
		c1.3,0,2.7,0,4,0c9.7,0,19.3,0,29,0c7,0,14,0,21,0c16,0,32,0,48,0c0.1,0,0.2-0.1,0.3-0.3c0-0.1,0.1-0.2,0-0.3
		c0.3-0.1,0.5-0.2,0.7-0.3c0-0.7,0-1.3,0-2c0-58.3,0-116.7,0-175C-397.2-75-397.4-75-397.6-75z M-588.8,6.1c0-3.4,0.9-5.2,4.1-6.7
		c26.1-11.6,52.1-23.3,78.1-35.1c3.3-1.5,4.4-1.5,4.3,2.7c-0.2,20.5-0.1,41-0.1,61.4s-0.1,41,0.1,61.4c0,4-1.2,4.9-5,4.9
		c-25.5-0.2-51-0.2-76.4,0c-4.2,0-5.2-1.3-5.1-5.3C-588.7,61.7-588.7,33.9-588.8,6.1z M-452,55.8c0,11.7,0,23.3,0,35
		c0,2.2,0,3.6-3,3.6c-11.8-0.1-23.6,0.1-35.5,0.3c-2.3,0-3.6-0.2-3.6-3.1C-494,48.8-494,6-494-36.8c0-0.3,0.2-0.6,0.4-1.2
		c13.2,4.6,26.3,9.2,39.5,13.6c2.9,1,2.1,3,2.1,4.8C-452,5.5-452,30.7-452,55.8z M-450-31.7c-14.5-4.8-28.9-9.9-43.2-15.1
		c-3.5-1.3-6.6-1.3-9.9,0.5c-3.9,2.1-8.1,3.7-12.6,5.7c-0.2-1-0.3-1.3-0.3-1.7c0-7.2-2.2-15.5,0.8-21.1c2.9-5.4,11.9-6.3,18.2-9.2
		c10.5-4.9,21.2-9.5,31.8-14.3c2.2-1,4.2-1.2,6.6-0.4c16.5,5.5,33.1,10.9,49.7,16.1c2.9,0.9,3.7,2.2,3.7,5.2
		c-0.1,52.1-0.1,104.3,0,156.4c0,3.6-1.1,4.4-4.5,4.4c-9.8-0.2-19.7-0.3-29.5,0c-3.8,0.1-4.7-1.1-4.7-4.8c0.1-37.6,0-75.3,0.2-112.9
		C-443.6-27.9-445.3-30.1-450-31.7z"/>
	<path class="st1" d="M-426.2,18.8c2.7,0,4.2-1.6,4.2-4.4c0-2.6,0-5.3,0-7.9c0-2.8,0.1-5.6,0-8.4c-0.1-2.5-1.4-4-4-4.1
		s-4.1,1.3-4.1,3.9c-0.1,5.6,0,11.3,0,16.9C-430.2,17.3-428.7,18.8-426.2,18.8z"/>
	<path class="st1" d="M-422,27.5c-0.1-2.6-1.6-4-4.1-4c-2.4,0-4.1,1.3-4.1,4c0,5.5-0.1,11,0,16.4c0,2.6,1.4,4.1,4,4.1
		c2.5,0,4-1.4,4.1-4c0.1-2.8,0-5.6,0-8.5C-422,32.8-422,30.2-422,27.5z"/>
	<path class="st1" d="M-430.2-43.9c0.1,2.6,1.6,3.9,4.2,3.9c2.3-0.1,3.9-1.4,3.9-3.6c0.2-5.6,0.1-11.3,0-16.9c0-2.6-1.8-3.9-4.2-3.9
		c-2.5,0.1-3.9,1.5-3.9,4.1c0,2.5,0,5,0,7.5C-430.2-49.9-430.3-46.9-430.2-43.9z"/>
	<path class="st1" d="M-426.4,52.7c-2.3,0.1-3.7,1.3-3.8,3.7c-0.1,2.8,0,5.6,0,8.5s-0.1,5.6,0,8.4c0.1,2.4,1.4,3.7,3.8,3.7
		c2.6,0.1,4.3-1.2,4.3-3.7c0.2-5.6,0.1-11.3,0-16.9C-422.1,53.8-423.9,52.6-426.4,52.7z"/>
	<path class="st1" d="M-422.1-31.5c-0.2-2.6-1.8-3.8-4.4-3.7c-2.3,0.1-3.7,1.4-3.7,3.8c0,5.6-0.1,11.3,0,16.9c0,2.4,1.4,3.6,3.8,3.7
		c2.6,0.1,4.1-1.2,4.3-3.8c0.2-2.6,0-5.3,0-8C-422-25.6-421.9-28.6-422.1-31.5z"/>
	<path class="st1" d="M-577.8,19.7c0.4-0.1,0.9-0.2,1.4-0.3c19.3-6,38.7-12,58-17.9c2.8-0.9,4.3-2.8,3.3-5.7s-3.4-3.5-6.1-2.6
		c-6.2,1.9-12.3,3.9-18.5,5.8c-13,4-26,8-39,12.1c-2.4,0.7-4.4,2.1-3.9,4.9C-582.1,18.4-580.2,19.5-577.8,19.7z"/>
	<path class="st1" d="M-522.4,21.4c-9.1,1.9-18.2,3.8-27.3,5.7c-9.4,2-18.8,4-28.2,6c-2.7,0.6-4.7,1.8-4.4,4.9
		c0.2,2.6,2.1,3.6,4.6,3.8c0.7-0.2,1.5-0.4,2.3-0.6c18.3-3.8,36.7-7.7,55.1-11.5c3.1-0.6,6.3-1.6,5.3-5.6
		C-516.1,20-519.4,20.8-522.4,21.4z"/>
	<path class="st1" d="M-521,49c-6.5,0.7-12.9,1.4-19.4,2c-12.4,1.3-24.8,2.7-37.3,4c-2.2,0.2-3.9,0.9-4.5,3.2
		c-0.5,1.6,0.1,3,1.3,4.1c1.7,1.6,3.8,0.9,7.1,0.8c17-1.8,35.4-3.8,53.7-5.8c2.9-0.3,5.5-1.1,5.1-4.7C-515.5,49.1-518.1,48.6-521,49
		z"/>
	<path class="st1" d="M-521,77.1c-18.4,0-36.9,0-55.3,0c-3.1,0-5.9,0.4-5.9,4.3c0,4.1,3.1,4.1,6,4.1c9.1,0,18.3,0,27.4,0
		c9.3,0,18.6,0,27.9,0c3,0,6-0.2,5.9-4.2C-515.1,77.3-518,77.1-521,77.1z"/>
</g>
<image style="overflow:visible;enable-background:new    ;" width="200" height="200" xlink:href="../../123437-200.png"  transform="matrix(1 0 0 1 -593 382)">
</image>
<g id="DNigT9.tif">
	
		<image style="overflow:visible;" width="270" height="44" id="Layer_0_3_" xlink:href="EBACDDC17D7D5D07.png"  transform="matrix(0.24 0 0 0.24 67.6 94.72)">
	</image>
</g>
<g id="tTC0dD.tif">
	
		<image style="overflow:visible;" width="270" height="44" id="Layer_0_5_" xlink:href="EBACDDC17D7D5D18.png"  transform="matrix(0.24 0 0 0.24 67.6 94.72)">
	</image>
</g>
<g id="jqVK62.tif">
	
		<image style="overflow:visible;" width="270" height="44" id="Layer_0_7_" xlink:href="EBACDDC17D7D5D1B.png"  transform="matrix(0.24 0 0 0.24 67.6 94.72)">
	</image>
</g>
<image style="overflow:visible;" width="270" height="44" xlink:href="../../../MyProjects/WebApp/build/img/welcome/benefits/see-position.png"  transform="matrix(1.0965 0 0 1.0965 631.5118 -545.8522)">
</image>
<text transform="matrix(1 0 0 1 694.8276 -341.4299)" style="font-family:'OpenSans-Bold'; font-size:30px; letter-spacing:1;">9</text>
<text transform="matrix(1 0 0 1 861.91 -341.4302)" style="font-family:'OpenSans-Bold'; font-size:30px; letter-spacing:1;">7</text>
<path d="M834.7-364.7h-97.4c-7.2,0-13.1,5.9-13.1,13.1c0,7.2,5.9,13.1,13.1,13.1h97.4c7.2,0,13.1-5.9,13.1-13.1
	C847.8-358.8,841.9-364.7,834.7-364.7z M834.7-340.5h-29v-22.1h29c6.1,0,11.1,5,11.1,11.1S840.8-340.5,834.7-340.5z"/>
<g id="ar3ZW2.tif">
	
		<image style="overflow:visible;" width="72" height="119" id="Layer_0_8_" xlink:href="FFC0CF7231E7275.png"  transform="matrix(1 0 0 1 64 40)">
	</image>
</g>
<g id="_x35_u7M7j.tif">
	
		<image style="overflow:visible;" width="72" height="119" id="Layer_0_9_" xlink:href="FFC0CF7231E7273.png"  transform="matrix(1 0 0 1 64 40)">
	</image>
</g>
<g id="_x30_If4lx.tif">
	
		<image style="overflow:visible;" width="72" height="119" id="Layer_0_10_" xlink:href="FFC0CF7231E728D.png"  transform="matrix(1 0 0 1 64 40)">
	</image>
</g>
<path class="st1" d="M930.7-354.5c-1.5-1.5-3.6-1.3-5.4,0.4c-2.5,2.5-5,5-7.4,7.4c0-6.1,0-17.1,0-20.7c0-1.6-0.7-2.9-2.2-3.5
	c-1.4-0.6-2.7-0.3-3.6,0.5c-1.1,1-1.3,2.1-1.3,3.2c0,5.3,0,14.1,0,20.5c-2.6-2.6-5.1-5.1-7.7-7.7c-1.2-1.2-2.5-1.5-4-0.9
	c-1.4,0.6-2.1,1.7-2.1,2.9c0,1.5,0.5,2.4,1.3,3.2c4.4,4.4,8.8,8.8,13.1,13.1c2,2,3.9,2,5.9,0c4.3-4.3,8.7-8.7,13-13
	C932.1-350.8,932.2-353,930.7-354.5z"/>
<path class="st1" d="M658.9-377.3c-13.4,0-24.3,10.9-24.3,24.3c0,13.4,10.9,24.3,24.3,24.3c13.4,0,24.3-10.9,24.3-24.3
	C683.2-366.4,672.3-377.3,658.9-377.3z M675.2-351.3c-1.5,1.5-3.6,1.3-5.4-0.4c-2.5-2.5-5-5-7.4-7.4c0,6.1,0,17.1,0,20.7
	c0,1.6-0.7,2.9-2.2,3.5c-1.4,0.6-2.7,0.3-3.6-0.5c-1.1-1-1.3-2.1-1.3-3.2c0-5.3,0-14.1,0-20.5c-2.6,2.6-5.1,5.1-7.7,7.7
	c-1.2,1.2-2.5,1.5-4,0.9c-1.4-0.6-2.1-1.7-2.1-2.9c0-1.5,0.5-2.4,1.3-3.2c4.4-4.4,8.8-8.8,13.1-13.1c2-2,3.9-2,5.9,0
	c4.3,4.3,8.7,8.7,13,13C676.7-354.9,676.8-352.8,675.2-351.3z"/>
<g>
	<path class="st3" d="M705.2-232c-1.2-0.7-2.6-1.1-4.2-1.1c-2.2,0-4,0.7-5.3,2c-1.3,1.3-2,3.1-2,5.4c0,2.1,0.5,3.8,1.6,5
		s2.5,1.8,4.4,1.8c1.1,0,2-0.2,2.8-0.6s1.4-1,2-1.9h0.2c-0.1,1.7-0.4,3-0.9,3.9s-1.3,1.7-2.2,2.1s-2.2,0.7-3.7,0.7
		c-0.9,0-1.8-0.1-2.6-0.3v3.6c0.7,0.1,1.6,0.2,2.9,0.2c3.6,0,6.3-1,8.1-3.1s2.7-5.2,2.7-9.4c0-2-0.3-3.6-1-5S706.4-231.2,705.2-232z
		 M703.4-223.2c-0.7,0.6-1.4,0.9-2.4,0.9c-1,0-1.7-0.3-2.2-0.9s-0.7-1.4-0.7-2.5c0-1.2,0.3-2.1,0.8-2.8s1.3-1,2.2-1
		c0.9,0,1.7,0.4,2.3,1.2c0.6,0.8,0.9,1.8,0.9,2.9C704.4-224.5,704.1-223.8,703.4-223.2z"/>
	<polygon class="st3" points="860.7,-229 871.3,-229 863.2,-211.4 868,-211.4 876.1,-230 876.1,-232.8 860.7,-232.8 	"/>
	<path class="st3" d="M832.7-234.7h-97.4c-7.2,0-13.1,5.9-13.1,13.1c0,7.2,5.9,13.1,13.1,13.1h97.4c7.2,0,13.1-5.9,13.1-13.1
		C845.8-228.8,839.9-234.7,832.7-234.7z M832.7-210.5h-29v-22.1h29c6.1,0,11.1,5,11.1,11.1S838.8-210.5,832.7-210.5z"/>
	<path class="st3" d="M928.7-224.5c-1.5-1.5-3.6-1.3-5.4,0.4c-2.5,2.5-5,5-7.4,7.4c0-6.1,0-17.1,0-20.7c0-1.6-0.7-2.9-2.2-3.5
		c-1.4-0.6-2.7-0.3-3.6,0.5c-1.1,1-1.3,2.1-1.3,3.2c0,5.3,0,14.1,0,20.5c-2.6-2.6-5.1-5.1-7.7-7.7c-1.2-1.2-2.5-1.5-4-0.9
		c-1.4,0.6-2.1,1.7-2.1,2.9c0,1.5,0.5,2.4,1.3,3.2c4.4,4.4,8.8,8.8,13.1,13.1c2,2,3.9,2,5.9,0c4.3-4.3,8.7-8.7,13-13
		C930.1-220.8,930.2-223,928.7-224.5z"/>
	<path class="st3" d="M656.9-247.3c-13.4,0-24.3,10.9-24.3,24.3c0,13.4,10.9,24.3,24.3,24.3c13.4,0,24.3-10.9,24.3-24.3
		C681.2-236.4,670.3-247.3,656.9-247.3z M673.2-221.3c-1.5,1.5-3.6,1.3-5.4-0.4c-2.5-2.5-5-5-7.4-7.4c0,6.1,0,17.1,0,20.7
		c0,1.6-0.7,2.9-2.2,3.5c-1.4,0.6-2.7,0.3-3.6-0.5c-1.1-1-1.3-2.1-1.3-3.2c0-5.3,0-14.1,0-20.5c-2.6,2.6-5.1,5.1-7.7,7.7
		c-1.2,1.2-2.5,1.5-4,0.9c-1.4-0.6-2.1-1.7-2.1-2.9c0-1.5,0.5-2.4,1.3-3.2c4.4-4.4,8.8-8.8,13.1-13.1c2-2,3.9-2,5.9,0
		c4.3,4.3,8.7,8.7,13,13C674.7-224.9,674.8-222.8,673.2-221.3z"/>
</g>
</svg>
