<?xml version="1.0" encoding="utf-8"?>
<!-- Generator: Adobe Illustrator 21.1.0, SVG Export Plug-In . SVG Version: 6.00 Build 0)  -->
<svg version="1.1" id="Layer_1" xmlns="http://www.w3.org/2000/svg" xmlns:xlink="http://www.w3.org/1999/xlink" x="0px" y="0px"
	 viewBox="0 0 175 175" style="enable-background:new 0 0 175 175;" xml:space="preserve">
<style type="text/css">
	.st0{fill:#FFFFFF;}
</style>
<title>Asset 5</title>
<g>
	<path class="st0" d="M147.8,40.3c-0.2-1.3-1.2-2-2.5-2.4c-11.8-3.4-23.2-8.4-35.3-10.9c-0.8,0-1.6,0-2.4,0
		c-1.4,0.6-2.9,0.6-4.3,1.2C93.6,32.6,83.8,37,74,41.3c-3,1.3-4.1,3.3-4.1,6.3c0,3.5,0,7.1,0,10.6c0,5.2,0,5.2-4.9,7.3
		c-11.2,4.9-22.2,10-33.4,15c-1.7,0.8-3.6,1.5-4.5,3.4c0,21.2,0,42.3,0,63.5c0.2,0.2,0.4,0.4,0.6,0.6c0.4,0,0.8,0,1.2,0
		c19,0,37.9,0,56.9,0c0.8,0,1.6,0,2.4,0c5.8,0,11.7,0,17.5,0c4.2,0,8.5,0,12.7,0c9.7,0,19.4,0,29,0c0,0,0.1-0.1,0.2-0.2
		c0-0.1,0-0.1,0-0.2c0.2,0,0.3-0.1,0.4-0.2c0-0.4,0-0.8,0-1.2c0-35.3,0-70.6,0-105.9C148,40.3,147.9,40.3,147.8,40.3z M32,89.4
		c0-2.1,0.5-3.2,2.5-4c15.8-7,31.5-14.1,47.2-21.2c2-0.9,2.6-0.9,2.6,1.6c-0.1,12.4-0.1,24.8-0.1,37.2c0,12.4-0.1,24.8,0.1,37.2
		c0,2.4-0.7,3-3,3c-15.4-0.1-30.8-0.1-46.2,0c-2.6,0-3.1-0.8-3.1-3.2C32.1,123.1,32.1,106.2,32,89.4z M114.8,119.5
		c0,7.1,0,14.1,0,21.2c0,1.3,0,2.2-1.8,2.2c-7.2,0-14.3,0.1-21.5,0.2c-1.4,0-2.2-0.1-2.2-1.9c0.1-25.9,0-51.8,0.1-77.7
		c0-0.2,0.1-0.4,0.3-0.7c8,2.8,15.9,5.6,23.9,8.2c1.8,0.6,1.2,1.8,1.2,2.9C114.8,89,114.8,104.3,114.8,119.5z M116,66.5
		c-8.8-2.9-17.5-6-26.2-9.1c-2.1-0.8-4-0.8-6,0.3c-2.3,1.3-4.9,2.2-7.6,3.4c-0.1-0.6-0.1-0.8-0.1-1c0-4.3-1.3-9.4,0.5-12.8
		c1.7-3.3,7.2-3.8,11-5.6c6.4-3,12.8-5.7,19.2-8.6c1.3-0.6,2.5-0.7,4-0.2c10,3.3,20,6.6,30.1,9.7c1.8,0.6,2.3,1.4,2.3,3.2
		c-0.1,31.5-0.1,63.1,0,94.6c0,2.2-0.7,2.7-2.7,2.6c-5.9-0.1-11.9-0.2-17.8,0c-2.3,0.1-2.8-0.7-2.8-2.9c0.1-22.8,0-45.5,0.1-68.3
		C119.9,68.8,118.9,67.5,116,66.5z"/>
	<path class="st0" d="M130.4,97.1c1.7,0,2.5-1,2.6-2.7c0-1.6,0-3.2,0-4.8c0-1.7,0-3.4,0-5.1c-0.1-1.5-0.9-2.4-2.4-2.5
		c-1.6,0-2.5,0.8-2.5,2.3c0,3.4,0,6.8,0,10.2C128,96.2,128.9,97.1,130.4,97.1z"/>
	<path class="st0" d="M133,102.3c0-1.6-1-2.4-2.5-2.4s-2.5,0.8-2.5,2.4c0,3.3,0,6.6,0,9.9c0,1.6,0.9,2.5,2.4,2.5s2.4-0.9,2.5-2.4
		c0.1-1.7,0-3.4,0-5.1C133,105.6,133,104,133,102.3z"/>
	<path class="st0" d="M128,59.2c0.1,1.6,1,2.4,2.5,2.3c1.4,0,2.3-0.8,2.4-2.2c0.1-3.4,0.1-6.8,0-10.2c0-1.6-1.1-2.4-2.6-2.3
		c-1.5,0-2.4,0.9-2.4,2.5c0,1.5,0,3,0,4.5C128,55.5,128,57.4,128,59.2z"/>
	<path class="st0" d="M130.3,117.6c-1.4,0-2.3,0.8-2.3,2.2c0,1.7,0,3.4,0,5.1c0,1.7,0,3.4,0,5.1c0,1.4,0.8,2.2,2.3,2.3
		s2.6-0.7,2.6-2.3c0.1-3.4,0.1-6.8,0-10.2C132.9,118.3,131.8,117.5,130.3,117.6z"/>
	<path class="st0" d="M132.9,66.6c-0.1-1.6-1.1-2.3-2.6-2.2c-1.4,0.1-2.2,0.8-2.3,2.3c0,3.4,0,6.8,0,10.2c0,1.4,0.9,2.2,2.3,2.2
		c1.6,0,2.5-0.7,2.6-2.3c0.1-1.6,0-3.2,0-4.8C132.9,70.2,133,68.4,132.9,66.6z"/>
	<path class="st0" d="M38.7,97.6c0.2-0.1,0.5-0.1,0.8-0.2c11.7-3.6,23.4-7.2,35.1-10.9c1.7-0.5,2.6-1.7,2-3.4
		c-0.6-1.8-2-2.1-3.7-1.6c-3.7,1.1-7.5,2.3-11.2,3.5c-7.9,2.4-15.7,4.9-23.6,7.3c-1.5,0.5-2.6,1.3-2.4,3
		C36.1,96.8,37.3,97.5,38.7,97.6z"/>
	<path class="st0" d="M72.2,98.6c-5.5,1.2-11,2.3-16.5,3.5c-5.7,1.2-11.4,2.4-17.1,3.6c-1.6,0.3-2.9,1.1-2.7,3
		c0.1,1.6,1.3,2.2,2.8,2.3c0.4-0.1,0.9-0.2,1.4-0.3c11.1-2.3,22.2-4.6,33.3-7c1.9-0.4,3.8-0.9,3.2-3.4
		C76.1,97.8,74.1,98.3,72.2,98.6z"/>
	<path class="st0" d="M73.1,115.3c-3.9,0.4-7.8,0.8-11.7,1.2c-7.5,0.8-15,1.6-22.5,2.4c-1.3,0.1-2.4,0.6-2.8,1.9
		c-0.3,1,0.1,1.8,0.8,2.5c1,1,2.3,0.6,4.3,0.5c10.3-1.1,21.4-2.3,32.5-3.5c1.8-0.2,3.3-0.7,3.1-2.8
		C76.4,115.4,74.9,115.1,73.1,115.3z"/>
	<path class="st0" d="M73.1,132.3c-11.2,0-22.3,0-33.5,0c-1.9,0-3.6,0.2-3.6,2.6c0,2.5,1.9,2.5,3.6,2.5c5.5,0,11.1,0,16.6,0
		c5.6,0,11.3,0,16.9,0c1.8,0,3.6-0.1,3.6-2.6C76.6,132.5,74.9,132.3,73.1,132.3z"/>
</g>
</svg>
