<svg id="Layer_1" data-name="Layer 1" xmlns="http://www.w3.org/2000/svg" viewBox="0 0 229.7 140.2"><defs><style>.cls-1,.cls-4{fill:#1e304a;}.cls-1{stroke:#fff;stroke-width:6px;}.cls-1,.cls-3{stroke-miterlimit:10;}.cls-2{font-size:76.18px;font-family:HelveticaNeue, Helvetica Neue;}.cls-2,.cls-3{fill:#fff;}.cls-3{stroke:#1e304a;}</style></defs><title>learn-issues-orgs</title><path class="cls-1" d="M161.4,8.63c40.21,0,72.8,25.16,72.8,56.21,0,11.91-4.81,23-13,32l7.08,41.65-38.2-22A91.29,91.29,0,0,1,161.4,121c-40.21,0-72.8-25.16-72.8-56.21S121.2,8.63,161.4,8.63Z" transform="translate(-7.5 -4.11)"/><text class="cls-2" transform="matrix(-1, 0, 0, 1, 186.28, 65.29)">...</text><path class="cls-3" d="M77.08,15.49C38.93,15.49,8,39.37,8,68.82c0,11.3,4.57,21.78,12.34,30.41l-6.72,39.52,36.24-20.89a86.62,86.62,0,0,0,27.21,4.3c38.15,0,69.08-23.88,69.08-53.33S115.23,15.49,77.08,15.49Z" transform="translate(-7.5 -4.11)"/><rect class="cls-4" x="44.92" y="60.61" width="8.44" height="8.44"/><rect class="cls-4" x="64.65" y="60.61" width="8.44" height="8.44"/><rect class="cls-4" x="84.81" y="60.61" width="8.44" height="8.44"/></svg>