<?xml version="1.0" encoding="utf-8"?>
<!-- Generator: Adobe Illustrator 21.1.0, SVG Export Plug-In . SVG Version: 6.00 Build 0)  -->
<svg version="1.1" id="Layer_1" xmlns="http://www.w3.org/2000/svg" xmlns:xlink="http://www.w3.org/1999/xlink" x="0px" y="0px"
	 viewBox="0 0 175 175" style="enable-background:new 0 0 175 175;" xml:space="preserve">
<style type="text/css">
	.st0{fill:#FFFFFF;}
</style>
<title>Asset 6</title>
<g id="Layer_2">
	<g id="Layer_1-2">
		<path class="st0" d="M129.6,101.8c-12.2-22.3-24.3-44.7-36.5-67c-0.6-1.4-1.6-2.6-2.7-3.5H89c-5.7,1.5-9.6,5.4-13.1,9.7
			c-4.4,5.4-8.5,11.1-12.3,16.9c-3.2,4.8-7,9-12.1,11.7c-3.5,1.9-7,3.9-10.6,5.8c-9.6,5.2-19.1,10.4-28.6,15.8
			c-5.3,3.1-7,6.8-5.9,12.7c0.2,0.7,0.2,1.4,0.1,2.1c-0.5,0.7-1,1.3-1.5,2.1c-1.1,1.3-1.8,2.9-2.1,4.5c-3.3,10.3,2.4,21.3,12.7,24.5
			c1.9,0.6,4,0.9,6,0.9c1.1,0,2.1-0.1,3.2-0.3c1.2,0.1,2.2,0.6,3.1,1.4c2.1,2.1,5.1,2.8,7.9,2c2-0.6,2.8,0.2,3.8,1.4
			c5,5.8,10,11.6,15.1,17.4c2.6,2.9,4.6,7.8,7.9,8.1c3.2,0.3,6.7-3.3,10.1-5.2l0.3-0.2c1.8-0.7,2.3-1.6,0.7-3.2
			c-2.1-2.1-3.8-4.6-5.9-6.6c-2.8-2.8-5.3-5.7-5.9-9.4c1.2-2.6,1.3-5.5,0.3-8.2c-0.6-1.7-1.5-3.3-2.8-4.7c-0.2-0.7,0-1.5,0.4-2.1
			c1.7-2.4,5.5-3.4,8.3-5.1c0.5-0.3,1-0.6,1.5-0.9c11.2-7.1,23.3-10.6,36.7-9c7.2,0.8,14.5-0.5,20.9-3.9
			C131.5,107.4,131.9,106.1,129.6,101.8z M115.9,102.9c-6.4,2-13.1,3-19.9,2.8c-9.4-0.3-18.6,2.2-26.5,7.2c-4.7,3-7,2.5-11.1-1.2
			c-6.6-5.9-10.7-14-11.5-22.8c-0.3-3.7,1.1-6.8,4.4-8.2c11-4.7,17.9-13.6,24-23.2c2.8-4.1,6.2-7.8,10.1-10.9c1.1-1,1.8-1.6,2.8,0.2
			c9.7,17.9,19.4,35.9,29.1,53.7C118.4,102.5,117,102.5,115.9,102.9L115.9,102.9z"/>
		<path class="st0" d="M107.1,47.4c0.6,0.4,1.3,0.6,2,0.7h0.4c0.9-0.1,1.7-0.5,2.2-1.1l30.6-35.1l0,0c1-1.2,0.9-3-0.2-4
			c-0.1-0.1-0.2-0.2-0.3-0.2c-1.4-1-3.4-0.8-4.6,0.5l-30.6,35.1c-0.5,0.6-0.8,1.4-0.7,2.2C106,46.2,106.4,47,107.1,47.4z"/>
		<path class="st0" d="M172.2,78.2c-0.5-0.6-1.2-1-2-1.1L129,75.7c-1.5-0.1-2.8,1.4-2.8,3.3s1.2,3.4,2.8,3.5l41.2,1.4h0.2
			c0.7,0,1.3-0.4,1.8-0.9c0.5-0.7,0.8-1.5,0.8-2.4C173,79.8,172.7,78.9,172.2,78.2z"/>
		<path class="st0" d="M117.8,61.4c0.4,0.8,1,1.5,1.9,1.8c0.3,0.1,0.7,0.2,1.1,0.2c0.5,0,1.1-0.1,1.6-0.3l35.4-15.7
			c1.7-0.8,2.5-2.8,1.7-4.5c-0.8-1.7-2.8-2.5-4.5-1.7L119.5,57C117.9,57.7,117.1,59.7,117.8,61.4z"/>
	</g>
</g>
</svg>
