<?xml version="1.0" encoding="utf-8"?>
<!-- Generator: Adobe Illustrator 21.1.0, SVG Export Plug-In . SVG Version: 6.00 Build 0)  -->
<svg version="1.1" id="Layer_1" xmlns="http://www.w3.org/2000/svg" xmlns:xlink="http://www.w3.org/1999/xlink" x="0px" y="0px"
	 viewBox="0 0 152.8 148.2" style="enable-background:new 0 0 152.8 148.2;" xml:space="preserve">
<style type="text/css">
	.st0{fill:#FFFFFF;}
</style>
<title>Asset 4</title>
<g id="Layer_2">
	<g id="Layer_1-2">
		<path class="st0" d="M152.8,32.3L90.4,3.2L75.8,34.4L61.5,4L35.4,16.2l-9.3,4.3L0,32.7l44.2,94.7l26.1-12.2l5-2.3l32.8,15.3
			L152.8,32.3z M108.5,98.6L78.6,84.7l1.1-2.2l29.8,13.9L108.5,98.6z M83,54.8c1.3,0.6,1.9,2.2,1.2,3.5s-2.2,1.9-3.5,1.2
			s-1.9-2.2-1.2-3.5C80.1,54.8,81.6,54.2,83,54.8C82.9,54.8,83,54.8,83,54.8z M74.2,67.5c0.6-1.3,2.2-1.9,3.5-1.2
			c1.3,0.6,1.9,2.2,1.2,3.5s-2.2,1.9-3.5,1.2C74.1,70.4,73.6,68.8,74.2,67.5L74.2,67.5z M113.8,87.3L83.9,73.4l1.1-2.3L114.8,85
			L113.8,87.3z M84.8,44.7c0.6-1.3,2.2-1.9,3.5-1.2c1.3,0.6,1.9,2.2,1.2,3.5s-2.2,1.9-3.5,1.2C84.7,47.6,84.2,46,84.8,44.7
			L84.8,44.7z M119.1,76L89.1,62.1l1.1-2.2L120,73.7L119.1,76z M124.4,64.5L94.5,50.6l1.1-2.3l29.8,13.9L124.4,64.5z M126.2,33.2
			l3.5,1.1l2.8-2.2l0.1,3.5l3,1.9l-3.4,1.2l-1,3.5l-2.1-2.8l-3.5,0.2l1.9-2.9L126.2,33.2z M111.5,26.4l3.5,1.1l2.8-2.2l0.1,3.5
			l3,1.9l-3.4,1.2l-1,3.5l-2.1-2.8l-3.5,0.2l2-2.9L111.5,26.4z M96.8,19.6l3.5,1.1l2.8-2.2l0.1,3.5l3.1,1.9l-3.4,1.2l-1,3.5
			l-2.1-2.8l-3.5,0.2l2-2.9L96.8,19.6z M81.4,26.5l59.2,27.6l-1.1,2.2L80.4,28.7L81.4,26.5z M59.6,8.3L59.6,8.3L59.6,8.3L59.6,8.3z
			 M27.4,23.4l9.3-4.3l21-9.8l-3.2,10.6l-14.3,6.7L31,30.9l-14.3,6.7L6.5,33.2L27.4,23.4z M4.6,34L4.6,34L4.6,34z M69.1,112.4
			L46.2,123L5.8,36.6l10.5,4.6l15.9-7.4l9.3-4.3L57.5,22l3.3-11.1l13,27.9L45.6,99.2l25.9,12.1L69.1,112.4z M73.7,81
			c-0.6,1.3-2.2,1.9-3.5,1.2c-1.3-0.6-1.9-2.2-1.2-3.5c0.6-1.3,2.2-1.9,3.5-1.2C73.7,78.2,74.4,79.7,73.7,81L73.7,81z M68.4,92.4
			c-0.6,1.3-2.2,1.9-3.5,1.2c-1.3-0.6-1.9-2.2-1.2-3.5s2.2-1.9,3.5-1.2C68.4,89.5,69.1,91.1,68.4,92.4L68.4,92.4L68.4,92.4z
			 M103.2,110L73.3,96.1l1.1-2.2l29.8,13.9L103.2,110z"/>
	</g>
</g>
</svg>
