<?xml version="1.0" encoding="utf-8"?>
<!-- Generator: Adobe Illustrator 19.1.0, SVG Export Plug-In . SVG Version: 6.00 Build 0)  -->
<svg version="1.1" id="Layer_1" xmlns="http://www.w3.org/2000/svg" xmlns:xlink="http://www.w3.org/1999/xlink" x="0px" y="0px"
	 viewBox="0 0 24 24" style="enable-background:new 0 0 24 24;" xml:space="preserve">
<g id="cutlery">
	<path d="M19,6.44V17.5c0,0.275-0.225,0.5-0.5,0.5h-2c-0.275,0-0.5-0.225-0.5-0.5v-3.966c0,0-1-0.453-1-1.5c0-0.489,0-3.594,0-3.594
		c0-0.412,0.281-0.938,0.624-1.166l2.752-1.168C18.719,5.878,19,6.028,19,6.44z M12,6.5V10h-1V6.5c0,0,0.026-0.5-0.5-0.5
		S10,6.5,10,6.5V10H9V6.5C9,6.5,8.947,6,8.5,6S8,6.5,8,6.5V10c0,0,0,0,0,1s1,2.034,1,2.034V17.5C9,17.775,9.225,18,9.5,18h2
		c0.275,0,0.5-0.225,0.5-0.5v-4.466c0,0,1-1.034,1-2.034s0-1,0-1V6.5c0,0,0-0.5-0.5-0.5S12,6.5,12,6.5z"/>
</g>
</svg>
