<?xml version="1.0" encoding="utf-8"?>
<!-- Generator: Adobe Illustrator 19.1.0, SVG Export Plug-In . SVG Version: 6.00 Build 0)  -->
<svg version="1.1" id="Layer_1" xmlns="http://www.w3.org/2000/svg" xmlns:xlink="http://www.w3.org/1999/xlink" x="0px" y="0px"
	 viewBox="0 0 24 24" style="enable-background:new 0 0 24 24;" xml:space="preserve">
<g id="zoom-in">
	<path id="path_17_" d="M18.131,16.684l-2.996-2.996c0.486-0.757,0.773-1.653,0.773-2.615c0-2.67-2.171-4.841-4.84-4.841
		c-2.668,0-4.84,2.171-4.84,4.841c0,2.668,2.172,4.838,4.84,4.838c0.964,0,1.861-0.286,2.616-0.774l2.996,2.996
		c0.1,0.1,0.264,0.1,0.363,0l1.087-1.087C18.23,16.947,18.23,16.783,18.131,16.684z M11.068,14.374c-1.82,0-3.303-1.481-3.303-3.302
		c0-1.822,1.482-3.304,3.303-3.304c1.822,0,3.303,1.481,3.303,3.304C14.371,12.893,12.891,14.374,11.068,14.374z"/>
	<path id="path_16_" d="M12.75,10H12V9.25C12,9.112,11.888,9,11.75,9h-1.5C10.112,9,10,9.112,10,9.25V10H9.25
		C9.112,10,9,10.112,9,10.25v1.5C9,11.888,9.112,12,9.25,12H10v0.75c0,0.138,0.112,0.25,0.25,0.25h1.5c0.138,0,0.25-0.112,0.25-0.25
		V12h0.75c0.138,0,0.25-0.112,0.25-0.25v-1.5C13,10.112,12.888,10,12.75,10z"/>
</g>
</svg>
