<?xml version="1.0" encoding="utf-8"?>
<!-- Generator: Adobe Illustrator 19.1.0, SVG Export Plug-In . SVG Version: 6.00 Build 0)  -->
<svg version="1.1" id="Layer_1" xmlns="http://www.w3.org/2000/svg" xmlns:xlink="http://www.w3.org/1999/xlink" x="0px" y="0px"
	 viewBox="0 0 24 24" style="enable-background:new 0 0 24 24;" xml:space="preserve">
<g id="scissors">
	<path d="M12.586,13.646c0,0-0.378,0.014-0.625,0.05c-0.383,0.055-0.677-0.247-0.993-0.633s-0.642-0.767-1.153-0.256
		C9.5,13.078,8.299,14.11,8.299,14.11c-0.625,0.538-0.697,1.49-0.159,2.115l1.304,1.516c0.538,0.625,1.49,0.697,2.115,0.159
		l0.803-0.691c0.626-0.538,0.889-0.918,0.711-1.768L12.586,13.646z M11.372,15.791c0,0-0.41,0.352-0.612,0.527
		s-0.435,0.054-0.594-0.131c-0.158-0.184-0.158-0.184-0.365-0.425c-0.207-0.241-0.241-0.466-0.02-0.657
		c0.171-0.147,0.442-0.38,1.022-0.879c0.174-0.149,0.287-0.077,0.412,0.065c0.113,0.128,0.27,0.812,0.296,1.01
		C11.538,15.5,11.522,15.662,11.372,15.791z M13.407,9l4.233-2.471c0.255-0.104,0.609-0.019,0.789,0.19l0.326,0.379
		c0.179,0.209,0.155,0.526-0.053,0.705L17.309,9H13.407z M19.5,10h-8.234l-1.014-2.123C9.832,7.116,9.384,7,8.559,7H7.5
		C6.675,7,6,7.675,6,8.5v2C6,11.325,6.675,12,7.5,12h2c0,0,0.406,0,1,0s0.898,0.512,1,0.674s0.328,0.359,0.655,0.31l7.37-1.326
		C19.787,11.571,20,11.275,20,11v-0.5C20,10.225,19.775,10,19.5,10z M9.323,10.279c-0.765,0-1.123,0-1.348,0
		c-0.292,0-0.414-0.193-0.414-0.511s0-0.317,0-0.56c0-0.243,0.098-0.486,0.365-0.486s0.808,0,0.808,0
		c0.198,0,0.316,0.113,0.425,0.281S9.595,9.79,9.593,9.961C9.591,10.15,9.552,10.279,9.323,10.279z M12.5,12.266
		c-0.423,0-0.766-0.343-0.766-0.766s0.343-0.766,0.766-0.766s0.766,0.343,0.766,0.766S12.923,12.266,12.5,12.266z"/>
</g>
</svg>
