<?xml version="1.0" encoding="utf-8"?>
<!-- Generator: Adobe Illustrator 19.1.0, SVG Export Plug-In . SVG Version: 6.00 Build 0)  -->
<svg version="1.1" id="Layer_1" xmlns="http://www.w3.org/2000/svg" xmlns:xlink="http://www.w3.org/1999/xlink" x="0px" y="0px"
	 viewBox="0 0 24 24" style="enable-background:new 0 0 24 24;" xml:space="preserve">
<g id="tags">
	<path id="path_55_" d="M17.823,12.823L11,6H6.265C6.126,6,6.011,6.112,6.011,6.252L6,11l6.823,6.823
		c0.097,0.097,0.256,0.097,0.354,0l4.646-4.646C17.92,13.08,17.92,12.92,17.823,12.823z M7.771,7.758
		c0.393-0.394,1.031-0.394,1.425,0c0.394,0.394,0.394,1.031,0,1.425c-0.394,0.395-1.032,0.395-1.425,0
		C7.377,8.789,7.377,8.152,7.771,7.758z"/>
	<path id="path_54_" d="M20.823,12.823L14,6h-1.5l7,7l-4.242,4.258l0.565,0.565c0.097,0.097,0.256,0.097,0.354,0l4.646-4.646
		C20.92,13.08,20.92,12.92,20.823,12.823z"/>
</g>
</svg>
