<?xml version="1.0" encoding="utf-8"?>
<!-- Generator: Adobe Illustrator 19.1.0, SVG Export Plug-In . SVG Version: 6.00 Build 0)  -->
<svg version="1.1" id="Layer_1" xmlns="http://www.w3.org/2000/svg" xmlns:xlink="http://www.w3.org/1999/xlink" x="0px" y="0px"
	 viewBox="0 0 24 24" style="enable-background:new 0 0 24 24;" xml:space="preserve">
<g id="battery-50">
	<path d="M17,10v4H9v-4H17L17,10z M18,8H8C7.45,8,7,8.45,7,9v6c0,0.55,0.45,1,1,1h10c0.55,0,1-0.45,1-1V9C19,8.45,18.55,8,18,8L18,8
		z M20.5,10H20v4h0.5c0.275,0,0.5-0.225,0.5-0.5v-3C21,10.225,20.775,10,20.5,10z M13,11h-3v2h3V11z"/>
</g>
</svg>
