<?xml version="1.0" encoding="utf-8"?>
<!-- Generator: Adobe Illustrator 19.1.0, SVG Export Plug-In . SVG Version: 6.00 Build 0)  -->
<svg version="1.1" id="Layer_1" xmlns="http://www.w3.org/2000/svg" xmlns:xlink="http://www.w3.org/1999/xlink" x="0px" y="0px"
	 viewBox="0 0 24 24" style="enable-background:new 0 0 24 24;" xml:space="preserve">
<g id="cloud-upload">
	<path d="M13.315,13.328c0.258,0.258,2.239,2.284,2.239,2.284C15.727,15.825,15.644,16,15.369,16H14v2.75
		c0,0.138-0.113,0.25-0.25,0.25h-1.5C12.113,19,12,18.888,12,18.75V16h-1.369c-0.275,0-0.358-0.175-0.185-0.388
		c0,0,1.997-2.042,2.239-2.284S13.057,13.07,13.315,13.328z M16.274,9.124c-0.312,0.001-0.615,0.052-0.898,0.145
		c-0.578-1.275-1.862-2.164-3.355-2.162C9.99,7.11,8.344,8.761,8.347,10.793c0,0.127,0.007,0.252,0.02,0.375
		c-0.863,0.189-1.51,0.979-1.509,1.899c0.002,1.061,0.865,1.942,1.925,1.94l0.084,0l3.816-3.65c0.173-0.214,0.457-0.214,0.63-0.001
		l3.779,3.605c1.195-0.374,2.095-1.591,2.092-2.907C19.183,10.445,17.88,9.121,16.274,9.124z"/>
</g>
</svg>
