<?xml version="1.0" encoding="utf-8"?>
<!-- Generator: Adobe Illustrator 19.1.0, SVG Export Plug-In . SVG Version: 6.00 Build 0)  -->
<svg version="1.1" id="Layer_1" xmlns="http://www.w3.org/2000/svg" xmlns:xlink="http://www.w3.org/1999/xlink" x="0px" y="0px"
	 viewBox="0 0 24 24" style="enable-background:new 0 0 24 24;" xml:space="preserve">
<g id="flag">
	<path id="path_45_" d="M8,7.25V18H7V7.25C7,7.112,7.112,7,7.25,7h0.5C7.888,7,8,7.112,8,7.25z M14.563,13.944
		c-0.56,0-1.114-0.202-1.701-0.417c-0.604-0.221-1.223-0.448-1.864-0.448c-0.574,0-1.096,0.186-1.597,0.567
		c-0.044,0.033-0.098,0.051-0.151,0.051c-0.038,0-0.076-0.009-0.111-0.026C9.054,13.629,9,13.542,9,13.447c0,0,0-4.098,0-4.374
		c0.297-0.729,1.212-1.413,2.009-1.456s1.307,0.196,1.893,0.398c0.604,0.206,1.226,0.418,1.833,0.418
		c0.693,0,1.292-0.285,1.83-0.873c0.048-0.053,0.116-0.081,0.185-0.081c0.03,0,0.061,0.006,0.09,0.017
		C16.937,7.533,17,7.625,17,7.729v4.208c0,0.042-0.011,0.084-0.031,0.121C16.047,13.729,15.199,13.944,14.563,13.944z"/>
</g>
</svg>
