<?xml version="1.0" encoding="utf-8"?>
<!-- Generator: Adobe Illustrator 19.1.0, SVG Export Plug-In . SVG Version: 6.00 Build 0)  -->
<svg version="1.1" id="Layer_1" xmlns="http://www.w3.org/2000/svg" xmlns:xlink="http://www.w3.org/1999/xlink" x="0px" y="0px"
	 viewBox="0 0 24 24" style="enable-background:new 0 0 24 24;" xml:space="preserve">
<g id="indent-right">
	<path style="fill-rule:evenodd;clip-rule:evenodd;" d="M8,8.5C8,8.775,7.775,9,7.5,9h-1C6.225,9,6,8.775,6,8.5v-1
		C6,7.225,6.225,7,6.5,7h1C7.775,7,8,7.225,8,7.5V8.5z"/>
	<path style="fill-rule:evenodd;clip-rule:evenodd;" d="M12,11.5c0,0.275-0.225,0.5-0.5,0.5h-5C6.225,12,6,11.775,6,11.5v-1
		C6,10.225,6.225,10,6.5,10h5c0.275,0,0.5,0.225,0.5,0.5V11.5z"/>
	<path style="fill-rule:evenodd;clip-rule:evenodd;" d="M10,14.5c0,0.275-0.225,0.5-0.5,0.5h-3C6.225,15,6,14.775,6,14.5v-1
		C6,13.225,6.225,13,6.5,13h3c0.275,0,0.5,0.225,0.5,0.5V14.5z"/>
	<path style="fill-rule:evenodd;clip-rule:evenodd;" d="M13,17.5c0,0.275-0.225,0.5-0.5,0.5h-6C6.225,18,6,17.775,6,17.5v-1
		C6,16.225,6.225,16,6.5,16h6c0.275,0,0.5,0.225,0.5,0.5V17.5z"/>
	<rect x="14" y="7" style="fill-rule:evenodd;clip-rule:evenodd;" width="1" height="11"/>
	<polygon points="15.334,12.5 17,11.25 17,12 19,12 19,13 17,13 17,13.75 	"/>
</g>
</svg>
