<?xml version="1.0" encoding="utf-8"?>
<!-- Generator: Adobe Illustrator 19.1.0, SVG Export Plug-In . SVG Version: 6.00 Build 0)  -->
<svg version="1.1" id="Layer_1" xmlns="http://www.w3.org/2000/svg" xmlns:xlink="http://www.w3.org/1999/xlink" x="0px" y="0px"
	 viewBox="0 0 24 24" style="enable-background:new 0 0 24 24;" xml:space="preserve">
<g id="parking">
	<path d="M14.891,11.531c0,1.094-0.911,1.469-1.675,1.469h-1.169v-2.901h1.169C14.28,10.099,14.891,10.579,14.891,11.531z M19,7v10
		c0,0.55-0.45,1-1,1H8c-0.55,0-1-0.45-1-1V7c0-0.55,0.45-1,1-1h10C18.55,6,19,6.45,19,7z M17.047,11.609
		c0-1.391-0.734-2.687-2.828-2.687h-4.061c-0.113,0-0.204,0.092-0.204,0.204v6.872c0,0.113,0.092,0.204,0.204,0.204h1.685
		c0.113,0,0.205-0.092,0.205-0.204V14.22h2.172C16.124,14.22,17.047,13,17.047,11.609z"/>
</g>
</svg>
