<?xml version="1.0" encoding="utf-8"?>
<!-- Generator: Adobe Illustrator 19.1.0, SVG Export Plug-In . SVG Version: 6.00 Build 0)  -->
<svg version="1.1" id="Layer_1" xmlns="http://www.w3.org/2000/svg" xmlns:xlink="http://www.w3.org/1999/xlink" x="0px" y="0px"
	 viewBox="0 0 24 24" style="enable-background:new 0 0 24 24;" xml:space="preserve">
<g id="object-align-bottom">
	<path d="M19,18H7v-1h12V18z M12,6.5C12,6.225,11.775,6,11.5,6h-4C7.225,6,7,6.225,7,6.5v9C7,15.775,7.225,16,7.5,16h4
		c0.275,0,0.5-0.225,0.5-0.5V6.5z M17,12h-3v3h3V12L17,12z M17.5,11c0.275,0,0.5,0.225,0.5,0.5v4c0,0.275-0.225,0.5-0.5,0.5h-4
		c-0.275,0-0.5-0.225-0.5-0.5v-4c0-0.275,0.225-0.5,0.5-0.5H17.5L17.5,11z"/>
</g>
</svg>
