<?xml version="1.0" encoding="utf-8"?>
<!-- Generator: Adobe Illustrator 19.1.0, SVG Export Plug-In . SVG Version: 6.00 Build 0)  -->
<svg version="1.1" id="Layer_1" xmlns="http://www.w3.org/2000/svg" xmlns:xlink="http://www.w3.org/1999/xlink" x="0px" y="0px"
	 viewBox="0 0 24 24" style="enable-background:new 0 0 24 24;" xml:space="preserve">
<g id="earphone">
	<path d="M7.166,7.934l1.625-1.627c0.225-0.224,0.584-0.17,0.768,0.088l1.391,1.938c0.186,0.256,0.135,0.633-0.09,0.856
		l-1.185,1.186c0.591,0.824,1.314,1.715,2.274,2.676c0.961,0.96,1.852,1.684,2.676,2.274l1.185-1.185
		c0.224-0.225,0.618-0.258,0.874-0.072l1.912,1.363c0.256,0.184,0.319,0.553,0.096,0.776l-1.627,1.626c0,0-2.815,0.248-6.481-3.418
		C6.918,10.748,7.166,7.934,7.166,7.934z"/>
</g>
</svg>
