<?xml version="1.0" encoding="utf-8"?>
<!-- Generator: Adobe Illustrator 19.1.0, SVG Export Plug-In . SVG Version: 6.00 Build 0)  -->
<svg version="1.1" id="Layer_1" xmlns="http://www.w3.org/2000/svg" xmlns:xlink="http://www.w3.org/1999/xlink" x="0px" y="0px"
	 viewBox="0 0 24 24" style="enable-background:new 0 0 24 24;" xml:space="preserve">
<g id="plane">
	<path d="M18.627,14.139L15,10.894V7.5C15,6.672,14.329,6,13.5,6C12.671,6,12,6.672,12,7.5v3.394l-3.627,3.245
		C8.167,14.322,8,14.697,8,14.973v0.404c0,0.275,0.185,0.371,0.411,0.215L12,13.096V15v0.726c-0.446,0.418-1,0.969-1,1.134V17.5
		c0,0.275,0.201,0.399,0.447,0.276L13.5,16.5l2.053,1.276C15.799,17.899,16,17.775,16,17.5v-0.641c0-0.165-0.554-0.716-1-1.134V15
		v-1.904l3.589,2.496C18.815,15.748,19,15.652,19,15.377v-0.404C19,14.697,18.832,14.322,18.627,14.139z"/>
</g>
</svg>
