<?xml version="1.0" encoding="utf-8"?>
<!-- Generator: Adobe Illustrator 19.1.0, SVG Export Plug-In . SVG Version: 6.00 Build 0)  -->
<svg version="1.1" id="Layer_1" xmlns="http://www.w3.org/2000/svg" xmlns:xlink="http://www.w3.org/1999/xlink" x="0px" y="0px"
	 viewBox="0 0 24 24" style="enable-background:new 0 0 24 24;" xml:space="preserve">
<g id="bed">
	<path d="M19,13v3H7v-3c0-0.552,0.448-1,1-1h10C18.552,12,19,12.448,19,13z M17,7H9C7.895,7,7,7.895,7,9v2h1c0-0.552,0.448-1,1-1
		h2.5c0.552,0,1,0.448,1,1h1c0-0.552,0.448-1,1-1H17c0.552,0,1,0.448,1,1h1V9C19,7.895,18.105,7,17,7z M8,17v0.5
		C8,17.775,8.225,18,8.5,18h1c0.275,0,0.5-0.225,0.5-0.5V17H8z M16,17v0.5c0,0.275,0.225,0.5,0.5,0.5h1c0.275,0,0.5-0.225,0.5-0.5
		V17H16z"/>
</g>
</svg>
