<?xml version="1.0" encoding="utf-8"?>
<!-- Generator: Adobe Illustrator 19.1.0, SVG Export Plug-In . SVG Version: 6.00 Build 0)  -->
<svg version="1.1" id="Layer_1" xmlns="http://www.w3.org/2000/svg" xmlns:xlink="http://www.w3.org/1999/xlink" x="0px" y="0px"
	 viewBox="0 0 24 24" style="enable-background:new 0 0 24 24;" xml:space="preserve">
<g id="copyright-mark">
	<path d="M13,17.906c-3.257,0-5.906-2.649-5.906-5.906S9.743,6.094,13,6.094c3.257,0,5.906,2.649,5.906,5.906
		S16.257,17.906,13,17.906z M13,7.793c-2.32,0-4.207,1.887-4.207,4.207S10.68,16.207,13,16.207c2.32,0,4.207-1.887,4.207-4.207
		S15.32,7.793,13,7.793z M15,11v-1h-3l-1,1v2l1,1h3v-1h-3v-2H15z"/>
</g>
</svg>
