<?xml version="1.0" encoding="utf-8"?>
<!-- Generator: Adobe Illustrator 19.1.0, SVG Export Plug-In . SVG Version: 6.00 Build 0)  -->
<svg version="1.1" id="Layer_1" xmlns="http://www.w3.org/2000/svg" xmlns:xlink="http://www.w3.org/1999/xlink" x="0px" y="0px"
	 viewBox="0 0 24 24" style="enable-background:new 0 0 24 24;" xml:space="preserve">
<g id="gas">
	<path d="M15.272,9.507c-0.461-0.99-0.935-2.011-1.135-3.253C14.132,6.22,14.11,6.192,14.08,6.178
		c-0.013-0.006-0.027-0.009-0.041-0.009c-0.019,0-0.037,0.005-0.054,0.016c-3.848,2.45-4.422,5.444-4.422,7.01
		c0,1.156,0.444,2.207,1.319,3.127c0.019,0.02,0.046,0.031,0.072,0.031c0.016,0,0.031-0.004,0.046-0.011
		c0.039-0.02,0.061-0.064,0.053-0.108c-0.054-0.282-0.081-0.59-0.081-0.915c0-2.106,1.708-3.985,1.781-4.064
		c0,0,1.781,2.004,1.781,4.064c0,0.917-0.206,1.636-0.612,2.137c-0.03,0.037-0.03,0.091,0.001,0.128
		c0.02,0.023,0.048,0.035,0.076,0.035c0.017,0,0.034-0.004,0.05-0.013c0.892-0.51,2.389-1.7,2.389-3.934
		C16.437,12.011,15.872,10.795,15.272,9.507z"/>
</g>
</svg>
