<?xml version="1.0" encoding="utf-8"?>
<!-- Generator: Adobe Illustrator 19.1.0, SVG Export Plug-In . SVG Version: 6.00 Build 0)  -->
<svg version="1.1" id="Layer_1" xmlns="http://www.w3.org/2000/svg" xmlns:xlink="http://www.w3.org/1999/xlink" x="0px" y="0px"
	 viewBox="0 0 24 24" style="enable-background:new 0 0 24 24;" xml:space="preserve">
<g id="sd-video">
	<g>
		<path d="M16,7H9c-1.654,0-3,1.346-3,3v5c0,1.654,1.346,3,3,3h7c1.654,0,3-1.346,3-3v-5C19,8.346,17.654,7,16,7z M17,16H8V9h9V16z"
			/>
		<polygon points="12,12 10,12 10,11 12,11 12,10 9,10 9,13 11,13 11,14 9,14 9,15 12,15 		"/>
		<path d="M16,14v-3l-1-1h-2v5h2L16,14z M14,14v-3h1v3H14z"/>
	</g>
</g>
</svg>
