<?xml version="1.0" encoding="utf-8"?>
<!-- Generator: Adobe Illustrator 19.1.0, SVG Export Plug-In . SVG Version: 6.00 Build 0)  -->
<svg version="1.1" id="Layer_1" xmlns="http://www.w3.org/2000/svg" xmlns:xlink="http://www.w3.org/1999/xlink" x="0px" y="0px"
	 viewBox="0 0 24 24" style="enable-background:new 0 0 24 24;" xml:space="preserve">
<g id="paragraph">
	<path id="align-justify_1_" style="fill-rule:evenodd;clip-rule:evenodd;" d="M7,16.5C7,16.225,7.225,16,7.5,16h7
		c0.275,0,0.5,0.225,0.5,0.5v1c0,0.275-0.225,0.5-0.5,0.5h-7C7.225,18,7,17.775,7,17.5V16.5z M7,14.5C7,14.775,7.225,15,7.5,15h11
		c0.275,0,0.5-0.225,0.5-0.5v-1c0-0.275-0.225-0.5-0.5-0.5h-11C7.225,13,7,13.225,7,13.5V14.5z M7,11.5C7,11.775,7.225,12,7.5,12h11
		c0.275,0,0.5-0.225,0.5-0.5v-1c0-0.275-0.225-0.5-0.5-0.5h-11C7.225,10,7,10.225,7,10.5V11.5z M7,8.5C7,8.775,7.225,9,7.5,9h11
		C18.775,9,19,8.775,19,8.5v-1C19,7.225,18.775,7,18.5,7h-11C7.225,7,7,7.225,7,7.5V8.5z"/>
</g>
</svg>
