<?xml version="1.0" encoding="utf-8"?>
<!-- Generator: Adobe Illustrator 19.1.0, SVG Export Plug-In . SVG Version: 6.00 Build 0)  -->
<svg version="1.1" id="Layer_1" xmlns="http://www.w3.org/2000/svg" xmlns:xlink="http://www.w3.org/1999/xlink" x="0px" y="0px"
	 viewBox="0 0 24 24" style="enable-background:new 0 0 24 24;" xml:space="preserve">
<g id="group">
	<path d="M22,15.216v0.617C22,15.925,21.925,16,21.833,16h-1.865c-0.131-0.227-0.31-0.427-0.528-0.57l-3.011-1.938
		c0.003-0.003,0.005-0.007,0.008-0.011l0.23-0.321c0.324-0.497,0.534-1.11,0.534-1.66V9c0-0.269-0.031-0.531-0.08-0.786
		C17.387,8.081,17.683,8,18,8c1.1,0,2,0.9,2,2v1.667c0,0.367-0.3,1-0.667,1v0.5c0,0.092,0.063,0.207,0.14,0.257l2.386,1.536
		C21.937,15.009,22,15.125,22,15.216z M6.554,15.434l3.018-1.941c-0.003-0.003-0.005-0.007-0.008-0.011l-0.23-0.321
		C9.01,12.663,8.8,12.05,8.8,11.5V9c0-0.269,0.031-0.531,0.08-0.786C8.613,8.081,8.317,8,8,8c-1.1,0-2,0.9-2,2v1.667
		c0,0.367,0.3,1,0.667,1v0.5c0,0.092-0.063,0.207-0.14,0.257L4.14,14.959C4.063,15.009,4,15.125,4,15.216v0.617
		C4,15.925,4.075,16,4.167,16h1.868C6.165,15.773,6.341,15.573,6.554,15.434z M18.79,16.439l-3.58-2.304
		C15.095,14.061,15,13.888,15,13.75V13c0.55,0,1-0.95,1-1.5V9c0-1.65-1.35-3-3-3s-3,1.35-3,3v2.5c0,0.55,0.45,1.5,1,1.5v0.75
		c0,0.138-0.095,0.311-0.21,0.385l-3.58,2.304C7.095,16.513,7,16.687,7,16.824v0.926C7,17.888,7.112,18,7.25,18h11.5
		c0.138,0,0.25-0.112,0.25-0.25v-0.926C19,16.687,18.905,16.513,18.79,16.439z"/>
</g>
</svg>
