<?xml version="1.0" encoding="utf-8"?>
<!-- Generator: Adobe Illustrator 19.1.0, SVG Export Plug-In . SVG Version: 6.00 Build 0)  -->
<svg version="1.1" id="Layer_1" xmlns="http://www.w3.org/2000/svg" xmlns:xlink="http://www.w3.org/1999/xlink" x="0px" y="0px"
	 viewBox="0 0 24 24" style="enable-background:new 0 0 24 24;" xml:space="preserve">
<g id="collapse-top">
	<g id="expand_1_">
		<path d="M10.5,18c1,0,4,0,4,0c2.219,0,3.5-1.344,3.5-3.5v-4C18,8.3,16.7,7,14.5,7h-4C8.3,7,7,8.3,7,10.5v4
			C7,16.656,8.328,18,10.5,18z M9,10c0-0.55,0.45-1,1-1h5c0.55,0,1,0.45,1,1v5c0,0.55-0.45,1-1,1h-5c-0.55,0-1-0.45-1-1V10z
			 M12.2,11.067c0.165-0.22,0.435-0.22,0.6,0l1.9,2.533c0.165,0.22,0.075,0.4-0.2,0.4h-4c-0.275,0-0.365-0.18-0.2-0.4L12.2,11.067z"
			/>
	</g>
</g>
</svg>
