<?xml version="1.0" encoding="utf-8"?>
<!-- Generator: Adobe Illustrator 19.1.0, SVG Export Plug-In . SVG Version: 6.00 Build 0)  -->
<svg version="1.1" id="Layer_1" xmlns="http://www.w3.org/2000/svg" xmlns:xlink="http://www.w3.org/1999/xlink" x="0px" y="0px"
	 viewBox="0 0 24 24" style="enable-background:new 0 0 24 24;" xml:space="preserve">
<g id="remove-circle">
	<path d="M12,7.728c2.355,0,4.271,1.916,4.271,4.272S14.355,16.271,12,16.271S7.729,14.356,7.729,12S9.645,7.728,12,7.728L12,7.728z
		 M12,6.228c-3.187,0-5.771,2.584-5.771,5.772S8.813,17.771,12,17.771s5.771-2.584,5.771-5.771S15.187,6.228,12,6.228L12,6.228z"/>
	<path d="M14.228,13.237L12.99,12l1.237-1.237c0.097-0.097,0.097-0.256,0-0.354l-0.637-0.637c-0.097-0.097-0.256-0.097-0.354,0
		L12,11.01l-1.237-1.237c-0.097-0.097-0.256-0.097-0.354,0l-0.637,0.637c-0.097,0.097-0.097,0.256,0,0.354L11.01,12l-1.237,1.237
		c-0.097,0.097-0.097,0.256,0,0.354l0.637,0.637c0.097,0.097,0.256,0.097,0.354,0L12,12.99l1.237,1.237
		c0.097,0.097,0.256,0.097,0.354,0l0.637-0.637C14.325,13.494,14.325,13.335,14.228,13.237z"/>
</g>
</svg>
