<?xml version="1.0" encoding="utf-8"?>
<!-- Generator: Adobe Illustrator 19.1.0, SVG Export Plug-In . SVG Version: 6.00 Build 0)  -->
<svg version="1.1" id="Layer_1" xmlns="http://www.w3.org/2000/svg" xmlns:xlink="http://www.w3.org/1999/xlink" x="0px" y="0px"
	 viewBox="0 0 24 24" style="enable-background:new 0 0 24 24;" xml:space="preserve">
<g id="print">
	<path id="path_60_" d="M15.328,9.261c0.04,0.131,0.011,0.333-0.065,0.447l-0.624,1.084C14.562,10.906,14.387,11,14.25,11h-4.5
		c-0.137,0-0.312-0.094-0.389-0.208L8.787,9.708C8.71,9.594,8.681,9.392,8.721,9.261L9.5,6.248C9.515,6.111,9.639,6,9.776,6h4.447
		c0.138,0,0.262,0.111,0.276,0.248L15.328,9.261z"/>
	<path id="path_59_" d="M14.81,16.242C14.777,16.109,14.638,16,14.5,16h-5c-0.138,0-0.277,0.109-0.311,0.242L8.81,17.758
		C8.777,17.891,8.862,18,9,18h6c0.138,0,0.223-0.109,0.189-0.242L14.81,16.242z"/>
	<path id="path_58_" d="M16.25,10c-0.138,0-0.3,0.101-0.362,0.224l-0.776,1.553C15.05,11.899,14.887,12,14.75,12h-5.5
		c-0.137,0-0.3-0.101-0.362-0.224l-0.776-1.553C8.05,10.101,7.887,10,7.75,10h-1.5C6.112,10,6,10.113,6,10.25v6.5
		C6,16.888,6.112,17,6.25,17h1.5C7.887,17,8,16.888,8,16.75v-1.5C8,15.113,8.112,15,8.25,15h7.5c0.137,0,0.25,0.113,0.25,0.25
		l0.002,1.5c0,0.138,0.113,0.25,0.25,0.25h1.497c0.138,0,0.25-0.112,0.25-0.25v-6.5c0-0.137-0.112-0.25-0.25-0.25H16.25z"/>
</g>
</svg>
