<?xml version="1.0" encoding="utf-8"?>
<!-- Generator: Adobe Illustrator 19.1.0, SVG Export Plug-In . SVG Version: 6.00 Build 0)  -->
<svg version="1.1" id="Layer_1" xmlns="http://www.w3.org/2000/svg" xmlns:xlink="http://www.w3.org/1999/xlink" x="0px" y="0px"
	 viewBox="0 0 24 24" style="enable-background:new 0 0 24 24;" xml:space="preserve">
<g id="list-plus">
	<path d="M9,13.5v1C9,14.775,8.775,15,8.5,15h-1C7.225,15,7,14.775,7,14.5v-1C7,13.225,7.225,13,7.5,13h1C8.775,13,9,13.225,9,13.5z
		 M18.5,16h-8c-0.275,0-0.5,0.225-0.5,0.5v1c0,0.275,0.225,0.5,0.5,0.5h8c0.275,0,0.5-0.225,0.5-0.5v-1C19,16.225,18.775,16,18.5,16
		z M8.5,16h-1C7.225,16,7,16.225,7,16.5v1C7,17.775,7.225,18,7.5,18h1C8.775,18,9,17.775,9,17.5v-1C9,16.225,8.775,16,8.5,16z
		 M18.5,7h-6.592C11.964,7.157,12,7.324,12,7.5v1c0,0.176-0.036,0.343-0.092,0.5H18.5C18.775,9,19,8.775,19,8.5v-1
		C19,7.225,18.775,7,18.5,7z M18.5,10h-8c-0.275,0-0.5,0.225-0.5,0.5v1c0,0.275,0.225,0.5,0.5,0.5h8c0.275,0,0.5-0.225,0.5-0.5v-1
		C19,10.225,18.775,10,18.5,10z M18.5,13h-8c-0.275,0-0.5,0.225-0.5,0.5v1c0,0.275,0.225,0.5,0.5,0.5h8c0.275,0,0.5-0.225,0.5-0.5
		v-1C19,13.225,18.775,13,18.5,13z M10.5,7H9V5.5C9,5.225,8.775,5,8.5,5h-1C7.225,5,7,5.225,7,5.5V7H5.5C5.225,7,5,7.225,5,7.5v1
		C5,8.775,5.225,9,5.5,9H7v1.5C7,10.775,7.225,11,7.5,11h1C8.775,11,9,10.775,9,10.5V9h1.5C10.775,9,11,8.775,11,8.5v-1
		C11,7.225,10.775,7,10.5,7z"/>
</g>
</svg>
