<?xml version="1.0" encoding="utf-8"?>
<!-- Generator: Adobe Illustrator 19.1.0, SVG Export Plug-In . SVG Version: 6.00 Build 0)  -->
<svg version="1.1" id="Layer_1" xmlns="http://www.w3.org/2000/svg" xmlns:xlink="http://www.w3.org/1999/xlink" x="0px" y="0px"
	 viewBox="0 0 24 24" style="enable-background:new 0 0 24 24;" xml:space="preserve">
<g id="registration-mark">
	<g id="registration_x5F_mark_1_">
		<path d="M13,6.094c-3.257,0-5.906,2.649-5.906,5.906S9.743,17.906,13,17.906c3.257,0,5.906-2.649,5.906-5.906
			S16.257,6.094,13,6.094z M13,16.207c-2.32,0-4.207-1.887-4.207-4.207S10.68,7.793,13,7.793c2.32,0,4.207,1.887,4.207,4.207
			S15.32,16.207,13,16.207z"/>
		<path d="M15.5,13.5l-1-1L15,12v-1l-1-1h-3v4h1v-1h1.5l1,1h1V13.5z M14,12h-2v-1h2V12z"/>
	</g>
</g>
</svg>
