<?xml version="1.0" encoding="utf-8"?>
<!-- Generator: Adobe Illustrator 19.1.0, SVG Export Plug-In . SVG Version: 6.00 Build 0)  -->
<svg version="1.1" id="Layer_1" xmlns="http://www.w3.org/2000/svg" xmlns:xlink="http://www.w3.org/1999/xlink" x="0px" y="0px"
	 viewBox="0 0 24 24" style="enable-background:new 0 0 24 24;" xml:space="preserve">
<g id="usd_1_">
	<path id="usd" d="M17.327,13.852c0-2.184-1.765-2.743-2.684-2.929c0,0-0.269-0.043-0.643-0.138V7.719
		c1.062,0.188,1.266,0.752,1.364,1.6h1.589c-0.097-2.31-1.86-2.882-2.953-3.014V5.516h-1v0.779
		c-1.497,0.142-2.973,1.091-2.973,3.013c0,1.893,1.394,2.465,2.7,2.854c0.087,0.026,0.174,0.051,0.273,0.079v3.346
		c-0.984-0.202-1.59-0.878-1.658-1.909H9.953c0.028,0.957,0.095,1.741,0.679,2.331c0.578,0.583,1.41,0.932,2.368,1.034v0.786h1
		v-0.771C16.058,16.907,17.327,15.717,17.327,13.852z M11.656,9.112c0-1.065,0.671-1.307,1.344-1.394v2.741
		C12.344,10.281,11.656,10.178,11.656,9.112z M14,15.635v-3.109c0.937,0.291,1.699,0.672,1.699,1.597
		C15.699,15.291,14.646,15.57,14,15.635z"/>
</g>
</svg>
