<?xml version="1.0" encoding="utf-8"?>
<!-- Generator: Adobe Illustrator 19.1.0, SVG Export Plug-In . SVG Version: 6.00 Build 0)  -->
<svg version="1.1" id="Layer_1" xmlns="http://www.w3.org/2000/svg" xmlns:xlink="http://www.w3.org/1999/xlink" x="0px" y="0px"
	 viewBox="0 0 24 24" style="enable-background:new 0 0 24 24;" xml:space="preserve">
<g id="eye-open">
	<path d="M13,7.062c-3.984,0-6.359,3.969-6.359,4.938S9.047,16.938,13,16.938s6.359-3.969,6.359-4.938S16.984,7.062,13,7.062z
		 M12.081,10.811c0.205,0.337,0.524,0.807,0.893,1.168c0.197,0.193,0.228,0.476,0.032,0.671l-0.342,0.342
		c-0.195,0.195-0.546,0.235-0.756,0.057c-0.378-0.321-0.69-0.715-0.926-1.156c-0.13-0.243-0.052-0.612,0.144-0.807l0.356-0.356
		C11.677,10.535,11.937,10.575,12.081,10.811z M8.44,12.433C8.297,12.197,8.33,11.817,8.5,11.6c0.365-0.466,1.002-1.252,1.596-1.841
		c0.196-0.195,0.243-0.153,0.136,0.102C10.084,10.211,10,10.595,10,11c0,1.656,1.343,3,3,3c1.657,0,3-1.344,3-3
		c0-0.424-0.09-0.827-0.25-1.192c-0.111-0.253-0.066-0.294,0.131-0.1c0.627,0.617,1.265,1.42,1.625,1.894
		c0.167,0.22,0.197,0.601,0.054,0.838c-0.58,0.958-2.175,3.164-4.56,3.164S9.02,13.393,8.44,12.433z"/>
</g>
</svg>
