<?xml version="1.0" encoding="utf-8"?>
<!-- Generator: Adobe Illustrator 19.1.0, SVG Export Plug-In . SVG Version: 6.00 Build 0)  -->
<svg version="1.1" id="Layer_1" xmlns="http://www.w3.org/2000/svg" xmlns:xlink="http://www.w3.org/1999/xlink" x="0px" y="0px"
	 viewBox="0 0 24 24" style="enable-background:new 0 0 24 24;" xml:space="preserve">
<g id="sunglasses">
	<path d="M18.57,12.105l-2.982-2.958c-0.122-0.109-0.289-0.153-0.449-0.114l-0.694,0.19c-0.267,0.064-0.431,0.333-0.368,0.6
		c0.064,0.268,0.333,0.432,0.6,0.368l0.439-0.118L16.942,12H13.85c-0.716,0-2.078,0-2.794,0H8.029l1.824-1.925l0.504,0.12
		c0.266,0.068,0.536-0.098,0.603-0.364c0.067-0.267-0.095-0.538-0.362-0.605L9.837,9.035c-0.16-0.041-0.331,0.002-0.454,0.112
		l-2.982,2.958c-0.153,0.138-0.205,0.37-0.131,0.562C6.344,12.859,6.529,13,6.735,13h0.062c-0.005,0-0.012,0.091-0.012,0.132
		C6.784,14.122,7.009,16,8.7,16h1.417c1.691,0,1.838-1.892,1.838-2.882c0-0.154-0.04-0.323-0.105-0.471
		c0.271-0.045,0.988-0.048,1.252,0.002c-0.063,0.146-0.101,0.32-0.101,0.471c0,0.989,0.147,2.879,1.838,2.879h1.46
		c1.691,0,1.872-1.878,1.872-2.868c0-0.041-0.007-0.132-0.012-0.132h0.077c0.206,0,0.39-0.141,0.464-0.333
		C18.775,12.475,18.723,12.243,18.57,12.105z"/>
</g>
</svg>
