<?xml version="1.0" encoding="utf-8"?>
<!-- Generator: Adobe Illustrator 19.1.0, SVG Export Plug-In . SVG Version: 6.00 Build 0)  -->
<svg version="1.1" id="Layer_1" xmlns="http://www.w3.org/2000/svg" xmlns:xlink="http://www.w3.org/1999/xlink" x="0px" y="0px"
	 viewBox="0 0 24 24" style="enable-background:new 0 0 24 24;" xml:space="preserve">
<g id="remove-sign">
	<path d="M12,6.229c-3.187,0-5.771,2.584-5.771,5.771S8.813,17.771,12,17.771s5.771-2.584,5.771-5.771S15.187,6.229,12,6.229z
		 M10.585,15.128c-0.08,0-0.155-0.031-0.212-0.088l-1.414-1.414c-0.117-0.117-0.117-0.307,0-0.424L10.162,12L8.96,10.798
		c-0.117-0.117-0.117-0.308,0-0.424l1.414-1.414c0.056-0.057,0.131-0.087,0.212-0.087s0.156,0.03,0.212,0.087L12,10.162l1.202-1.202
		c0.056-0.057,0.131-0.088,0.212-0.088s0.156,0.031,0.212,0.087l1.414,1.415c0.057,0.057,0.088,0.132,0.088,0.212
		s-0.031,0.155-0.087,0.212L13.838,12l1.202,1.202c0.057,0.057,0.088,0.132,0.088,0.212s-0.031,0.155-0.087,0.212l-1.414,1.414
		c-0.056,0.057-0.131,0.087-0.212,0.087s-0.156-0.03-0.212-0.087L12,13.838l-1.202,1.202C10.741,15.097,10.666,15.128,10.585,15.128
		z"/>
</g>
</svg>
