<?xml version="1.0" encoding="utf-8"?>
<!-- Generator: Adobe Illustrator 19.1.0, SVG Export Plug-In . SVG Version: 6.00 Build 0)  -->
<svg version="1.1" id="Layer_1" xmlns="http://www.w3.org/2000/svg" xmlns:xlink="http://www.w3.org/1999/xlink" x="0px" y="0px"
	 viewBox="0 0 24 24" style="enable-background:new 0 0 24 24;" xml:space="preserve">
<g id="open-file">
	<path d="M8,17.199V6.25C8,6.112,8.112,6,8.25,6H14v4h3v5.199l-3.5-3.501L8,17.199z M15,7v2h2L15,7z M15.2,17.2V18h1.55
		c0.138,0,0.25-0.113,0.25-0.25V17.2H15.2z M11.8,17.2H8v0.55C8,17.888,8.112,18,8.25,18h3.55V17.2z M11.379,16H13v2h1v-2h1.621
		L13.5,13.879L11.379,16z"/>
</g>
</svg>
