<?xml version="1.0" encoding="utf-8"?>
<!-- Generator: Adobe Illustrator 19.1.0, SVG Export Plug-In . SVG Version: 6.00 Build 0)  -->
<svg version="1.1" id="Layer_1" xmlns="http://www.w3.org/2000/svg" xmlns:xlink="http://www.w3.org/1999/xlink" x="0px" y="0px"
	 viewBox="0 0 24 24" style="enable-background:new 0 0 24 24;" xml:space="preserve">
<g id="copy">
	<path d="M9,17.621V16H7v-1h2v-1.621l2.121,2.121L9,17.621z M12.5,10h3c0.275,0,0.5-0.225,0.5-0.5v-1C16,8.225,15.775,8,15.5,8H15
		V7.5C15,7.225,14.775,7,14.5,7h-1C13.225,7,13,7.225,13,7.5V8h-0.5C12.225,8,12,8.225,12,8.5v1C12,9.775,12.225,10,12.5,10z M17,8
		v1.5c0,0.827-0.673,1.5-1.5,1.5h-3c-0.827,0-1.5-0.673-1.5-1.5V8c-0.55,0-1,0.45-1,1v3.24l3.259,3.26l-2.457,2.458
		C10.868,17.972,10.93,18,11,18h6c0.55,0,1-0.45,1-1V9C18,8.45,17.55,8,17,8z"/>
</g>
</svg>
