<?xml version="1.0" encoding="utf-8"?>
<!-- Generator: Adobe Illustrator 19.1.0, SVG Export Plug-In . SVG Version: 6.00 Build 0)  -->
<svg version="1.1" id="Layer_1" xmlns="http://www.w3.org/2000/svg" xmlns:xlink="http://www.w3.org/1999/xlink" x="0px" y="0px"
	 viewBox="0 0 24 24" style="enable-background:new 0 0 24 24;" xml:space="preserve">
<g id="move-square">
	<path d="M18,5h-5c-1.1,0-2,0.9-2,2v5c0,1.1,0.9,2,2,2h5c1.1,0,2-0.9,2-2V7C20,5.9,19.1,5,18,5z M18,12h-5V7h5V12z M9,13H7v-2
		c0-1.1,0.9-2,2-2h1v2H9V13z M11,16v2H9c-1.1,0-2-0.9-2-2v-2h2v2H11z M14,15h2v1c0,1.1-0.9,2-2,2h-2v-2h2V15z"/>
</g>
</svg>
