<?xml version="1.0" encoding="utf-8"?>
<!-- Generator: Adobe Illustrator 19.1.0, SVG Export Plug-In . SVG Version: 6.00 Build 0)  -->
<svg version="1.1" id="Layer_1" xmlns="http://www.w3.org/2000/svg" xmlns:xlink="http://www.w3.org/1999/xlink" x="0px" y="0px"
	 viewBox="0 0 24 24" style="enable-background:new 0 0 24 24;" xml:space="preserve">
<g id="circle-arrow-down_1_">
	<path id="circle-arrow_1_" d="M13,17.781c3.191,0,5.781-2.588,5.781-5.781S16.191,6.219,13,6.219c-3.193,0-5.781,2.588-5.781,5.781
		S9.807,17.781,13,17.781z M12.685,15.144l-2.239-2.756C10.273,12.175,10.356,12,10.631,12H12V9.25C12,9.112,12.113,9,12.25,9h1.5
		C13.887,9,14,9.112,14,9.25V12h1.369c0.275,0,0.358,0.175,0.185,0.388l-2.239,2.756C13.142,15.357,12.858,15.357,12.685,15.144z"/>
</g>
</svg>
