<?xml version="1.0" encoding="utf-8"?>
<!-- Generator: Adobe Illustrator 19.1.0, SVG Export Plug-In . SVG Version: 6.00 Build 0)  -->
<svg version="1.1" id="Layer_1" xmlns="http://www.w3.org/2000/svg" xmlns:xlink="http://www.w3.org/1999/xlink" x="0px" y="0px"
	 viewBox="0 0 24 24" style="enable-background:new 0 0 24 24;" xml:space="preserve">
<g id="fast-backward">
	<path style="fill-rule:evenodd;clip-rule:evenodd;" d="M17.642,7.349L13,11.875V7.5c0-0.275-0.161-0.343-0.358-0.151L8,11.875V7.5
		C8,7.224,7.776,7,7.5,7h-1C6.224,7,6,7.224,6,7.5v10C6,17.776,6.224,18,6.5,18h1C7.776,18,8,17.776,8,17.5v-4.375l4.642,4.526
		C12.839,17.843,13,17.775,13,17.5v-4.375l4.642,4.526C17.839,17.843,18,17.775,18,17.5v-10C18,7.225,17.839,7.157,17.642,7.349z"/>
</g>
</svg>
