<?xml version="1.0" encoding="utf-8"?>
<!-- Generator: Adobe Illustrator 19.1.0, SVG Export Plug-In . SVG Version: 6.00 Build 0)  -->
<svg version="1.1" id="Layer_1" xmlns="http://www.w3.org/2000/svg" xmlns:xlink="http://www.w3.org/1999/xlink" x="0px" y="0px"
	 viewBox="0 0 24 24" style="enable-background:new 0 0 24 24;" xml:space="preserve">
<g id="resize-full">
	<path d="M17.5,6h-3c-0.275,0-0.341,0.159-0.146,0.354l0.939,0.939l-2.491,2.491c-0.097,0.097-0.097,0.256,0,0.354l1.061,1.061
		c0.097,0.097,0.256,0.097,0.354,0l2.491-2.491l0.939,0.939C17.841,9.841,18,9.775,18,9.5v-3C18,6.225,17.775,6,17.5,6z M6.5,18h3
		c0.275,0,0.341-0.159,0.146-0.354l-0.939-0.939l2.491-2.491c0.097-0.097,0.097-0.256,0-0.354l-1.061-1.061
		c-0.097-0.097-0.256-0.097-0.354,0l-2.491,2.491l-0.939-0.939C6.159,14.159,6,14.225,6,14.5v3C6,17.775,6.225,18,6.5,18z"/>
</g>
</svg>
