<?xml version="1.0" encoding="utf-8"?>
<!-- Generator: Adobe Illustrator 19.1.0, SVG Export Plug-In . SVG Version: 6.00 Build 0)  -->
<svg version="1.1" id="Layer_1" xmlns="http://www.w3.org/2000/svg" xmlns:xlink="http://www.w3.org/1999/xlink" x="0px" y="0px"
	 viewBox="0 0 24 24" style="enable-background:new 0 0 24 24;" xml:space="preserve">
<g id="scale">
	<path d="M16.92,6.021H9.12c-1.144,0-2.08,0.936-2.08,2.08v4.159c0,1.144,0.724,3.663,0.724,3.663
		c0.346,1.108,1.252,2.055,2.396,2.055h5.721c1.144,0,2.041-0.979,2.396-2.055c0,0,0.724-2.52,0.724-3.663V8.101
		C19,6.957,18.064,6.021,16.92,6.021z M17.359,9.667l-1.554,2.436h-5.609L8.641,9.667c0,0,0.906-2.115,4.359-2.115
		S17.359,9.667,17.359,9.667z M15,8.355l-0.382,2.614h-1.566L15,8.355z"/>
</g>
</svg>
