<?xml version="1.0" encoding="utf-8"?>
<!-- Generator: Adobe Illustrator 19.1.0, SVG Export Plug-In . SVG Version: 6.00 Build 0)  -->
<svg version="1.1" id="Layer_1" xmlns="http://www.w3.org/2000/svg" xmlns:xlink="http://www.w3.org/1999/xlink" x="0px" y="0px"
	 viewBox="0 0 24 24" style="enable-background:new 0 0 24 24;" xml:space="preserve">
<g id="synchronization">
	<path d="M10.865,12h-0.75c0-1.594,1.292-2.886,2.885-2.886c0.653,0,1.251,0.221,1.735,0.587l0.674-0.674
		c0.05-0.05,0.091-0.033,0.091,0.038v1.806c0,0.071-0.058,0.129-0.129,0.129h-1.806c-0.071,0-0.088-0.041-0.038-0.091l0.669-0.669
		C13.853,10.006,13.444,9.864,13,9.864C11.823,9.864,10.865,10.822,10.865,12z M15.135,12c0,1.178-0.958,2.136-2.135,2.136
		c-0.447,0-0.858-0.143-1.2-0.379l0.666-0.666c0.05-0.05,0.033-0.091-0.038-0.091h-1.799c-0.071,0-0.129,0.058-0.129,0.129v1.799
		c0,0.071,0.041,0.088,0.091,0.038l0.67-0.67c0.484,0.368,1.084,0.59,1.739,0.59c1.594,0,2.885-1.292,2.885-2.886H15.135z M13,7.445
		c2.511,0,4.555,2.043,4.555,4.555S15.511,16.555,13,16.555S8.445,14.511,8.445,12S10.489,7.445,13,7.445L13,7.445z M13,6.031
		c-3.296,0-5.969,2.672-5.969,5.969S9.704,17.969,13,17.969s5.969-2.672,5.969-5.969S16.296,6.031,13,6.031L13,6.031z"/>
</g>
</svg>
