<?xml version="1.0" encoding="utf-8"?>
<!-- Generator: Adobe Illustrator 19.1.0, SVG Export Plug-In . SVG Version: 6.00 Build 0)  -->
<svg version="1.1" id="Layer_1" xmlns="http://www.w3.org/2000/svg" xmlns:xlink="http://www.w3.org/1999/xlink" x="0px" y="0px"
	 viewBox="0 0 24 24" style="enable-background:new 0 0 24 24;" xml:space="preserve">
<g id="share_1_">
	<path d="M17.629,10.277l-3.39-3.009c-0.106-0.094-0.19-0.054-0.194,0.082v2.097c-0.676,0.056-3.325,0.458-3.817,3.312
		c0.933-1.158,3.204-1.185,3.817-1.171v2.034c0.012,0.118,0.088,0.156,0.187,0.066l3.399-3.061
		C17.738,10.531,17.737,10.373,17.629,10.277z"/>
	<path d="M15,14.998V15c0,0.55-0.45,1-1,1H9c-0.55,0-1-0.45-1-1v-5c0-0.55,0.45-1,1-1h1.949c0.521-0.543,2.16-2,2.16-2H9.5
		C7.3,7,6,8.3,6,10.5v4C6,16.7,7.3,18,9.5,18h4c2.2,0,3.5-1.3,3.5-3.5v-1.025L15,14.998z"/>
</g>
</svg>
