<?xml version="1.0" encoding="utf-8"?>
<!-- Generator: Adobe Illustrator 19.1.0, SVG Export Plug-In . SVG Version: 6.00 Build 0)  -->
<svg version="1.1" id="Layer_1" xmlns="http://www.w3.org/2000/svg" xmlns:xlink="http://www.w3.org/1999/xlink" x="0px" y="0px"
	 viewBox="0 0 24 24" style="enable-background:new 0 0 24 24;" xml:space="preserve">
<g id="modal-window">
	<path d="M15.5,6h-5C8.3,6,7,7.3,7,9.5v5c0,2.2,1.3,3.5,3.5,3.5h5c2.156,0,3.5-1.281,3.5-3.5c0,0,0-4,0-5C19,7.328,17.656,6,15.5,6z
		 M16,8c0.55,0,1,0.45,1,1v6c0,0.55-0.45,1-1,1h-6c-0.55,0-1-0.45-1-1V9c0-0.55,0.45-1,1-1H16z M15,10v2h-4v-2H15L15,10z M15.5,9h-5
		C10.225,9,10,9.225,10,9.5v3c0,0.275,0.225,0.5,0.5,0.5h5c0.275,0,0.5-0.225,0.5-0.5v-3C16,9.225,15.775,9,15.5,9L15.5,9z"/>
</g>
</svg>
