<?xml version="1.0" encoding="utf-8"?>
<!-- Generator: Adobe Illustrator 19.1.0, SVG Export Plug-In . SVG Version: 6.00 Build 0)  -->
<svg version="1.1" id="Layer_1" xmlns="http://www.w3.org/2000/svg" xmlns:xlink="http://www.w3.org/1999/xlink" x="0px" y="0px"
	 viewBox="0 0 24 24" style="enable-background:new 0 0 24 24;" xml:space="preserve">
<g id="battery-charging">
	<path d="M21,10.5v3c0,0.275-0.225,0.5-0.5,0.5H20v-4h0.5C20.775,10,21,10.225,21,10.5z M12.5,13H9.435
		c-0.139,0-0.255-0.072-0.311-0.191c-0.06-0.128-0.035-0.286,0.063-0.404c1.059-1.207,2.704-3.062,3.894-4.404H8C7.45,8,7,8.45,7,9
		v6c0,0.55,0.45,1,1,1h3.444C11.908,14.674,12.5,13,12.5,13z M18,8h-3.314c-0.448,1.263-1.035,2.892-1.064,2.996l2.882-0.006
		c0.148,0,0.265,0.063,0.318,0.173c0.054,0.11,0.033,0.25-0.058,0.368c-0.002,0.002-2.232,2.609-3.822,4.47H18c0.55,0,1-0.45,1-1V9
		C19,8.45,18.55,8,18,8z"/>
</g>
</svg>
