<?xml version="1.0" encoding="utf-8"?>
<!-- Generator: Adobe Illustrator 19.1.0, SVG Export Plug-In . SVG Version: 6.00 Build 0)  -->
<svg version="1.1" id="Layer_1" xmlns="http://www.w3.org/2000/svg" xmlns:xlink="http://www.w3.org/1999/xlink" x="0px" y="0px"
	 viewBox="0 0 24 24" style="enable-background:new 0 0 24 24;" xml:space="preserve">
<g id="paired">
	<path d="M20,11.5v3c0,1.375-1.125,2.5-2.5,2.5h-5c-1.375,0-2.5-1.125-2.5-2.5v-3c0-1.375,1.125-2.5,2.5-2.5H13v2h-0.5
		c-0.271,0-0.5,0.229-0.5,0.5v3c0,0.271,0.229,0.5,0.5,0.5h5c0.271,0,0.5-0.229,0.5-0.5v-3c0-0.271-0.229-0.5-0.5-0.5H17V9h0.5
		C18.875,9,20,10.125,20,11.5z M13.5,6h-5C7.125,6,6,7.125,6,8.5v3C6,12.875,7.125,14,8.5,14H9v-2H8.5C8.229,12,8,11.771,8,11.5v-3
		C8,8.229,8.229,8,8.5,8H14v3.5V12h-1v2h0.5c1.375,0,2.5-1.125,2.5-2.5v-3C16,7.125,14.875,6,13.5,6z"/>
</g>
</svg>
