<?xml version="1.0" encoding="utf-8"?>
<!-- Generator: Adobe Illustrator 19.1.0, SVG Export Plug-In . SVG Version: 6.00 Build 0)  -->
<svg version="1.1" id="Layer_1" xmlns="http://www.w3.org/2000/svg" xmlns:xlink="http://www.w3.org/1999/xlink" x="0px" y="0px"
	 viewBox="0 0 24 24" style="enable-background:new 0 0 24 24;" xml:space="preserve">
<g id="pause">
	<path style="fill-rule:evenodd;clip-rule:evenodd;" d="M11,16.5c0,0.276-0.224,0.5-0.5,0.5h-2C8.224,17,8,16.776,8,16.5v-8
		C8,8.224,8.224,8,8.5,8h2C10.776,8,11,8.224,11,8.5V16.5z"/>
	<path style="fill-rule:evenodd;clip-rule:evenodd;" d="M15,16.5c0,0.276-0.224,0.5-0.5,0.5h-2c-0.276,0-0.5-0.224-0.5-0.5v-8
		C12,8.224,12.224,8,12.5,8h2C14.776,8,15,8.224,15,8.5V16.5z"/>
</g>
</svg>
