<?xml version="1.0" encoding="utf-8"?>
<!-- Generator: Adobe Illustrator 19.1.0, SVG Export Plug-In . SVG Version: 6.00 Build 0)  -->
<svg version="1.1" id="Layer_1" xmlns="http://www.w3.org/2000/svg" xmlns:xlink="http://www.w3.org/1999/xlink" x="0px" y="0px"
	 viewBox="0 0 24 24" style="enable-background:new 0 0 24 24;" xml:space="preserve">
<g id="th-list">
	<path id="path_13_" style="fill-rule:evenodd;clip-rule:evenodd;" d="M9,13.5C9,13.775,8.775,14,8.5,14h-2
		C6.225,14,6,13.775,6,13.5v-2C6,11.225,6.225,11,6.5,11h2C8.775,11,9,11.225,9,11.5V13.5z M9,15.5C9,15.225,8.775,15,8.5,15h-2
		C6.225,15,6,15.225,6,15.5v2C6,17.775,6.225,18,6.5,18h2C8.775,18,9,17.775,9,17.5V15.5z M9,7.5C9,7.225,8.775,7,8.5,7h-2
		C6.225,7,6,7.225,6,7.5v2C6,9.775,6.225,10,6.5,10h2C8.775,10,9,9.775,9,9.5V7.5z M18,11.5c0-0.275-0.225-0.5-0.5-0.5h-7
		c-0.275,0-0.5,0.225-0.5,0.5v2c0,0.275,0.225,0.5,0.5,0.5h7c0.275,0,0.5-0.225,0.5-0.5V11.5z M18,15.5c0-0.275-0.225-0.5-0.5-0.5
		h-7c-0.275,0-0.5,0.225-0.5,0.5v2c0,0.275,0.225,0.5,0.5,0.5h7c0.275,0,0.5-0.225,0.5-0.5V15.5z M18,7.5C18,7.225,17.775,7,17.5,7
		h-7C10.225,7,10,7.225,10,7.5v2c0,0.275,0.225,0.5,0.5,0.5h7c0.275,0,0.5-0.225,0.5-0.5V7.5z"/>
</g>
</svg>
