<?xml version="1.0" encoding="utf-8"?>
<!-- Generator: Adobe Illustrator 19.1.0, SVG Export Plug-In . SVG Version: 6.00 Build 0)  -->
<svg version="1.1" id="Layer_1" xmlns="http://www.w3.org/2000/svg" xmlns:xlink="http://www.w3.org/1999/xlink" x="0px" y="0px"
	 viewBox="0 0 24 24" style="enable-background:new 0 0 24 24;" xml:space="preserve">
<g id="object-align-vertical">
	<path d="M17.5,13H13v-1h1.5c0.275,0,0.5-0.225,0.5-0.5v-4C15,7.225,14.775,7,14.5,7H13V6h-1v1h-1.5C10.225,7,10,7.225,10,7.5v4
		c0,0.275,0.225,0.5,0.5,0.5H12v1H8.5C8.225,13,8,13.225,8,13.5v4C8,17.775,8.225,18,8.5,18H12h1h4.5c0.275,0,0.5-0.225,0.5-0.5v-4
		C18,13.225,17.775,13,17.5,13z M11,8h3v3h-3V8z"/>
</g>
</svg>
