<?xml version="1.0" encoding="utf-8"?>
<!-- Generator: Adobe Illustrator 19.1.0, SVG Export Plug-In . SVG Version: 6.00 Build 0)  -->
<svg version="1.1" id="Layer_1" xmlns="http://www.w3.org/2000/svg" xmlns:xlink="http://www.w3.org/1999/xlink" x="0px" y="0px"
	 viewBox="0 0 24 24" style="enable-background:new 0 0 24 24;" xml:space="preserve">
<g id="blackboard">
	<path d="M18,7.5v5c0,0.276-0.224,0.5-0.5,0.5h-9C8.224,13,8,12.776,8,12.5v-5C8,7.224,8.224,7,8.5,7h9C17.776,7,18,7.224,18,7.5z
		 M18,14.25v0.5c0,0.138-0.112,0.25-0.25,0.25h-2.826l2.238,2.238c0.176,0.176,0.176,0.461,0,0.637
		c-0.088,0.088-0.203,0.132-0.318,0.132s-0.23-0.044-0.318-0.132L15.651,17h-5.239l-0.875,0.875
		c-0.088,0.088-0.203,0.132-0.318,0.132s-0.23-0.044-0.318-0.132c-0.176-0.176-0.176-0.461,0-0.637L11.138,15H8.25
		C8.112,15,8,14.888,8,14.75v-0.5C8,14.112,8.112,14,8.25,14h9.5C17.888,14,18,14.112,18,14.25z M14.651,16l-1-1h-1.24l-1,1H14.651z
		"/>
</g>
</svg>
