<?xml version="1.0" encoding="utf-8"?>
<!-- Generator: Adobe Illustrator 19.1.0, SVG Export Plug-In . SVG Version: 6.00 Build 0)  -->
<svg version="1.1" id="Layer_1" xmlns="http://www.w3.org/2000/svg" xmlns:xlink="http://www.w3.org/1999/xlink" x="0px" y="0px"
	 viewBox="0 0 24 24" style="enable-background:new 0 0 24 24;" xml:space="preserve">
<g id="question-sign">
	<path d="M12,6.228c-3.187,0-5.771,2.584-5.771,5.772S8.813,17.771,12,17.771s5.771-2.584,5.771-5.771S15.187,6.228,12,6.228z
		 M12.937,13.136c-0.216,0-1.004,0-1.729,0c-0.216,0-0.265-0.17-0.259-0.249c0.101-1.226,0.918-1.345,1.17-1.438
		c0.253-0.092,0.332-0.213,0.332-0.525c0-0.236-0.167-0.389-0.432-0.389c-0.43,0-0.579,0.106-0.662,0.368
		c-0.049,0.153-0.344,0.104-0.344,0.104s-0.698,0-1.318,0c-0.166,0-0.199-0.121-0.199-0.249c0-1.755,1.503-2.169,2.381-2.169
		s2.425,0.338,2.425,1.969C14.303,12.471,13.153,13.136,12.937,13.136z M13,15.75c0,0.137-0.113,0.25-0.25,0.25h-1.5
		C11.113,16,11,15.887,11,15.75v-1.5c0-0.137,0.113-0.25,0.25-0.25h1.5c0.137,0,0.25,0.113,0.25,0.25V15.75z"/>
</g>
</svg>
