<?xml version="1.0" encoding="utf-8"?>
<!-- Generator: Adobe Illustrator 19.1.0, SVG Export Plug-In . SVG Version: 6.00 Build 0)  -->
<svg version="1.1" id="Layer_1" xmlns="http://www.w3.org/2000/svg" xmlns:xlink="http://www.w3.org/1999/xlink" x="0px" y="0px"
	 viewBox="0 0 24 24" style="enable-background:new 0 0 24 24;" xml:space="preserve">
<g id="apple">
	<path d="M17.646,13.731c0,0-0.434,3.451-2.591,4.268c-0.308,0.117-1.173,0-1.555,0c-0.436,0-1.215,0.149-1.555,0
		c-2.046-0.895-2.591-4.268-2.591-4.268c-0.953-3.921,1.868-3.639,3.395-3.389l-1.471-1.925C11.125,8.187,11.225,8,11.5,8h1
		c0.275,0,0.571,0.213,0.658,0.474l0.787,1.932C15.285,10.175,18.736,9.394,17.646,13.731z M17,6c-1.657,0-3,1.343-3,3
		C15.657,9,17,7.657,17,6z"/>
</g>
</svg>
