<?xml version="1.0" encoding="utf-8"?>
<!-- Generator: Adobe Illustrator 19.1.0, SVG Export Plug-In . SVG Version: 6.00 Build 0)  -->
<svg version="1.1" id="Layer_1" xmlns="http://www.w3.org/2000/svg" xmlns:xlink="http://www.w3.org/1999/xlink" x="0px" y="0px"
	 viewBox="0 0 24 24" style="enable-background:new 0 0 24 24;" xml:space="preserve">
<g id="signal">
	<path id="path_22_" d="M9,17.75C9,17.888,8.887,18,8.75,18h-1.5C7.113,18,7,17.888,7,17.75v-2.5C7,15.113,7.113,15,7.25,15h1.5
		C8.887,15,9,15.113,9,15.25V17.75z M12,13.25c0-0.137-0.113-0.25-0.25-0.25h-1.5C10.113,13,10,13.113,10,13.25v4.5
		c0,0.138,0.113,0.25,0.25,0.25h1.5c0.137,0,0.25-0.112,0.25-0.25V13.25z M15,10.25c0-0.137-0.113-0.25-0.25-0.25h-1.5
		C13.113,10,13,10.113,13,10.25v7.5c0,0.138,0.113,0.25,0.25,0.25h1.5c0.137,0,0.25-0.112,0.25-0.25V10.25z M18,6.25
		C18,6.113,17.888,6,17.75,6h-1.5C16.112,6,16,6.113,16,6.25v11.5c0,0.138,0.112,0.25,0.25,0.25h1.5c0.138,0,0.25-0.112,0.25-0.25
		V6.25z"/>
</g>
</svg>
