<?xml version="1.0" encoding="utf-8"?>
<!-- Generator: Adobe Illustrator 19.1.0, SVG Export Plug-In . SVG Version: 6.00 Build 0)  -->
<svg version="1.1" id="Layer_1" xmlns="http://www.w3.org/2000/svg" xmlns:xlink="http://www.w3.org/1999/xlink" x="0px" y="0px"
	 viewBox="0 0 24 24" style="enable-background:new 0 0 24 24;" xml:space="preserve">
<g id="hand-left">
	<path style="opacity:0.3;" d="M9.696,12.608C9.634,12.393,9.437,12,9.213,12h1.537l1.656,4h-1.403L9.696,12.608z"/>
	<path d="M10.308,16.391L9,13H7.937C6.867,13,6,12.5,6,11.5s0.852-1.484,1.922-1.484c0.941,0,2.015,0.004,3.02,0.008l-0.848-1.211
		c-0.153-0.199-0.15-0.481,0.028-0.66l1.097-1.121c0.152-0.151,0.339-0.157,0.531-0.062l3.655,2.299c0,0,0.595,0.342,0.595,0.732
		s0,5.252,0,5.252C16,15.442,14.287,17,14.208,17H10.79C10.566,17,10.369,16.607,10.308,16.391z M15,15.109v-5.026l-3.422-2.364
		l-0.875,0.828l1.455,1.835c0.117,0.151,0.132,0.294,0.047,0.464C12.121,11.018,11.942,11,11.751,11c0,0-3.751,0-4.751,0v1
		c1,0,2.213,0,2.213,0c0.224,0,0.421,0.393,0.482,0.608L11.003,16h2.935L15,15.109z"/>
	<path d="M19,10.5c0-0.275-0.225-0.5-0.5-0.5h-1c-0.275,0-0.5,0.225-0.5,0.5v5c0,0.275,0.225,0.5,0.5,0.5h1
		c0.275,0,0.5-0.225,0.5-0.5V10.5z"/>
</g>
</svg>
