<?xml version="1.0" encoding="utf-8"?>
<!-- Generator: Adobe Illustrator 19.1.0, SVG Export Plug-In . SVG Version: 6.00 Build 0)  -->
<svg version="1.1" id="Layer_1" xmlns="http://www.w3.org/2000/svg" xmlns:xlink="http://www.w3.org/1999/xlink" x="0px" y="0px"
	 viewBox="0 0 24 24" style="enable-background:new 0 0 24 24;" xml:space="preserve">
<g id="open">
	<g id="save_1_">
		<path d="M14,13.5c0,0.275-0.281,0.5-0.556,0.5h-2C11.169,14,11,13.775,11,13.5V11H8.499c-0.275,0-0.35-0.277-0.166-0.481
			l3.828-4.311c0.184-0.205,0.484-0.231,0.667-0.026l3.784,4.349C16.795,10.736,16.719,11,16.444,11H14V13.5z M18,15.5V18H7v-2.5
			C7,15.225,7.225,15,7.5,15h10C17.775,15,18,15.225,18,15.5z M17,16h-1v0.5h1V16z"/>
	</g>
</g>
</svg>
