<?xml version="1.0" encoding="utf-8"?>
<!-- Generator: Adobe Illustrator 19.1.0, SVG Export Plug-In . SVG Version: 6.00 Build 0)  -->
<svg version="1.1" id="Layer_1" xmlns="http://www.w3.org/2000/svg" xmlns:xlink="http://www.w3.org/1999/xlink" x="0px" y="0px"
	 viewBox="0 0 24 24" style="enable-background:new 0 0 24 24;" xml:space="preserve">
<g id="play-circle">
	<path id="path_40_" d="M12,7.728c2.355,0,4.271,1.916,4.271,4.272S14.355,16.271,12,16.271S7.729,14.356,7.729,12
		S9.645,7.728,12,7.728L12,7.728z M12,6.228c-3.187,0-5.771,2.584-5.771,5.772S8.813,17.771,12,17.771s5.771-2.584,5.771-5.771
		S15.187,6.228,12,6.228L12,6.228z"/>
	<path id="path_39_" d="M13.933,11.7c0.22,0.165,0.22,0.435,0,0.6L11.4,14.2C11.18,14.365,11,14.275,11,14v-4
		c0-0.275,0.18-0.365,0.4-0.2L13.933,11.7z"/>
</g>
</svg>
