<?xml version="1.0" encoding="utf-8"?>
<!-- Generator: Adobe Illustrator 19.1.0, SVG Export Plug-In . SVG Version: 6.00 Build 0)  -->
<svg version="1.1" id="Layer_1" xmlns="http://www.w3.org/2000/svg" xmlns:xlink="http://www.w3.org/1999/xlink" x="0px" y="0px"
	 viewBox="0 0 24 24" style="enable-background:new 0 0 24 24;" xml:space="preserve">
<g id="yen">
	<path d="M14.177,10.823c-0.043,0.043-0.08,0.109-0.111,0.177h2.685c0.138,0,0.182,0.09,0.1,0.2l-1.2,1.6
		c-0.083,0.11-0.263,0.2-0.4,0.2H14v1h2.75c0.138,0,0.182,0.09,0.1,0.2l-1.2,1.6c-0.083,0.11-0.263,0.2-0.4,0.2H14v1.739
		C14,17.883,13.883,18,13.739,18h-1.478C12.117,18,12,17.883,12,17.739V16H9.25c-0.138,0-0.182-0.09-0.1-0.2l1.2-1.6
		c0.083-0.11,0.263-0.2,0.4-0.2H12v-1H9.25c-0.138,0-0.182-0.09-0.1-0.2l1.2-1.6c0.083-0.11,0.263-0.2,0.4-0.2h1.185
		c-0.031-0.068-0.068-0.133-0.111-0.177L8.177,7.177C8.08,7.08,8.112,7,8.25,7h2.5c0.138,0,0.33,0.08,0.427,0.177l1.646,1.646
		c0.097,0.097,0.256,0.097,0.354,0l1.646-1.646C14.92,7.08,15.112,7,15.25,7h2.5c0.138,0,0.17,0.08,0.073,0.177L14.177,10.823z"/>
</g>
</svg>
