<?xml version="1.0" encoding="utf-8"?>
<!-- Generator: Adobe Illustrator 19.1.0, SVG Export Plug-In . SVG Version: 6.00 Build 0)  -->
<svg version="1.1" id="Layer_1" xmlns="http://www.w3.org/2000/svg" xmlns:xlink="http://www.w3.org/1999/xlink" x="0px" y="0px"
	 viewBox="0 0 24 24" style="enable-background:new 0 0 24 24;" xml:space="preserve">
<g id="gift">
	<g style="opacity:0.3;">
		<path d="M18,14h-4v4h-2v-4H8v-2h4V9h2v3h4V14z"/>
	</g>
	<path d="M8,14h4v4H8.25C8.112,18,8,17.887,8,17.75V14z M14,18h3.75c0.138,0,0.25-0.113,0.25-0.25V14h-4V18z M18.75,9h-0.613
		C18,9,17.892,8.912,17.875,8.805s-0.052-0.306-0.078-0.441l-0.242-1.229C17.528,7,17.443,6.796,17.366,6.683
		c0,0-0.448-0.662-0.963-0.662c-0.21,0-0.384,0.073-0.384,0.073c-0.127,0.053-0.327,0.155-0.445,0.225l-1.963,1.179
		c-0.118,0.071-0.425,0.279-0.491,0.351c-0.066,0.072-0.292-0.061-0.372-0.12c-0.08-0.059-0.242-0.166-0.36-0.237l-1.959-1.181
		c-0.118-0.071-0.317-0.176-0.442-0.232c0,0-0.176-0.08-0.386-0.08C9.086,6,8.64,6.638,8.64,6.638
		c-0.079,0.113-0.165,0.315-0.191,0.45L8.202,8.37C8.176,8.505,8.109,8.832,8.11,8.892S8,9,7.862,9H7.25C7.112,9,7,9.113,7,9.25v0.5
		C7,9.887,7.112,10,7.25,10h0.5C7.888,10,8,10.113,8,10.25V12h4V9h2v3h4v-1.75c0-0.137,0.112-0.25,0.25-0.25h0.5
		C18.888,10,19,9.887,19,9.75v-0.5C19,9.113,18.888,9,18.75,9z M11.565,9H9.25C9.112,9,9.038,8.894,9.083,8.764l0.502-1.436
		C9.634,7.2,9.759,7.169,9.862,7.261l1.766,1.573C11.73,8.925,11.702,9,11.565,9z M16.75,9h-2.185c-0.138,0-0.17-0.079-0.071-0.175
		l1.654-1.619c0.098-0.096,0.218-0.069,0.266,0.059l0.505,1.498C16.964,8.894,16.888,9,16.75,9z"/>
</g>
</svg>
