<?xml version="1.0" encoding="utf-8"?>
<!-- Generator: Adobe Illustrator 19.1.0, SVG Export Plug-In . SVG Version: 6.00 Build 0)  -->
<svg version="1.1" id="Layer_1" xmlns="http://www.w3.org/2000/svg" xmlns:xlink="http://www.w3.org/1999/xlink" x="0px" y="0px"
	 viewBox="0 0 24 24" style="enable-background:new 0 0 24 24;" xml:space="preserve">
<g id="plus">
	<path d="M16.5,11H13V7.5C13,7.225,12.775,7,12.5,7h-2C10.225,7,10,7.225,10,7.5V11H6.5C6.225,11,6,11.225,6,11.5v2
		C6,13.775,6.225,14,6.5,14H10v3.5c0,0.275,0.225,0.5,0.5,0.5h2c0.275,0,0.5-0.225,0.5-0.5V14h3.5c0.275,0,0.5-0.225,0.5-0.5v-2
		C17,11.225,16.775,11,16.5,11z"/>
</g>
</svg>
