<?xml version="1.0" encoding="utf-8"?>
<!-- Generator: Adobe Illustrator 19.1.0, SVG Export Plug-In . SVG Version: 6.00 Build 0)  -->
<svg version="1.1" id="Layer_1" xmlns="http://www.w3.org/2000/svg" xmlns:xlink="http://www.w3.org/1999/xlink" x="0px" y="0px"
	 viewBox="0 0 24 24" style="enable-background:new 0 0 24 24;" xml:space="preserve">
<g id="book_2_">
	<path id="path_56_" d="M9,6C8.863,6,8.67,6.08,8.573,6.177L7.177,7.573C7.08,7.67,7,7.863,7,8v9.75C7,17.888,7.113,18,7.25,18h8.5
		c0.137,0,0.25-0.112,0.25-0.25v-9.5C16,8.113,15.887,8,15.75,8h-7C8.613,8,8.58,7.92,8.677,7.823l0.646-0.646
		C9.42,7.08,9.613,7,9.75,7h7C16.888,7,17,7.113,17,7.25v9.5c0,0.138,0.08,0.17,0.177,0.073l0.646-0.646
		C17.92,16.08,18,15.887,18,15.75v-9C18,6.219,17.734,6,17.25,6H9z"/>
</g>
</svg>
