<?xml version="1.0" encoding="utf-8"?>
<!-- Generator: Adobe Illustrator 19.1.0, SVG Export Plug-In . SVG Version: 6.00 Build 0)  -->
<svg version="1.1" id="Layer_1" xmlns="http://www.w3.org/2000/svg" xmlns:xlink="http://www.w3.org/1999/xlink" x="0px" y="0px"
	 viewBox="0 0 24 24" style="enable-background:new 0 0 24 24;" xml:space="preserve">
<g id="bug">
	<path d="M18.854,17.354C18.756,17.451,18.628,17.5,18.5,17.5s-0.256-0.049-0.354-0.146l-1.581-1.581C15.907,17.085,14.561,18,13,18
		s-2.907-0.915-3.565-2.228l-1.581,1.581C7.756,17.451,7.628,17.5,7.5,17.5s-0.256-0.049-0.354-0.146
		c-0.195-0.195-0.195-0.512,0-0.707l1.927-1.927C9.03,14.485,9,14.246,9,14v-1H7.508c-0.276,0-0.5-0.224-0.5-0.5s0.224-0.5,0.5-0.5
		h1.496L9,11c0-0.235,0.049-0.458,0.124-0.669L7.646,8.854c-0.195-0.195-0.195-0.512,0-0.707s0.512-0.195,0.707,0l1.347,1.347
		C10.052,9.191,10.503,9,11,9h4c0.497,0,0.948,0.191,1.299,0.494l1.347-1.347c0.195-0.195,0.512-0.195,0.707,0s0.195,0.512,0,0.707
		l-1.478,1.478C16.951,10.542,17,10.765,17,11l-0.004,1h1.496c0.276,0,0.5,0.224,0.5,0.5s-0.224,0.5-0.5,0.5H17v1
		c0,0.246-0.03,0.485-0.073,0.72l1.927,1.927C19.049,16.842,19.049,17.158,18.854,17.354z M15,7.5C15,6.675,14.325,6,13.5,6h-1
		C11.675,6,11,6.675,11,7.5V8h4V7.5z"/>
</g>
</svg>
