<?xml version="1.0" encoding="utf-8"?>
<!-- Generator: Adobe Illustrator 19.1.0, SVG Export Plug-In . SVG Version: 6.00 Build 0)  -->
<svg version="1.1" id="Layer_1" xmlns="http://www.w3.org/2000/svg" xmlns:xlink="http://www.w3.org/1999/xlink" x="0px" y="0px"
	 viewBox="0 0 24 24" style="enable-background:new 0 0 24 24;" xml:space="preserve">
<g id="asterisk">
	<path d="M16.937,11.247C16.916,11.111,16.787,11,16.649,11h-2.235l1.578-1.578c0.097-0.097,0.106-0.264,0.018-0.37L14.948,7.99
		c-0.106-0.087-0.273-0.079-0.37,0.019L13,9.586V7.351c0-0.137-0.111-0.267-0.247-0.288c0,0-0.41-0.063-0.753-0.063
		s-0.753,0.063-0.753,0.063C11.111,7.084,11,7.213,11,7.351v2.235L9.422,8.008C9.325,7.911,9.159,7.903,9.052,7.99L7.99,9.052
		c-0.087,0.106-0.079,0.273,0.018,0.37L9.586,11H7.351c-0.138,0-0.267,0.111-0.288,0.247c0,0-0.063,0.41-0.063,0.753
		s0.063,0.753,0.063,0.753C7.084,12.889,7.213,13,7.351,13h2.235l-1.578,1.577c-0.097,0.097-0.106,0.264-0.018,0.37l1.062,1.062
		c0.106,0.087,0.273,0.079,0.37-0.019L11,14.414v2.235c0,0.137,0.111,0.267,0.247,0.288c0,0,0.41,0.063,0.753,0.063
		s0.753-0.063,0.753-0.063C12.889,16.916,13,16.787,13,16.649v-2.235l1.578,1.578c0.097,0.097,0.264,0.105,0.37,0.019l1.062-1.062
		c0.087-0.106,0.079-0.273-0.018-0.37L14.414,13h2.235c0.138,0,0.267-0.111,0.288-0.247c0,0,0.063-0.41,0.063-0.753
		S16.937,11.247,16.937,11.247z"/>
</g>
</svg>
