<?xml version="1.0" encoding="utf-8"?>
<!-- Generator: Adobe Illustrator 19.1.0, SVG Export Plug-In . SVG Version: 6.00 Build 0)  -->
<svg version="1.1" id="Layer_1" xmlns="http://www.w3.org/2000/svg" xmlns:xlink="http://www.w3.org/1999/xlink" x="0px" y="0px"
	 viewBox="0 0 24 24" style="enable-background:new 0 0 24 24;" xml:space="preserve">
<g id="lock">
	<path id="path_44_" d="M16,10h-1V8c0-1.1-0.9-2-2-2h-3C8.9,6,8,6.9,8,8v2H7c-0.55,0-1,0.45-1,1v6c0,0.55,0.45,1,1,1h9
		c0.55,0,1-0.45,1-1v-6C17,10.45,16.55,10,16,10z M10,8.5C10,8.225,10.225,8,10.5,8h2C12.775,8,13,8.225,13,8.5V10h-3V8.5z"/>
</g>
</svg>
