<?xml version="1.0" encoding="utf-8"?>
<!-- Generator: Adobe Illustrator 19.1.0, SVG Export Plug-In . SVG Version: 6.00 Build 0)  -->
<svg version="1.1" id="Layer_1" xmlns="http://www.w3.org/2000/svg" xmlns:xlink="http://www.w3.org/1999/xlink" x="0px" y="0px"
	 viewBox="0 0 24 24" style="enable-background:new 0 0 24 24;" xml:space="preserve">
<g id="thumbs-up">
	<g id="thumbs_x5F_up">
		<polygon style="opacity:0.3;" points="18,12.25 18,11 17,11 13.5,16 15.5,16 		"/>
		<path d="M14,7v1.75L13.5,11H18v1.25L15.5,16h-2.143L12,15h-1v-3.75l1.5-2.125L13.5,7H14L14,7z M14,6h-0.5
			c-0.379,0-0.725,0.339-0.895,0.678L11.646,8.66L10.2,10.619c-0.13,0.173-0.2,0.414-0.2,0.631v4c0,0.553,0.448,0.75,1,0.75h0.607
			c0,0,1.238,1,1.393,1h2.5c0.334,0,0.646-0.292,0.832-0.57l2.375-3.441C18.894,12.801,19,12.516,19,12.25v-1
			c0-0.553-0.448-1.25-1-1.25h-3.28c0,0,0.28-1.184,0.28-1.25v-1.5C15,6.697,14.552,6,14,6L14,6z M9,10.5C9,10.225,8.775,10,8.5,10
			h-1C7.225,10,7,10.225,7,10.5v5C7,15.775,7.225,16,7.5,16h1C8.775,16,9,15.775,9,15.5V10.5z"/>
	</g>
</g>
</svg>
