<?xml version="1.0" encoding="utf-8"?>
<!-- Generator: Adobe Illustrator 19.1.0, SVG Export Plug-In . SVG Version: 6.00 Build 0)  -->
<svg version="1.1" id="Layer_1" xmlns="http://www.w3.org/2000/svg" xmlns:xlink="http://www.w3.org/1999/xlink" x="0px" y="0px"
	 viewBox="0 0 24 24" style="enable-background:new 0 0 24 24;" xml:space="preserve">
<g id="knight">
	<path d="M8.25,16l1.375-1H9.5C9.224,15,9,14.776,9,14.5S9.224,14,9.5,14h7c0.276,0,0.5,0.224,0.5,0.5S16.776,15,16.5,15h-0.125
		l1.375,1H8.25z M15.594,13C14.766,11.97,13,11.027,13,9h3V7.609L13,6c0-0.572,0-0.981,0-0.981c-2,0.108-3.922,2.114-3.922,4.419
		c0,1.07,0.378,2.41,1.208,3.562H15.594z M18.5,17h-11C7.225,17,7,17.225,7,17.5V18h12v-0.5C19,17.225,18.775,17,18.5,17z"/>
</g>
</svg>
