<?xml version="1.0" encoding="utf-8"?>
<!-- Generator: Adobe Illustrator 19.1.0, SVG Export Plug-In . SVG Version: 6.00 Build 0)  -->
<svg version="1.1" id="Layer_1" xmlns="http://www.w3.org/2000/svg" xmlns:xlink="http://www.w3.org/1999/xlink" x="0px" y="0px"
	 viewBox="0 0 24 24" style="enable-background:new 0 0 24 24;" xml:space="preserve">
<g id="inbox_3_">
	<path id="path_38_" d="M18,13.25c0-0.137-0.031-0.358-0.069-0.49L16.069,6.24C16.031,6.108,15.887,6,15.75,6h-7.5
		C8.113,6,7.969,6.108,7.932,6.24L6.077,12.76c-0.038,0.132-0.069,0.353-0.069,0.49L6,17.5c0,0.138,0.025,0.306,0.056,0.375
		S6.363,18,6.5,18h11c0.138,0,0.306-0.025,0.375-0.056C17.944,17.913,18,17.638,18,17.5V13.25z M8.921,8.245
		C8.947,8.11,9.081,8,9.219,8h5.562c0.138,0,0.271,0.11,0.298,0.245l0.874,4.509C15.979,12.89,15.887,13,15.75,13h-1.5
		c-0.137,0-0.277,0.109-0.311,0.243l-0.379,1.515C13.527,14.891,13.387,15,13.25,15h-2.5c-0.137,0-0.277-0.109-0.311-0.243
		l-0.379-1.515C10.027,13.109,9.887,13,9.75,13h-1.5c-0.137,0-0.229-0.11-0.202-0.245L8.921,8.245z"/>
</g>
</svg>
