<?xml version="1.0" encoding="utf-8"?>
<!-- Generator: Adobe Illustrator 19.1.0, SVG Export Plug-In . SVG Version: 6.00 Build 0)  -->
<svg version="1.1" id="Layer_1" xmlns="http://www.w3.org/2000/svg" xmlns:xlink="http://www.w3.org/1999/xlink" x="0px" y="0px"
	 viewBox="0 0 24 24" style="enable-background:new 0 0 24 24;" xml:space="preserve">
<g id="warning-sign">
	<path d="M19.905,16.967L13.482,6.406c-0.266-0.432-0.699-0.494-0.965-0.062L6.095,16.998C5.83,17.429,6.027,18,6.533,18h12.934
		C19.973,18,20.17,17.397,19.905,16.967z M14,16v-0.75c0-0.137-0.112-0.25-0.25-0.25h-1.5C12.112,15,12,15.113,12,15.25V16H8.552
		L13,8.773L17.448,16H14z"/>
	<path d="M11.559,11.491l0.579,2.518c0.052,0.271,0.319,0.491,0.594,0.491h0.535c0.275,0,0.543-0.221,0.594-0.491l0.579-2.518
		C14.493,11.221,14.31,11,14.035,11h-2.07C11.69,11,11.507,11.221,11.559,11.491z"/>
</g>
</svg>
