<?xml version="1.0" encoding="utf-8"?>
<!-- Generator: Adobe Illustrator 19.1.0, SVG Export Plug-In . SVG Version: 6.00 Build 0)  -->
<svg version="1.1" id="Layer_1" xmlns="http://www.w3.org/2000/svg" xmlns:xlink="http://www.w3.org/1999/xlink" x="0px" y="0px"
	 viewBox="0 0 24 24" style="enable-background:new 0 0 24 24;" xml:space="preserve">
<g id="ban-circle">
	<path d="M6.229,12c0,3.188,2.584,5.771,5.771,5.771s5.771-2.584,5.771-5.771S15.187,6.228,12,6.228S6.229,8.812,6.229,12z
		 M15.616,14.248L9.751,8.385C10.406,7.976,11.173,7.728,12,7.728c2.355,0,4.271,1.916,4.271,4.272
		C16.271,12.827,16.024,13.594,15.616,14.248z M7.729,12c0-0.803,0.236-1.545,0.622-2.188l5.837,5.836
		c-0.642,0.387-1.385,0.623-2.188,0.623C9.645,16.271,7.729,14.356,7.729,12z"/>
</g>
</svg>
