<?xml version="1.0" encoding="utf-8"?>
<!-- Generator: Adobe Illustrator 19.1.0, SVG Export Plug-In . SVG Version: 6.00 Build 0)  -->
<svg version="1.1" id="Layer_1" xmlns="http://www.w3.org/2000/svg" xmlns:xlink="http://www.w3.org/1999/xlink" x="0px" y="0px"
	 viewBox="0 0 24 24" style="enable-background:new 0 0 24 24;" xml:space="preserve">
<g id="trash">
	<path id="path_25_" d="M17.75,7H15V6c0-0.55-0.45-1-1-1h-3c-0.55,0-1,0.45-1,1v1H7.25C7.112,7,7,7.112,7,7.25V8h11V7.25
		C18,7.112,17.888,7,17.75,7z M11.021,7H11V6h3v1H11.021z M8,17c0,0.55,0.45,1,1,1h7c0.55,0,1-0.45,1-1V9H8V17z M15,10h1v7h-1V10z
		 M13,10h1v7h-1V10z M11,10h1v7h-1V10z M9,10h1v7H9V10z"/>
	<path id="path_24_" style="opacity:0.5;" d="M10,17H9v-7h1V17z M12,10h-1v7h1V10z M14,10h-1v7h1V10z M16,10h-1v7h1V10z"/>
</g>
</svg>
