<?xml version="1.0" encoding="utf-8"?>
<!-- Generator: Adobe Illustrator 19.1.0, SVG Export Plug-In . SVG Version: 6.00 Build 0)  -->
<svg version="1.1" id="Layer_1" xmlns="http://www.w3.org/2000/svg" xmlns:xlink="http://www.w3.org/1999/xlink" x="0px" y="0px"
	 viewBox="0 0 24 24" style="enable-background:new 0 0 24 24;" xml:space="preserve">
<g id="qrcode">
	<path id="path_51_" d="M8,8h1v1H8V8z M16,11v1h2v1v1h-3v-1v-1v-1h-2V8h-1V6h1h5v5H16z M17,10V7h-3v3H17z M15,9h1V8h-1V9z M9,15H8v1
		h1V15z M12,18h1v-1h-1V18z M9,13h2v5H6v-5h2v-1h1V13z M7,14v3h3v-3H7z M7,12H6v-1V6h5v3h1v1h-1v1H7V12z M7,10h3V7H7V10z M17,16h1
		v-1h-1V16z M15,17v1h2h1v-1h-1H15z M16,16v-1h-2v-1v-1v-1h-1h-2v1h2v1v1h-1v1h1v1h1h1v-1H16z"/>
</g>
</svg>
