<?xml version="1.0" encoding="utf-8"?>
<!-- Generator: Adobe Illustrator 19.1.0, SVG Export Plug-In . SVG Version: 6.00 Build 0)  -->
<svg version="1.1" id="Layer_1" xmlns="http://www.w3.org/2000/svg" xmlns:xlink="http://www.w3.org/1999/xlink" x="0px" y="0px"
	 viewBox="0 0 24 24" style="enable-background:new 0 0 24 24;" xml:space="preserve">
<g id="bishop">
	<path d="M14.254,11.169c0,0.51,0.158,1.201,0.384,1.831h-3.235c0.229-0.627,0.389-1.317,0.389-1.831
		c0-0.822,0.35-1.148,0.777-1.148c0,0,0,0,0.453,0s0.453,0,0.453,0C13.905,10.021,14.254,10.347,14.254,11.169z M13,9.893
		c1.045,0,1.893-0.847,1.893-1.893S14,5,13,5c-0.217,0-0.427,0.105-0.627,0.26L14,6.887L12.887,8l-1.433-1.433
		C11.238,7.071,11.107,7.601,11.107,8C11.107,9.045,11.955,9.893,13,9.893z M17.75,16l-1.375-1H16.5c0.276,0,0.5-0.224,0.5-0.5
		S16.776,14,16.5,14h-7C9.224,14,9,14.224,9,14.5S9.224,15,9.5,15h0.125L8.25,16H17.75z M18.5,17h-11C7.225,17,7,17.225,7,17.5V18
		h12v-0.5C19,17.225,18.775,17,18.5,17z"/>
</g>
</svg>
