<?xml version="1.0" encoding="utf-8"?>
<!-- Generator: Adobe Illustrator 19.1.0, SVG Export Plug-In . SVG Version: 6.00 Build 0)  -->
<svg version="1.1" id="Layer_1" xmlns="http://www.w3.org/2000/svg" xmlns:xlink="http://www.w3.org/1999/xlink" x="0px" y="0px"
	 viewBox="0 0 24 24" style="enable-background:new 0 0 24 24;" xml:space="preserve">
<g id="menu-hamburger">
	<path style="fill-rule:evenodd;clip-rule:evenodd;" d="M8,8.75C8,8.888,8.112,9,8.25,9h9.5C17.888,9,18,8.888,18,8.75v-1.5
		C18,7.112,17.888,7,17.75,7h-9.5C8.112,7,8,7.112,8,7.25V8.75z M8,12.75C8,12.888,8.112,13,8.25,13h9.5
		c0.138,0,0.25-0.112,0.25-0.25v-1.5c0-0.138-0.112-0.25-0.25-0.25h-9.5C8.112,11,8,11.112,8,11.25V12.75z M8,16.75
		C8,16.888,8.112,17,8.25,17h9.5c0.138,0,0.25-0.112,0.25-0.25v-1.5c0-0.138-0.112-0.25-0.25-0.25h-9.5C8.112,15,8,15.112,8,15.25
		V16.75z"/>
</g>
</svg>
