<?xml version="1.0" encoding="utf-8"?>
<!-- Generator: Adobe Illustrator 19.1.0, SVG Export Plug-In . SVG Version: 6.00 Build 0)  -->
<svg version="1.1" id="Layer_1" xmlns="http://www.w3.org/2000/svg" xmlns:xlink="http://www.w3.org/1999/xlink" x="0px" y="0px"
	 viewBox="0 0 24 24" style="enable-background:new 0 0 24 24;" xml:space="preserve">
<g id="leaf">
	<path d="M10.188,9.576c-1.383,1.775-1.304,3.514-1.122,4.736c0.043,0.454-0.271,0.893-0.475,1.076
		c-0.451,0.403-0.985,0.858-1.174,1.032C7.141,16.672,7,17.014,7,17.435s0.132,0.65,0.482,0.297s0.918-0.926,1.524-1.532
		C9.611,15.596,10,15.646,10,15.646c1.302-0.016,8.856,3.32,8.991-9.301c0.001-0.113-0.229-0.278-0.342-0.246
		C14.006,7.406,12.058,7.177,10.188,9.576z M13.922,11.891c-1.344,0.723-3.138,1.696-3.673,2.34C9.375,15.281,9,15.359,9.672,13.817
		c0.797-1.829,2.986-3.155,4.579-4.006c0,0,2.362-1.196,3.233-2.265c0.388-0.476,0.566-0.654,0.676-0.529
		c0.109,0.125,0.109,0.125-0.178,0.796C16.851,10.134,15.56,11.013,13.922,11.891z"/>
</g>
</svg>
