<?xml version="1.0" encoding="utf-8"?>
<!-- Generator: Adobe Illustrator 19.1.0, SVG Export Plug-In . SVG Version: 6.00 Build 0)  -->
<svg version="1.1" id="Layer_1" xmlns="http://www.w3.org/2000/svg" xmlns:xlink="http://www.w3.org/1999/xlink" x="0px" y="0px"
	 viewBox="0 0 24 24" style="enable-background:new 0 0 24 24;" xml:space="preserve">
<g id="zoom-out">
	<g id="path_19_">
		<path id="path_20_" d="M18.131,16.684l-2.996-2.996c0.486-0.757,0.773-1.653,0.773-2.615c0-2.67-2.171-4.841-4.84-4.841
			c-2.668,0-4.84,2.171-4.84,4.841c0,2.668,2.172,4.838,4.84,4.838c0.964,0,1.861-0.286,2.616-0.774l2.996,2.996
			c0.1,0.1,0.264,0.1,0.363,0l1.087-1.087C18.23,16.947,18.23,16.783,18.131,16.684z M7.766,11.072c0-1.822,1.482-3.304,3.303-3.304
			c1.822,0,3.303,1.481,3.303,3.304c0,1.82-1.48,3.302-3.303,3.302C9.248,14.374,7.766,12.893,7.766,11.072z"/>
	</g>
	<path id="path_18_" d="M12.75,10c0.137,0,0.25,0.113,0.25,0.25v1.5c0,0.137-0.113,0.25-0.25,0.25h-3.5C9.113,12,9,11.887,9,11.75
		v-1.5C9,10.113,9.113,10,9.25,10H12.75z"/>
</g>
</svg>
