<?xml version="1.0" encoding="utf-8"?>
<!-- Generator: Adobe Illustrator 19.1.0, SVG Export Plug-In . SVG Version: 6.00 Build 0)  -->
<svg version="1.1" id="Layer_1" xmlns="http://www.w3.org/2000/svg" xmlns:xlink="http://www.w3.org/1999/xlink" x="0px" y="0px"
	 viewBox="0 0 24 24" style="enable-background:new 0 0 24 24;" xml:space="preserve">
<g id="thumbs-down">
	<g id="thumbs_x5F_up_3_">
		<polygon style="opacity:0.3;" points="18,11.75 18,13 17,13 13.5,8 15.5,8 		"/>
		<path d="M14,17h-0.5l-1-2.125L11,12.75V9h1l1.357-1H15.5l2.5,3.75V13h-4.5l0.5,2.25V17L14,17z M14,18c0.552,0,1-0.697,1-1.25v-1.5
			c0-0.066-0.28-1.25-0.28-1.25H18c0.552,0,1-0.697,1-1.25v-1c0-0.266-0.106-0.551-0.293-0.738L16.332,7.57
			C16.146,7.292,15.834,7,15.5,7H13c-0.155,0-1.393,1-1.393,1H11c-0.552,0-1,0.197-1,0.75v4c0,0.217,0.07,0.458,0.2,0.631
			l1.446,1.959l0.959,1.983C12.775,17.661,13.121,18,13.5,18H14L14,18z M9,8.5C9,8.225,8.775,8,8.5,8h-1C7.225,8,7,8.225,7,8.5v5
			C7,13.775,7.225,14,7.5,14h1C8.775,14,9,13.775,9,13.5V8.5z"/>
	</g>
</g>
</svg>
