<?xml version="1.0" encoding="utf-8"?>
<!-- Generator: Adobe Illustrator 19.1.0, SVG Export Plug-In . SVG Version: 6.00 Build 0)  -->
<svg version="1.1" id="Layer_1" xmlns="http://www.w3.org/2000/svg" xmlns:xlink="http://www.w3.org/1999/xlink" x="0px" y="0px"
	 viewBox="0 0 24 24" style="enable-background:new 0 0 24 24;" xml:space="preserve">
<g id="circle-arrow-right_4_">
	<path id="circle-arrow_3_" d="M13,6.219c-3.193,0-5.781,2.588-5.781,5.781c0,3.191,2.588,5.781,5.781,5.781s5.781-2.59,5.781-5.781
		C18.781,8.807,16.193,6.219,13,6.219z M16.144,12.315l-2.756,2.239C13.175,14.727,13,14.644,13,14.369V13h-2.75
		C10.112,13,10,12.887,10,12.75v-1.5c0-0.137,0.112-0.25,0.25-0.25H13V9.631c0-0.275,0.175-0.358,0.388-0.185l2.756,2.239
		C16.357,11.858,16.357,12.142,16.144,12.315z"/>
</g>
</svg>
