<?xml version="1.0" encoding="utf-8"?>
<!-- Generator: Adobe Illustrator 19.1.0, SVG Export Plug-In . SVG Version: 6.00 Build 0)  -->
<svg version="1.1" id="Layer_1" xmlns="http://www.w3.org/2000/svg" xmlns:xlink="http://www.w3.org/1999/xlink" x="0px" y="0px"
	 viewBox="0 0 24 24" style="enable-background:new 0 0 24 24;" xml:space="preserve">
<g id="rotate-right">
	<path d="M17.971,6.129V9.75c0,0.137-0.112,0.25-0.25,0.25H14.1c-0.142,0-0.176-0.082-0.076-0.182l1.33-1.33
		c-0.679-0.471-1.493-0.759-2.383-0.759C10.616,7.729,8.7,9.645,8.7,12c0,1.719,1.026,3.193,2.496,3.864
		c0.487,0.222,0.841,0.312,1.526,0.4c0.137,0.017,0.249,0.12,0.249,0.258v1c0,0.138-0.112,0.259-0.25,0.244
		c-0.711-0.075-1.082-0.145-1.545-0.3C8.872,16.71,7.2,14.558,7.2,12c0-3.188,2.584-5.771,5.771-5.771
		c1.305,0,2.504,0.441,3.47,1.172l1.347-1.347C17.889,5.953,17.971,5.987,17.971,6.129z M12,12c0,0.552,0.448,1,1,1s1-0.448,1-1
		s-0.448-1-1-1S12,11.448,12,12z"/>
</g>
</svg>
