<?xml version="1.0" encoding="utf-8"?>
<!-- Generator: Adobe Illustrator 19.1.0, SVG Export Plug-In . SVG Version: 6.00 Build 0)  -->
<svg version="1.1" id="Layer_1" xmlns="http://www.w3.org/2000/svg" xmlns:xlink="http://www.w3.org/1999/xlink" x="0px" y="0px"
	 viewBox="0 0 24 24" style="enable-background:new 0 0 24 24;" xml:space="preserve">
<g id="gbp">
	<path d="M15.655,15c-0.074,0.042-0.524,0.3-1.358,0.3c-0.672,0-1.422-0.347-2.057-0.332c-0.218,0.005-1.021,0.095-1.542,0.255
		c0.543-0.5,0.812-0.873,0.995-1.127c0.273-0.386,0.446-1.424,0.336-2.096H14v-1h-2.415c-0.376-0.65-0.853-1.424-0.853-2.042
		c0-0.377,0.137-0.716,0.409-1.005c0.274-0.291,0.926-0.5,1.406-0.5c0.63,0,1.844,0.422,1.844,1.547h1.531
		c0-1.609-1.609-2.97-3.315-2.97c-1.099,0-1.983,0.297-2.629,0.881C8.704,8.064,9.023,9.426,9.219,9.958
		C9.334,10.271,9.474,10.619,9.661,11H8v1h2.208c0.472,0.951,0.405,1.955-0.239,2.688c-0.37,0.421-0.562,0.516-0.922,0.75
		l0.551,1.454c0,0,0.839-0.454,1.724-0.526c0.885-0.072,2.24,0.619,2.828,0.618c0.587-0.001,1.137,0.019,2.012-0.517L15.655,15z"/>
</g>
</svg>
