<?xml version="1.0" encoding="utf-8"?>
<!-- Generator: Adobe Illustrator 19.1.0, SVG Export Plug-In . SVG Version: 6.00 Build 0)  -->
<svg version="1.1" id="Layer_1" xmlns="http://www.w3.org/2000/svg" xmlns:xlink="http://www.w3.org/1999/xlink" x="0px" y="0px"
	 viewBox="0 0 24 24" style="enable-background:new 0 0 24 24;" xml:space="preserve">
<g id="tower">
	<path d="M10,13l-2-2V6h2v2h2V6h2v2h2V6h2v5l-2,2H10z M18.5,17h-11C7.225,17,7,17.225,7,17.5V18h12v-0.5
		C19,17.225,18.775,17,18.5,17z M17.75,16l-1.375-1H16.5c0.276,0,0.5-0.224,0.5-0.5S16.776,14,16.5,14h-7C9.224,14,9,14.224,9,14.5
		S9.224,15,9.5,15h0.125L8.25,16H17.75z"/>
</g>
</svg>
