<?xml version="1.0" encoding="utf-8"?>
<!-- Generator: Adobe Illustrator 19.1.0, SVG Export Plug-In . SVG Version: 6.00 Build 0)  -->
<svg version="1.1" id="Layer_1" xmlns="http://www.w3.org/2000/svg" xmlns:xlink="http://www.w3.org/1999/xlink" x="0px" y="0px"
	 viewBox="0 0 24 24" style="enable-background:new 0 0 24 24;" xml:space="preserve">
<g id="link">
	<path d="M11.232,18.139c-0.601,0-1.166-0.233-1.591-0.658l-1.415-1.415c-0.425-0.425-0.659-0.989-0.659-1.591
		c0-0.601,0.234-1.166,0.659-1.591l0.551-0.551c0.192,0.363,0.445,0.703,0.755,1.013l0.177,0.177l-0.953,0.952l2.475,2.476
		l3.889-3.89L13,10.939l1.05-1.051c0.064,0.052,0.127,0.107,0.187,0.167l1.414,1.414c0.877,0.877,0.877,2.305,0,3.182l-2.829,2.829
		C12.398,17.905,11.833,18.139,11.232,18.139z M11.763,13.944l-1.414-1.414c-0.425-0.425-0.659-0.99-0.659-1.591
		c0-0.601,0.234-1.166,0.659-1.591l2.828-2.829c0.425-0.425,0.99-0.658,1.591-0.658c0.601,0,1.166,0.233,1.591,0.658l1.415,1.415
		c0.425,0.425,0.659,0.989,0.659,1.591c0,0.601-0.481,1.413-0.907,1.838l-0.284,0.284c-0.21-0.353-0.47-0.685-0.776-0.991
		l-0.177-0.177l0.955-0.954l-2.475-2.475l-3.889,3.889L13,13.061l-1.054,1.055C11.889,14.065,11.821,14.003,11.763,13.944z"/>
</g>
</svg>
