<?xml version="1.0" encoding="utf-8"?>
<!-- Generator: Adobe Illustrator 19.1.0, SVG Export Plug-In . SVG Version: 6.00 Build 0)  -->
<svg version="1.1" id="Layer_1" xmlns="http://www.w3.org/2000/svg" xmlns:xlink="http://www.w3.org/1999/xlink" x="0px" y="0px"
	 viewBox="0 0 24 24" style="enable-background:new 0 0 24 24;" xml:space="preserve">
<g id="star-half">
	<path d="M6.67,10.294l3.418,2.487l-1.301,4.014c-0.085,0.261,0.029,0.344,0.252,0.184l3.434-2.462l3.419,2.47
		c0.223,0.161,0.336,0.079,0.251-0.183l-1.302-4.002l3.474-2.51C18.536,10.132,18.494,10,18.219,10h-4.288l-1.311-3.531
		c-0.096-0.258-0.251-0.257-0.346,0.001L10.984,10H6.766C6.491,10,6.448,10.132,6.67,10.294z M13.664,12.419l0.734,2.257
		l-1.906-1.378V8.983L13.233,11h2.394L13.664,12.419z"/>
</g>
</svg>
