<?xml version="1.0" encoding="utf-8"?>
<!-- Generator: Adobe Illustrator 19.1.0, SVG Export Plug-In . SVG Version: 6.00 Build 0)  -->
<svg version="1.1" id="Layer_1" xmlns="http://www.w3.org/2000/svg" xmlns:xlink="http://www.w3.org/1999/xlink" x="0px" y="0px"
	 viewBox="0 0 24 24" style="enable-background:new 0 0 24 24;" xml:space="preserve">
<g id="resize-small">
	<g id="resize-full_2_">
		<path d="M11.5,12h-3c-0.275,0-0.341,0.159-0.146,0.354l0.939,0.939l-2.491,2.491c-0.097,0.097-0.097,0.256,0,0.354l1.061,1.061
			c0.097,0.097,0.256,0.097,0.354,0l2.491-2.491l0.939,0.939C11.841,15.841,12,15.775,12,15.5v-3C12,12.225,11.775,12,11.5,12z"/>
	</g>
	<g id="resize-full_3_">
		<path d="M12.5,12h3c0.275,0,0.341-0.159,0.146-0.354l-0.939-0.939l2.491-2.491c0.097-0.097,0.097-0.256,0-0.354l-1.061-1.061
			c-0.097-0.097-0.256-0.097-0.354,0l-2.491,2.491l-0.939-0.939C12.159,8.159,12,8.225,12,8.5v3C12,11.775,12.225,12,12.5,12z"/>
	</g>
</g>
</svg>
