<?xml version="1.0" encoding="utf-8"?>
<!-- Generator: Adobe Illustrator 19.1.0, SVG Export Plug-In . SVG Version: 6.00 Build 0)  -->
<svg version="1.1" id="Layer_1" xmlns="http://www.w3.org/2000/svg" xmlns:xlink="http://www.w3.org/1999/xlink" x="0px" y="0px"
	 viewBox="0 0 24 24" style="enable-background:new 0 0 24 24;" xml:space="preserve">
<g id="pawn">
	<path d="M14.254,11.169c0,0.51,0.158,1.201,0.384,1.831h-3.235c0.229-0.627,0.389-1.317,0.389-1.831
		c0-0.822,0.35-1.148,0.777-1.148c0,0,0,0,0.453,0s0.453,0,0.453,0C13.905,10.021,14.254,10.347,14.254,11.169z M13,9.812
		c1.001,0,1.812-0.812,1.812-1.812S14.001,6.188,13,6.188S11.187,6.999,11.187,8S11.999,9.812,13,9.812z M17.75,16l-1.375-1H16.5
		c0.276,0,0.5-0.224,0.5-0.5S16.776,14,16.5,14h-7C9.224,14,9,14.224,9,14.5S9.224,15,9.5,15h0.125L8.25,16H17.75z M18.5,17h-11
		C7.225,17,7,17.225,7,17.5V18h12v-0.5C19,17.225,18.775,17,18.5,17z"/>
</g>
</svg>
