<?xml version="1.0" encoding="utf-8"?>
<!-- Generator: Adobe Illustrator 19.1.0, SVG Export Plug-In . SVG Version: 6.00 Build 0)  -->
<svg version="1.1" id="Layer_1" xmlns="http://www.w3.org/2000/svg" xmlns:xlink="http://www.w3.org/1999/xlink" x="0px" y="0px"
	 viewBox="0 0 24 24" style="enable-background:new 0 0 24 24;" xml:space="preserve">
<g id="time">
	<path id="path_30_" d="M12,6.228c-3.187,0-5.771,2.584-5.771,5.772S8.813,17.771,12,17.771s5.771-2.584,5.771-5.771
		S15.187,6.228,12,6.228z M12,16.271c-2.355,0-4.271-1.916-4.271-4.271S9.645,7.728,12,7.728S16.271,9.644,16.271,12
		S14.355,16.271,12,16.271z"/>
	<path id="path_29_" d="M13.75,12H12V9.25C12,9.112,11.888,9,11.75,9h-0.5C11.112,9,11,9.112,11,9.25v3.5
		c0,0.138,0.112,0.25,0.25,0.25h2.5c0.138,0,0.25-0.112,0.25-0.25v-0.5C14,12.112,13.888,12,13.75,12z"/>
</g>
</svg>
