<?xml version="1.0" encoding="utf-8"?>
<!-- Generator: Adobe Illustrator 19.1.0, SVG Export Plug-In . SVG Version: 6.00 Build 0)  -->
<svg version="1.1" id="Layer_1" xmlns="http://www.w3.org/2000/svg" xmlns:xlink="http://www.w3.org/1999/xlink" x="0px" y="0px"
	 viewBox="0 0 24 24" style="enable-background:new 0 0 24 24;" xml:space="preserve">
<g id="hand-right">
	<path style="opacity:0.3;" d="M16.242,12.608C16.303,12.393,16.5,12,16.724,12h-1.537l-1.656,4h1.403L16.242,12.608z"/>
	<path d="M15.147,17h-3.418C11.651,17,10,15.442,10,15.252c0,0,0-4.861,0-5.252s0.563-0.732,0.563-0.732l3.624-2.299
		c0.192-0.095,0.379-0.089,0.531,0.062l1.097,1.121c0.178,0.179,0.182,0.461,0.028,0.66l-0.848,1.211
		c1.005-0.004,2.079-0.008,3.02-0.008c1.07,0,1.922,0.484,1.922,1.484S19.07,13,18,13h-1.063l-1.308,3.391
		C15.568,16.607,15.372,17,15.147,17z M12,16h2.935l1.307-3.392C16.303,12.393,16.5,12,16.724,12c0,0,1.573,0,2.026,0
		c0.453,0,0.469-1,0-1c-0.469,0-4.564,0-4.564,0c-0.191,0-0.365,0.018-0.45-0.154c-0.085-0.17-0.065-0.312,0.051-0.464l1.462-1.835
		l-0.859-0.828L11,10.083v5.026L12,16z"/>
	<path d="M9,10.5C9,10.225,8.775,10,8.5,10h-1C7.225,10,7,10.225,7,10.5v5C7,15.775,7.225,16,7.5,16h1C8.775,16,9,15.775,9,15.5
		V10.5z"/>
</g>
</svg>
