<?xml version="1.0" encoding="utf-8"?>
<!-- Generator: Adobe Illustrator 19.1.0, SVG Export Plug-In . SVG Version: 6.00 Build 0)  -->
<svg version="1.1" id="Layer_1" xmlns="http://www.w3.org/2000/svg" xmlns:xlink="http://www.w3.org/1999/xlink" x="0px" y="0px"
	 viewBox="0 0 24 24" style="enable-background:new 0 0 24 24;" xml:space="preserve">
<g id="building">
	<path d="M18.5,17H18V6.5C18,6.225,17.775,6,17.5,6h-8C9.225,6,9,6.225,9,6.5V17H8.5C8.225,17,8,17.225,8,17.5V18h4v-1.5
		c0-0.275,0.225-0.5,0.5-0.5h2c0.275,0,0.5,0.225,0.5,0.5V18h4v-0.5C19,17.225,18.775,17,18.5,17z M11,15h-1v-1h1V15z M11,13h-1v-1
		h1V13z M11,11h-1v-1h1V11z M11,9h-1V8h1V9z M13,13h-1v-1h1V13z M13,11h-1v-1h1V11z M13,9h-1V8h1V9z M15,13h-1v-1h1V13z M15,11h-1
		v-1h1V11z M15,9h-1V8h1V9z M17,15h-1v-1h1V15z M17,13h-1v-1h1V13z M17,11h-1v-1h1V11z M17,9h-1V8h1V9z"/>
</g>
</svg>
