<?xml version="1.0" encoding="utf-8"?>
<!-- Generator: Adobe Illustrator 19.1.0, SVG Export Plug-In . SVG Version: 6.00 Build 0)  -->
<svg version="1.1" id="Layer_1" xmlns="http://www.w3.org/2000/svg" xmlns:xlink="http://www.w3.org/1999/xlink" x="0px" y="0px"
	 viewBox="0 0 24 24" style="enable-background:new 0 0 24 24;" xml:space="preserve">
<g id="option-horizontal">
	<path style="fill-rule:evenodd;clip-rule:evenodd;" d="M9.5,10c0.828,0,1.5,0.672,1.5,1.5S10.328,13,9.5,13S8,12.328,8,11.5
		S8.672,10,9.5,10z M12,11.5c0,0.828,0.672,1.5,1.5,1.5s1.5-0.672,1.5-1.5S14.328,10,13.5,10S12,10.672,12,11.5z M16,11.5
		c0,0.828,0.672,1.5,1.5,1.5s1.5-0.672,1.5-1.5S18.328,10,17.5,10S16,10.672,16,11.5z"/>
</g>
</svg>
