<?xml version="1.0" encoding="utf-8"?>
<!-- Generator: Adobe Illustrator 19.1.0, SVG Export Plug-In . SVG Version: 6.00 Build 0)  -->
<svg version="1.1" id="Layer_1" xmlns="http://www.w3.org/2000/svg" xmlns:xlink="http://www.w3.org/1999/xlink" x="0px" y="0px"
	 viewBox="0 0 24 24" style="enable-background:new 0 0 24 24;" xml:space="preserve">
<g id="alert">
	<path d="M19.954,17.068L13.578,6.025c-0.296-0.513-0.78-0.513-1.076,0L6.126,17.068C5.83,17.581,6.073,18,6.665,18h12.751
		C20.008,18,20.25,17.581,19.954,17.068z M13.862,13.509C13.81,13.779,13.542,14,13.268,14h-0.535c-0.275,0-0.543-0.221-0.594-0.491
		l-0.579-3.018C11.507,10.221,11.69,10,11.965,10h2.07c0.275,0,0.457,0.221,0.406,0.491L13.862,13.509z M14,15.75
		c0,0.137-0.113,0.25-0.25,0.25h-1.5C12.112,16,12,15.887,12,15.75v-0.5c0-0.137,0.112-0.25,0.25-0.25h1.5
		c0.137,0,0.25,0.113,0.25,0.25V15.75z"/>
</g>
</svg>
