<?xml version="1.0" encoding="utf-8"?>
<!-- Generator: Adobe Illustrator 19.1.0, SVG Export Plug-In . SVG Version: 6.00 Build 0)  -->
<svg version="1.1" id="Layer_1" xmlns="http://www.w3.org/2000/svg" xmlns:xlink="http://www.w3.org/1999/xlink" x="0px" y="0px"
	 viewBox="0 0 24 24" style="enable-background:new 0 0 24 24;" xml:space="preserve">
<g id="cube-black">
	<path d="M15,10.5v7c0,0.276-0.224,0.5-0.5,0.5h-7C7.224,18,7,17.776,7,17.5v-7C7,10.224,7.224,10,7.5,10h7
		C14.776,10,15,10.224,15,10.5z M17.25,6h-6.344c-0.276,0-0.668,0.148-0.875,0.33L7.375,8.669C7.168,8.852,7.224,9,7.5,9h7.25
		c0.276,0,0.643-0.172,0.82-0.384l1.86-2.232C17.607,6.172,17.526,6,17.25,6z M18.675,6.88L16.325,9.62
		C16.146,9.83,16,10.224,16,10.5v7c0,0.276,0.146,0.33,0.325,0.12l0.837-0.977l1.512-1.764C18.854,14.67,19,14.276,19,14V7
		C19,6.724,18.854,6.67,18.675,6.88z"/>
</g>
</svg>
