<?xml version="1.0" encoding="utf-8"?>
<!-- Generator: Adobe Illustrator 19.1.0, SVG Export Plug-In . SVG Version: 6.00 Build 0)  -->
<svg version="1.1" id="Layer_1" xmlns="http://www.w3.org/2000/svg" xmlns:xlink="http://www.w3.org/1999/xlink" x="0px" y="0px"
	 viewBox="0 0 24 24" style="enable-background:new 0 0 24 24;" xml:space="preserve">
<g id="new_x5F_window">
	<path d="M16,13.519V15c0,0.55-0.45,1-1,1h-5c-0.55,0-1-0.45-1-1v-5c0-0.55,0.45-1,1-1h1.556l1.943-2H10.5C8.3,7,7,8.3,7,10.5v4
		c0,2.2,1.3,3.5,3.5,3.5h4c2.156,0,3.5-1.281,3.5-3.5c0,0,0-2.428,0-2.979L16,13.519z"/>
	<path d="M18.5,6h-4c-0.275,0-0.341,0.159-0.146,0.354l1.086,1.086l-3.121,3.121c-0.194,0.194-0.194,0.513,0,0.707l1.414,1.414
		c0.194,0.194,0.513,0.195,0.707,0l3.121-3.121l1.086,1.086C18.841,10.841,19,10.775,19,10.5v-4C19,6.225,18.775,6,18.5,6z"/>
</g>
</svg>
