<?xml version="1.0" encoding="utf-8"?>
<!-- Generator: Adobe Illustrator 19.1.0, SVG Export Plug-In . SVG Version: 6.00 Build 0)  -->
<svg version="1.1" id="Layer_1" xmlns="http://www.w3.org/2000/svg" xmlns:xlink="http://www.w3.org/1999/xlink" x="0px" y="0px"
	 viewBox="0 0 24 24" style="enable-background:new 0 0 24 24;" xml:space="preserve">
<g id="expand">
	<path d="M7,10.5c0,1,0,4,0,4c0,2.219,1.344,3.5,3.5,3.5h4c2.2,0,3.5-1.3,3.5-3.5v-4C18,8.3,16.7,7,14.5,7h-4
		C8.344,7,7,8.328,7,10.5z M15,9c0.55,0,1,0.45,1,1v5c0,0.55-0.45,1-1,1h-5c-0.55,0-1-0.45-1-1v-5c0-0.55,0.45-1,1-1H15z
		 M13.933,12.2c0.22,0.165,0.22,0.435,0,0.6L11.4,14.7c-0.22,0.165-0.4,0.075-0.4-0.2v-4c0-0.275,0.18-0.365,0.4-0.2L13.933,12.2z"
		/>
</g>
</svg>
