<?xml version="1.0" encoding="utf-8"?>
<!-- Generator: Adobe Illustrator 19.1.0, SVG Export Plug-In . SVG Version: 6.00 Build 0)  -->
<svg version="1.1" id="Layer_1" xmlns="http://www.w3.org/2000/svg" xmlns:xlink="http://www.w3.org/1999/xlink" x="0px" y="0px"
	 viewBox="0 0 24 24" style="enable-background:new 0 0 24 24;" xml:space="preserve">
<g id="duplicate">
	<path d="M19,9h-2V7L19,9z M11,8H7.25C7.112,8,7,8.112,7,8.25v9.5C7,17.888,7.112,18,7.25,18h6.5c0.138,0,0.25-0.113,0.25-0.25V12
		h-3V8z M16,6h-3.75C12.112,6,12,6.112,12,6.25v0.836l3,3V16h3.75c0.138,0,0.25-0.113,0.25-0.25V10h-3V6z M12,11h2l-2-2V11z"/>
</g>
</svg>
