<?xml version="1.0" encoding="utf-8"?>
<!-- Generator: Adobe Illustrator 19.1.0, SVG Export Plug-In . SVG Version: 6.00 Build 0)  -->
<svg version="1.1" id="Layer_1" xmlns="http://www.w3.org/2000/svg" xmlns:xlink="http://www.w3.org/1999/xlink" x="0px" y="0px"
	 viewBox="0 0 24 24" style="enable-background:new 0 0 24 24;" xml:space="preserve">
<g id="cloud-download">
	<path d="M12.685,18.828l-2.239-2.44C10.273,16.175,10.356,16,10.631,16H12v-2.75c0-0.138,0.113-0.25,0.25-0.25h1.5
		c0.137,0,0.25,0.112,0.25,0.25V16h1.369c0.275,0,0.358,0.175,0.185,0.388l-2.239,2.44C13.142,19.042,12.858,19.042,12.685,18.828z
		 M16.277,9.129c-0.312,0-0.615,0.051-0.898,0.144c-0.576-1.276-1.858-2.167-3.352-2.167c-2.031,0-3.68,1.647-3.68,3.68
		c0,0.127,0.007,0.252,0.019,0.375c-0.863,0.188-1.512,0.977-1.512,1.896C6.855,14.117,7.717,15,8.777,15H11v-2.5
		c0-0.275,0.225-0.5,0.5-0.5h3c0.275,0,0.5,0.225,0.5,0.5V15h1.277c1.606,0,2.906-1.325,2.906-2.936
		C19.184,10.455,17.883,9.129,16.277,9.129z"/>
</g>
</svg>
