<?xml version="1.0" encoding="utf-8"?>
<!-- Generator: Adobe Illustrator 19.1.0, SVG Export Plug-In . SVG Version: 6.00 Build 0)  -->
<svg version="1.1" id="Layer_1" xmlns="http://www.w3.org/2000/svg" xmlns:xlink="http://www.w3.org/1999/xlink" x="0px" y="0px"
	 viewBox="0 0 24 24" style="enable-background:new 0 0 24 24;" xml:space="preserve">
<g id="object-align-right">
	<path d="M19,6v12h-1V6H19z M7.5,13C7.225,13,7,13.225,7,13.5v4C7,17.775,7.225,18,7.5,18h9c0.275,0,0.5-0.225,0.5-0.5v-4
		c0-0.275-0.225-0.5-0.5-0.5H7.5z M16,8h-3v3h3V8L16,8z M16.5,7C16.775,7,17,7.225,17,7.5v4c0,0.275-0.225,0.5-0.5,0.5h-4
		c-0.275,0-0.5-0.225-0.5-0.5v-4C12,7.225,12.225,7,12.5,7H16.5L16.5,7z"/>
</g>
</svg>
