<?xml version="1.0" encoding="utf-8"?>
<!-- Generator: Adobe Illustrator 19.1.0, SVG Export Plug-In . SVG Version: 6.00 Build 0)  -->
<svg version="1.1" id="Layer_1" xmlns="http://www.w3.org/2000/svg" xmlns:xlink="http://www.w3.org/1999/xlink" x="0px" y="0px"
	 viewBox="0 0 24 24" style="enable-background:new 0 0 24 24;" xml:space="preserve">
<g id="ruble">
	<path d="M14.78,6h-3.5c-0.138,0-0.25,0.113-0.25,0.25V11H9.859c-0.138,0-0.318,0.09-0.4,0.2l-1.2,1.6
		c-0.082,0.11-0.037,0.2,0.1,0.2h2.671v1H9.859c-0.138,0-0.318,0.09-0.4,0.2l-1.2,1.6c-0.082,0.11-0.037,0.2,0.1,0.2h2.671v1.75
		c0,0.137,0.112,0.25,0.25,0.25h1.489c0.138,0,0.216-0.113,0.216-0.25V16h1.374c0.138,0,0.318-0.09,0.4-0.2l1.2-1.6
		c0.083-0.11,0.038-0.2-0.1-0.2H13h-0.016L13,13h1.359h0.421c3.401,0,3.219-2.365,3.219-3.516C17.998,8.333,18.18,6,14.78,6z
		 M15.03,11H13V8h2.03c0.859,0,1.094,0.367,1.094,1.484S15.897,11,15.03,11z"/>
</g>
</svg>
