<?xml version="1.0" encoding="utf-8"?>
<!-- Generator: Adobe Illustrator 19.1.0, SVG Export Plug-In . SVG Version: 6.00 Build 0)  -->
<svg version="1.1" id="Layer_1" xmlns="http://www.w3.org/2000/svg" xmlns:xlink="http://www.w3.org/1999/xlink" x="0px" y="0px"
	 viewBox="0 0 24 24" style="enable-background:new 0 0 24 24;" xml:space="preserve">
<g id="th-large">
	<path id="path_11_" style="fill-rule:evenodd;clip-rule:evenodd;" d="M17,7.5C17,7.225,16.775,7,16.5,7h-4
		C12.225,7,12,7.225,12,7.5v4c0,0.275,0.225,0.5,0.5,0.5h4c0.275,0,0.5-0.225,0.5-0.5V7.5z M17,13.5c0-0.275-0.225-0.5-0.5-0.5h-4
		c-0.275,0-0.5,0.225-0.5,0.5v4c0,0.275,0.225,0.5,0.5,0.5h4c0.275,0,0.5-0.225,0.5-0.5V13.5z M11,7.5C11,7.225,10.775,7,10.5,7h-4
		C6.225,7,6,7.225,6,7.5v4C6,11.775,6.225,12,6.5,12h4c0.275,0,0.5-0.225,0.5-0.5V7.5z M11,13.5c0-0.275-0.225-0.5-0.5-0.5h-4
		C6.225,13,6,13.225,6,13.5v4C6,17.775,6.225,18,6.5,18h4c0.275,0,0.5-0.225,0.5-0.5V13.5z"/>
</g>
</svg>
