<?xml version="1.0" encoding="utf-8"?>
<!-- Generator: Adobe Illustrator 19.1.0, SVG Export Plug-In . SVG Version: 6.00 Build 0)  -->
<svg version="1.1" id="Layer_1" xmlns="http://www.w3.org/2000/svg" xmlns:xlink="http://www.w3.org/1999/xlink" x="0px" y="0px"
	 viewBox="0 0 24 24" style="enable-background:new 0 0 24 24;" xml:space="preserve">
<g id="bold_2_">
	<path id="path_64_" d="M13.53,11.588c0,0,1.533-0.807,1.533-2.62c0-1.87-1.854-2.959-3.354-2.959L7,6v0.715C8,6.95,8,7.106,8,7.859
		v8.275c0,0.565-0.5,0.895-1,0.975V18h5c1.55,0,4.078-1.082,4.078-3.429C16.078,12.331,13.53,11.588,13.53,11.588z M10,7.5
		c0.334,0,0.99,0,1.183,0c1.703,0,2.033,0.792,2.033,1.787S12.427,11,11.391,11C10.354,11,10,11,10,11S10,7.891,10,7.5z M12.163,16
		H10v-4c0,0,0.329,0,1.594,0c1.265,0,2.187,1.014,2.187,2.188C13.781,15.204,13.273,16,12.163,16z"/>
</g>
</svg>
