<?xml version="1.0" encoding="utf-8"?>
<!-- Generator: Adobe Illustrator 19.1.0, SVG Export Plug-In . SVG Version: 6.00 Build 0)  -->
<svg version="1.1" id="Layer_1" xmlns="http://www.w3.org/2000/svg" xmlns:xlink="http://www.w3.org/1999/xlink" x="0px" y="0px"
	 viewBox="0 0 24 24" style="enable-background:new 0 0 24 24;" xml:space="preserve">
<g id="text-color">
	<path d="M17,14.504V15h-3.125c0,0,0-0.266,0-0.496c0.562,0,0.751-0.578,0.599-0.99c-0.111-0.302-0.617-1.663-0.617-1.663h-2.93
		c0,0-0.43,1.09-0.688,1.759c-0.258,0.67,0.346,0.894,0.902,0.894c0,0.313,0,0.496,0,0.496H8.406v-0.496c0,0,0.421-0.18,0.628-0.386
		c0.207-0.207,0.387-0.562,0.387-0.562l2.994-7.541h0.697l2.884,7.476c0,0,0.15,0.378,0.45,0.693C16.746,14.499,17,14.504,17,14.504
		z M13.673,11.094l-1.211-3.422l-1.339,3.422H13.673z M18,16.5c0-0.275-0.225-0.5-0.5-0.5h-10C7.225,16,7,16.225,7,16.5v1
		C7,17.775,7.225,18,7.5,18h10c0.275,0,0.5-0.225,0.5-0.5V16.5z"/>
</g>
</svg>
