<?xml version="1.0" encoding="utf-8"?>
<!-- Generator: Adobe Illustrator 19.1.0, SVG Export Plug-In . SVG Version: 6.00 Build 0)  -->
<svg version="1.1" id="Layer_1" xmlns="http://www.w3.org/2000/svg" xmlns:xlink="http://www.w3.org/1999/xlink" x="0px" y="0px"
	 viewBox="0 0 24 24" style="enable-background:new 0 0 24 24;" xml:space="preserve">
<g id="text-size">
	<path d="M19,6v3c0,0,0,0-0.498,0C18.5,8,17.885,8,17,8h-2c0,0,0,8,0,8.5s1,0.5,1,0.5v1h-4v-1c0,0,1,0,1-0.5S13,8,13,8h-2
		c-0.885,0-1.5,0-1.502,1C9,9,9,9,9,9V6H19z M7,12v1.5c0,0,0,0,0.249,0C7.25,13,7.557,13,8,13h1c0,0,0,4,0,4.25S8.5,17.5,8.5,17.5
		V18h2v-0.5c0,0-0.5,0-0.5-0.25S10,13,10,13h1c0.443,0,0.75,0,0.751,0.5c0.249,0,0.249,0,0.249,0V12H7z"/>
</g>
</svg>
