<?xml version="1.0" encoding="utf-8"?>
<!-- Generator: Adobe Illustrator 19.1.0, SVG Export Plug-In . SVG Version: 6.00 Build 0)  -->
<svg version="1.1" id="Layer_1" xmlns="http://www.w3.org/2000/svg" xmlns:xlink="http://www.w3.org/1999/xlink" x="0px" y="0px"
	 viewBox="0 0 24 24" style="enable-background:new 0 0 24 24;" xml:space="preserve">
<g id="hourglass">
	<path d="M16,9c0-0.07,0-0.51,0-1h0.5C16.775,8,17,7.775,17,7.5V6H9v1.5C9,7.775,9.225,8,9.5,8H10c0,0.49,0,0.93,0,1
		c0,1.231,0.742,2.287,1.803,2.75C10.742,12.213,10,13.269,10,14.5c0,0.083,0,0.792,0,1.5H9.5C9.225,16,9,16.225,9,16.5V18h8v-1.5
		c0-0.275-0.225-0.5-0.5-0.5H16c0-0.708,0-1.417,0-1.5c0-1.231-0.742-2.287-1.803-2.75C15.258,11.287,16,10.231,16,9z M15,9
		c0,0.795-0.472,1.515-1.202,1.833c-0.365,0.159-0.6,0.519-0.6,0.917s0.236,0.758,0.6,0.917C14.528,12.985,15,13.705,15,14.5V16h-4
		v-1.5c0-0.795,0.472-1.515,1.202-1.833c0.365-0.159,0.6-0.519,0.6-0.917s-0.236-0.758-0.6-0.917C11.472,10.515,11,9.795,11,9l0-1h4
		V9z"/>
</g>
</svg>
