<?xml version="1.0" encoding="utf-8"?>
<!-- Generator: Adobe Illustrator 19.1.0, SVG Export Plug-In . SVG Version: 6.00 Build 0)  -->
<svg version="1.1" id="Layer_1" xmlns="http://www.w3.org/2000/svg" xmlns:xlink="http://www.w3.org/1999/xlink" x="0px" y="0px"
	 viewBox="0 0 24 24" style="enable-background:new 0 0 24 24;" xml:space="preserve">
<g id="option-vertical">
	<path style="fill-rule:evenodd;clip-rule:evenodd;" d="M14,8.5c0,0.828-0.672,1.5-1.5,1.5S11,9.328,11,8.5S11.672,7,12.5,7
		S14,7.672,14,8.5z M12.5,11c-0.828,0-1.5,0.672-1.5,1.5s0.672,1.5,1.5,1.5s1.5-0.672,1.5-1.5S13.328,11,12.5,11z M12.5,15
		c-0.828,0-1.5,0.672-1.5,1.5c0,0.828,0.672,1.5,1.5,1.5s1.5-0.672,1.5-1.5C14,15.672,13.328,15,12.5,15z"/>
</g>
</svg>
