<?xml version="1.0" encoding="utf-8"?>
<!-- Generator: Adobe Illustrator 19.1.0, SVG Export Plug-In . SVG Version: 6.00 Build 0)  -->
<svg version="1.1" id="Layer_1" xmlns="http://www.w3.org/2000/svg" xmlns:xlink="http://www.w3.org/1999/xlink" x="0px" y="0px"
	 viewBox="0 0 24 24" style="enable-background:new 0 0 24 24;" xml:space="preserve">
<g id="text-background">
	<path d="M12.452,9.245l0.938,2.648h-1.974L12.452,9.245z M19,6.5v11c0,0.275-0.225,0.5-0.5,0.5h-11C7.225,18,7,17.775,7,17.5v-11
		C7,6.225,7.225,6,7.5,6h11C18.775,6,19,6.225,19,6.5z M17.2,15.504c0-0.104-0.087-0.192-0.191-0.2
		c-0.007,0-0.188-0.017-0.417-0.257c-0.268-0.282-0.407-0.626-0.408-0.627l-2.885-7.477c-0.029-0.077-0.104-0.128-0.187-0.128
		h-0.697c-0.082,0-0.155,0.05-0.186,0.126l-2.985,7.524c-0.047,0.091-0.2,0.359-0.351,0.511c-0.147,0.146-0.458,0.298-0.566,0.344
		c-0.073,0.031-0.121,0.104-0.121,0.184V16c0,0.11,0.09,0.2,0.2,0.2h2.734c0.11,0,0.2-0.09,0.2-0.2v-0.496c0-0.11-0.09-0.2-0.2-0.2
		c-0.341,0-0.615-0.09-0.715-0.235c-0.063-0.092-0.063-0.223,0-0.387c0.204-0.53,0.517-1.325,0.637-1.631h2.655
		c0.129,0.348,0.479,1.287,0.568,1.532c0.067,0.183,0.044,0.402-0.058,0.549c-0.079,0.114-0.198,0.172-0.354,0.172
		c-0.11,0-0.2,0.09-0.2,0.2V16c0,0.11,0.09,0.2,0.2,0.2H17c0.11,0,0.2-0.09,0.2-0.2V15.504z"/>
</g>
</svg>
