<?xml version="1.0" encoding="utf-8"?>
<!-- Generator: Adobe Illustrator 19.1.0, SVG Export Plug-In . SVG Version: 6.00 Build 0)  -->
<svg version="1.1" id="Layer_1" xmlns="http://www.w3.org/2000/svg" xmlns:xlink="http://www.w3.org/1999/xlink" x="0px" y="0px"
	 viewBox="0 0 24 24" style="enable-background:new 0 0 24 24;" xml:space="preserve">
<g id="briefcase">
	<rect x="12" y="12" style="opacity:0.5;" width="2" height="1"/>
	<rect x="7" y="13" style="opacity:0.3;" width="12" height="1"/>
	<g>
		<path d="M12,14H7v2c0,0.55,0.45,1,1,1h10c0.55,0,1-0.45,1-1v-2h-5H12z"/>
		<path d="M18,8h-3V7c0-0.551-0.448-1-1-1h-2c-0.552,0-1,0.449-1,1v1H8C7.45,8,7,8.45,7,9v4h5v-1h2v1h5V9C19,8.45,18.55,8,18,8z
			 M12,7h2v1h-2V7z"/>
	</g>
</g>
</svg>
