<?xml version="1.0" encoding="utf-8"?>
<!-- Generator: Adobe Illustrator 19.1.0, SVG Export Plug-In . SVG Version: 6.00 Build 0)  -->
<svg version="1.1" id="Layer_1" xmlns="http://www.w3.org/2000/svg" xmlns:xlink="http://www.w3.org/1999/xlink" x="0px" y="0px"
	 viewBox="0 0 24 24" style="enable-background:new 0 0 24 24;" xml:space="preserve">
<g id="paste">
	<path id="import_x5F_records_x5F_from_x5F_clipboard_1_" d="M17,17.621V16h-2v-1h2v-1.621l2.121,2.121L17,17.621z M10,8.5
		C10,8.225,10.225,8,10.5,8H11V7.5C11,7.225,11.225,7,11.5,7h1C12.775,7,13,7.225,13,7.5V8h0.5C13.775,8,14,8.225,14,8.5v1
		c0,0.275-0.225,0.5-0.5,0.5h-3C10.225,10,10,9.775,10,9.5V8.5z M16,14V9c0-0.55-0.45-1-1-1v1.5c0,0.827-0.673,1.5-1.5,1.5h-3
		C9.673,11,9,10.327,9,9.5V8C8.45,8,8,8.45,8,9v8c0,0.55,0.45,1,1,1h6c0.55,0,1-0.45,1-1h-2v-3H16z"/>
</g>
</svg>
