<?xml version="1.0" encoding="utf-8"?>
<!-- Generator: Adobe Illustrator 19.1.0, SVG Export Plug-In . SVG Version: 6.00 Build 0)  -->
<svg version="1.1" id="Layer_1" xmlns="http://www.w3.org/2000/svg" xmlns:xlink="http://www.w3.org/1999/xlink" x="0px" y="0px"
	 viewBox="0 0 24 24" style="enable-background:new 0 0 24 24;" xml:space="preserve">
<g id="align-left">
	<path id="path_73_" style="fill-rule:evenodd;clip-rule:evenodd;" d="M13,8.5C13,8.775,12.775,9,12.5,9h-6C6.225,9,6,8.775,6,8.5
		v-1C6,7.225,6.225,7,6.5,7h6C12.775,7,13,7.225,13,7.5V8.5z"/>
	<path id="path_72_" style="fill-rule:evenodd;clip-rule:evenodd;" d="M17,11.5c0,0.275-0.225,0.5-0.5,0.5h-10
		C6.225,12,6,11.775,6,11.5v-1C6,10.225,6.225,10,6.5,10h10c0.275,0,0.5,0.225,0.5,0.5V11.5z"/>
	<path id="path_71_" style="fill-rule:evenodd;clip-rule:evenodd;" d="M15,14.5c0,0.275-0.225,0.5-0.5,0.5h-8
		C6.225,15,6,14.775,6,14.5v-1C6,13.225,6.225,13,6.5,13h8c0.275,0,0.5,0.225,0.5,0.5V14.5z"/>
	<path id="path_70_" style="fill-rule:evenodd;clip-rule:evenodd;" d="M18,17.5c0,0.275-0.225,0.5-0.5,0.5h-11
		C6.225,18,6,17.775,6,17.5v-1C6,16.225,6.225,16,6.5,16h11c0.275,0,0.5,0.225,0.5,0.5V17.5z"/>
</g>
</svg>
