<?xml version="1.0" encoding="utf-8"?>
<!-- Generator: Adobe Illustrator 19.1.0, SVG Export Plug-In . SVG Version: 6.00 Build 0)  -->
<svg version="1.1" id="Layer_1" xmlns="http://www.w3.org/2000/svg" xmlns:xlink="http://www.w3.org/1999/xlink" x="0px" y="0px"
	 viewBox="0 0 24 24" style="enable-background:new 0 0 24 24;" xml:space="preserve">
<g id="import">
	<g>
		<path d="M9.886,10.018l1.546,1.55l-2.079,2.079C9.159,13.841,9.225,14,9.5,13.999l5.974-0.012c0.275,0,0.501-0.226,0.502-0.501
			L15.998,7.5c0.001-0.275-0.157-0.341-0.352-0.146l-2.093,2.093l-1.546-1.55L9.886,10.018z"/>
		<path d="M9.116,9.241l2.122-2.121l-0.764-0.766C10.28,6.16,9.963,6.159,9.768,6.354L8.354,7.769
			C8.159,7.963,8.159,8.281,8.353,8.476L9.116,9.241z"/>
		<path d="M17.5,15h-10C7.225,15,7,15.225,7,15.5V18h11v-2.5C18,15.225,17.775,15,17.5,15z M17,16.5h-1V16h1V16.5z"/>
	</g>
</g>
</svg>
