<?xml version="1.0" encoding="utf-8"?>
<!-- Generator: Adobe Illustrator 19.1.0, SVG Export Plug-In . SVG Version: 6.00 Build 0)  -->
<svg version="1.1" id="Layer_1" xmlns="http://www.w3.org/2000/svg" xmlns:xlink="http://www.w3.org/1999/xlink" x="0px" y="0px"
	 viewBox="0 0 24 24" style="enable-background:new 0 0 24 24;" xml:space="preserve">
<g id="move">
	<path d="M17.822,11.8L15.178,9.2C15.08,9.103,15,9.137,15,9.274V11h-2V9h1.701c0.138,0,0.171-0.08,0.075-0.178l-2.601-2.644
		C12.079,6.08,11.92,6.08,11.823,6.177L9.177,8.823C9.08,8.92,9.112,9,9.25,9H11v2H9V9.274C9,9.137,8.92,9.103,8.822,9.2L6.178,11.8
		c-0.098,0.096-0.099,0.255-0.001,0.352l2.646,2.646C8.92,14.896,9,14.863,9,14.726V13h2v2H9.25c-0.138,0-0.17,0.08-0.073,0.177
		l2.646,2.646c0.097,0.097,0.256,0.097,0.352-0.001l2.601-2.644C14.872,15.08,14.839,15,14.701,15H13v-2h2v1.726
		c0,0.137,0.08,0.17,0.177,0.073l2.646-2.646C17.92,12.055,17.92,11.897,17.822,11.8z"/>
</g>
</svg>
