<?xml version="1.0" encoding="utf-8"?>
<!-- Generator: Adobe Illustrator 19.1.0, SVG Export Plug-In . SVG Version: 6.00 Build 0)  -->
<svg version="1.1" id="Layer_1" xmlns="http://www.w3.org/2000/svg" xmlns:xlink="http://www.w3.org/1999/xlink" x="0px" y="0px"
	 viewBox="0 0 24 24" style="enable-background:new 0 0 24 24;" xml:space="preserve">
<g id="tint">
	<path d="M11.542,5.054c-1.108,3.556-4.371,5.514-4.371,8.892c0,2.474,2.155,3.907,4.371,4.022c2.079-0.114,4.371-1.575,4.371-4.052
		C15.913,10.541,12.604,8.609,11.542,5.054z M10.355,14.885c0.107,0.086,0.178,0.267,0.156,0.403c0,0-0.024,0.197-0.056,0.338
		c-0.032,0.203-0.173,0.328-0.457,0.21c-0.426-0.177-1.515-0.656-1.569-1.976c-0.053-1.275,0.677-2.478,1.016-2.964
		c0.101-0.146,0.234-0.117,0.211,0.013c-0.092,0.521-0.298,1.904-0.061,2.717C9.858,14.528,10.355,14.885,10.355,14.885z"/>
</g>
</svg>
