<?xml version="1.0" encoding="utf-8"?>
<!-- Generator: Adobe Illustrator 19.1.0, SVG Export Plug-In . SVG Version: 6.00 Build 0)  -->
<svg version="1.1" id="Layer_1" xmlns="http://www.w3.org/2000/svg" xmlns:xlink="http://www.w3.org/1999/xlink" x="0px" y="0px"
	 viewBox="0 0 24 24" style="enable-background:new 0 0 24 24;" xml:space="preserve">
<g id="screenshot">
	<path d="M17.75,11h-1.94C15.449,9.627,14.373,8.551,13,8.19V6.25C13,6.113,12.888,6,12.75,6h-1.5C11.112,6,11,6.113,11,6.25v1.94
		C9.627,8.551,8.551,9.627,8.19,11H6.25C6.112,11,6,11.113,6,11.25v1.5C6,12.887,6.112,13,6.25,13h1.94
		c0.362,1.373,1.437,2.449,2.81,2.81v1.94c0,0.137,0.112,0.25,0.25,0.25h1.5c0.138,0,0.25-0.113,0.25-0.25v-1.94
		c1.373-0.361,2.449-1.437,2.81-2.81h1.94c0.138,0,0.25-0.113,0.25-0.25v-1.5C18,11.113,17.888,11,17.75,11z M13,14.931V13.25
		c0-0.137-0.112-0.25-0.25-0.25h-1.5C11.112,13,11,13.113,11,13.25v1.681C10.093,14.62,9.38,13.907,9.069,13h1.681
		c0.138,0,0.25-0.113,0.25-0.25v-1.5c0-0.137-0.112-0.25-0.25-0.25H9.069C9.38,10.093,10.093,9.38,11,9.069v1.681
		c0,0.137,0.112,0.25,0.25,0.25h1.5c0.138,0,0.25-0.113,0.25-0.25V9.069c0.907,0.311,1.62,1.023,1.931,1.931H13.25
		C13.112,11,13,11.113,13,11.25v1.5c0,0.137,0.112,0.25,0.25,0.25h1.681C14.62,13.907,13.907,14.62,13,14.931z"/>
</g>
</svg>
