<?xml version="1.0" encoding="utf-8"?>
<!-- Generator: Adobe Illustrator 19.1.0, SVG Export Plug-In . SVG Version: 6.00 Build 0)  -->
<svg version="1.1" id="Layer_1" xmlns="http://www.w3.org/2000/svg" xmlns:xlink="http://www.w3.org/1999/xlink" x="0px" y="0px"
	 viewBox="0 0 24 24" style="enable-background:new 0 0 24 24;" xml:space="preserve">
<g id="headphones">
	<path id="path_46_" d="M18,12.25v0.25v2.75c0,0.138-0.112,0.25-0.25,0.25h-0.5c-0.138,0-0.25-0.112-0.25-0.25V12.5v-0.25
		c0-2.619-2.381-4.5-5-4.5c-2.619,0-5,1.881-5,4.5v0.25v2.75c0,0.138-0.112,0.25-0.25,0.25h-0.5C6.112,15.5,6,15.388,6,15.25V12.5
		v-0.25c0-3.17,2.83-6,6-6C15.17,6.25,18,9.08,18,12.25z M10,13.2c0-0.11-0.09-0.2-0.2-0.2H8.2C8.09,13,8,13.09,8,13.2v4.6
		C8,17.91,8.09,18,8.2,18h1.6c0.11,0,0.2-0.09,0.2-0.2V13.2z M16,13.2c0-0.11-0.09-0.2-0.2-0.2h-1.6c-0.11,0-0.2,0.09-0.2,0.2v4.6
		c0,0.11,0.09,0.2,0.2,0.2h1.6c0.11,0,0.2-0.09,0.2-0.2V13.2z"/>
</g>
</svg>
