<?xml version="1.0" encoding="utf-8"?>
<!-- Generator: Adobe Illustrator 19.1.0, SVG Export Plug-In . SVG Version: 6.00 Build 0)  -->
<svg version="1.1" id="Layer_1" xmlns="http://www.w3.org/2000/svg" xmlns:xlink="http://www.w3.org/1999/xlink" x="0px" y="0px"
	 viewBox="0 0 24 24" style="enable-background:new 0 0 24 24;" xml:space="preserve">
<g id="phone_1_">
	<g style="opacity:0.3;">
		<rect x="10" y="8" width="6" height="7"/>
	</g>
	<path d="M13.031,6C10.641,6,9,6.919,9,7.469V17c0,0.55,0.45,1,1,1h6c0.55,0,1-0.45,1-1V7.469C17,6.919,15.422,6,13.031,6z
		 M13,17.536c-0.573,0-1.037-0.464-1.037-1.036c0-0.574,0.464-1.038,1.037-1.038c0.573,0,1.037,0.464,1.037,1.038
		C14.037,17.072,13.573,17.536,13,17.536z M16,15h-6V8h6V15z"/>
</g>
</svg>
