<?xml version="1.0" encoding="utf-8"?>
<!-- Generator: Adobe Illustrator 19.1.0, SVG Export Plug-In . SVG Version: 6.00 Build 0)  -->
<svg version="1.1" id="Layer_1" xmlns="http://www.w3.org/2000/svg" xmlns:xlink="http://www.w3.org/1999/xlink" x="0px" y="0px"
	 viewBox="0 0 24 24" style="enable-background:new 0 0 24 24;" xml:space="preserve">
<g id="sound-dolby">
	<path d="M19,10c0-1.657-1.343-3-3-3H9c-1.657,0-3,1.343-3,3v5c0,1.657,1.343,3,3,3h7c1.657,0,3-1.343,3-3V10z M17,16H8V9h9V16z
		 M9,10v5h7v-5H9z M11.299,14C10.752,14,10,14,10,14v-3c0,0,0.799,0,1.299,0c0.501,0,0.951,0.63,0.951,1.506
		C12.25,13.383,11.847,14,11.299,14z M15,14c0,0-0.752,0-1.299,0c-0.548,0-0.951-0.617-0.951-1.494C12.75,11.63,13.2,11,13.701,11
		c0.5,0,1.299,0,1.299,0V14z"/>
</g>
</svg>
