<?xml version="1.0" encoding="utf-8"?>
<!-- Generator: Adobe Illustrator 19.1.0, SVG Export Plug-In . SVG Version: 6.00 Build 0)  -->
<svg version="1.1" id="Layer_1" xmlns="http://www.w3.org/2000/svg" xmlns:xlink="http://www.w3.org/1999/xlink" x="0px" y="0px"
	 viewBox="0 0 24 24" style="enable-background:new 0 0 24 24;" xml:space="preserve">
<g id="sound-7-1">
	<g>
		<rect x="13.008" y="14" width="1" height="1"/>
		<polygon points="15,15 16,15 16,10 14,10 14,11 15,11 		"/>
		<path d="M16,7H9c-1.657,0-3,1.343-3,3v5c0,1.657,1.343,3,3,3h7c1.657,0,3-1.343,3-3v-5C19,8.343,17.657,7,16,7z M17,16H8V9h9V16z"
			/>
		<polygon points="11,12.5 9.008,14.5 9.008,15 10.008,15 10.008,14.992 12,13 12,10 9,10 9,11 11,11 		"/>
	</g>
</g>
</svg>
