<?xml version="1.0" encoding="utf-8"?>
<!-- Generator: Adobe Illustrator 19.1.0, SVG Export Plug-In . SVG Version: 6.00 Build 0)  -->
<svg version="1.1" id="Layer_1" xmlns="http://www.w3.org/2000/svg" xmlns:xlink="http://www.w3.org/1999/xlink" x="0px" y="0px"
	 viewBox="0 0 24 24" style="enable-background:new 0 0 24 24;" xml:space="preserve">
<g id="bell">
	<path d="M17.791,14h-0.176l-1.173-1.731L15.81,9c-0.191-1-1.07-1.967-2.2-2.231c0.002-0.006,0.18-0.373,0.18-0.373
		C13.872,6.136,13.727,6,13.469,6h-0.938c-0.258,0-0.402,0.193-0.321,0.453c0,0,0.178,0.315,0.18,0.321
		C11.26,7.038,10.381,8,10.19,9l-0.632,3.269L8.385,14H8.208c-0.258,0-0.469,0.224-0.469,0.497c0,0.275,0.197,0.581,0.438,0.679
		c0,0,2.007,0.819,4.823,0.819c2.816,0,4.823-0.82,4.823-0.82c0.241-0.098,0.438-0.402,0.438-0.677
		C18.261,14.224,18.049,14,17.791,14z M13,16.96c0.359,0,0.7-0.021,1.024-0.062C13.868,17.541,13.47,18,13,18
		c-0.47,0-0.869-0.459-1.025-1.103C12.3,16.938,12.641,16.96,13,16.96z"/>
</g>
</svg>
