<?xml version="1.0" encoding="utf-8"?>
<!-- Generator: Adobe Illustrator 19.1.0, SVG Export Plug-In . SVG Version: 6.00 Build 0)  -->
<svg version="1.1" id="Layer_1" xmlns="http://www.w3.org/2000/svg" xmlns:xlink="http://www.w3.org/1999/xlink" x="0px" y="0px"
	 viewBox="0 0 24 24" style="enable-background:new 0 0 24 24;" xml:space="preserve">
<g id="plus-sign_1_">
	<path id="plus-sign" d="M12,6.229c-3.187,0-5.771,2.584-5.771,5.771S8.813,17.771,12,17.771s5.771-2.584,5.771-5.771
		S15.187,6.229,12,6.229z M12.5,15h-1c-0.275,0-0.5-0.225-0.5-0.5V13H9.5C9.225,13,9,12.775,9,12.5v-1C9,11.225,9.225,11,9.5,11H11
		V9.5C11,9.225,11.225,9,11.5,9h1C12.775,9,13,9.225,13,9.5V11h1.5c0.275,0,0.5,0.225,0.5,0.5v1c0,0.275-0.225,0.5-0.5,0.5H13v1.5
		C13,14.775,12.775,15,12.5,15z"/>
</g>
</svg>
