<?xml version="1.0" encoding="utf-8"?>
<!-- Generator: Adobe Illustrator 19.1.0, SVG Export Plug-In . SVG Version: 6.00 Build 0)  -->
<svg version="1.1" id="Layer_1" xmlns="http://www.w3.org/2000/svg" xmlns:xlink="http://www.w3.org/1999/xlink" x="0px" y="0px"
	 viewBox="0 0 24 24" style="enable-background:new 0 0 24 24;" xml:space="preserve">
<g id="object-align-top">
	<path d="M19,7H7V6h12V7z M12,8.5C12,8.225,11.775,8,11.5,8h-4C7.225,8,7,8.225,7,8.5v9C7,17.775,7.225,18,7.5,18h4
		c0.275,0,0.5-0.225,0.5-0.5V8.5z M17,9h-3v3h3V9L17,9z M17.5,8C17.775,8,18,8.225,18,8.5v4c0,0.275-0.225,0.5-0.5,0.5h-4
		c-0.275,0-0.5-0.225-0.5-0.5v-4C13,8.225,13.225,8,13.5,8H17.5L17.5,8z"/>
</g>
</svg>
