<?xml version="1.0" encoding="utf-8"?>
<!-- Generator: Adobe Illustrator 19.1.0, SVG Export Plug-In . SVG Version: 6.00 Build 0)  -->
<svg version="1.1" id="Layer_1" xmlns="http://www.w3.org/2000/svg" xmlns:xlink="http://www.w3.org/1999/xlink" x="0px" y="0px"
	 viewBox="0 0 24 24" style="enable-background:new 0 0 24 24;" xml:space="preserve">
<g id="fire">
	<path d="M17.891,13.601c0.149,1.643-0.712,3.393-2.969,4.315c0.485-0.447,1.012-1.134,1.001-2.056
		c-0.017-1.351-0.656-1.703-0.922-3.641c-0.219,1.547-3.422,2.812-3.422,4.469c0.022,0.512,0.191,0.956,0.538,1.259
		c-1.754-0.499-3.014-2.354-3.014-4.164c0-1.813,1.461-2.737,0.961-4.693c1.422,0.268,2.093,2.582,1.265,3.634
		c2.797-1.672,0.686-4.596,3.543-6.687C13.759,8.389,17.62,10.612,17.891,13.601z"/>
</g>
</svg>
