<?xml version="1.0" encoding="utf-8"?>
<!-- Generator: Adobe Illustrator 19.1.0, SVG Export Plug-In . SVG Version: 6.00 Build 0)  -->
<svg version="1.1" id="Layer_1" xmlns="http://www.w3.org/2000/svg" xmlns:xlink="http://www.w3.org/1999/xlink" x="0px" y="0px"
	 viewBox="0 0 24 24" style="enable-background:new 0 0 24 24;" xml:space="preserve">
<g id="refresh">
	<path id="path_42_" d="M7.729,12h-1.5c0-3.188,2.584-5.772,5.771-5.772c1.306,0,2.502,0.443,3.469,1.174l1.348-1.348
		C16.918,5.953,17,5.987,17,6.129v3.613C17,9.884,16.884,10,16.742,10h-3.613c-0.142,0-0.176-0.082-0.076-0.182l1.337-1.337
		C13.707,8.013,12.889,7.728,12,7.728C9.645,7.728,7.729,9.644,7.729,12z M16.271,12c0,2.355-1.916,4.271-4.271,4.271
		c-0.893,0-1.715-0.286-2.401-0.758l1.332-1.332c0.1-0.1,0.066-0.182-0.075-0.182H7.257C7.116,14,7,14.116,7,14.257v3.599
		c0,0.141,0.082,0.175,0.182,0.075l1.34-1.34c0.969,0.735,2.169,1.18,3.478,1.18c3.187,0,5.771-2.584,5.771-5.771H16.271z"/>
</g>
</svg>
