<?xml version="1.0" encoding="utf-8"?>
<!-- Generator: Adobe Illustrator 19.1.0, SVG Export Plug-In . SVG Version: 6.00 Build 0)  -->
<svg version="1.1" id="Layer_1" xmlns="http://www.w3.org/2000/svg" xmlns:xlink="http://www.w3.org/1999/xlink" x="0px" y="0px"
	 viewBox="0 0 24 24" style="enable-background:new 0 0 24 24;" xml:space="preserve">
<g id="sound-6-1">
	<path d="M12,11v4H9v-5h1v1H12z M11.008,12h-1v2h1V12z M13.008,14h1v1h-1V14z M15,11h-1v-1h2v5h-1V11z M19,10c0-1.657-1.343-3-3-3H9
		c-1.657,0-3,1.343-3,3v5c0,1.657,1.343,3,3,3h7c1.657,0,3-1.343,3-3V10z M17,16H8V9h9V16z"/>
</g>
</svg>
