<?xml version="1.0" encoding="utf-8"?>
<!-- Generator: Adobe Illustrator 19.1.0, SVG Export Plug-In . SVG Version: 6.00 Build 0)  -->
<svg version="1.1" id="Layer_1" xmlns="http://www.w3.org/2000/svg" xmlns:xlink="http://www.w3.org/1999/xlink" x="0px" y="0px"
	 viewBox="0 0 24 24" style="enable-background:new 0 0 24 24;" xml:space="preserve">
<g id="equalizer_1_">
	<path id="equalizer" d="M10,17.75C10,17.888,9.887,18,9.75,18h-2.5C7.113,18,7,17.888,7,17.75v-1.5C7,16.112,7.113,16,7.25,16h2.5
		C9.887,16,10,16.112,10,16.25V17.75z M10,13.25C10,13.113,9.887,13,9.75,13h-2.5C7.113,13,7,13.113,7,13.25v1.5
		C7,14.887,7.113,15,7.25,15h2.5C9.887,15,10,14.887,10,14.75V13.25z M14,16.25c0-0.138-0.113-0.25-0.25-0.25h-2.5
		C11.113,16,11,16.112,11,16.25v1.5c0,0.138,0.113,0.25,0.25,0.25h2.5c0.137,0,0.25-0.112,0.25-0.25V16.25z M14,13.25
		c0-0.137-0.113-0.25-0.25-0.25h-2.5C11.113,13,11,13.113,11,13.25v1.5c0,0.137,0.113,0.25,0.25,0.25h2.5
		c0.137,0,0.25-0.113,0.25-0.25V13.25z M14,10.25c0-0.137-0.113-0.25-0.25-0.25h-2.5C11.113,10,11,10.113,11,10.25v1.5
		c0,0.137,0.113,0.25,0.25,0.25h2.5c0.137,0,0.25-0.113,0.25-0.25V10.25z M14,7.25C14,7.113,13.887,7,13.75,7h-2.5
		C11.113,7,11,7.113,11,7.25v1.5C11,8.887,11.113,9,11.25,9h2.5C13.887,9,14,8.887,14,8.75V7.25z M18,16.25
		c0-0.138-0.112-0.25-0.25-0.25h-2.5C15.113,16,15,16.112,15,16.25v1.5c0,0.138,0.113,0.25,0.25,0.25h2.5
		c0.138,0,0.25-0.112,0.25-0.25V16.25z M18,13.25c0-0.137-0.112-0.25-0.25-0.25h-2.5C15.113,13,15,13.113,15,13.25v1.5
		c0,0.137,0.113,0.25,0.25,0.25h2.5c0.138,0,0.25-0.113,0.25-0.25V13.25z M18,10.25c0-0.137-0.112-0.25-0.25-0.25h-2.5
		C15.113,10,15,10.113,15,10.25v1.5c0,0.137,0.113,0.25,0.25,0.25h2.5c0.138,0,0.25-0.113,0.25-0.25V10.25z"/>
</g>
</svg>
