<?xml version="1.0" encoding="utf-8"?>
<!-- Generator: Adobe Illustrator 19.1.0, SVG Export Plug-In . SVG Version: 6.00 Build 0)  -->
<svg version="1.1" id="Layer_1" xmlns="http://www.w3.org/2000/svg" xmlns:xlink="http://www.w3.org/1999/xlink" x="0px" y="0px"
	 viewBox="0 0 24 24" style="enable-background:new 0 0 24 24;" xml:space="preserve">
<g id="globe">
	<path d="M13.126,8.059c-0.245,0.122-0.332,0.525-0.623,0.233c-0.074,0.181-0.268,0.342-0.321,0.553
		c0.346,0.229,0.895,0.24,1.291,0.318C13.455,9.043,13.13,8.455,13.126,8.059z"/>
	<path d="M13,6.24c-3.14,0-5.76,2.62-5.76,5.76s2.62,5.76,5.76,5.76c3.14,0,5.76-2.62,5.76-5.76S16.14,6.24,13,6.24z M16.148,15.885
		C15.585,16.433,14.756,17.02,13.94,17c-0.121-0.203,0.017-0.289,0.017-0.468c-0.409-0.086-0.665-0.465-0.867-0.798
		c-0.066-0.418,0.507-0.773,0.354-1.121c-0.67,0.076-1.117-0.579-1.706-0.81c-0.359-0.139-0.731-0.249-1.073-0.426
		c-0.229-0.118-0.39-0.351-0.664-0.336c0.018-0.444-0.344-0.808-0.328-1.042c0.125-0.594-0.294-1.155-0.136-1.796
		c0.145-0.59,0.522-1.092,0.577-1.708c0.023-0.147-0.2-0.197-0.154-0.406c0.05-0.225,0.664-0.544,0.858-0.605
		c0.327-0.104,0.586,0.046,0.915-0.02c0.534-0.108,1.094-0.128,1.541-0.478c0.115,0.025,0.251,0.026,0.367,0.002
		c0.439,0.366,1.515,0.232,1.369,1.055c0,0-0.387,0.216-1.088-0.075c0.115,0.048,0.014,0.331-0.014,0.441
		c0.575,0.328,1.319,0.574,1.613,1.223c-0.249,0.308-0.56,0.17-0.891,0.17c-0.104,0.115-0.149,0.213-0.104,0.364
		c-0.617,0.261-0.477,0.579-0.675,1.108c-0.123,0.33-0.44,0.354-0.368,0.758c0.056,0.359-0.101,0.63-0.15,0.969
		c0,0-0.546-0.304-0.803-0.729c-0.13-0.216-0.558-0.148-0.796-0.194c-0.517,0.199-0.133,1.288,0.284,0.841
		c0.524-0.557,0.599,0.144,0.566,0.489c0.167,0.101,0.409,0.026,0.514,0.243c0.017,0.102-0.043,0.409,0.031,0.509
		c0.144,0.221,0.555-0.046,0.663-0.119c0.457-0.308,1.119-0.229,1.64-0.246c0.307,0.203,0.684,0.172,1.003,0.34
		c0.269,0.141,0.477-0.008,0.732,0.162C17.097,14.963,16.607,15.443,16.148,15.885z"/>
</g>
</svg>
