<?xml version="1.0" encoding="utf-8"?>
<!-- Generator: Adobe Illustrator 19.1.0, SVG Export Plug-In . SVG Version: 6.00 Build 0)  -->
<svg version="1.1" id="Layer_1" xmlns="http://www.w3.org/2000/svg" xmlns:xlink="http://www.w3.org/1999/xlink" x="0px" y="0px"
	 viewBox="0 0 24 24" style="enable-background:new 0 0 24 24;" xml:space="preserve">
<g id="repeat">
	<path id="path_41_" d="M17.771,12c0,3.188-2.584,5.771-5.771,5.771S6.229,15.188,6.229,12S8.813,6.228,12,6.228
		c1.305,0,2.504,0.441,3.47,1.172l1.347-1.347C16.918,5.953,17,5.987,17,6.129V6.25v3.492V9.75C17,9.888,16.888,10,16.75,10h-0.008
		H13.25h-0.121c-0.142,0-0.176-0.082-0.076-0.182l1.33-1.33C13.704,8.017,12.89,7.728,12,7.728c-2.355,0-4.271,1.916-4.271,4.272
		c0,2.355,1.916,4.271,4.271,4.271s4.271-1.916,4.271-4.271H17.771z"/>
</g>
</svg>
