<?xml version="1.0" encoding="utf-8"?>
<!-- Generator: Adobe Illustrator 19.1.0, SVG Export Plug-In . SVG Version: 6.00 Build 0)  -->
<svg version="1.1" id="Layer_1" xmlns="http://www.w3.org/2000/svg" xmlns:xlink="http://www.w3.org/1999/xlink" x="0px" y="0px"
	 viewBox="0 0 24 24" style="enable-background:new 0 0 24 24;" xml:space="preserve">
<g id="random">
	<path d="M7.5,10h2.086l1.223,1.223l1.414-1.414L10.414,8H7.5C7.225,8,7,8.225,7,8.5v1C7,9.775,7.225,10,7.5,10z"/>
	<path d="M18,10v1.5c0,0.275,0.159,0.341,0.354,0.146l2.49-2.293c0.194-0.194,0.194-0.513,0-0.707l-2.49-2.293
		C18.159,6.159,18,6.225,18,6.5V8h-2.414l-6,6H7.5C7.225,14,7,14.225,7,14.5v1C7,15.775,7.225,16,7.5,16h2.914l6-6H18z"/>
	<path d="M18.354,12.354C18.159,12.159,18,12.225,18,12.5V14h-1.586l-1.223-1.223l-1.414,1.414L15.586,16H18v1.5
		c0,0.275,0.159,0.341,0.354,0.146l2.49-2.293c0.194-0.194,0.194-0.513,0-0.707L18.354,12.354z"/>
</g>
</svg>
