<?xml version="1.0" encoding="utf-8"?>
<!-- Generator: Adobe Illustrator 19.1.0, SVG Export Plug-In . SVG Version: 6.00 Build 0)  -->
<svg version="1.1" id="Layer_1" xmlns="http://www.w3.org/2000/svg" xmlns:xlink="http://www.w3.org/1999/xlink" x="0px" y="0px"
	 viewBox="0 0 24 24" style="enable-background:new 0 0 24 24;" xml:space="preserve" fill="#e6e6e6">
<g id="list-alt">
	<path id="path_43_" d="M16,15.75c0,0.137-0.113,0.25-0.25,0.25h-4.5C11.113,16,11,15.887,11,15.75v-0.5
		c0-0.137,0.113-0.25,0.25-0.25h4.5c0.137,0,0.25,0.113,0.25,0.25V15.75z M16,9.25C16,9.113,15.887,9,15.75,9h-4.5
		C11.113,9,11,9.113,11,9.25v0.5C11,9.887,11.113,10,11.25,10h4.5C15.887,10,16,9.887,16,9.75V9.25z M16,11.25
		c0-0.137-0.113-0.25-0.25-0.25h-4.5C11.113,11,11,11.113,11,11.25v0.5c0,0.137,0.113,0.25,0.25,0.25h4.5
		c0.137,0,0.25-0.113,0.25-0.25V11.25z M10,9.25C10,9.113,9.887,9,9.75,9h-0.5C9.113,9,9,9.113,9,9.25v0.5C9,9.887,9.113,10,9.25,10
		h0.5C9.887,10,10,9.887,10,9.75V9.25z M16,13.25c0-0.137-0.113-0.25-0.25-0.25h-4.5C11.113,13,11,13.113,11,13.25v0.5
		c0,0.137,0.113,0.25,0.25,0.25h4.5c0.137,0,0.25-0.113,0.25-0.25V13.25z M17.75,6C17.888,6,18,6.113,18,6.25v11.5
		c0,0.138-0.112,0.25-0.25,0.25H7.25C7.113,18,7,17.888,7,17.75V6.25C7,6.113,7.113,6,7.25,6H17.75z M17,8.25
		C17,8.113,16.888,8,16.75,8h-8.5C8.113,8,8,8.113,8,8.25v8.5C8,16.888,8.113,17,8.25,17h8.5c0.138,0,0.25-0.112,0.25-0.25V8.25z
		 M10,15.25C10,15.113,9.887,15,9.75,15h-0.5C9.113,15,9,15.113,9,15.25v0.5C9,15.887,9.113,16,9.25,16h0.5
		C9.887,16,10,15.887,10,15.75V15.25z M10,11.25C10,11.113,9.887,11,9.75,11h-0.5C9.113,11,9,11.113,9,11.25v0.5
		C9,11.887,9.113,12,9.25,12h0.5C9.887,12,10,11.887,10,11.75V11.25z M10,13.25C10,13.113,9.887,13,9.75,13h-0.5
		C9.113,13,9,13.113,9,13.25v0.5C9,13.887,9.113,14,9.25,14h0.5C9.887,14,10,13.887,10,13.75V13.25z"/>
</g>
</svg>
