<?xml version="1.0" encoding="utf-8"?>
<!-- Generator: Adobe Illustrator 19.1.0, SVG Export Plug-In . SVG Version: 6.00 Build 0)  -->
<svg version="1.1" id="Layer_1" xmlns="http://www.w3.org/2000/svg" xmlns:xlink="http://www.w3.org/1999/xlink" x="0px" y="0px"
	 viewBox="0 0 24 24" style="enable-background:new 0 0 24 24;" xml:space="preserve">
<g id="object-align-horizontal">
	<path d="M19,12h-1v-1.5c0-0.275-0.225-0.5-0.5-0.5h-4c-0.275,0-0.5,0.225-0.5,0.5V12h-1V8.5C12,8.225,11.775,8,11.5,8h-4
		C7.225,8,7,8.225,7,8.5V12v1v3.5C7,16.775,7.225,17,7.5,17h4c0.275,0,0.5-0.225,0.5-0.5V13h1v1.5c0,0.275,0.225,0.5,0.5,0.5h4
		c0.275,0,0.5-0.225,0.5-0.5V13h1V12z M17,14h-3v-3h3V14z"/>
</g>
</svg>
