<?xml version="1.0" encoding="utf-8"?>
<!-- Generator: Adobe Illustrator 19.1.0, SVG Export Plug-In . SVG Version: 6.00 Build 0)  -->
<svg version="1.1" id="Layer_1" xmlns="http://www.w3.org/2000/svg" xmlns:xlink="http://www.w3.org/1999/xlink" x="0px" y="0px"
	 viewBox="0 0 24 24" style="enable-background:new 0 0 24 24;" xml:space="preserve">
<g id="text-height">
	<path id="path_67_" d="M9,6v3c0,0,0,0,0.498,0C9.5,8,10.115,8,11,8h2c0,0,0,8,0,8.5S12,17,12,17v1h4v-1c0,0-1,0-1-0.5S15,8,15,8h2
		c0.885,0,1.5,0,1.502,1C19,9,19,9,19,9V6H9z"/>
	<polygon id="path_66_" points="7.75,8 6.5,6.334 5.25,8 6,8 6,16 5.25,16 6.5,17.666 7.75,16 7,16 7,8 	"/>
</g>
</svg>
