<?xml version="1.0" encoding="utf-8"?>
<!-- Generator: Adobe Illustrator 19.1.0, SVG Export Plug-In . SVG Version: 6.00 Build 0)  -->
<svg version="1.1" id="Layer_1" xmlns="http://www.w3.org/2000/svg" xmlns:xlink="http://www.w3.org/1999/xlink" x="0px" y="0px"
	 viewBox="0 0 24 24" style="enable-background:new 0 0 24 24;" xml:space="preserve">
<g id="reflect-x">
	<path d="M8.75,7.5c0-0.067,0.014-0.136,0.042-0.2C8.871,7.118,9.051,7,9.25,7h6.5c0.199,0,0.379,0.118,0.458,0.3
		c0.08,0.181,0.045,0.395-0.092,0.54l-3.25,3.5c-0.095,0.102-0.228,0.16-0.366,0.16s-0.271-0.058-0.366-0.16l-3.25-3.5
		C8.796,7.746,8.75,7.624,8.75,7.5z M14.604,8h-4.207l2.104,2.265L14.604,8z M17,12h0.75c0.138,0,0.25,0.112,0.25,0.25v0.5
		c0,0.138-0.112,0.25-0.25,0.25H17V12z M12,12h-1v1h1V12z M14,12h-1v1h1V12z M16,12h-1v1h1V12z M8,12H7.25
		C7.112,12,7,12.112,7,12.25v0.5C7,12.888,7.112,13,7.25,13H8V12z M9,13h1v-1H9V13z M16.208,17.7c0.079-0.18,0.044-0.394-0.092-0.54
		l-3.25-3.5c-0.095-0.102-0.228-0.16-0.366-0.16s-0.271,0.058-0.366,0.16l-3.25,3.5C8.796,17.254,8.75,17.376,8.75,17.5
		c0,0.067,0.014,0.136,0.042,0.2C8.871,17.882,9.051,18,9.25,18h6.5C15.949,18,16.129,17.882,16.208,17.7z"/>
</g>
</svg>
