<?xml version="1.0" encoding="utf-8"?>
<!-- Generator: Adobe Illustrator 19.1.0, SVG Export Plug-In . SVG Version: 6.00 Build 0)  -->
<svg version="1.1" id="Layer_1" xmlns="http://www.w3.org/2000/svg" xmlns:xlink="http://www.w3.org/1999/xlink" x="0px" y="0px"
	 viewBox="0 0 24 24" style="enable-background:new 0 0 24 24;" xml:space="preserve">
<g id="sort-by-alphabet-alt">
	<path d="M14,13v5h1v-1h1v1h1v-5H14z M16.008,16h-1v-2h1V16z M9,6v9H7.5c-0.275,0-0.341,0.17-0.146,0.364l2.293,2.495
		c0.194,0.195,0.513,0.197,0.707,0.003l2.293-2.499C12.841,15.168,12.775,15,12.5,15H11V6H9z M14,7h2l-2,2.5V11h3v-1h-2l2-2.5V6h-3
		V7z"/>
</g>
</svg>
