<?xml version="1.0" encoding="utf-8"?>
<!-- Generator: Adobe Illustrator 19.1.0, SVG Export Plug-In . SVG Version: 6.00 Build 0)  -->
<svg version="1.1" id="Layer_1" xmlns="http://www.w3.org/2000/svg" xmlns:xlink="http://www.w3.org/1999/xlink" x="0px" y="0px"
	 viewBox="0 0 24 24" style="enable-background:new 0 0 24 24;" xml:space="preserve">
<g id="circle-arrow-top">
	<path id="circle-arrow" d="M13,6.219c-3.191,0-5.781,2.588-5.781,5.781s2.59,5.781,5.781,5.781c3.193,0,5.781-2.588,5.781-5.781
		S16.193,6.219,13,6.219z M13.315,8.856l2.239,2.756C15.727,11.825,15.644,12,15.369,12H14v2.75c0,0.138-0.113,0.25-0.25,0.25h-1.5
		C12.113,15,12,14.888,12,14.75V12h-1.369c-0.275,0-0.358-0.175-0.185-0.388l2.239-2.756C12.858,8.643,13.142,8.643,13.315,8.856z"
		/>
</g>
</svg>
