<?xml version="1.0" encoding="utf-8"?>
<!-- Generator: Adobe Illustrator 19.1.0, SVG Export Plug-In . SVG Version: 6.00 Build 0)  -->
<svg version="1.1" id="Layer_1" xmlns="http://www.w3.org/2000/svg" xmlns:xlink="http://www.w3.org/1999/xlink" x="0px" y="0px"
	 viewBox="0 0 24 24" style="enable-background:new 0 0 24 24;" xml:space="preserve">
<g id="picture_1_">
	<path id="picture_4_" d="M18,7.438C18,7.196,17.805,7,17.562,7H6.437C6.195,7,6,7.196,6,7.438v10.125C6,17.804,6.195,18,6.437,18
		h11.125C17.805,18,18,17.804,18,17.562V7.438z M17,13l-2.359-2.875l-2.932,3.178l0.744,1.557l-2.984-1.312L7,15.375V8h10V13z
		 M10.762,10.498c0-0.742-0.602-1.342-1.342-1.342c-0.74,0-1.342,0.6-1.342,1.342c0,0.742,0.602,1.342,1.342,1.342
		C10.16,11.84,10.762,11.24,10.762,10.498z"/>
</g>
</svg>
