<?xml version="1.0" encoding="utf-8"?>
<!-- Generator: Adobe Illustrator 19.1.0, SVG Export Plug-In . SVG Version: 6.00 Build 0)  -->
<svg version="1.1" id="Layer_1" xmlns="http://www.w3.org/2000/svg" xmlns:xlink="http://www.w3.org/1999/xlink" x="0px" y="0px"
	 viewBox="0 0 24 24" style="enable-background:new 0 0 24 24;" xml:space="preserve">
<g id="unchecked_1_">
	<path id="unchecked" d="M14.5,7h-4C8.3,7,7,8.3,7,10.5v4c0,2.2,1.3,3.5,3.5,3.5h4c2.156,0,3.5-1.281,3.5-3.5c0,0,0-3,0-4
		C18,8.328,16.656,7,14.5,7z M15,9c0.55,0,1,0.45,1,1v5c0,0.55-0.45,1-1,1h-5c-0.55,0-1-0.45-1-1v-5c0-0.55,0.45-1,1-1H15z"/>
</g>
</svg>
