<?xml version="1.0" encoding="utf-8"?>
<!-- Generator: Adobe Illustrator 19.1.0, SVG Export Plug-In . SVG Version: 6.00 Build 0)  -->
<svg version="1.1" id="Layer_1" xmlns="http://www.w3.org/2000/svg" xmlns:xlink="http://www.w3.org/1999/xlink" x="0px" y="0px"
	 viewBox="0 0 24 24" style="enable-background:new 0 0 24 24;" xml:space="preserve">
<g id="user">
	<path id="path_7_" d="M18,16.824v0.926c0,0.138-0.112,0.25-0.25,0.25H6.25C6.112,18,6,17.888,6,17.75v-0.926
		c0-0.137,0.095-0.311,0.21-0.385l3.58-2.304C9.905,14.061,10,13.888,10,13.75V13c-0.55,0-1-0.95-1-1.5V9c0-1.65,1.35-3,3-3
		s3,1.35,3,3v2.5c0,0.55-0.45,1.5-1,1.5v0.75c0,0.138,0.095,0.311,0.21,0.385l3.58,2.304C17.905,16.513,18,16.687,18,16.824z"/>
</g>
</svg>
