<?xml version="1.0" encoding="utf-8"?>
<!-- Generator: Adobe Illustrator 19.1.0, SVG Export Plug-In . SVG Version: 6.00 Build 0)  -->
<svg version="1.1" id="Layer_1" xmlns="http://www.w3.org/2000/svg" xmlns:xlink="http://www.w3.org/1999/xlink" x="0px" y="0px"
	 viewBox="0 0 24 24" style="enable-background:new 0 0 24 24;" xml:space="preserve">
<g id="music_1_">
	<path id="path_1_" d="M17,6.692c0,0,0,7.542,0,8.308s-0.639,1.301-1.527,1.589c-1.053,0.341-2.098,0.026-2.335-0.704
		c-0.236-0.729,0.425-1.598,1.479-1.939c0.49-0.159,0.978-0.174,1.384-0.073V8.663l-6,1.551c0,0,0,5.364,0,6.059
		c0,0.539-0.639,1.301-1.527,1.589c-1.053,0.341-2.098,0.026-2.335-0.704c-0.236-0.729,0.425-1.598,1.478-1.939
		C8.106,15.06,8.594,15.045,9,15.146v-6.39c0-0.478,0.134-0.751,0.678-0.927l6.455-1.63C16.672,6,17,6.255,17,6.692z"/>
</g>
</svg>
