<?xml version="1.0" encoding="utf-8"?>
<!-- Generator: Adobe Illustrator 19.1.0, SVG Export Plug-In . SVG Version: 6.00 Build 0)  -->
<svg version="1.1" id="Layer_1" xmlns="http://www.w3.org/2000/svg" xmlns:xlink="http://www.w3.org/1999/xlink" x="0px" y="0px"
	 viewBox="0 0 24 24" style="enable-background:new 0 0 24 24;" xml:space="preserve">
<g id="directions">
	<path d="M10.884,11.299L7.97,8.384c-0.097-0.097-0.097-0.256,0-0.354L9.03,6.97c0.097-0.097,0.256-0.097,0.353,0l2.911,2.918
		L10.884,11.299z M18.5,6h-3c-0.275,0-0.341,0.159-0.146,0.354l0.939,0.939L12,11.599v6.151c0,0.137,0.112,0.25,0.25,0.25h1.5
		c0.138,0,0.25-0.113,0.25-0.25v-5.336l3.707-3.707l0.939,0.939C18.841,9.841,19,9.775,19,9.5v-3C19,6.225,18.775,6,18.5,6z"/>
</g>
</svg>
