<?xml version="1.0" encoding="utf-8"?>
<!-- Generator: Adobe Illustrator 19.1.0, SVG Export Plug-In . SVG Version: 6.00 Build 0)  -->
<svg version="1.1" id="Layer_1" xmlns="http://www.w3.org/2000/svg" xmlns:xlink="http://www.w3.org/1999/xlink" x="0px" y="0px"
	 viewBox="0 0 24 24" style="enable-background:new 0 0 24 24;" xml:space="preserve">
<g id="reflext-y">
	<path d="M7.5,16.25c-0.067,0-0.136-0.014-0.2-0.042C7.118,16.129,7,15.949,7,15.75v-6.5c0-0.199,0.118-0.379,0.3-0.458
		c0.181-0.08,0.395-0.045,0.54,0.092l3.5,3.25c0.102,0.095,0.16,0.228,0.16,0.366s-0.058,0.271-0.16,0.366l-3.5,3.25
		C7.746,16.204,7.624,16.25,7.5,16.25z M8,10.396v4.207l2.265-2.104L8,10.396z M12,8V7.25C12,7.112,12.112,7,12.25,7h0.5
		C12.888,7,13,7.112,13,7.25V8H12z M12,13v1h1v-1H12z M12,11v1h1v-1H12z M12,9v1h1V9H12z M12,17v0.75c0,0.138,0.112,0.25,0.25,0.25
		h0.5c0.138,0,0.25-0.112,0.25-0.25V17H12z M13,16v-1h-1v1H13z M17.7,8.792c-0.18-0.079-0.394-0.044-0.54,0.092l-3.5,3.25
		c-0.102,0.095-0.16,0.228-0.16,0.366s0.058,0.271,0.16,0.366l3.5,3.25c0.094,0.088,0.217,0.134,0.34,0.134
		c0.067,0,0.136-0.014,0.2-0.042c0.183-0.079,0.3-0.259,0.3-0.458v-6.5C18,9.051,17.882,8.871,17.7,8.792z"/>
</g>
</svg>
