<?xml version="1.0" encoding="utf-8"?>
<!-- Generator: Adobe Illustrator 19.1.0, SVG Export Plug-In . SVG Version: 6.00 Build 0)  -->
<svg version="1.1" id="Layer_1" xmlns="http://www.w3.org/2000/svg" xmlns:xlink="http://www.w3.org/1999/xlink" x="0px" y="0px"
	 viewBox="0 0 24 24" style="enable-background:new 0 0 24 24;" xml:space="preserve">
<g id="retweet">
	<path d="M9,15v-4h1.5c0.275,0,0.341-0.159,0.146-0.354l-2.293-2.49c-0.194-0.194-0.513-0.194-0.707,0l-2.293,2.49
		C5.159,10.841,5.225,11,5.5,11H7v5.5C7,16.775,7.225,17,7.5,17H15l-2.154-2H9z"/>
	<path d="M20.5,14.01H19V8.5C19,8.225,18.775,8,18.5,8h-7.461l2.154,2H17v4.01h-1.5c-0.275,0-0.341,0.159-0.146,0.354l2.293,2.49
		c0.194,0.194,0.513,0.194,0.707,0l2.293-2.49C20.841,14.169,20.775,14.01,20.5,14.01z"/>
</g>
</svg>
