<?xml version="1.0" encoding="utf-8"?>
<!-- Generator: Adobe Illustrator 19.1.0, SVG Export Plug-In . SVG Version: 6.00 Build 0)  -->
<svg version="1.1" id="Layer_1" xmlns="http://www.w3.org/2000/svg" xmlns:xlink="http://www.w3.org/1999/xlink" x="0px" y="0px"
	 viewBox="0 0 24 24" style="enable-background:new 0 0 24 24;" xml:space="preserve">
<g id="bitcoin">
	<path d="M15.283,11.609c0,0,1.578-0.469,1.559-2.109C16.829,8.43,15.923,7.723,15,7.342V6.25C15,6.112,14.888,6,14.75,6h-1.5
		C13.112,6,13,6.112,13,6.25V7c-0.287,0-0.632,0-1,0V6.25C12,6.112,11.888,6,11.75,6h-1.5C10.112,6,10,6.112,10,6.25V7
		C9.417,7,9,7,9,7H8.25C8.112,7,8,7.113,8,7.25v1.5C8,8.887,8.112,9,8.25,9H9v6H8.25C8.112,15,8,15.113,8,15.25v1.5
		C8,16.887,8.112,17,8.25,17H9c0,0,0.406,0,1,0v0.75c0,0.138,0.112,0.25,0.25,0.25h1.5c0.138,0,0.25-0.112,0.25-0.25V17
		c0.338,0,0.675,0,1,0v0.75c0,0.138,0.112,0.25,0.25,0.25h1.5c0.138,0,0.25-0.112,0.25-0.25V17c0.865,0,2.81-0.031,2.81-2.875
		C17.81,11.883,15.283,11.609,15.283,11.609z M11,9c0,0,1.629,0,2.629,0s1,1,1,1s0,1-1,1S11,11,11,11V9z M14.629,15
		c-1,0-3.629,0-3.629,0v-2c0,0,2.629,0,3.629,0s1,1,1,1S15.629,15,14.629,15z"/>
</g>
</svg>
