<?xml version="1.0" encoding="utf-8"?>
<!-- Generator: Adobe Illustrator 19.1.0, SVG Export Plug-In . SVG Version: 6.00 Build 0)  -->
<svg version="1.1" id="Layer_1" xmlns="http://www.w3.org/2000/svg" xmlns:xlink="http://www.w3.org/1999/xlink" x="0px" y="0px"
	 viewBox="0 0 24 24" style="enable-background:new 0 0 24 24;" xml:space="preserve">
<g id="grain">
	<path d="M10,10c1.657,0,3,1.343,3,3C11.343,13,10,11.657,10,10z M13.5,11.022c1.777-1.351,1.777-3.54,0-4.891
		C11.723,7.482,11.723,9.672,13.5,11.022z M13,16c0-1.657-1.343-3-3-3C10,14.657,11.343,16,13,16z M17,10c-1.657,0-3,1.343-3,3
		C15.657,13,17,11.657,17,10z M13,16.028v1.425c0,0.276,0.224,0.5,0.5,0.5s0.5-0.224,0.5-0.5v-1.439
		c-0.188,0.027-0.376,0.057-0.571,0.057C13.282,16.071,13.143,16.044,13,16.028z M14,16c1.657,0,3-1.343,3-3
		C15.343,13,14,14.343,14,16z"/>
</g>
</svg>
