<?xml version="1.0" encoding="utf-8"?>
<!-- Generator: Adobe Illustrator 19.1.0, SVG Export Plug-In . SVG Version: 6.00 Build 0)  -->
<svg version="1.1" id="Layer_1" xmlns="http://www.w3.org/2000/svg" xmlns:xlink="http://www.w3.org/1999/xlink" x="0px" y="0px"
	 viewBox="0 0 24 24" style="enable-background:new 0 0 24 24;" xml:space="preserve">
<g id="log-in">
	<path d="M13.624,12.171l-3.247-2.841C10.169,9.148,10,9.225,10,9.5V11H7.5C7.225,11,7,11.225,7,11.5v2C7,13.775,7.225,14,7.5,14H10
		v1.5c0,0.275,0.169,0.352,0.376,0.171l3.247-2.841C13.831,12.648,13.831,12.352,13.624,12.171z"/>
	<path d="M16.5,7h-4C12.224,7,12,7.224,12,7.5v1C12,8.776,12.224,9,12.5,9H17c0.55,0,1,0.45,1,1v5c0,0.55-0.45,1-1,1h-4.5
		c-0.276,0-0.5,0.224-0.5,0.5v1c0,0.276,0.224,0.5,0.5,0.5h4c2.2,0,3.5-1.3,3.5-3.5v-4C20,8.3,18.7,7,16.5,7z"/>
</g>
</svg>
