<?xml version="1.0" encoding="utf-8"?>
<!-- Generator: Adobe Illustrator 19.1.0, SVG Export Plug-In . SVG Version: 6.00 Build 0)  -->
<svg version="1.1" id="Layer_1" xmlns="http://www.w3.org/2000/svg" xmlns:xlink="http://www.w3.org/1999/xlink" x="0px" y="0px"
	 viewBox="0 0 24 24" style="enable-background:new 0 0 24 24;" xml:space="preserve">
<g id="shopping-cart">
	<path d="M8.667,9.704 M7.063,6.5c0,0.276,0.224,0.5,0.5,0.5h0.542l2.005,9.609c0,0,0.172,0.391,0.578,0.391H11v0.5
		c0,0.275,0.225,0.5,0.5,0.5c0.275,0,0.5-0.225,0.5-0.5V17h3v0.5c0,0.275,0.225,0.5,0.5,0.5c0.275,0,0.5-0.225,0.5-0.5V17h0.5
		c0.275,0,0.5-0.225,0.5-0.5S16.775,16,16.5,16h-5.354l-0.474-2H17c0.484,0,0.771-0.412,0.821-0.642l1-4.75
		c0.033-0.148-0.003-0.303-0.098-0.421C18.628,8.068,18.484,8,18.333,8H9.369L8.986,6.385C8.934,6.159,8.731,6,8.5,6H7.563
		C7.286,6,7.063,6.224,7.063,6.5z"/>
</g>
</svg>
