<?xml version="1.0" encoding="utf-8"?>
<!-- Generator: Adobe Illustrator 19.1.0, SVG Export Plug-In . SVG Version: 6.00 Build 0)  -->
<svg version="1.1" id="Layer_1" xmlns="http://www.w3.org/2000/svg" xmlns:xlink="http://www.w3.org/1999/xlink" x="0px" y="0px"
	 viewBox="0 0 24 24" style="enable-background:new 0 0 24 24;" xml:space="preserve">
<g id="align-justify">
	<path id="path_85_" style="fill-rule:evenodd;clip-rule:evenodd;" d="M6,17.5C6,17.775,6.225,18,6.5,18h11
		c0.275,0,0.5-0.225,0.5-0.5v-1c0-0.275-0.225-0.5-0.5-0.5h-11C6.225,16,6,16.225,6,16.5V17.5z"/>
	<path id="path_84_" style="fill-rule:evenodd;clip-rule:evenodd;" d="M6,14.5C6,14.775,6.225,15,6.5,15h11
		c0.275,0,0.5-0.225,0.5-0.5v-1c0-0.275-0.225-0.5-0.5-0.5h-11C6.225,13,6,13.225,6,13.5V14.5z"/>
	<path id="path_83_" style="fill-rule:evenodd;clip-rule:evenodd;" d="M6,11.5C6,11.775,6.225,12,6.5,12h11
		c0.275,0,0.5-0.225,0.5-0.5v-1c0-0.275-0.225-0.5-0.5-0.5h-11C6.225,10,6,10.225,6,10.5V11.5z"/>
	<path id="path_82_" style="fill-rule:evenodd;clip-rule:evenodd;" d="M6,8.5C6,8.775,6.225,9,6.5,9h11C17.775,9,18,8.775,18,8.5v-1
		C18,7.225,17.775,7,17.5,7h-11C6.225,7,6,7.225,6,7.5V8.5z"/>
</g>
</svg>
