<?xml version="1.0" encoding="utf-8"?>
<!-- Generator: Adobe Illustrator 19.1.0, SVG Export Plug-In . SVG Version: 6.00 Build 0)  -->
<svg version="1.1" id="Layer_1" xmlns="http://www.w3.org/2000/svg" xmlns:xlink="http://www.w3.org/1999/xlink" x="0px" y="0px"
	 viewBox="0 0 24 24" style="enable-background:new 0 0 24 24;" xml:space="preserve">
<g id="list-numbered">
	<path d="M8,8H7V7h2v5H8V8z M10,13v3H8v1h2v1H7v-3h2v-1H7v-1H10z M11,16.5c0-0.275,0.225-0.5,0.5-0.5h7c0.275,0,0.5,0.225,0.5,0.5v1
		c0,0.275-0.225,0.5-0.5,0.5h-7c-0.275,0-0.5-0.225-0.5-0.5V16.5z M11,14.5c0,0.275,0.225,0.5,0.5,0.5h7c0.275,0,0.5-0.225,0.5-0.5
		v-1c0-0.275-0.225-0.5-0.5-0.5h-7c-0.275,0-0.5,0.225-0.5,0.5V14.5z M11,11.5c0,0.275,0.225,0.5,0.5,0.5h7
		c0.275,0,0.5-0.225,0.5-0.5v-1c0-0.275-0.225-0.5-0.5-0.5h-7c-0.275,0-0.5,0.225-0.5,0.5V11.5z M11,8.5C11,8.775,11.225,9,11.5,9h7
		C18.775,9,19,8.775,19,8.5v-1C19,7.225,18.775,7,18.5,7h-7C11.225,7,11,7.225,11,7.5V8.5z"/>
</g>
</svg>
