<?xml version="1.0" encoding="utf-8"?>
<!-- Generator: Adobe Illustrator 19.1.0, SVG Export Plug-In . SVG Version: 6.00 Build 0)  -->
<svg version="1.1" id="Layer_1" xmlns="http://www.w3.org/2000/svg" xmlns:xlink="http://www.w3.org/1999/xlink" x="0px" y="0px"
	 viewBox="0 0 24 24" style="enable-background:new 0 0 24 24;" xml:space="preserve">
<g id="volume-down">
	<path id="path_49_" d="M11.792,8.139L9.208,9.861C9.094,9.938,8.888,10,8.75,10h-2.5C6.112,10,6,10.112,6,10.25v3.5
		C6,13.888,6.112,14,6.25,14h2.5c0.138,0,0.344,0.062,0.458,0.139l2.584,1.723C11.906,15.938,12,15.888,12,15.75v-7.5
		C12,8.112,11.906,8.062,11.792,8.139z M13.751,14.914c0.069-0.01,0.131-0.047,0.171-0.104c0.579-0.816,0.898-1.815,0.898-2.814
		c0-1.035-0.34-2.064-0.956-2.897c-0.04-0.055-0.1-0.09-0.166-0.1c-0.012-0.001-0.023-0.002-0.035-0.002
		c-0.055,0-0.108,0.018-0.152,0.052L13.22,9.272c-0.107,0.083-0.13,0.236-0.049,0.346c0.503,0.687,0.78,1.53,0.78,2.378
		c0,0.823-0.25,1.616-0.725,2.293c-0.075,0.107-0.055,0.255,0.047,0.337l0.286,0.233c0.045,0.037,0.101,0.057,0.158,0.057
		C13.729,14.916,13.74,14.915,13.751,14.914z"/>
</g>
</svg>
