<?xml version="1.0" encoding="utf-8"?>
<!-- Generator: Adobe Illustrator 19.1.0, SVG Export Plug-In . SVG Version: 6.00 Build 0)  -->
<svg version="1.1" id="Layer_1" xmlns="http://www.w3.org/2000/svg" xmlns:xlink="http://www.w3.org/1999/xlink" x="0px" y="0px"
	 viewBox="0 0 24 24" style="enable-background:new 0 0 24 24;" xml:space="preserve">
<g id="phone-alt">
	<path d="M15,11.5V11c0,0,0-0.953-2-0.953S11,11,11,11v0.5l-3.647,3.029C7.159,14.724,7,15.107,7,15.383V17.5
		C7,17.775,7.225,18,7.5,18h11c0.275,0,0.5-0.225,0.5-0.5v-2.117c0-0.275-0.159-0.659-0.354-0.854L15,11.5z M19,8.883v2
		c0,0.275-0.222,0.463-0.493,0.418l-2.014-0.336C16.222,10.92,16,10.658,16,10.383V8.925c-0.824-0.144-1.818-0.245-3-0.245
		c-1.182,0-2.176,0.102-3,0.245v1.458c0,0.275-0.222,0.537-0.493,0.582l-2.014,0.336C7.222,11.346,7,11.158,7,10.883v-2
		C7,8.883,8.492,7,13,7C17.508,7,19,8.883,19,8.883z"/>
</g>
</svg>
