<?xml version="1.0" encoding="utf-8"?>
<!-- Generator: Adobe Illustrator 19.1.0, SVG Export Plug-In . SVG Version: 6.00 Build 0)  -->
<svg version="1.1" id="Layer_1" xmlns="http://www.w3.org/2000/svg" xmlns:xlink="http://www.w3.org/1999/xlink" x="0px" y="0px"
	 viewBox="0 0 24 24" style="enable-background:new 0 0 24 24;" xml:space="preserve">
<g id="log-out">
	<g id="log-in_1_">
		<path d="M10.5,7h4C14.776,7,15,7.224,15,7.5v1C15,8.776,14.776,9,14.5,9H10c-0.55,0-1,0.45-1,1v5c0,0.55,0.45,1,1,1h4.5
			c0.276,0,0.5,0.224,0.5,0.5v1c0,0.276-0.224,0.5-0.5,0.5h-4C8.3,18,7,16.7,7,14.5v-4C7,8.3,8.3,7,10.5,7z"/>
	</g>
	<path d="M19.624,12.171l-3.247-2.841C16.169,9.148,16,9.225,16,9.5V11h-2.5c-0.275,0-0.5,0.225-0.5,0.5v2
		c0,0.275,0.225,0.5,0.5,0.5H16v1.5c0,0.275,0.169,0.352,0.376,0.171l3.247-2.841C19.831,12.648,19.831,12.352,19.624,12.171z"/>
</g>
</svg>
