<?xml version="1.0" encoding="utf-8"?>
<!-- Generator: Adobe Illustrator 19.1.0, SVG Export Plug-In . SVG Version: 6.00 Build 0)  -->
<svg version="1.1" id="Layer_1" xmlns="http://www.w3.org/2000/svg" xmlns:xlink="http://www.w3.org/1999/xlink" x="0px" y="0px"
	 viewBox="0 0 24 24" style="enable-background:new 0 0 24 24;" xml:space="preserve">
<g id="volume-up">
	<path id="path_50_" d="M11.792,8.139L9.208,9.861C9.094,9.938,8.888,10,8.75,10h-2.5C6.112,10,6,10.112,6,10.25v3.5
		C6,13.888,6.112,14,6.25,14h2.5c0.138,0,0.344,0.062,0.458,0.139l2.584,1.723C11.906,15.938,12,15.888,12,15.75v-7.5
		C12,8.112,11.906,8.062,11.792,8.139z M15.699,16.041c-0.058,0-0.113-0.02-0.158-0.057l-0.419-0.344
		c-0.104-0.085-0.122-0.234-0.043-0.342c0.726-0.983,1.108-2.118,1.108-3.283c0-1.194-0.403-2.377-1.137-3.329
		c-0.084-0.109-0.063-0.266,0.045-0.35l0.422-0.327c0.044-0.034,0.099-0.053,0.153-0.053c0.011,0,0.021,0.001,0.033,0.002
		c0.066,0.009,0.126,0.044,0.166,0.098c0.886,1.172,1.354,2.541,1.354,3.959c0,1.408-0.471,2.803-1.326,3.927
		c-0.041,0.054-0.103,0.089-0.17,0.097C15.719,16.04,15.709,16.041,15.699,16.041z M13.751,14.914
		c0.069-0.01,0.131-0.047,0.171-0.104c0.579-0.816,0.898-1.815,0.898-2.814c0-1.035-0.34-2.064-0.956-2.897
		c-0.04-0.055-0.1-0.09-0.166-0.1c-0.012-0.001-0.023-0.002-0.035-0.002c-0.055,0-0.108,0.018-0.152,0.052L13.22,9.272
		c-0.107,0.083-0.13,0.236-0.049,0.346c0.503,0.687,0.78,1.53,0.78,2.378c0,0.823-0.25,1.616-0.725,2.293
		c-0.075,0.107-0.055,0.255,0.047,0.337l0.286,0.233c0.045,0.037,0.101,0.057,0.158,0.057C13.729,14.916,13.74,14.915,13.751,14.914
		z"/>
</g>
</svg>
