<?xml version="1.0" encoding="utf-8"?>
<!-- Generator: Adobe Illustrator 19.1.0, SVG Export Plug-In . SVG Version: 6.00 Build 0)  -->
<svg version="1.1" id="Layer_1" xmlns="http://www.w3.org/2000/svg" xmlns:xlink="http://www.w3.org/1999/xlink" x="0px" y="0px"
	 viewBox="0 0 24 24" style="enable-background:new 0 0 24 24;" xml:space="preserve">
<g id="dashboard">
	<path style="opacity:0.3;" d="M9.668,14c0.683,1.134,1.914,1.901,3.332,1.901s2.648-0.768,3.331-1.901H9.668z"/>
	<g>
		<path d="M14.547,8.952C14.247,8.952,14,9.198,14,9.499c0,0.105,0.038,0.197,0.089,0.28c-0.003,0.004-0.009,0.005-0.012,0.01
			l-1.217,1.263c-0.411,0.066-0.725,0.425-0.725,0.855c0,0.481,0.39,0.872,0.872,0.872c0.48,0,0.87-0.392,0.87-0.872
			c0-0.189-0.061-0.365-0.166-0.508l0.548-1.447c0.085,0.055,0.18,0.094,0.288,0.094c0.301,0,0.547-0.246,0.547-0.547
			C15.094,9.198,14.848,8.952,14.547,8.952z"/>
		<circle cx="15.547" cy="11.452" r="0.547"/>
		<circle cx="11.547" cy="9.499" r="0.547"/>
		<circle cx="10.454" cy="11.452" r="0.547"/>
		<path d="M13,6.227c-3.188,0-5.771,2.584-5.771,5.771S9.813,17.771,13,17.771c3.187,0,5.771-2.584,5.771-5.772
			S16.188,6.227,13,6.227z M13,16.271c-2.355,0-4.271-1.916-4.271-4.272c0-2.355,1.916-4.271,4.271-4.271s4.271,1.916,4.271,4.271
			C17.271,14.354,15.356,16.271,13,16.271z"/>
	</g>
</g>
</svg>
