<?xml version="1.0" encoding="utf-8"?>
<!-- Generator: Adobe Illustrator 19.1.0, SVG Export Plug-In . SVG Version: 6.00 Build 0)  -->
<svg version="1.1" id="Layer_1" xmlns="http://www.w3.org/2000/svg" xmlns:xlink="http://www.w3.org/1999/xlink" x="0px" y="0px"
	 viewBox="0 0 24 24" style="enable-background:new 0 0 24 24;" xml:space="preserve">
<g id="lamp">
	<path d="M15.969,17.5V18h-5.953v-0.5c0-0.276,0.224-0.5,0.5-0.5h0.5v-0.5c0-0.276,0.224-0.5,0.5-0.5H12v-3h2v3h0.469
		c0.276,0,0.5,0.224,0.5,0.5V17h0.5C15.745,17,15.969,17.224,15.969,17.5z M17.574,11.532l-1.899-5.064C15.579,6.211,15.275,6,15,6
		h-4c-0.275,0-0.579,0.211-0.676,0.468l-1.899,5.064C8.329,11.789,8.475,12,8.75,12H15v1.5c0,0.275,0.225,0.5,0.5,0.5
		s0.5-0.225,0.5-0.5V12h1.25C17.525,12,17.671,11.789,17.574,11.532z"/>
</g>
</svg>
