<?xml version="1.0" encoding="utf-8"?>
<!-- Generator: Adobe Illustrator 19.1.0, SVG Export Plug-In . SVG Version: 6.00 Build 0)  -->
<svg version="1.1" id="Layer_1" xmlns="http://www.w3.org/2000/svg" xmlns:xlink="http://www.w3.org/1999/xlink" x="0px" y="0px"
	 viewBox="0 0 24 24" style="enable-background:new 0 0 24 24;" xml:space="preserve">
<g id="hd-video">
	<path d="M11,10h1v5h-1v-2h-1v2H9v-5h1v2h1V10z M19,10c0-1.657-1.343-3-3-3H9c-1.657,0-3,1.343-3,3v5c0,1.657,1.343,3,3,3h7
		c1.657,0,3-1.343,3-3V10z M17,16H8V9h9V16z M16,14v-3l-1-1h-2v5h2L16,14z M14,14v-3h1v3H14z"/>
</g>
</svg>
