<?xml version="1.0" encoding="utf-8"?>
<!-- Generator: Adobe Illustrator 19.1.0, SVG Export Plug-In . SVG Version: 6.00 Build 0)  -->
<svg version="1.1" id="Layer_1" xmlns="http://www.w3.org/2000/svg" xmlns:xlink="http://www.w3.org/1999/xlink" x="0px" y="0px"
	 viewBox="0 0 24 24" style="enable-background:new 0 0 24 24;" xml:space="preserve">
<g id="piggy-bank">
	<path d="M19.609,9.453c-0.255-0.267-0.455-0.207-0.547-0.062c-0.092,0.144-0.008,0.293,0.089,0.434
		c0.13,0.191,0.225,0.438,0.146,0.707c-0.125,0.422-0.664,0.688-1.078,0.547c-0.139-0.047-0.249-0.121-0.347-0.201
		c-0.314-1.942-2.023-3.823-4.086-3.823h-1.946c-0.939,0-1.798,0.402-2.495,1.009H7.309c-0.275,0-0.329,0.146-0.12,0.325
		l1.113,0.954C8.006,9.864,7.815,10.428,7.74,11H6.5C6.225,11,6,11.225,6,11.5V12c0,0.275,0.213,0.571,0.474,0.658l1.586,0.529
		c0.288,0.666,0.734,1.27,1.283,1.749l-0.262,1.571C9.037,16.778,9.225,17,9.5,17h1c0.275,0,0.537-0.222,0.582-0.493l0.107-0.642
		c0.213,0.042,0.428,0.081,0.65,0.081h1.946c0.314,0,0.618-0.052,0.912-0.132l-0.116,0.693C14.537,16.778,14.725,17,15,17h1
		c0.275,0,0.537-0.222,0.582-0.493c0,0,0.324-1.929,0.387-2.335c0.312-0.422,0.81-1.36,0.916-2.172H18.5
		c0.827,0,1.467-0.674,1.5-1.5C20.016,10.109,19.937,9.797,19.609,9.453z M14,8.75C14,8.887,13.888,9,13.75,9h-2.5
		C11.112,9,11,8.887,11,8.75v-0.5C11,8.113,11.112,8,11.25,8h2.5C13.888,8,14,8.113,14,8.25V8.75z"/>
</g>
</svg>
