<?xml version="1.0" encoding="utf-8"?>
<!-- Generator: Adobe Illustrator 19.1.0, SVG Export Plug-In . SVG Version: 6.00 Build 0)  -->
<svg version="1.1" id="Layer_1" xmlns="http://www.w3.org/2000/svg" xmlns:xlink="http://www.w3.org/1999/xlink" x="0px" y="0px"
	 viewBox="0 0 24 24" style="enable-background:new 0 0 24 24;" xml:space="preserve">
<g id="indent-left">
	<path style="fill-rule:evenodd;clip-rule:evenodd;" d="M13,8.5C13,8.775,12.775,9,12.5,9h-1C11.225,9,11,8.775,11,8.5v-1
		C11,7.225,11.225,7,11.5,7h1C12.775,7,13,7.225,13,7.5V8.5z"/>
	<path style="fill-rule:evenodd;clip-rule:evenodd;" d="M17,11.5c0,0.275-0.225,0.5-0.5,0.5h-5c-0.275,0-0.5-0.225-0.5-0.5v-1
		c0-0.275,0.225-0.5,0.5-0.5h5c0.275,0,0.5,0.225,0.5,0.5V11.5z"/>
	<path style="fill-rule:evenodd;clip-rule:evenodd;" d="M15,14.5c0,0.275-0.225,0.5-0.5,0.5h-3c-0.275,0-0.5-0.225-0.5-0.5v-1
		c0-0.275,0.225-0.5,0.5-0.5h3c0.275,0,0.5,0.225,0.5,0.5V14.5z"/>
	<path style="fill-rule:evenodd;clip-rule:evenodd;" d="M18,17.5c0,0.275-0.225,0.5-0.5,0.5h-6c-0.275,0-0.5-0.225-0.5-0.5v-1
		c0-0.275,0.225-0.5,0.5-0.5h6c0.275,0,0.5,0.225,0.5,0.5V17.5z"/>
	<rect x="9" y="7" style="fill-rule:evenodd;clip-rule:evenodd;" width="1" height="11"/>
	<polygon points="8.666,12.5 7,11.25 7,12 5,12 5,13 7,13 7,13.75 	"/>
</g>
</svg>
