<?xml version="1.0" encoding="utf-8"?>
<!-- Generator: Adobe Illustrator 19.1.0, SVG Export Plug-In . SVG Version: 6.00 Build 0)  -->
<svg version="1.1" id="Layer_1" xmlns="http://www.w3.org/2000/svg" xmlns:xlink="http://www.w3.org/1999/xlink" x="0px" y="0px"
	 viewBox="0 0 24 24" style="enable-background:new 0 0 24 24;" xml:space="preserve">
<g id="tent">
	<path id="camp" d="M18.5,16h-0.295l-4.671-7.461l1.357-1.866c0.131-0.211,0.065-0.478-0.146-0.609
		c-0.212-0.13-0.489-0.06-0.619,0.152l-1.119,1.505l-1.107-1.485c-0.13-0.211-0.406-0.277-0.619-0.147
		c-0.211,0.13-0.277,0.408-0.147,0.619l1.344,1.829L7.795,16H7.5C7.224,16,7,16.307,7,16.583V17h12v-0.417
		C19,16.307,18.776,16,18.5,16z M13,9.537l1.953,5.338L16.769,16H13V9.537z"/>
</g>
</svg>
