<?xml version="1.0" encoding="utf-8"?>
<!-- Generator: Adobe Illustrator 19.1.0, SVG Export Plug-In . SVG Version: 6.00 Build 0)  -->
<svg version="1.1" id="Layer_1" xmlns="http://www.w3.org/2000/svg" xmlns:xlink="http://www.w3.org/1999/xlink" x="0px" y="0px"
	 viewBox="0 0 24 24" style="enable-background:new 0 0 24 24;" xml:space="preserve">
<g id="cog">
	<path id="path_23_" d="M12,17.732c-0.25,0-0.496-0.022-0.738-0.053l-0.379-1.515l-0.056-0.016
		c-0.326-0.093-0.641-0.224-0.934-0.387l-0.051-0.028l-1.337,0.803c-0.421-0.331-0.756-0.671-1.046-1.047l0.802-1.337l-0.028-0.051
		c-0.165-0.297-0.295-0.611-0.385-0.934l-0.016-0.056l-1.516-0.379c-0.034-0.278-0.053-0.507-0.053-0.74
		c0-0.25,0.022-0.496,0.053-0.738l1.516-0.379l0.016-0.056c0.09-0.321,0.22-0.636,0.386-0.935l0.028-0.051L7.459,8.498
		c0.328-0.417,0.667-0.752,1.047-1.045l1.337,0.802l0.051-0.028c0.297-0.165,0.611-0.295,0.933-0.385l0.056-0.016l0.379-1.516
		C11.54,6.276,11.769,6.258,12,6.258c0.252,0,0.496,0.022,0.74,0.053l0.379,1.516l0.056,0.016c0.322,0.09,0.637,0.22,0.934,0.385
		l0.051,0.028l1.336-0.802c0.421,0.331,0.757,0.669,1.048,1.045L15.74,9.836l0.028,0.051c0.163,0.294,0.294,0.608,0.387,0.935
		l0.016,0.056l1.515,0.379c0.034,0.278,0.053,0.507,0.053,0.738c0,0.252-0.021,0.498-0.053,0.74l-1.515,0.379l-0.016,0.056
		c-0.094,0.326-0.224,0.641-0.387,0.934l-0.027,0.051l0.802,1.336c-0.331,0.421-0.669,0.757-1.045,1.048l-1.337-0.804l-0.051,0.028
		c-0.293,0.163-0.608,0.294-0.936,0.388l-0.056,0.016L12.74,17.68C12.461,17.714,12.233,17.732,12,17.732z M12,9.848
		c-1.184,0-2.147,0.963-2.147,2.146c0,1.185,0.963,2.149,2.147,2.149c1.185,0,2.148-0.964,2.148-2.149
		C14.148,10.811,13.185,9.848,12,9.848z"/>
</g>
</svg>
