<?xml version="1.0" encoding="utf-8"?>
<!-- Generator: Adobe Illustrator 19.1.0, SVG Export Plug-In . SVG Version: 6.00 Build 0)  -->
<svg version="1.1" id="Layer_1" xmlns="http://www.w3.org/2000/svg" xmlns:xlink="http://www.w3.org/1999/xlink" x="0px" y="0px"
	 viewBox="0 0 24 24" style="enable-background:new 0 0 24 24;" xml:space="preserve">
<g id="tree-deciduous">
	<path d="M17.791,10.5c0-1.208-0.937-2.187-2.122-2.274C15.332,7.063,14.271,6.209,13,6.209c-1.542,0-2.791,1.249-2.791,2.791
		c0,0.08,0.017,0.154,0.023,0.232C10.155,9.223,10.08,9.209,10,9.209c-0.989,0-1.791,0.802-1.791,1.791
		c0,0.721,0.428,1.338,1.042,1.622C9.225,12.744,9.209,12.87,9.209,13c0,0.989,0.802,1.791,1.791,1.791c0.37,0,0.715-0.112,1-0.305
		V17c-0.275,0-0.5,0.225-0.5,0.5V18H12h2h0.5v-0.5c0-0.275-0.225-0.5-0.5-0.5v-2.514c0.285,0.192,0.63,0.305,1,0.305
		c0.989,0,1.791-0.802,1.791-1.791c0-0.194-0.039-0.378-0.096-0.554C17.351,12.043,17.791,11.326,17.791,10.5z"/>
</g>
</svg>
