<?xml version="1.0" encoding="utf-8"?>
<!-- Generator: Adobe Illustrator 19.1.0, SVG Export Plug-In . SVG Version: 6.00 Build 0)  -->
<svg version="1.1" id="Layer_1" xmlns="http://www.w3.org/2000/svg" xmlns:xlink="http://www.w3.org/1999/xlink" x="0px" y="0px"
	 viewBox="0 0 24 24" style="enable-background:new 0 0 24 24;" xml:space="preserve">
<g id="eye-close">
	<path d="M16.062,6h-1.482l-0.316,1.206C13.862,7.118,13.443,7.062,13,7.062c-3.984,0-6.359,3.969-6.359,4.938
		c0,0.862,1.908,4.092,5.113,4.795L11.438,18h1.481L16.062,6z M11.125,11.087l0.356-0.356c0.195-0.195,0.456-0.155,0.6,0.08
		c0.205,0.337,0.524,0.807,0.893,1.168c0.013,0.012,0.018,0.028,0.03,0.041l-0.225,0.858l-0.114,0.115
		c-0.195,0.195-0.545,0.235-0.756,0.057c-0.378-0.321-0.69-0.715-0.926-1.156C10.852,11.65,10.93,11.282,11.125,11.087z
		 M8.44,12.433C8.297,12.197,8.33,11.817,8.5,11.6c0.365-0.466,1.002-1.252,1.596-1.842c0.196-0.195,0.243-0.153,0.136,0.102
		C10.084,10.211,10,10.595,10,11c0,1.484,1.082,2.709,2.498,2.949l-0.403,1.541C10.212,15.034,8.943,13.266,8.44,12.433z M19.359,12
		c0,0.814-1.702,3.735-4.587,4.652l0.454-1.736c1.158-0.729,1.959-1.859,2.333-2.477c0.143-0.236,0.113-0.618-0.054-0.838
		c-0.253-0.333-0.644-0.826-1.07-1.304l0.474-1.81C18.483,9.728,19.359,11.413,19.359,12z"/>
</g>
</svg>
