<?xml version="1.0" encoding="utf-8"?>
<!-- Generator: Adobe Illustrator 19.1.0, SVG Export Plug-In . SVG Version: 6.00 Build 0)  -->
<svg version="1.1" id="Layer_1" xmlns="http://www.w3.org/2000/svg" xmlns:xlink="http://www.w3.org/1999/xlink" x="0px" y="0px"
	 viewBox="0 0 24 24" style="enable-background:new 0 0 24 24;" xml:space="preserve">
<g id="camera">
	<circle id="path_62_" cx="12" cy="13" r="1.031"/>
	<path id="path_61_" d="M17,9h-1.5c0,0-0.5-2-2.5-2c-1.5,0-2,0-2,0C9,7,8.5,9,8.5,9H7c-0.55,0-1,0.45-1,1v6c0,0.55,0.45,1,1,1h10
		c0.55,0,1-0.45,1-1v-6C18,9.45,17.55,9,17,9z M12,15.297c-1.266,0-2.297-1.031-2.297-2.297c0-1.266,1.031-2.297,2.297-2.297
		c1.266,0,2.297,1.031,2.297,2.297C14.297,14.266,13.266,15.297,12,15.297z M16,11h-1v-1h1V11z"/>
</g>
</svg>
