<?xml version="1.0" encoding="utf-8"?>
<!-- Generator: Adobe Illustrator 19.1.0, SVG Export Plug-In . SVG Version: 6.00 Build 0)  -->
<svg version="1.1" id="Layer_1" xmlns="http://www.w3.org/2000/svg" xmlns:xlink="http://www.w3.org/1999/xlink" x="0px" y="0px"
	 viewBox="0 0 24 24" style="enable-background:new 0 0 24 24;" xml:space="preserve">
<g id="film">
	<rect id="path_9_" x="9" y="8" style="opacity:0.3;" width="6" height="4"/>
	<rect id="path_10_" x="9" y="13" style="opacity:0.3;" width="6" height="4"/>
	<path id="path_8_" d="M17.75,7H6.25C6.112,7,6,7.112,6,7.25v10.5C6,17.888,6.112,18,6.25,18h11.5c0.138,0,0.25-0.112,0.25-0.25
		V7.25C18,7.112,17.888,7,17.75,7z M15,16.75c0,0.138-0.112,0.25-0.25,0.25h-5.5C9.112,17,9,16.888,9,16.75v-3.5
		C9,13.112,9.112,13,9.25,13h5.5c0.138,0,0.25,0.112,0.25,0.25V16.75z M15,11.75c0,0.138-0.112,0.25-0.25,0.25h-5.5
		C9.112,12,9,11.888,9,11.75v-3.5C9,8.112,9.112,8,9.25,8h5.5C14.888,8,15,8.112,15,8.25V11.75z M17,17h-1v-1h1V17z M17,15h-1v-1h1
		V15z M17,13h-1v-1h1V13z M17,11h-1v-1h1V11z M17,9h-1V8h1V9z M8,17H7v-1h1V17z M8,15H7v-1h1V15z M8,13H7v-1h1V13z M8,11H7v-1h1V11z
		 M8,9H7V8h1V9z"/>
</g>
</svg>
