<?xml version="1.0" encoding="utf-8"?>
<!-- Generator: Adobe Illustrator 19.1.0, SVG Export Plug-In . SVG Version: 6.00 Build 0)  -->
<svg version="1.1" id="Layer_1" xmlns="http://www.w3.org/2000/svg" xmlns:xlink="http://www.w3.org/1999/xlink" x="0px" y="0px"
	 viewBox="0 0 24 24" style="enable-background:new 0 0 24 24;" xml:space="preserve">
<g id="exclamation-sign">
	<path id="circle_x5F_exclamation_x5F_mark" d="M13,6.228c-3.187,0-5.771,2.584-5.771,5.772S9.813,17.771,13,17.771
		s5.771-2.584,5.771-5.771S16.187,6.228,13,6.228z M13.862,12.509C13.81,12.779,13.542,13,13.268,13h-0.535
		c-0.275,0-0.542-0.221-0.594-0.491l-0.579-3.018C11.507,9.221,11.69,9,11.965,9h2.07c0.275,0,0.457,0.221,0.406,0.491
		L13.862,12.509z M14,15.75c0,0.137-0.113,0.25-0.25,0.25h-1.5C12.113,16,12,15.887,12,15.75v-1.5c0-0.137,0.113-0.25,0.25-0.25h1.5
		c0.137,0,0.25,0.113,0.25,0.25V15.75z"/>
</g>
</svg>
