<?xml version="1.0" encoding="utf-8"?>
<!-- Generator: Adobe Illustrator 19.1.0, SVG Export Plug-In . SVG Version: 6.00 Build 0)  -->
<svg version="1.1" id="Layer_1" xmlns="http://www.w3.org/2000/svg" xmlns:xlink="http://www.w3.org/1999/xlink" x="0px" y="0px"
	 viewBox="0 0 24 24" style="enable-background:new 0 0 24 24;" xml:space="preserve">
<g id="fullscreen">
	<g>
		<path d="M18.5,6h-3c-0.275,0-0.341,0.159-0.146,0.354l0.939,0.939l-1.991,1.991c-0.097,0.097-0.097,0.256,0,0.354l1.061,1.061
			c0.097,0.097,0.256,0.097,0.354,0l1.991-1.991l0.939,0.939C18.841,9.841,19,9.775,19,9.5v-3C19,6.225,18.775,6,18.5,6z M7,6.5v3
			c0,0.275,0.159,0.341,0.354,0.146l0.939-0.939l1.991,1.991c0.097,0.097,0.256,0.097,0.354,0l1.061-1.061
			c0.097-0.097,0.097-0.256,0-0.354L9.707,7.293l0.939-0.939C10.841,6.159,10.775,6,10.5,6h-3C7.225,6,7,6.225,7,6.5z M7.5,18h3
			c0.275,0,0.341-0.159,0.146-0.354l-0.939-0.939l1.991-1.991c0.097-0.097,0.097-0.256,0-0.354l-1.061-1.061
			c-0.097-0.097-0.256-0.097-0.354,0l-1.991,1.991l-0.939-0.939C7.159,14.159,7,14.225,7,14.5v3C7,17.775,7.225,18,7.5,18z M19,17.5
			v-3c0-0.275-0.159-0.341-0.354-0.146l-0.939,0.939l-1.991-1.991c-0.097-0.097-0.256-0.097-0.354,0l-1.061,1.061
			c-0.097,0.097-0.097,0.256,0,0.354l1.991,1.991l-0.939,0.939C15.159,17.841,15.225,18,15.5,18h3C18.775,18,19,17.775,19,17.5z"/>
	</g>
</g>
</svg>
