<?xml version="1.0" encoding="utf-8"?>
<!-- Generator: Adobe Illustrator 19.1.0, SVG Export Plug-In . SVG Version: 6.00 Build 0)  -->
<svg version="1.1" id="Layer_1" xmlns="http://www.w3.org/2000/svg" xmlns:xlink="http://www.w3.org/1999/xlink" x="0px" y="0px"
	 viewBox="0 0 24 24" style="enable-background:new 0 0 24 24;" xml:space="preserve">
<g id="compressed">
	<polygon points="14,13.982 18,12.648 18,11.018 14,12.352 	"/>
	<path d="M14,15l-2,2H8l1,1h3.75l1-1h3.75c0.275,0,0.5-0.225,0.5-0.5v-2.482L15.054,15H14z"/>
	<path d="M11,16c0.55,0,1-0.45,1-1v-5c0-0.55-0.45-1-1-1H8c-0.55,0-1,0.45-1,1v5c0,0.55,0.45,1,1,1H11z M8,10h3v2H8V10z M8,13h3v2H8
		V13z"/>
	<path d="M17.5,8h-3.75l-1-1H9L8,8h4l2,2v0.982L16.946,10H18V8.5C18,8.225,17.775,8,17.5,8z"/>
</g>
</svg>
