<?xml version="1.0" encoding="utf-8"?>
<!-- Generator: Adobe Illustrator 19.1.0, SVG Export Plug-In . SVG Version: 6.00 Build 0)  -->
<svg version="1.1" id="Layer_1" xmlns="http://www.w3.org/2000/svg" xmlns:xlink="http://www.w3.org/1999/xlink" x="0px" y="0px"
	 viewBox="0 0 24 24" style="enable-background:new 0 0 24 24;" xml:space="preserve">
<g id="paperclip">
	<path d="M12.456,16.268l4.698-4.698c0.61-0.609,0.931-1.237,0.982-1.918c0.099-1.309-0.785-2.47-2.055-2.699
		c-0.165-0.03-0.322-0.041-0.474-0.041c-1.153,0-1.963,0.816-2.746,1.603c0,0-3.758,3.748-3.914,3.892
		c-0.754,0.694-1.463,1.349-1.321,2.331c0.128,0.884,0.864,1.28,1.536,1.28c0.469,0,0.924-0.186,1.249-0.512l5.477-5.478
		c0.224-0.225,0.297-0.504,0.197-0.747c-0.091-0.22-0.3-0.362-0.532-0.362c-0.175,0-0.349,0.081-0.502,0.234
		c-0.137,0.118-0.262,0.25-0.387,0.381l-3.412,3.38c-0.196,0.194-0.51,0.201-0.702,0.015c-0.191-0.186-0.19-0.496,0.004-0.694
		c0.91-0.927,3.298-3.361,3.606-3.669c0.42-0.42,0.811-0.68,1.463-0.68c0.092,0,0.189,0.005,0.292,0.016
		c0.579,0.108,1.004,0.486,1.174,1.04c0.195,0.629,0.019,1.337-0.448,1.803c0,0-5.579,5.715-6.273,6.052
		c-0.367,0.18-0.781,0.274-1.197,0.274c-0.929,0-1.761-0.452-2.226-1.211c-0.637-1.043-0.443-2.456,0.461-3.359l5.115-5.115
		c0.396-0.397,0.708-0.712,1.113-0.957c0.591-0.358,1.274-0.548,1.974-0.548c0.526,0,1.052,0.113,1.52,0.327
		c1.044,0.479,1.761,1.416,1.967,2.569c0.223,1.244-0.172,2.517-1.058,3.401l-4.813,4.762c-0.196,0.194-0.521,0.219-0.732,0.022
		S12.251,16.479,12.456,16.268z"/>
</g>
</svg>
