<?xml version="1.0" encoding="utf-8"?>
<!-- Generator: Adobe Illustrator 19.1.0, SVG Export Plug-In . SVG Version: 6.00 Build 0)  -->
<svg version="1.1" id="Layer_1" xmlns="http://www.w3.org/2000/svg" xmlns:xlink="http://www.w3.org/1999/xlink" x="0px" y="0px"
	 viewBox="0 0 24 24" style="enable-background:new 0 0 24 24;" xml:space="preserve">
<g id="map-marker_2_">
	<path d="M15.972,10.585c0,0.881-0.183,1.838-0.727,2.701c-1.638,2.544-3.711,4.878-3.711,4.878S9.15,15.911,7.627,13.24
		c-0.382-0.834-0.631-1.716-0.631-2.6C6.996,8.157,9.005,6,11.484,6C13.963,6,15.972,8.102,15.972,10.585z M14.208,10.404
		c0-1.484-1.202-2.683-2.683-2.683c-1.481,0-2.683,1.2-2.683,2.683c0,1.483,1.202,2.682,2.683,2.682
		C13.006,13.086,14.208,11.886,14.208,10.404z"/>
</g>
</svg>
