<?xml version="1.0" encoding="utf-8"?>
<!-- Generator: Adobe Illustrator 19.1.0, SVG Export Plug-In . SVG Version: 6.00 Build 0)  -->
<svg version="1.1" id="Layer_1" xmlns="http://www.w3.org/2000/svg" xmlns:xlink="http://www.w3.org/1999/xlink" x="0px" y="0px"
	 viewBox="0 0 24 24" style="enable-background:new 0 0 24 24;" xml:space="preserve">
<g id="collapse_1_">
	<g id="item">
		<path d="M14.5,7c-1,0-4,0-4,0C8.281,7,7,8.344,7,10.5v4c0,2.2,1.3,3.5,3.5,3.5h4c2.2,0,3.5-1.3,3.5-3.5v-4
			C18,8.344,16.672,7,14.5,7z M16,15c0,0.55-0.45,1-1,1h-5c-0.55,0-1-0.45-1-1v-5c0-0.55,0.45-1,1-1h5c0.55,0,1,0.45,1,1V15z
			 M12.8,13.933c-0.165,0.22-0.435,0.22-0.6,0L10.3,11.4c-0.165-0.22-0.075-0.4,0.2-0.4h4c0.275,0,0.365,0.18,0.2,0.4L12.8,13.933z"
			/>
	</g>
</g>
</svg>
