<?xml version="1.0" encoding="utf-8"?>
<!-- Generator: Adobe Illustrator 19.1.0, SVG Export Plug-In . SVG Version: 6.00 Build 0)  -->
<svg version="1.1" id="Layer_1" xmlns="http://www.w3.org/2000/svg" xmlns:xlink="http://www.w3.org/1999/xlink" x="0px" y="0px"
	 viewBox="0 0 24 24" style="enable-background:new 0 0 24 24;" xml:space="preserve">
<g id="cd">
	<path d="M17.099,7.901c-2.264-2.264-5.934-2.264-8.198,0c-2.264,2.264-2.264,5.934,0,8.198c2.264,2.264,5.934,2.264,8.198,0
		C19.363,13.835,19.363,10.165,17.099,7.901z M9.001,11.146c-0.024,0-0.049-0.003-0.073-0.009l-0.354-0.088
		c-0.079-0.02-0.146-0.07-0.187-0.141c-0.041-0.07-0.051-0.154-0.029-0.232c0.224-0.791,0.648-1.514,1.226-2.092
		c0.578-0.578,1.301-1.001,2.091-1.225c0.027-0.008,0.054-0.011,0.082-0.011c0.052,0,0.104,0.014,0.15,0.04
		c0.07,0.041,0.121,0.108,0.141,0.187l0.088,0.354c0.039,0.157-0.053,0.317-0.208,0.361c-0.628,0.18-1.202,0.518-1.661,0.978
		c-0.459,0.459-0.798,1.033-0.978,1.661C9.252,11.06,9.132,11.146,9.001,11.146z M10.735,11.296
		c-0.039,0.129-0.158,0.212-0.287,0.212c-0.024,0-0.049-0.003-0.073-0.009l-0.345-0.086c-0.08-0.02-0.148-0.072-0.188-0.143
		c-0.04-0.071-0.05-0.156-0.026-0.235c0.158-0.523,0.445-1.004,0.83-1.389c0.385-0.385,0.865-0.672,1.389-0.83
		c0.028-0.008,0.057-0.013,0.086-0.013c0.052,0,0.103,0.013,0.148,0.039c0.071,0.041,0.123,0.109,0.143,0.188l0.086,0.345
		c0.039,0.155-0.051,0.313-0.203,0.359c-0.374,0.115-0.712,0.316-0.978,0.583C11.051,10.583,10.849,10.922,10.735,11.296z
		 M11.803,13.197c-0.661-0.661-0.661-1.732,0-2.393c0.661-0.661,1.732-0.661,2.393,0c0.661,0.661,0.661,1.732,0,2.393
		C13.536,13.857,12.464,13.857,11.803,13.197z M13.588,14.969l-0.086-0.345c-0.039-0.155,0.051-0.313,0.203-0.359
		c0.374-0.115,0.712-0.316,0.978-0.583c0.266-0.266,0.468-0.604,0.582-0.978c0.039-0.129,0.158-0.212,0.287-0.212
		c0.024,0,0.049,0.003,0.073,0.009l0.345,0.086c0.08,0.02,0.148,0.072,0.188,0.143c0.04,0.071,0.05,0.156,0.026,0.235
		c-0.158,0.523-0.445,1.004-0.83,1.389c-0.385,0.385-0.865,0.672-1.389,0.83c-0.028,0.008-0.057,0.013-0.086,0.013
		c-0.052,0-0.103-0.013-0.148-0.039C13.659,15.117,13.608,15.049,13.588,14.969z M16.415,15.416
		c-0.578,0.578-1.301,1.001-2.091,1.225c-0.027,0.008-0.054,0.011-0.082,0.011c-0.052,0-0.104-0.014-0.15-0.04
		c-0.07-0.041-0.121-0.108-0.141-0.187l-0.088-0.354c-0.039-0.157,0.053-0.317,0.208-0.361c0.628-0.18,1.202-0.518,1.661-0.978
		c0.459-0.459,0.798-1.033,0.978-1.661c0.038-0.131,0.157-0.217,0.288-0.217c0.024,0,0.049,0.003,0.073,0.009l0.354,0.088
		c0.079,0.02,0.146,0.07,0.187,0.141c0.041,0.07,0.051,0.154,0.029,0.232C17.417,14.115,16.993,14.838,16.415,15.416z"/>
</g>
</svg>
