<?xml version="1.0" encoding="utf-8"?>
<!-- Generator: Adobe Illustrator 19.1.0, SVG Export Plug-In . SVG Version: 6.00 Build 0)  -->
<svg version="1.1" id="Layer_1" xmlns="http://www.w3.org/2000/svg" xmlns:xlink="http://www.w3.org/1999/xlink" x="0px" y="0px"
	 viewBox="0 0 24 24" style="enable-background:new 0 0 24 24;" xml:space="preserve">
<g id="off">
	<path id="path_21_" d="M13,10.5c0,0.276-0.224,0.5-0.5,0.5h-1c-0.276,0-0.5-0.224-0.5-0.5v-4C11,6.224,11.224,6,11.5,6h1
		C12.776,6,13,6.224,13,6.5V10.5z M14,6.592v1.657c1.345,0.72,2.271,2.122,2.271,3.751c0,2.356-1.916,4.271-4.271,4.271
		c-2.356,0-4.272-1.916-4.272-4.271c0-1.629,0.927-3.031,2.272-3.751V6.592C7.8,7.406,6.228,9.517,6.228,12
		c0,3.188,2.584,5.771,5.772,5.771c3.187,0,5.771-2.584,5.771-5.771C17.771,9.517,16.2,7.406,14,6.592z"/>
</g>
</svg>
