<?xml version="1.0" encoding="utf-8"?>
<!-- Generator: Adobe Illustrator 19.1.0, SVG Export Plug-In . SVG Version: 6.00 Build 0)  -->
<svg version="1.1" id="Layer_1" xmlns="http://www.w3.org/2000/svg" xmlns:xlink="http://www.w3.org/1999/xlink" x="0px" y="0px"
	 viewBox="0 0 24 24" style="enable-background:new 0 0 24 24;" xml:space="preserve">
<g id="saved">
	<path d="M18,15.5V18H7v-2.5C7,15.225,7.225,15,7.5,15h10C17.775,15,18,15.225,18,15.5z M17,16h-1v0.5h1V16z M16.39,8.828
		l-5.25,5.255c-0.097,0.097-0.256,0.097-0.353,0l-2.913-2.916c-0.097-0.097-0.097-0.256,0-0.354l1.391-1.391
		c0.097-0.097,0.256-0.097,0.354,0l1.344,1.345l3.684-3.685c0.097-0.097,0.256-0.097,0.353,0l1.39,1.391
		C16.487,8.572,16.487,8.731,16.39,8.828z"/>
</g>
</svg>
