<?xml version="1.0" encoding="utf-8"?>
<!-- Generator: Adobe Illustrator 19.1.0, SVG Export Plug-In . SVG Version: 6.00 Build 0)  -->
<svg version="1.1" id="Layer_1" xmlns="http://www.w3.org/2000/svg" xmlns:xlink="http://www.w3.org/1999/xlink" x="0px" y="0px"
	 viewBox="0 0 24 24" style="enable-background:new 0 0 24 24;" xml:space="preserve">
<g id="euro">
	<path d="M14.529,16.141c-0.613,0-2.199-0.544-2.528-3.141H15l1-1h-4.063c0-0.365,0.024-0.693,0.063-1h3l1-1h-3.793
		c0.541-1.748,1.758-2.156,2.314-2.156c0.716,0,2.307,0.594,2.307,2.156h1.81c-0.036-0.701-0.255-1.398-0.661-2.093
		c-0.748-1.258-1.924-1.887-3.532-1.887c-1.206,0-2.198,0.47-2.976,1.407C11.115,7.852,10.625,8.735,10.345,10H9l-1,1h2.182
		c-0.033,0.317-0.056,0.648-0.057,1H9l-1,1h2.173c0.172,1.794,0.781,2.899,1.134,3.37c0.788,1.052,1.87,1.577,3.246,1.577
		c1.113,0,2.025-0.39,2.736-1.168c0.661-0.723,1.08-1.655,1.278-2.779h-1.738C16.828,15.516,15.23,16.141,14.529,16.141z"/>
</g>
</svg>
