<?xml version="1.0" encoding="utf-8"?>
<!-- Generator: Adobe Illustrator 19.1.0, SVG Export Plug-In . SVG Version: 6.00 Build 0)  -->
<svg version="1.1" id="Layer_1" xmlns="http://www.w3.org/2000/svg" xmlns:xlink="http://www.w3.org/1999/xlink" x="0px" y="0px"
	 viewBox="0 0 24 24" style="enable-background:new 0 0 24 24;" xml:space="preserve">
<g id="text-width">
	<polygon id="path_69_" points="8,16.25 6.334,17.5 8,18.75 8,18 16,18 16,18.75 17.666,17.5 16,16.25 16,17 8,17 	"/>
	<path id="path_68_" d="M7,6v3c0,0,0,0,0.498,0C7.5,8,8.115,8,9,8h2c0,0,0,6,0,6.5S10,15,10,15v1h4v-1c0,0-1,0-1-0.5S13,8,13,8h2
		c0.885,0,1.5,0,1.502,1C17,9,17,9,17,9V6H7z"/>
</g>
</svg>
