<?xml version="1.0" encoding="utf-8"?>
<!-- Generator: Adobe Illustrator 19.1.0, SVG Export Plug-In . SVG Version: 6.00 Build 0)  -->
<svg version="1.1" id="Layer_1" xmlns="http://www.w3.org/2000/svg" xmlns:xlink="http://www.w3.org/1999/xlink" x="0px" y="0px"
	 viewBox="0 0 24 24" style="enable-background:new 0 0 24 24;" xml:space="preserve">
<g id="hdd">
	<path d="M18.69,14l-1.717-7.324C16.913,6.407,16.639,6,16.363,6H9.636c-0.275,0-0.549,0.345-0.61,0.613L7.311,14H18.69z"/>
	<path d="M18,15H8c-0.552,0-1,0.447-1,1v1c0,0.553,0.448,1,1,1h10c0.552,0,1-0.447,1-1v-1C19,15.447,18.552,15,18,15z M16,17h-1v-1
		h1V17z M18,17h-1v-1h1V17z"/>
	<rect x="17" y="16" style="opacity:0.3;" width="1" height="1"/>
</g>
</svg>
