<?xml version="1.0" encoding="utf-8"?>
<!-- Generator: Adobe Illustrator 19.1.0, SVG Export Plug-In . SVG Version: 6.00 Build 0)  -->
<svg version="1.1" id="Layer_1" xmlns="http://www.w3.org/2000/svg" xmlns:xlink="http://www.w3.org/1999/xlink" x="0px" y="0px"
	 viewBox="0 0 24 24" style="enable-background:new 0 0 24 24;" xml:space="preserve">
<g id="align-right">
	<path id="path_81_" style="fill-rule:evenodd;clip-rule:evenodd;" d="M11,8.5C11,8.775,11.225,9,11.5,9h6C17.775,9,18,8.775,18,8.5
		v-1C18,7.225,17.775,7,17.5,7h-6C11.225,7,11,7.225,11,7.5V8.5z"/>
	<path id="path_80_" style="fill-rule:evenodd;clip-rule:evenodd;" d="M7,11.5C7,11.775,7.225,12,7.5,12h10
		c0.275,0,0.5-0.225,0.5-0.5v-1c0-0.275-0.225-0.5-0.5-0.5h-10C7.225,10,7,10.225,7,10.5V11.5z"/>
	<path id="path_79_" style="fill-rule:evenodd;clip-rule:evenodd;" d="M9,14.5C9,14.775,9.225,15,9.5,15h8
		c0.275,0,0.5-0.225,0.5-0.5v-1c0-0.275-0.225-0.5-0.5-0.5h-8C9.225,13,9,13.225,9,13.5V14.5z"/>
	<path id="path_78_" style="fill-rule:evenodd;clip-rule:evenodd;" d="M6,17.5C6,17.775,6.225,18,6.5,18h11
		c0.275,0,0.5-0.225,0.5-0.5v-1c0-0.275-0.225-0.5-0.5-0.5h-11C6.225,16,6,16.225,6,16.5V17.5z"/>
</g>
</svg>
