<?xml version="1.0" encoding="utf-8"?>
<!-- Generator: Adobe Illustrator 19.1.0, SVG Export Plug-In . SVG Version: 6.00 Build 0)  -->
<svg version="1.1" id="Layer_1" xmlns="http://www.w3.org/2000/svg" xmlns:xlink="http://www.w3.org/1999/xlink" x="0px" y="0px"
	 viewBox="0 0 24 24" style="enable-background:new 0 0 24 24;" xml:space="preserve">
<g id="align-center">
	<path id="path_77_" style="fill-rule:evenodd;clip-rule:evenodd;" d="M16,8.5C16,8.775,15.775,9,15.5,9h-7C8.225,9,8,8.775,8,8.5
		v-1C8,7.225,8.225,7,8.5,7h7C15.775,7,16,7.225,16,7.5V8.5z"/>
	<path id="path_76_" style="fill-rule:evenodd;clip-rule:evenodd;" d="M16,14.5c0,0.275-0.225,0.5-0.5,0.5h-7
		C8.225,15,8,14.775,8,14.5v-1C8,13.225,8.225,13,8.5,13h7c0.275,0,0.5,0.225,0.5,0.5V14.5z"/>
	<path id="path_75_" style="fill-rule:evenodd;clip-rule:evenodd;" d="M18,17.5c0,0.275-0.225,0.5-0.5,0.5h-11
		C6.225,18,6,17.775,6,17.5v-1C6,16.225,6.225,16,6.5,16h11c0.275,0,0.5,0.225,0.5,0.5V17.5z"/>
	<path id="path_74_" style="fill-rule:evenodd;clip-rule:evenodd;" d="M18,11.5c0,0.275-0.225,0.5-0.5,0.5h-11
		C6.225,12,6,11.775,6,11.5v-1C6,10.225,6.225,10,6.5,10h11c0.275,0,0.5,0.225,0.5,0.5V11.5z"/>
</g>
</svg>
