<?xml version="1.0" encoding="utf-8"?>
<!-- Generator: Adobe Illustrator 19.1.0, SVG Export Plug-In . SVG Version: 6.00 Build 0)  -->
<svg version="1.1" id="Layer_1" xmlns="http://www.w3.org/2000/svg" xmlns:xlink="http://www.w3.org/1999/xlink" x="0px" y="0px"
	 viewBox="0 0 24 24" style="enable-background:new 0 0 24 24;" xml:space="preserve">
<g id="magnet">
	<path d="M15,10c0,0,0,1.154,0,2.5s0.154,2.731-2,2.731c-2.154,0-2-1.316-2-2.731V10H8v3c0,1.57,0.333,5,5,5c4.666,0,5-3.43,5-5v-3
		H15z"/>
	<path style="opacity:0.5;" d="M11,6.5V9H8V6.5C8,6.225,8.225,6,8.5,6h2C10.775,6,11,6.225,11,6.5z M17.5,6h-2
		C15.225,6,15,6.225,15,6.5V9h3V6.5C18,6.225,17.775,6,17.5,6z"/>
</g>
</svg>
