<?xml version="1.0" encoding="utf-8"?>
<!-- Generator: Adobe Illustrator 19.1.0, SVG Export Plug-In . SVG Version: 6.00 Build 0)  -->
<svg version="1.1" id="Layer_1" xmlns="http://www.w3.org/2000/svg" xmlns:xlink="http://www.w3.org/1999/xlink" x="0px" y="0px"
	 viewBox="0 0 24 24" style="enable-background:new 0 0 24 24;" xml:space="preserve">
<g id="download-alt">
	<path id="path_33_" d="M17.75,14h-0.5C17.112,14,17,14.112,17,14.25V16H8v-1.75C8,14.112,7.888,14,7.75,14h-0.5
		C7.112,14,7,14.112,7,14.25v3.5C7,17.888,7.112,18,7.25,18h10.5c0.138,0,0.25-0.112,0.25-0.25v-3.5C18,14.112,17.888,14,17.75,14z"
		/>
	<path id="path_32_" d="M15.906,11H14V6.5C14,6.225,13.775,6,13.5,6h-2C11.225,6,11,6.225,11,6.5V11H9.094
		c-0.275,0-0.358,0.174-0.183,0.387l3.273,4c0.174,0.213,0.459,0.213,0.633,0l3.273-4C16.264,11.174,16.181,11,15.906,11z"/>
</g>
</svg>
