<?xml version="1.0" encoding="utf-8" standalone="no"?>
<!DOCTYPE svg PUBLIC "-//W3C//DTD SVG 1.1//EN" "http://www.w3.org/Graphics/SVG/1.1/DTD/svg11.dtd">
<svg xmlns="http://www.w3.org/2000/svg" xmlns:xl="http://www.w3.org/1999/xlink" version="1.1" viewBox="0 0 332.855 332.855" width="332.855pt" height="332.855pt" xmlns:dc="http://purl.org/dc/elements/1.1/"><metadata> Produced by OmniGraffle 6.2.5 <dc:date>2015-11-21 19:08:58 +0000</dc:date></metadata><defs/><g stroke="none" stroke-opacity="1" stroke-dasharray="none" fill="none" fill-opacity="1"><title>Canvas 7</title><g><title>Layer 1</title><path d="M 224.4 235.5999 L 248.02 252.7799 L 84.83 252.7799 L 108.45 235.5999 L 106.31 235.5999 C 101.57 235.5999 97.72 231.7499 97.72 227.0099 C 97.72 222.2699 101.57 218.4199 106.31 218.4199 L 226.55 218.4199 C 231.29 218.4199 235.14 222.2699 235.14 227.0099 C 235.14 231.7499 231.29 235.5999 226.55 235.5999 Z" fill="white"/><path d="M 217.96 83.73 L 252.31 83.73 L 252.31 169.62 L 217.96 203.97 L 114.9 203.97 L 80.54 169.62 L 80.54 83.73 L 114.9 83.73 L 114.9 118.09 L 149.25 118.09 L 149.25 83.73 L 183.6 83.73 L 183.6 118.09 L 217.96 118.09 Z" fill="white"/><path d="M 252.31 83.73 L 252.31 169.62 L 217.96 203.97 L 114.9 203.97 L 80.54 169.62 L 80.54 83.73 L 114.9 83.73 L 114.9 118.09 L 149.25 118.09 L 149.25 83.73 L 183.6 83.73 L 183.6 118.09 L 217.96 118.09 L 217.96 83.73 Z" fill="#393434"/><path d="M 84.83 252.78 L 108.45 235.6 L 106.31 235.6 C 101.57 235.6 97.72 231.75 97.72 227.01 C 97.72 222.27 101.57 218.42 106.31 218.42 L 226.55 218.42 C 231.29 218.42 235.14 222.27 235.14 227.01 C 235.14 231.75 231.29 235.6 226.55 235.6 L 224.4 235.6 L 248.02 252.78 Z" fill="#393434"/><path d="M 271.78 270.67 C 270.9 271.55 270 272.42 269.1 273.27 C 268.02 269.78 264.75 267.22 260.9 267.22 L 71.95 267.22 C 68.69 267.22 65.84 269.06 64.39 271.75 C 64.03 271.39 63.66 271.03 63.3 270.67 C 35.46 242.82 20.13 205.8 20.13 166.43 C 20.13 127.05 35.46 90.03 63.3 62.19 C 91.15 34.35 128.17 19.01 167.54 19.01 C 206.92 19.01 243.94 34.35 271.78 62.19 C 299.62 90.03 314.96 127.05 314.96 166.43 C 314.96 205.8 299.62 242.82 271.78 270.67 M 167.54 3.01 C 77.29 3.01 4.13 76.18 4.13 166.43 C 4.13 217.09 27.18 262.36 63.36 292.34 C 79.67 305.85 98.66 316.25 119.4 322.63 C 134.62 327.32 150.78 329.84 167.54 329.84 C 184.3 329.84 200.46 327.32 215.68 322.63 C 235.48 316.54 253.68 306.78 269.49 294.15 C 306.96 264.2 330.96 218.12 330.96 166.43 C 330.96 76.18 257.79 3.01 167.54 3.01" fill="#393434"/></g></g></svg>
