<?xml version="1.0" encoding="utf-8" standalone="no"?>
<!DOCTYPE svg PUBLIC "-//W3C//DTD SVG 1.1//EN" "http://www.w3.org/Graphics/SVG/1.1/DTD/svg11.dtd">
<svg xmlns="http://www.w3.org/2000/svg" xmlns:xl="http://www.w3.org/1999/xlink" version="1.1" viewBox="0 0 332.855 332.855" width="332.855pt" height="332.855pt" xmlns:dc="http://purl.org/dc/elements/1.1/"><metadata> Produced by OmniGraffle 6.2.5 <dc:date>2015-11-21 19:08:58 +0000</dc:date></metadata><defs/><g stroke="none" stroke-opacity="1" stroke-dasharray="none" fill="none" fill-opacity="1"><title>Canvas 5</title><g><title>Layer 1</title><path d="M 54.1 186.88 L 72.96 127.62 L 91.28 127.62 L 61.83 208.19 L 43.98 208.19 L 14.53 127.62 L 32.92 127.62 L 51.6 186.77 L 52.79 191.59 L 52.97 191.59 Z" fill="#393434"/><path d="M 152.03 175.15 C 152.03 181.57 150.39 186.78 147.09 190.78 C 143.8 194.79 139.14 196.79 133.11 196.79 C 127.12 196.79 122.51 194.79 119.28 190.78 C 116.04 186.78 114.43 181.57 114.43 175.15 L 114.43 160.54 C 114.43 154.2 116.04 149.03 119.25 145.05 C 122.46 141.07 127.06 139.07 133.05 139.07 C 139.04 139.07 143.7 141.08 147.03 145.08 C 150.37 149.08 152.03 154.24 152.03 160.54 Z M 159.44 136.09 C 152.8 129.67 144 126.46 133.05 126.46 C 122.18 126.46 113.48 129.67 106.93 136.09 C 100.39 142.51 97.12 150.69 97.12 160.65 L 97.12 175.15 C 97.12 185.15 100.4 193.35 106.96 199.75 C 113.53 206.15 122.24 209.35 133.11 209.35 C 144.06 209.35 152.84 206.15 159.47 199.75 C 166.09 193.35 169.4 185.15 169.4 175.15 L 169.4 160.65 C 169.4 150.69 166.08 142.51 159.44 136.09" fill="#393434"/><path d="M 203.67 208.19 L 203.67 140.07 L 176.43 140.07 L 176.43 127.62 L 248.42 127.62 L 248.42 140.07 L 221.05 140.07 L 221.05 208.19 Z" fill="#393434"/><path d="M 276.56 140.07 L 276.56 160.32 L 312.44 160.32 L 312.44 172.77 L 276.56 172.77 L 276.56 195.79 L 318.5 195.79 L 318.5 208.19 L 259.19 208.19 L 259.19 127.62 L 318.39 127.62 L 318.39 140.07 Z" fill="#393434"/><path d="M 275.63 94.23 L 265.55 88.93 L 255.47 94.23 L 257.39 83.01 L 249.24 75.06 L 260.51 73.42 L 265.55 63.2 L 270.59 73.42 L 281.87 75.06 L 273.71 83.01 Z M 226.74 94.23 L 216.66 88.93 L 206.57 94.23 L 208.5 83.01 L 200.34 75.06 L 211.61 73.42 L 216.66 63.2 L 221.7 73.42 L 232.97 75.06 L 224.81 83.01 Z M 177.84 94.23 L 167.76 88.93 L 157.68 94.23 L 159.6 83.01 L 151.45 75.06 L 162.72 73.42 L 167.76 63.2 L 172.8 73.42 L 184.07 75.06 L 175.92 83.01 Z M 128.95 94.23 L 118.86 88.93 L 108.78 94.23 L 110.71 83.01 L 102.55 75.06 L 113.82 73.42 L 118.86 63.2 L 123.9 73.42 L 135.18 75.06 L 127.02 83.01 Z M 80.05 94.23 L 69.97 88.93 L 59.89 94.23 L 61.81 83.01 L 53.65 75.06 L 64.93 73.42 L 69.97 63.2 L 75.01 73.42 L 86.28 75.06 L 78.12 83.01 Z M 166.07 2.64 C 94.88 2.64 34.24 47.8 11.24 111.04 L 320.91 111.04 C 297.91 47.8 237.26 2.64 166.07 2.64" fill="#393434"/><path d="M 275.63 270 L 265.55 264.7 L 255.47 270 L 257.39 258.78 L 249.24 250.83 L 260.51 249.19 L 265.55 238.97 L 270.59 249.19 L 281.87 250.83 L 273.71 258.78 Z M 226.74 270 L 216.66 264.7 L 206.57 270 L 208.5 258.78 L 200.34 250.83 L 211.61 249.19 L 216.66 238.97 L 221.7 249.19 L 232.97 250.83 L 224.81 258.78 Z M 177.84 270 L 167.76 264.7 L 157.68 270 L 159.6 258.78 L 151.45 250.83 L 162.72 249.19 L 167.76 238.97 L 172.8 249.19 L 184.07 250.83 L 175.92 258.78 Z M 128.95 270 L 118.86 264.7 L 108.78 270 L 110.71 258.78 L 102.55 250.83 L 113.82 249.19 L 118.86 238.97 L 123.9 249.19 L 135.18 250.83 L 127.02 258.78 Z M 80.05 270 L 69.97 264.7 L 59.89 270 L 61.81 258.78 L 53.65 250.83 L 64.93 249.19 L 69.97 238.97 L 75.01 249.19 L 86.28 250.83 L 78.12 258.78 Z M 11.23 223.68 C 34.24 286.92 94.88 332.09 166.07 332.09 C 237.27 332.09 297.91 286.92 320.92 223.68 Z" fill="#393434"/><path d="M 72.96 127.62 L 91.28 127.62 L 61.83 208.19 L 43.98 208.19 L 14.53 127.62 L 32.92 127.62 L 51.6 186.77 L 52.79 191.59 L 52.97 191.59 L 54.1 186.88 Z" fill="white"/><path d="M 152.03 175.15 C 152.03 181.57 150.39 186.78 147.09 190.78 C 143.8 194.79 139.14 196.79 133.11 196.79 C 127.12 196.79 122.51 194.79 119.28 190.78 C 116.04 186.78 114.43 181.57 114.43 175.15 L 114.43 160.54 C 114.43 154.2 116.04 149.03 119.25 145.05 C 122.46 141.07 127.06 139.07 133.05 139.07 C 139.04 139.07 143.7 141.08 147.03 145.08 C 150.37 149.08 152.03 154.24 152.03 160.54 Z M 159.44 136.09 C 152.8 129.67 144 126.46 133.05 126.46 C 122.18 126.46 113.48 129.67 106.93 136.09 C 100.39 142.51 97.12 150.69 97.12 160.65 L 97.12 175.15 C 97.12 185.15 100.4 193.35 106.96 199.75 C 113.53 206.15 122.24 209.35 133.11 209.35 C 144.06 209.35 152.84 206.15 159.47 199.75 C 166.09 193.35 169.4 185.15 169.4 175.15 L 169.4 160.65 C 169.4 150.69 166.08 142.51 159.44 136.09" fill="white"/><path d="M 176.43 127.62 L 248.42 127.62 L 248.42 140.07 L 221.05 140.07 L 221.05 208.19 L 203.67 208.19 L 203.67 140.07 L 176.43 140.07 Z" fill="white"/><path d="M 276.56 195.79 L 318.5 195.79 L 318.5 208.19 L 259.19 208.19 L 259.19 127.62 L 318.39 127.62 L 318.39 140.07 L 276.56 140.07 L 276.56 160.32 L 312.44 160.32 L 312.44 172.77 L 276.56 172.77 Z" fill="white"/><path d="M 72.96 126.6988 L 72.286 126.6988 L 72.082 127.3408 L 53.222 186.6008 L 53.212 186.6328 L 53.204 186.6648 L 52.869 188.0648 L 52.494 186.5488 L 52.487 186.5208 L 52.478 186.4928 L 33.798 127.3428 L 33.595 126.6988 L 32.92 126.6988 L 14.53 126.6988 L 13.213 126.6988 L 13.665 127.9358 L 43.115 208.5058 L 43.336 209.1108 L 43.98 209.1108 L 61.83 209.1108 L 62.474 209.1108 L 62.695 208.5058 L 92.145 127.9358 L 92.597 126.6988 L 91.28 126.6988 Z" fill="#393434"/><path d="M 146.3795 190.1938 C 143.2455 194.0128 138.9055 195.8688 133.1105 195.8688 C 127.3575 195.8688 123.0685 194.0148 119.9975 190.2018 C 116.9135 186.3948 115.3515 181.3318 115.3515 175.1498 L 115.3515 160.5398 C 115.3515 154.4428 116.9045 149.4258 119.9675 145.6278 C 122.9835 141.8878 127.3855 139.9908 133.0505 139.9908 C 138.7205 139.9908 143.1855 141.9018 146.3225 145.6698 C 149.4985 149.4738 151.1085 154.4768 151.1085 160.5398 L 151.1085 175.1498 C 151.1085 181.3288 149.5175 186.3898 146.3795 190.1938 M 133.0505 125.5388 C 121.9875 125.5388 112.9825 128.8678 106.2855 135.4318 C 99.5925 142.0018 96.1985 150.4868 96.1985 160.6498 L 96.1985 175.1498 C 96.1985 185.3608 99.6035 193.8588 106.3165 200.4098 C 113.0345 206.9528 122.0485 210.2708 133.1105 210.2708 C 144.2495 210.2708 153.3335 206.9538 160.1095 200.4128 C 166.8855 193.8618 170.3215 185.3628 170.3215 175.1498 L 170.3215 160.6498 C 170.3215 150.4838 166.8755 141.9978 160.0805 135.4278 C 153.2935 128.8658 144.1995 125.5388 133.0505 125.5388" fill="#393434"/><path d="M 176.43 126.6988 L 175.509 126.6988 L 175.509 127.6198 L 175.509 140.0698 L 175.509 140.9908 L 176.43 140.9908 L 202.749 140.9908 L 202.749 208.1898 L 202.749 209.1108 L 203.67 209.1108 L 221.05 209.1108 L 221.971 209.1108 L 221.971 208.1898 L 221.971 140.9908 L 248.42 140.9908 L 249.341 140.9908 L 249.341 140.0698 L 249.341 127.6198 L 249.341 126.6988 L 248.42 126.6988 Z" fill="#393434"/><path d="M 318.5 194.8688 L 277.481 194.8688 L 277.481 173.6908 L 312.44 173.6908 L 313.361 173.6908 L 313.361 172.7698 L 313.361 160.3198 L 313.361 159.3988 L 312.44 159.3988 L 277.481 159.3988 L 277.481 140.9908 L 318.39 140.9908 L 319.311 140.9908 L 319.311 140.0698 L 319.311 127.6198 L 319.311 126.6988 L 318.39 126.6988 L 259.19 126.6988 L 258.269 126.6988 L 258.269 127.6198 L 258.269 208.1898 L 258.269 209.1108 L 259.19 209.1108 L 318.5 209.1108 L 319.421 209.1108 L 319.421 208.1898 L 319.421 195.7898 L 319.421 194.8688 Z" fill="#393434"/></g></g></svg>
