<?xml version="1.0" encoding="utf-8" standalone="no"?>
<!DOCTYPE svg PUBLIC "-//W3C//DTD SVG 1.1//EN" "http://www.w3.org/Graphics/SVG/1.1/DTD/svg11.dtd">
<svg xmlns="http://www.w3.org/2000/svg" xmlns:xl="http://www.w3.org/1999/xlink" version="1.1" viewBox="0 0 332.855 332.855" width="332.855pt" height="332.855pt" xmlns:dc="http://purl.org/dc/elements/1.1/"><metadata> Produced by OmniGraffle 6.2.5 <dc:date>2015-11-21 19:08:58 +0000</dc:date></metadata><defs/><g stroke="none" stroke-opacity="1" stroke-dasharray="none" fill="none" fill-opacity="1"><title>Canvas 4</title><g><title>Layer 1</title><path d="M 254.24 143.72 L 222.55 104.42 L 240.53 104.42 L 240.53 76.07 L 267.96 76.07 L 267.96 104.42 L 285.93 104.42 Z M 306.99 52.55 L 191.91 52.55 C 178.06 52.55 166.72 65.39 166.72 81.09 L 166.72 113.9 L 181.49 113.9 C 203.51 113.9 221.42 133.59 221.42 157.8 L 221.42 172.97 L 253.68 172.97 L 288.97 212.33 L 298.04 172.97 L 306.99 172.97 C 320.85 172.97 332.18 160.13 332.18 144.43 L 332.18 81.09 C 332.18 65.39 320.85 52.55 306.99 52.55" fill="#393434"/><path d="M 123.3699 194.97 L 123.3699 230.63 L 88.8699 230.63 L 88.8699 194.97 L 66.2599 194.97 L 106.1199 145.54 L 145.9799 194.97 Z M 181.4899 123.9 L 29.9299 123.9 C 13.4699 123.9 -1e-4 139.16 -1e-4 157.8 L -1e-4 233.05 C -1e-4 251.7 13.4699 266.95 29.9299 266.95 L 69.8399 266.95 L 73.9999 316.03 L 122.5399 266.95 L 181.4899 266.95 C 197.9499 266.95 211.4199 251.7 211.4199 233.05 L 211.4199 157.8 C 211.4199 139.16 197.9499 123.9 181.4899 123.9" fill="#393434"/></g></g></svg>
