<?xml version="1.0" encoding="utf-8" standalone="no"?>
<!DOCTYPE svg PUBLIC "-//W3C//DTD SVG 1.1//EN" "http://www.w3.org/Graphics/SVG/1.1/DTD/svg11.dtd">
<svg xmlns="http://www.w3.org/2000/svg" xmlns:xl="http://www.w3.org/1999/xlink" version="1.1" viewBox="0 0 332.855 332.855" width="332.855pt" height="332.855pt" xmlns:dc="http://purl.org/dc/elements/1.1/"><metadata> Produced by OmniGraffle 6.2.5 <dc:date>2015-11-21 19:08:58 +0000</dc:date></metadata><defs/><g stroke="none" stroke-opacity="1" stroke-dasharray="none" fill="none" fill-opacity="1"><title>Canvas 2</title><g><title>Layer 1</title><path d="M 283.41 83.65 L 283.41 125.14 C 283.41 135.42 275.98 143.83 266.9 143.83 L 230.08 143.83 L 227.78 170.89 C 208.34 152.5 201.96 143.83 201.96 143.83 L 183.1 143.83 C 176.24 143.83 170.33 139.03 167.85 132.26 C 174.9 125.37 179.34 115.36 179.34 104.24 L 179.34 65.45 C 180.55 65.12 181.81 64.95 183.1 64.95 L 266.9 64.95 C 275.98 64.95 283.41 73.37 283.41 83.65 Z" fill="#393434"/><path d="M 142.68 68.38 L 64.65 68.38 L 64.65 54.66 L 142.68 54.66 Z M 142.68 93.29 L 26.39 93.29 L 26.39 79.57 L 142.68 79.57 Z M 26.39 54.66 L 49.39 54.66 L 49.39 68.38 L 26.39 68.38 Z M 144.95 16.26 L 24.12 16.26 C 10.86 16.26 0 28.56 0 43.59 L 0 104.24 C 0 119.27 10.86 131.57 24.12 131.57 L 50.32 131.57 C 59.64 144.24 89.44 171.12 89.44 171.12 L 92.79 131.57 L 144.95 131.57 C 154.42 131.57 162.67 125.3 166.6 116.24 C 168.18 112.62 169.07 108.54 169.07 104.24 L 169.07 43.59 C 169.07 28.56 158.22 16.26 144.95 16.26" fill="#393434"/><path d="M 328.93 297.29 L 287.72 270.77 C 286.39 269.91 285.3 267.91 285.3 266.33 L 285.3 257.7 C 291.63 257.7 296.81 246.76 296.81 240.43 L 296.81 211.65 C 296.81 192.65 281.27 177.11 262.28 177.11 C 243.28 177.11 227.74 192.65 227.74 211.65 L 227.74 240.43 C 227.74 246.76 232.92 257.7 239.25 257.7 L 239.25 266.33 C 239.25 267.91 238.16 269.91 236.83 270.77 L 216.66 283.75 L 220.44 286.18 C 224.85 289.02 227.81 294.45 227.81 299.69 L 227.81 311.95 C 227.81 313.09 227.67 314.2 227.39 315.26 L 328.47 315.26 C 330.05 315.26 331.35 313.96 331.35 312.38 L 331.35 301.72 C 331.35 300.14 330.26 298.14 328.93 297.29 Z" fill="#393434"/><path d="M 217.81 299.69 L 217.81 311.95 C 217.81 313.77 216.32 315.26 214.5 315.26 L 62.24 315.26 C 60.42 315.26 58.93 313.77 58.93 311.95 L 58.93 299.69 C 58.93 297.87 60.19 295.57 61.72 294.59 L 109.11 264.09 C 110.64 263.1 111.89 260.81 111.89 258.99 L 111.89 249.06 C 104.61 249.06 98.65 236.48 98.65 229.2 L 98.65 196.1 C 98.65 174.25 116.53 156.38 138.37 156.38 C 160.22 156.38 178.09 174.25 178.09 196.1 L 178.09 229.2 C 178.09 236.48 172.13 249.06 164.85 249.06 L 164.85 258.99 C 164.85 260.81 166.11 263.1 167.64 264.09 L 207.42 289.69 L 215.03 294.59 C 216.56 295.57 217.81 297.87 217.81 299.69 Z" fill="#393434"/></g></g></svg>
