<?xml version="1.0" encoding="utf-8" standalone="no"?>
<!DOCTYPE svg PUBLIC "-//W3C//DTD SVG 1.1//EN" "http://www.w3.org/Graphics/SVG/1.1/DTD/svg11.dtd">
<svg xmlns="http://www.w3.org/2000/svg" xmlns:xl="http://www.w3.org/1999/xlink" version="1.1" viewBox="0 0 332.855 332.855" width="332.855pt" height="332.855pt" xmlns:dc="http://purl.org/dc/elements/1.1/"><metadata> Produced by OmniGraffle 6.2.5 <dc:date>2015-11-21 19:08:58 +0000</dc:date></metadata><defs/><g stroke="none" stroke-opacity="1" stroke-dasharray="none" fill="none" fill-opacity="1"><title>Canvas 3</title><g><title>Layer 1</title><path d="M 302.69 278.63 L 295.48 273.99 L 283.88 273.99 L 283.88 288.45 C 283.88 293.43 279.85 297.45 274.88 297.45 L 248.94 297.45 C 243.97 297.45 239.94 293.43 239.94 288.45 L 239.94 273.99 L 225.47 273.99 C 220.5 273.99 216.47 269.96 216.47 264.99 L 216.47 239.05 C 216.47 234.08 220.5 230.05 225.47 230.05 L 227.2 230.05 L 219.13 224.86 C 216.44 223.12 214.23 219.08 214.23 215.87 L 214.23 198.36 C 227.06 198.36 237.57 176.18 237.57 163.35 L 237.57 104.99 C 237.57 66.47 206.06 34.96 167.54 34.96 C 129.03 34.96 97.52 66.47 97.52 104.99 L 97.52 163.35 C 97.52 176.18 108.02 198.36 120.86 198.36 L 120.86 215.87 C 120.86 219.08 118.65 223.12 115.95 224.86 L 32.39 278.63 C 29.7 280.37 27.49 284.42 27.49 287.63 L 27.49 309.24 C 27.49 312.45 30.11 315.07 33.32 315.07 L 301.76 315.07 C 304.97 315.07 307.6 312.45 307.6 309.24 L 307.6 287.63 C 307.6 284.42 305.39 280.37 302.69 278.63 Z" fill="#393434"/><path d="M 298.35 239.05 L 298.35 264.99 L 274.88 264.99 L 274.88 288.45 L 248.94 288.45 L 248.94 264.99 L 225.47 264.99 L 225.47 239.05 L 248.94 239.05 L 248.94 215.58 L 274.88 215.58 L 274.88 239.05 Z" fill="#393434"/></g></g></svg>
