<?xml version="1.0" encoding="utf-8" standalone="no"?>
<!DOCTYPE svg PUBLIC "-//W3C//DTD SVG 1.1//EN" "http://www.w3.org/Graphics/SVG/1.1/DTD/svg11.dtd">
<svg xmlns="http://www.w3.org/2000/svg" xmlns:xl="http://www.w3.org/1999/xlink" version="1.1" viewBox="0 0 332.855 332.855" width="332.855pt" height="332.855pt" xmlns:dc="http://purl.org/dc/elements/1.1/"><metadata> Produced by OmniGraffle 6.2.5 <dc:date>2015-11-21 19:08:58 +0000</dc:date></metadata><defs/><g stroke="none" stroke-opacity="1" stroke-dasharray="none" fill="none" fill-opacity="1"><title>Canvas 6</title><g><title>Layer 1</title><path d="M 274.35 265.11 C 273.66 263.84 272.69 262.73 271.65 262.05 L 205.61 219.55 C 203.48 218.18 201.73 214.98 201.73 212.44 L 201.73 198.6 C 211.87 198.6 220.18 181.07 220.18 170.93 L 220.18 124.81 C 220.18 94.36 195.27 69.46 164.83 69.46 C 134.39 69.46 109.49 94.36 109.49 124.81 L 109.49 170.93 C 109.49 181.07 117.79 198.6 127.94 198.6 L 127.94 212.44 C 127.94 214.98 126.19 218.18 124.06 219.55 L 58.02 262.05 C 56.97 262.73 56.01 263.84 55.31 265.11 C 30.82 237.99 17.42 203.24 17.42 166.43 C 17.42 127.05 32.75 90.03 60.59 62.19 C 88.44 34.35 125.46 19.01 164.83 19.01 C 204.21 19.01 241.23 34.35 269.07 62.19 C 296.91 90.03 312.25 127.05 312.25 166.43 C 312.25 203.24 298.84 237.99 274.35 265.11 M 164.83 3.01 C 74.58 3.01 1.42 76.18 1.42 166.43 C 1.42 213.98 21.73 256.78 54.14 286.64 C 83.25 313.46 122.13 329.84 164.83 329.84 C 207.54 329.84 246.41 313.46 275.53 286.64 C 307.94 256.78 328.25 213.98 328.25 166.43 C 328.25 76.18 255.09 3.01 164.83 3.01" fill="#393434"/></g></g></svg>
