<?xml version="1.0" encoding="utf-8" standalone="no"?>
<!DOCTYPE svg PUBLIC "-//W3C//DTD SVG 1.1//EN" "http://www.w3.org/Graphics/SVG/1.1/DTD/svg11.dtd">
<svg xmlns="http://www.w3.org/2000/svg" xmlns:xl="http://www.w3.org/1999/xlink" version="1.1" viewBox="0 0 332.855 332.855" width="332.855pt" height="332.855pt" xmlns:dc="http://purl.org/dc/elements/1.1/"><metadata> Produced by OmniGraffle 6.2.5 <dc:date>2015-11-21 19:08:58 +0000</dc:date></metadata><defs/><g stroke="none" stroke-opacity="1" stroke-dasharray="none" fill="none" fill-opacity="1"><title>Canvas 1</title><g><title>Layer 1</title><path d="M 284.39 265.19 L 284.39 275.07 C 284.39 276.54 283.19 277.74 281.72 277.74 L 158.97 277.74 C 157.5 277.74 156.3 276.54 156.3 275.07 L 156.3 265.19 C 156.3 263.72 157.31 261.87 158.54 261.08 L 196.75 236.49 C 197.98 235.69 198.99 233.84 198.99 232.38 L 198.99 224.37 C 193.12 224.37 188.32 214.23 188.32 208.36 L 188.32 181.67 C 188.32 164.06 202.73 149.65 220.34 149.65 C 237.95 149.65 252.36 164.06 252.36 181.67 L 252.36 208.36 C 252.36 214.23 247.56 224.37 241.69 224.37 L 241.69 232.38 C 241.69 233.84 242.7 235.69 243.93 236.49 L 282.14 261.08 C 283.38 261.87 284.39 263.72 284.39 265.19 Z" fill="#393434"/><path d="M 220.34 315.07 C 168.65 315.07 126.59 273.02 126.59 221.32 C 126.59 202.37 132.25 184.71 141.97 169.94 C 144.17 166.59 146.58 163.38 149.18 160.35 C 166.39 140.3 191.91 127.57 220.34 127.57 C 272.04 127.57 314.09 169.63 314.09 221.32 C 314.09 273.02 272.04 315.07 220.34 315.07 M 111.13 142.79 C 111.13 143.7 110.39 144.44 109.48 144.44 L 33.56 144.44 C 32.65 144.44 31.91 143.7 31.91 142.79 L 31.91 136.68 C 31.91 135.77 32.53 134.63 33.3 134.14 L 56.93 118.93 C 57.69 118.44 58.32 117.29 58.32 116.39 L 58.32 111.43 C 54.69 111.43 51.71 105.16 51.71 101.53 L 51.71 85.03 C 51.71 74.13 60.63 65.22 71.52 65.22 C 82.41 65.22 91.32 74.13 91.32 85.03 L 91.32 101.53 C 91.32 103.13 90.75 105.24 89.79 107.1 C 88.57 109.47 86.75 111.43 84.72 111.43 L 84.72 116.39 C 84.72 117.29 85.35 118.44 86.11 118.93 L 109.74 134.14 C 110.5 134.63 111.13 135.77 111.13 136.68 Z M 156.87 65.78 C 156.87 65.19 157.28 64.43 157.78 64.11 L 173.31 54.12 C 173.81 53.8 174.22 53.04 174.22 52.45 L 174.22 49.19 C 173.31 49.19 172.47 48.59 171.77 47.72 C 170.63 46.31 169.88 44.16 169.88 42.69 L 169.88 31.84 C 169.88 24.68 175.74 18.83 182.9 18.83 C 190.05 18.83 195.91 24.68 195.91 31.84 L 195.91 42.69 C 195.91 45.07 193.96 49.19 191.57 49.19 L 191.57 52.45 C 191.57 53.04 191.98 53.8 192.48 54.12 L 208.01 64.11 C 208.51 64.43 208.92 65.19 208.92 65.78 L 208.92 69.8 C 208.92 70.4 208.44 70.88 207.84 70.88 L 157.95 70.88 C 157.36 70.88 156.87 70.4 156.87 69.8 Z M 220.34 115.57 C 187.94 115.57 158.94 130.15 139.54 153.1 L 127.88 144.35 C 134.05 134.37 137.61 122.61 137.61 110.02 C 137.61 100.61 135.62 91.66 132.04 83.58 L 148.86 74.21 C 156.71 84.56 169.13 91.24 183.12 91.24 C 206.86 91.24 226.1 72 226.1 48.26 C 226.1 24.53 206.86 5.29 183.12 5.29 C 159.39 5.29 140.15 24.53 140.15 48.26 C 140.15 53.71 141.16 58.92 143.02 63.72 L 126.19 73.1 C 114.41 55.9 94.63 44.62 72.21 44.62 C 36.09 44.62 6.8 73.9 6.8 110.02 C 6.8 146.14 36.09 175.42 72.21 175.42 C 91.42 175.42 108.7 167.14 120.67 153.94 L 132.32 162.69 C 121.12 179.47 114.59 199.63 114.59 221.32 C 114.59 279.73 161.94 327.07 220.34 327.07 C 278.75 327.07 326.09 279.73 326.09 221.32 C 326.09 162.92 278.75 115.57 220.34 115.57" fill="#393434"/></g></g></svg>
