<?xml version="1.0" encoding="utf-8"?>
<!-- Generator: Adobe Illustrator 19.0.0, SVG Export Plug-In . SVG Version: 6.00 Build 0)  -->
<svg version="1.1" id="Layer_1" xmlns="http://www.w3.org/2000/svg" xmlns:xlink="http://www.w3.org/1999/xlink" x="0px" y="0px"
	 viewBox="0 0 500 500" style="enable-background:new 0 0 500 500;" xml:space="preserve">
<style type="text/css">
	.st0{fill:#FFFFFF;}
</style>
<rect id="XMLID_117_" width="500" height="500"/>
<g id="XMLID_1_">
	<path id="XMLID_5_" class="st0" d="M397.3,351.9c-5.5,12.8-12.1,24.5-19.6,35.3c-10.3,14.7-18.8,24.9-25.3,30.6
		c-10.1,9.3-20.9,14-32.5,14.3c-8.3,0-18.3-2.4-30-7.2c-11.7-4.8-22.5-7.1-32.3-7.1c-10.3,0-21.4,2.4-33.2,7.1
		c-11.9,4.8-21.4,7.3-28.7,7.5c-11.1,0.5-22.2-4.4-33.2-14.7c-7.1-6.2-15.9-16.7-26.4-31.6c-11.3-16-20.7-34.4-28-55.5
		c-7.8-22.8-11.7-44.8-11.7-66.2c0-24.5,5.3-45.6,15.9-63.2c8.3-14.2,19.4-25.4,33.2-33.6c13.9-8.2,28.8-12.4,44.9-12.7
		c8.8,0,20.4,2.7,34.8,8.1c14.3,5.4,23.5,8.1,27.6,8.1c3,0,13.2-3.2,30.6-9.6c16.4-5.9,30.2-8.3,41.6-7.4
		c30.7,2.5,53.8,14.6,69.1,36.4c-27.5,16.6-41,39.9-40.8,69.8c0.2,23.3,8.7,42.7,25.3,58.1c7.5,7.1,15.9,12.7,25.3,16.6
		C401.7,340.9,399.6,346.5,397.3,351.9L397.3,351.9z M326.9,74.8c0,18.3-6.7,35.3-20,51.1c-16,18.8-35.4,29.6-56.5,27.9
		c-0.3-2.2-0.4-4.5-0.4-6.9c0-17.5,7.6-36.3,21.2-51.6c6.8-7.8,15.4-14.2,25.8-19.4c10.4-5.1,20.3-7.9,29.5-8.4
		C326.7,69.9,326.9,72.4,326.9,74.8L326.9,74.8z"/>
</g>
</svg>
