<?xml version="1.0" encoding="UTF-8"?>
<svg width="54px" height="58px" viewBox="0 0 54 58" version="1.1" xmlns="http://www.w3.org/2000/svg" xmlns:xlink="http://www.w3.org/1999/xlink">
    <!-- Generator: Sketch 61 (89581) - https://sketch.com -->
    <title>Follow_0%</title>
    <desc>Created with Sketch.</desc>
    <defs>
        <linearGradient x1="50%" y1="-3.03835622%" x2="50%" y2="100%" id="linearGradient-1">
            <stop stop-color="#A5BFFF" offset="0%"></stop>
            <stop stop-color="#CEDCFF" offset="100%"></stop>
        </linearGradient>
        <path d="M35.2173913,3.01226227 L50.7633708,11.9877377 C53.9919038,13.8517321 55.9807621,17.2965358 55.9807621,21.0245245 L55.9807621,38.9754755 C55.9807621,42.7034642 53.9919038,46.1482679 50.7633708,48.0122623 L35.2173913,56.9877377 C31.9888583,58.8517321 28.0111417,58.8517321 24.7826087,56.9877377 L9.23662919,48.0122623 C6.00809622,46.1482679 4.01923789,42.7034642 4.01923789,38.9754755 L4.01923789,21.0245245 C4.01923789,17.2965358 6.00809622,13.8517321 9.23662919,11.9877377 L24.7826087,3.01226227 C28.0111417,1.14826789 31.9888583,1.14826789 35.2173913,3.01226227 Z" id="path-2"></path>
        <linearGradient x1="50%" y1="0%" x2="50%" y2="100%" id="linearGradient-4">
            <stop stop-color="#FFFFFF" offset="0%"></stop>
            <stop stop-color="#E7EEFF" offset="100%"></stop>
        </linearGradient>
        <linearGradient x1="87.6642545%" y1="394.812653%" x2="50%" y2="79.922235%" id="linearGradient-5">
            <stop stop-color="#A5BFFF" offset="0%"></stop>
            <stop stop-color="#CEDCFF" offset="100%"></stop>
        </linearGradient>
    </defs>
    <g id="Follow_0%" stroke="none" stroke-width="1" fill="none" fill-rule="evenodd">
        <g id="Group-16" transform="translate(-3.000000, -1.000000)">
            <g id="Group-3">
                <mask id="mask-3" fill="white">
                    <use xlink:href="#path-2"></use>
                </mask>
                <use id="Polygon" fill="url(#linearGradient-1)" transform="translate(30.000000, 30.000000) rotate(-360.000000) translate(-30.000000, -30.000000) " xlink:href="#path-2"></use>
                <rect id="Combined-Shape" fill="url(#linearGradient-4)" mask="url(#mask-3)" x="15" y="15" width="30" height="30" rx="15"></rect>
                <path d="M27.0695334,36.5634738 L21.4106108,30.7148898 C20.8631297,30.1490596 20.8631297,29.2509693 21.4106109,28.6851392 C21.9360806,28.1420583 22.8023119,28.1277816 23.3453927,28.6532512 C23.3557396,28.6632626 23.3659278,28.6734366 23.3759535,28.6837695 L27.0695192,32.4904937 C27.242584,32.6688607 27.5274759,32.673159 27.7058429,32.5000941 C27.7092412,32.4967968 27.7125872,32.4934461 27.7158797,32.4900432 L36.97915,22.9163103 C37.503955,22.3739162 38.3690908,22.3596575 38.9114848,22.8844625 C38.923431,22.8960213 38.9351654,22.9077971 38.9466819,22.9197841 C39.4947064,23.4901927 39.4931143,24.3919862 38.943079,24.9604561 L27.7163305,36.5634738 C27.5435144,36.7420818 27.2586288,36.7467772 27.0800208,36.5739611 C27.0764676,36.5705232 27.0729713,36.5670269 27.0695334,36.5634738 Z" id="Combined-Shape" fill="url(#linearGradient-5)" mask="url(#mask-3)"></path>
            </g>
        </g>
    </g>
</svg>