<?xml version="1.0" encoding="UTF-8"?>
<svg width="54px" height="58px" viewBox="0 0 54 58" version="1.1" xmlns="http://www.w3.org/2000/svg" xmlns:xlink="http://www.w3.org/1999/xlink">
    <!-- Generator: Sketch 61 (89581) - https://sketch.com -->
    <title>I_Voted_0%</title>
    <desc>Created with Sketch.</desc>
    <defs>
        <linearGradient x1="50%" y1="-3.03835622%" x2="50%" y2="100%" id="linearGradient-1">
            <stop stop-color="#A5BFFF" offset="0%"></stop>
            <stop stop-color="#CEDCFF" offset="100%"></stop>
        </linearGradient>
        <path d="M35.2173913,3.01226227 L50.7633708,11.9877377 C53.9919038,13.8517321 55.9807621,17.2965358 55.9807621,21.0245245 L55.9807621,38.9754755 C55.9807621,42.7034642 53.9919038,46.1482679 50.7633708,48.0122623 L35.2173913,56.9877377 C31.9888583,58.8517321 28.0111417,58.8517321 24.7826087,56.9877377 L9.23662919,48.0122623 C6.00809622,46.1482679 4.01923789,42.7034642 4.01923789,38.9754755 L4.01923789,21.0245245 C4.01923789,17.2965358 6.00809622,13.8517321 9.23662919,11.9877377 L24.7826087,3.01226227 C28.0111417,1.14826789 31.9888583,1.14826789 35.2173913,3.01226227 Z" id="path-2"></path>
        <linearGradient x1="50%" y1="0%" x2="50%" y2="100%" id="linearGradient-4">
            <stop stop-color="#FFFFFF" offset="0%"></stop>
            <stop stop-color="#E7EEFF" offset="100%"></stop>
        </linearGradient>
    </defs>
    <g id="I_Voted_0%" stroke="none" stroke-width="1" fill="none" fill-rule="evenodd">
        <g id="Group-16" transform="translate(-3.000000, -1.000000)">
            <g id="Group-3">
                <mask id="mask-3" fill="white">
                    <use xlink:href="#path-2"></use>
                </mask>
                <use id="Polygon" fill="url(#linearGradient-1)" transform="translate(30.000000, 30.000000) rotate(-360.000000) translate(-30.000000, -30.000000) " xlink:href="#path-2"></use>
                <path d="M31.2595391,14.6203749 C31.3471572,14.6881234 31.4257895,14.7667558 31.4935381,14.8543738 L34.5745656,18.839012 C34.8575047,19.2049321 35.3130768,19.3936362 35.7718895,19.3349598 L40.7680697,18.6960106 C41.4826215,18.6046283 42.1359601,19.109807 42.2273424,19.8243588 C42.2413922,19.9342196 42.2413922,20.0454225 42.2273424,20.1552833 L41.5883932,25.1514634 C41.5297167,25.6102762 41.7184209,26.0658482 42.0843409,26.3487873 L46.0689791,29.4298149 C46.6388606,29.8704622 46.7436255,30.6896577 46.3029781,31.2595391 C46.2352295,31.3471572 46.1565972,31.4257895 46.0689791,31.4935381 L42.0843409,34.5745656 C41.7184209,34.8575047 41.5297167,35.3130768 41.5883932,35.7718895 L42.2273424,40.7680697 C42.3187246,41.4826215 41.8135459,42.1359601 41.0989942,42.2273424 C40.9891334,42.2413922 40.8779305,42.2413922 40.7680697,42.2273424 L35.7718895,41.5883932 C35.3130768,41.5297167 34.8575047,41.7184209 34.5745656,42.0843409 L31.4935381,46.0689791 C31.0528907,46.6388606 30.2336952,46.7436255 29.6638138,46.3029781 C29.5761958,46.2352295 29.4975634,46.1565972 29.4298149,46.0689791 L26.3487873,42.0843409 C26.0658482,41.7184209 25.6102762,41.5297167 25.1514634,41.5883932 L20.1552833,42.2273424 C19.4407315,42.3187246 18.7873928,41.8135459 18.6960106,41.0989942 C18.6819607,40.9891334 18.6819607,40.8779305 18.6960106,40.7680697 L19.3349598,35.7718895 C19.3936362,35.3130768 19.2049321,34.8575047 18.839012,34.5745656 L14.8543738,31.4935381 C14.2844924,31.0528907 14.1797275,30.2336952 14.6203749,29.6638138 C14.6881234,29.5761958 14.7667558,29.4975634 14.8543738,29.4298149 L18.839012,26.3487873 C19.2049321,26.0658482 19.3936362,25.6102762 19.3349598,25.1514634 L18.6960106,20.1552833 C18.6046283,19.4407315 19.109807,18.7873928 19.8243588,18.6960106 C19.9342196,18.6819607 20.0454225,18.6819607 20.1552833,18.6960106 L25.1514634,19.3349598 C25.6102762,19.3936362 26.0658482,19.2049321 26.3487873,18.839012 L29.4298149,14.8543738 C29.8704622,14.2844924 30.6896577,14.1797275 31.2595391,14.6203749 Z M36.9415981,25.6406533 C36.4699511,25.1843012 35.7176591,25.1967001 35.261307,25.6683471 L35.261307,25.6683471 L27.3467014,33.8482142 L27.3467014,33.8482142 L27.3336099,33.861324 C27.1009573,34.0870608 26.7293592,34.0814544 26.5036224,33.8488018 L26.5036224,33.8488018 L23.4324405,30.683529 L23.4324405,30.683529 L23.4058658,30.6569914 C22.9336216,30.2000613 22.180377,30.2124758 21.7234469,30.68472 C21.2473763,31.1767462 21.2473762,31.9576943 21.7234468,32.4497205 L21.7234468,32.4497205 L26.503641,37.3901252 C26.5081253,37.3947597 26.5126856,37.3993201 26.5173201,37.4038043 C26.7502872,37.6292166 27.1218771,37.6230922 27.3472893,37.3901252 L27.3472893,37.3901252 L36.9690713,27.4458652 C37.4473628,26.9515436 37.4487473,26.1673753 36.9722043,25.6713678 L36.9722043,25.6713678 Z" id="Combined-Shape" fill="url(#linearGradient-4)" mask="url(#mask-3)"></path>
            </g>
        </g>
    </g>
</svg>