<?xml version="1.0" encoding="UTF-8"?>
<svg width="54px" height="58px" viewBox="0 0 54 58" version="1.1" xmlns="http://www.w3.org/2000/svg" xmlns:xlink="http://www.w3.org/1999/xlink">
    <!-- Generator: Sketch 61 (89581) - https://sketch.com -->
    <title>I_Voted_100%</title>
    <desc>Created with Sketch.</desc>
    <defs>
        <linearGradient x1="42.7297159%" y1="0%" x2="42.7297159%" y2="100%" id="linearGradient-1">
            <stop stop-color="#FFB102" offset="0%"></stop>
            <stop stop-color="#FFBF74" offset="100%"></stop>
        </linearGradient>
        <path d="M35.2173913,3.01226227 L50.7633708,11.9877377 C53.9919038,13.8517321 55.9807621,17.2965358 55.9807621,21.0245245 L55.9807621,38.9754755 C55.9807621,42.7034642 53.9919038,46.1482679 50.7633708,48.0122623 L35.2173913,56.9877377 C31.9888583,58.8517321 28.0111417,58.8517321 24.7826087,56.9877377 L9.23662919,48.0122623 C6.00809622,46.1482679 4.01923789,42.7034642 4.01923789,38.9754755 L4.01923789,21.0245245 C4.01923789,17.2965358 6.00809622,13.8517321 9.23662919,11.9877377 L24.7826087,3.01226227 C28.0111417,1.14826789 31.9888583,1.14826789 35.2173913,3.01226227 Z" id="path-2"></path>
        <linearGradient x1="42.7297159%" y1="0%" x2="42.7297159%" y2="100%" id="linearGradient-4">
            <stop stop-color="#415A99" offset="0%"></stop>
            <stop stop-color="#2D3B5E" offset="100%"></stop>
        </linearGradient>
        <path d="M31.2595391,14.6203749 C31.3471572,14.6881234 31.4257895,14.7667558 31.4935381,14.8543738 L34.5745656,18.839012 C34.8575047,19.2049321 35.3130768,19.3936362 35.7718895,19.3349598 L40.7680697,18.6960106 C41.4826215,18.6046283 42.1359601,19.109807 42.2273424,19.8243588 C42.2413922,19.9342196 42.2413922,20.0454225 42.2273424,20.1552833 L41.5883932,25.1514634 C41.5297167,25.6102762 41.7184209,26.0658482 42.0843409,26.3487873 L46.0689791,29.4298149 C46.6388606,29.8704622 46.7436255,30.6896577 46.3029781,31.2595391 C46.2352295,31.3471572 46.1565972,31.4257895 46.0689791,31.4935381 L42.0843409,34.5745656 C41.7184209,34.8575047 41.5297167,35.3130768 41.5883932,35.7718895 L42.2273424,40.7680697 C42.3187246,41.4826215 41.8135459,42.1359601 41.0989942,42.2273424 C40.9891334,42.2413922 40.8779305,42.2413922 40.7680697,42.2273424 L35.7718895,41.5883932 C35.3130768,41.5297167 34.8575047,41.7184209 34.5745656,42.0843409 L31.4935381,46.0689791 C31.0528907,46.6388606 30.2336952,46.7436255 29.6638138,46.3029781 C29.5761958,46.2352295 29.4975634,46.1565972 29.4298149,46.0689791 L26.3487873,42.0843409 C26.0658482,41.7184209 25.6102762,41.5297167 25.1514634,41.5883932 L20.1552833,42.2273424 C19.4407315,42.3187246 18.7873928,41.8135459 18.6960106,41.0989942 C18.6819607,40.9891334 18.6819607,40.8779305 18.6960106,40.7680697 L19.3349598,35.7718895 C19.3936362,35.3130768 19.2049321,34.8575047 18.839012,34.5745656 L14.8543738,31.4935381 C14.2844924,31.0528907 14.1797275,30.2336952 14.6203749,29.6638138 C14.6881234,29.5761958 14.7667558,29.4975634 14.8543738,29.4298149 L18.839012,26.3487873 C19.2049321,26.0658482 19.3936362,25.6102762 19.3349598,25.1514634 L18.6960106,20.1552833 C18.6046283,19.4407315 19.109807,18.7873928 19.8243588,18.6960106 C19.9342196,18.6819607 20.0454225,18.6819607 20.1552833,18.6960106 L25.1514634,19.3349598 C25.6102762,19.3936362 26.0658482,19.2049321 26.3487873,18.839012 L29.4298149,14.8543738 C29.8704622,14.2844924 30.6896577,14.1797275 31.2595391,14.6203749 Z M36.9415981,25.6406533 C36.4699511,25.1843012 35.7176591,25.1967001 35.261307,25.6683471 L35.261307,25.6683471 L27.3467014,33.8482142 L27.3467014,33.8482142 L27.3336099,33.861324 C27.1009573,34.0870608 26.7293592,34.0814544 26.5036224,33.8488018 L26.5036224,33.8488018 L23.4324405,30.683529 L23.4324405,30.683529 L23.4058658,30.6569914 C22.9336216,30.2000613 22.180377,30.2124758 21.7234469,30.68472 C21.2473763,31.1767462 21.2473762,31.9576943 21.7234468,32.4497205 L21.7234468,32.4497205 L26.503641,37.3901252 C26.5081253,37.3947597 26.5126856,37.3993201 26.5173201,37.4038043 C26.7502872,37.6292166 27.1218771,37.6230922 27.3472893,37.3901252 L27.3472893,37.3901252 L36.9690713,27.4458652 C37.4473628,26.9515436 37.4487473,26.1673753 36.9722043,25.6713678 L36.9722043,25.6713678 Z" id="path-5"></path>
        <filter x="-19.4%" y="-18.6%" width="148.2%" height="169.1%" filterUnits="objectBoundingBox" id="filter-6">
            <feMorphology radius="2" operator="erode" in="SourceAlpha" result="shadowSpreadOuter1"></feMorphology>
            <feOffset dx="0" dy="7" in="shadowSpreadOuter1" result="shadowOffsetOuter1"></feOffset>
            <feGaussianBlur stdDeviation="4.5" in="shadowOffsetOuter1" result="shadowBlurOuter1"></feGaussianBlur>
            <feComposite in="shadowBlurOuter1" in2="SourceAlpha" operator="out" result="shadowBlurOuter1"></feComposite>
            <feColorMatrix values="0 0 0 0 0   0 0 0 0 0   0 0 0 0 0  0 0 0 0.367679196 0" type="matrix" in="shadowBlurOuter1"></feColorMatrix>
        </filter>
        <filter x="-36.4%" y="-35.7%" width="182.3%" height="203.3%" filterUnits="objectBoundingBox" id="filter-7">
            <feGaussianBlur stdDeviation="11" in="SourceAlpha" result="shadowBlurInner1"></feGaussianBlur>
            <feOffset dx="0" dy="1" in="shadowBlurInner1" result="shadowOffsetInner1"></feOffset>
            <feComposite in="shadowOffsetInner1" in2="SourceAlpha" operator="arithmetic" k2="-1" k3="1" result="shadowInnerInner1"></feComposite>
            <feColorMatrix values="0 0 0 0 0   0 0 0 0 0   0 0 0 0 0  0 0 0 0 0" type="matrix" in="shadowInnerInner1"></feColorMatrix>
        </filter>
    </defs>
    <g id="I_Voted_100%" stroke="none" stroke-width="1" fill="none" fill-rule="evenodd">
        <g id="Group-16" transform="translate(-3.000000, -1.000000)">
            <g id="Group-3">
                <mask id="mask-3" fill="white">
                    <use xlink:href="#path-2"></use>
                </mask>
                <use id="Polygon" fill="url(#linearGradient-1)" transform="translate(30.000000, 30.000000) rotate(-360.000000) translate(-30.000000, -30.000000) " xlink:href="#path-2"></use>
                <g id="Combined-Shape" mask="url(#mask-3)">
                    <use fill="black" fill-opacity="1" filter="url(#filter-6)" xlink:href="#path-5"></use>
                    <use fill="url(#linearGradient-4)" fill-rule="evenodd" xlink:href="#path-5"></use>
                    <use fill="black" fill-opacity="1" filter="url(#filter-7)" xlink:href="#path-5"></use>
                    <path stroke-opacity="0.282233392" stroke="#21293D" stroke-width="1.70132325" d="M30.7391939,15.2933281 C30.5409743,15.1400594 30.2560367,15.1764994 30.1027681,15.374719 L27.0217405,19.3593572 C26.554276,19.9639208 25.8015917,20.2756929 25.0435533,20.1787492 L20.0473731,19.5398 C20.0091607,19.5349131 19.9704814,19.5349131 19.9322689,19.5398 C19.6837292,19.5715851 19.5080149,19.7988334 19.5398,20.0473731 L20.1787492,25.0435533 C20.2756929,25.8015917 19.9639208,26.554276 19.3593572,27.0217405 L15.374719,30.1027681 C15.3442432,30.1263328 15.3168928,30.1536832 15.2933281,30.184159 C15.1400594,30.3823786 15.1764994,30.6673162 15.374719,30.8205849 L19.3593572,33.9016124 C19.9639208,34.369077 20.2756929,35.1217613 20.1787492,35.8797997 L19.5398,40.8759798 C19.5349131,40.9141923 19.5349131,40.9528715 19.5398,40.991084 C19.5715851,41.2396237 19.7988334,41.4153381 20.0473731,41.3835529 L25.0435533,40.7446037 C25.8015917,40.6476601 26.554276,40.9594321 27.0217405,41.5639957 L30.1027681,45.5486339 C30.1263328,45.5791097 30.1536832,45.6064601 30.184159,45.6300248 C30.3823786,45.7832935 30.6673162,45.7468535 30.8205849,45.5486339 L33.9016124,41.5639957 C34.369077,40.9594321 35.1217613,40.6476601 35.8797997,40.7446037 L40.8759798,41.3835529 C40.9141923,41.3884398 40.9528715,41.3884398 40.991084,41.3835529 C41.2396237,41.3517678 41.4153381,41.1245196 41.3835529,40.8759798 L40.7446037,35.8797997 C40.6476601,35.1217613 40.9594321,34.369077 41.5639957,33.9016124 L45.5486339,30.8205849 C45.5791097,30.7970201 45.6064601,30.7696698 45.6300248,30.7391939 C45.7832935,30.5409743 45.7468535,30.2560367 45.5486339,30.1027681 L41.5639957,27.0217405 C40.9594321,26.554276 40.6476601,25.8015917 40.7446037,25.0435533 L41.3835529,20.0473731 C41.3884398,20.0091607 41.3884398,19.9704814 41.3835529,19.9322689 C41.3517678,19.6837292 41.1245196,19.5080149 40.8759798,19.5398 L35.8797997,20.1787492 C35.1217613,20.2756929 34.369077,19.9639208 33.9016124,19.3593572 L30.8205849,15.374719 C30.7970201,15.3442432 30.7696698,15.3168928 30.7391939,15.2933281 Z M26.9246131,33.0611058 L34.6499676,25.0768326 C35.4330042,24.2675522 36.7238322,24.2462774 37.5331126,25.029314 L37.5441678,25.0402076 L37.5856285,25.0820157 C38.3792945,25.908099 38.3769886,27.2141041 37.5804106,28.0373797 L27.9586287,37.9816397 C27.406532,38.5522401 26.4964061,38.5672404 25.9258056,38.0151437 C25.9088696,37.9985757 25.9088696,37.9985757 25.8923016,37.9816396 L21.1121074,33.041235 C20.3169405,32.2194177 20.3169406,30.9150227 21.1121076,30.0932055 C21.8957222,29.2833279 23.1875028,29.2620375 24.0069551,30.0550637 L24.0429547,30.0911629 L26.9246131,33.0611058 Z" stroke-linejoin="square"></path>
                </g>
            </g>
        </g>
    </g>
</svg>