<?xml version="1.0" encoding="UTF-8"?>
<svg width="15px" height="15px" viewBox="0 0 15 15" version="1.1" xmlns="http://www.w3.org/2000/svg" xmlns:xlink="http://www.w3.org/1999/xlink">
    <!-- Generator: Sketch 61 (89581) - https://sketch.com -->
    <title>I_Voted_Mini</title>
    <desc>Created with Sketch.</desc>
    <defs>
        <linearGradient x1="42.7297159%" y1="0%" x2="42.7297159%" y2="100%" id="linearGradient-1">
            <stop stop-color="#FFB102" offset="0%"></stop>
            <stop stop-color="#FFBF74" offset="100%"></stop>
        </linearGradient>
    </defs>
    <g id="I_Voted_Mini" stroke="none" stroke-width="1" fill="none" fill-rule="evenodd">
        <g id="Group" transform="translate(0.100000, 0.000000)">
            <path d="M9.17288755,13.0274543 L8.15633947,14.3421379 C7.8185098,14.779047 7.19045994,14.8593667 6.75355084,14.5215371 C6.68637702,14.4695965 6.62609222,14.4093117 6.57415165,14.3421379 L5.55760357,13.0274543 C5.34068361,12.7469156 4.99141169,12.6022424 4.63965527,12.6472277 L2.99122557,12.8580413 C2.44340253,12.928101 1.94250957,12.5407974 1.87244983,11.9929743 C1.8616783,11.9087477 1.8616783,11.8234922 1.87244983,11.7392656 L2.08326346,10.0908358 C2.12824872,9.73907942 1.98357556,9.38980751 1.70303682,9.17288755 L0.388353253,8.15633947 C-0.0485558485,7.8185098 -0.128875602,7.19045994 0.208954062,6.75355084 C0.260894638,6.68637702 0.321179429,6.62609222 0.388353253,6.57415165 L1.70303682,5.55760357 C1.98357556,5.34068361 2.12824872,4.99141169 2.08326346,4.63965527 L1.87244983,2.99122557 C1.80239009,2.44340253 2.18969376,1.94250957 2.7375168,1.87244983 C2.8217434,1.8616783 2.90699896,1.8616783 2.99122557,1.87244983 L4.63965527,2.08326346 C4.99141169,2.12824872 5.34068361,1.98357556 5.55760357,1.70303682 L6.57415165,0.388353253 C6.91198131,-0.0485558485 7.54003117,-0.128875602 7.97694028,0.208954062 C8.0441141,0.260894638 8.10439889,0.321179429 8.15633947,0.388353253 L9.17288755,1.70303682 C9.38980751,1.98357556 9.73907942,2.12824872 10.0908358,2.08326346 L11.7392656,1.87244983 C12.2870886,1.80239009 12.7879815,2.18969376 12.8580413,2.7375168 C12.8688128,2.8217434 12.8688128,2.90699896 12.8580413,2.99122557 L12.6472277,4.63965527 C12.6022424,4.99141169 12.7469156,5.34068361 13.0274543,5.55760357 L14.3421379,6.57415165 C14.779047,6.91198131 14.8593667,7.54003117 14.5215371,7.97694028 C14.4695965,8.0441141 14.4093117,8.10439889 14.3421379,8.15633947 L13.0274543,9.17288755 C12.7469156,9.38980751 12.6022424,9.73907942 12.6472277,10.0908358 L12.8580413,11.7392656 C12.928101,12.2870886 12.5407974,12.7879815 11.9929743,12.8580413 C11.9087477,12.8688128 11.8234922,12.8688128 11.7392656,12.8580413 L10.0908358,12.6472277 C9.73907942,12.6022424 9.38980751,12.7469156 9.17288755,13.0274543 Z" id="Star" fill="url(#linearGradient-1)"></path>
            <path d="M6.35324556,8.14824556 L5.43428608,7.12276012 L5.38509872,7.07265492 C5.01441975,6.74065015 4.47349787,6.77118205 4.15869891,7.12364403 C3.83409447,7.48708462 3.83409444,8.03630787 4.15869883,8.39974849 L5.67996988,10.1030271 L5.8132264,10.2226 C6.21724231,10.489951 6.69063003,10.4412084 6.99216012,10.1353241 L10.5929734,6.48251364 C10.9102968,6.16060801 10.9491347,5.6637482 10.70139,5.29900719 L10.6138569,5.18889221 L10.4957595,5.08428699 L10.4540589,5.05304645 C10.1079452,4.82378288 9.64494151,4.86741141 9.34769722,5.16377503 L6.35324556,8.14824556 Z" id="Combined-Shape" fill="#FFFFFF" fill-rule="nonzero"></path>
        </g>
    </g>
</svg>