<?xml version="1.0" encoding="UTF-8"?>
<svg width="54px" height="58px" viewBox="0 0 54 58" version="1.1" xmlns="http://www.w3.org/2000/svg" xmlns:xlink="http://www.w3.org/1999/xlink">
    <!-- Generator: Sketch 61 (89581) - https://sketch.com -->
    <title>Plan_0%</title>
    <desc>Created with Sketch.</desc>
    <defs>
        <linearGradient x1="50%" y1="-3.03835622%" x2="50%" y2="100%" id="linearGradient-1">
            <stop stop-color="#A5BFFF" offset="0%"></stop>
            <stop stop-color="#CEDCFF" offset="100%"></stop>
        </linearGradient>
        <path d="M35.2173913,3.01226227 L50.7633708,11.9877377 C53.9919038,13.8517321 55.9807621,17.2965358 55.9807621,21.0245245 L55.9807621,38.9754755 C55.9807621,42.7034642 53.9919038,46.1482679 50.7633708,48.0122623 L35.2173913,56.9877377 C31.9888583,58.8517321 28.0111417,58.8517321 24.7826087,56.9877377 L9.23662919,48.0122623 C6.00809622,46.1482679 4.01923789,42.7034642 4.01923789,38.9754755 L4.01923789,21.0245245 C4.01923789,17.2965358 6.00809622,13.8517321 9.23662919,11.9877377 L24.7826087,3.01226227 C28.0111417,1.14826789 31.9888583,1.14826789 35.2173913,3.01226227 Z" id="path-2"></path>
        <linearGradient x1="50%" y1="0%" x2="50%" y2="100%" id="linearGradient-4">
            <stop stop-color="#FFFFFF" offset="0%"></stop>
            <stop stop-color="#E7EEFF" offset="100%"></stop>
        </linearGradient>
        <linearGradient x1="87.6642545%" y1="626.181312%" x2="50%" y2="100%" id="linearGradient-5">
            <stop stop-color="#A5BFFF" offset="0%"></stop>
            <stop stop-color="#CEDCFF" offset="100%"></stop>
        </linearGradient>
    </defs>
    <g id="Plan_0%" stroke="none" stroke-width="1" fill="none" fill-rule="evenodd">
        <g id="Group-16" transform="translate(-3.000000, -1.000000)">
            <g id="Group-3">
                <mask id="mask-3" fill="white">
                    <use xlink:href="#path-2"></use>
                </mask>
                <use id="Polygon" fill="url(#linearGradient-1)" transform="translate(30.000000, 30.000000) rotate(-360.000000) translate(-30.000000, -30.000000) " xlink:href="#path-2"></use>
                <g id="Group-15" mask="url(#mask-3)">
                    <g transform="translate(14.347826, 11.739130)">
                        <path d="M23.4782609,0 C24.1986323,-1.32330082e-16 24.7826087,0.583976413 24.7826087,1.30434783 L24.7826087,2.60869565 L26.0869565,2.60869565 C28.9684422,2.60869565 31.3043478,4.94460131 31.3043478,7.82608696 L31.3043478,28.6956522 C31.3043478,31.5771378 28.9684422,33.9130435 26.0869565,33.9130435 L5.2173913,33.9130435 C2.33590565,33.9130435 3.52880218e-16,31.5771378 0,28.6956522 L0,7.82608696 C-3.52880218e-16,4.94460131 2.33590565,2.60869565 5.2173913,2.60869565 L6.52173913,2.60869565 L6.52173913,2.60869565 L6.52173913,1.30434783 C6.52173913,0.583976413 7.10571554,1.32330082e-16 7.82608696,0 C8.54645837,-1.32330082e-16 9.13043478,0.583976413 9.13043478,1.30434783 L9.13043478,2.60869565 L14.3478261,2.60869565 L14.3478261,2.60869565 L14.3478261,1.30434783 C14.3478261,0.583976413 14.9318025,1.32330082e-16 15.6521739,0 C16.3725453,-1.32330082e-16 16.9565217,0.583976413 16.9565217,1.30434783 L16.9565217,2.60869565 L22.173913,2.60869565 L22.173913,2.60869565 L22.173913,1.30434783 C22.173913,0.583976413 22.7578895,1.32330082e-16 23.4782609,0 Z" id="Combined-Shape" fill="url(#linearGradient-4)"></path>
                        <rect id="Rectangle" fill="url(#linearGradient-5)" x="5.2173913" y="7.82608696" width="7.82608696" height="7.82608696" rx="1.30434783"></rect>
                        <rect id="Rectangle" fill="url(#linearGradient-5)" x="5.2173913" y="20.8695652" width="7.82608696" height="7.82608696" rx="1.30434783"></rect>
                        <rect id="Rectangle" fill="url(#linearGradient-5)" x="18.2608696" y="7.82608696" width="7.82608696" height="7.82608696" rx="1.30434783"></rect>
                        <rect id="Rectangle" fill="url(#linearGradient-5)" x="18.2608696" y="20.8695652" width="7.82608696" height="7.82608696" rx="1.30434783"></rect>
                    </g>
                </g>
            </g>
        </g>
    </g>
</svg>