<svg xmlns="http://www.w3.org/2000/svg" viewBox="12.149 27.749 59.703 28.502"><circle fill="#496580" cx="26.4" cy="42" r="14.251"/><circle fill="#496580" cx="57.6" cy="42" r="14.251"/><path fill="#FFF" stroke="#6D6E71" stroke-width=".5" stroke-miterlimit="10" d="M24.156 51.38h3.788V42h2.615v-2.974h-2.526s-.383-.045-.383-.947c0-.903.023-1.13.023-1.13s.112-.9.834-.9h2.052v-3.157h-3.586s-1.397.022-2.052.834c-.653.812-.767 1.624-.767 1.624v3.653H22.24v3.135h1.96l-.044 9.243z"/><path fill="#FFF" stroke="#939598" stroke-width=".5" stroke-miterlimit="10" d="M52.39 40.475l-1.083-.083c.195 1.64 2.223 2.917 2.223 2.917l-1-.056c.11 1.777 2.334 2.082 2.36 2.22-.026.393-3 1.31-3.888 1.446 2.75 1.86 5.982 1.273 6.583 1.11 7.75-2.09 6.808-8.973 6.808-8.973 0-.39 1.25-1.36 1.25-1.36l-1.334-.084.722-1.333s-.61.167-1.14.333c-.528.166-1.723-.86-3.056-.86-1.193 0-2.154.91-2.516 1.583-.355.667-.318 2.36-.318 2.36h-.64c-2.36-.277-4.694-2.583-5.083-2.916 0 0-.28-.465-.675-.38-.396.083-1.222 2.504.786 4.075z"/></svg>
