<svg fill="#e6e6e6" height="24" viewBox="0 0 48 48" width="24" xmlns="http://www.w3.org/2000/svg">
    <path d="M24.062,16.402c-3.982-6.1-11.781-2.101-11.781,3.524c0,4.338,6.781,8.074,11.781,14.91
		c5-6.836,11.781-10.572,11.781-14.91C35.844,14.301,28.293,10.303,24.062,16.402z M24.062,30.833
		c-1.537-1.776-3.135-3.342-4.55-4.728c-2.55-2.495-4.731-4.632-4.731-6.18c0-2.336,2.174-4.081,4.119-4.081
		c1.201,0,2.234,0.648,3.068,1.925L24,20.88l2.117-3.053c0.898-1.297,2.012-1.982,3.217-1.982c1.893,0,4.01,1.745,4.01,4.081
		c0,1.548-2.184,3.685-4.711,6.158C27.197,27.491,25.598,29.057,24.062,30.833z"/>
</svg>