<svg xmlns="http://www.w3.org/2000/svg" width="40" height="26" viewBox="2468.458 136 63.452 41.014">
  <g id="Group_8" data-name="Group 8" transform="translate(1981 -1)">
    <path id="Union_3" data-name="Union 3" fill="#305b84" d="M40.548,29.547A15.812,15.812,0,0,0,45.91,17.99C45.91,8.054,35.633,0,22.955,0S0,8.054,0,17.99,10.277,35.98,22.955,35.98A28.446,28.446,0,0,0,31.777,34.6a95.093,95.093,0,0,0,10.64,6.174Z" transform="translate(505 137.236)"/>
    <text id="_" data-name="…" fill="#fff" font-size="20px" font-family="HelveticaNeue, Helvetica Neue" transform="translate(522 156)"><tspan x="0" y="0">…</tspan></text>
    <path id="Union_4" data-name="Union 4" fill="#5a7ea0" d="M5.145,25.258A13.506,13.506,0,0,1,1,15.763C1,7.057,10.2,0,21.542,0S42.083,7.057,42.083,15.763s-9.2,15.762-20.542,15.762a25.894,25.894,0,0,1-8.147-1.289A90.514,90.514,0,0,1,3.279,35.728Z" transform="translate(486.458 142.136)"/>
    <text id="_2" data-name="…" fill="#fff" font-size="20px" font-family="HelveticaNeue, Helvetica Neue" transform="translate(498 159)"><tspan x="0" y="0">…</tspan></text>
  </g>
</svg>
