<svg width="173" height="145" viewBox="0 0 173 145" fill="none" xmlns="http://www.w3.org/2000/svg">
<path d="M134.693 3.2959H50.108C43.103 3.2959 37.4044 8.99477 37.4044 15.9995V21.538H31.2916C28.1531 21.538 25.5996 24.0915 25.5996 27.23V31.2653C25.5996 34.4038 28.1531 36.9573 31.2916 36.9573H37.4044V48.1733H31.2916C28.1531 48.1733 25.5996 50.7268 25.5996 53.8653V57.9006C25.5996 61.0391 28.1531 63.5926 31.2916 63.5926H37.4044V74.8087H31.2916C28.1531 74.8087 25.5996 77.3622 25.5996 80.5006V84.536C25.5996 87.6744 28.1531 90.2279 31.2916 90.2279H37.4044V101.444H31.2916C28.1531 101.444 25.5996 103.997 25.5996 107.136V111.171C25.5996 114.31 28.1531 116.863 31.2916 116.863H37.4044V122.402C37.4044 129.407 43.1033 135.105 50.108 135.105H134.693C141.698 135.105 147.396 129.406 147.396 122.402L147.397 15.9993C147.398 8.99427 141.699 3.29565 134.694 3.29565L134.693 3.2959ZM29.7187 31.2675V27.2322C29.7187 26.3662 30.4235 25.6595 31.2914 25.6595H44.9962C45.8622 25.6595 46.5688 26.3643 46.5688 27.2322V31.2675C46.5688 32.1335 45.8641 32.8402 44.9962 32.8402L31.2914 32.8411C30.4254 32.8392 29.7187 32.1345 29.7187 31.2675V31.2675ZM29.7187 57.9021V53.8668C29.7187 53.0008 30.4235 52.2941 31.2914 52.2941H44.9962C45.8622 52.2941 46.5688 52.9989 46.5688 53.8668V57.9021C46.5688 58.7681 45.8641 59.4748 44.9962 59.4748H31.2914C30.4254 59.4748 29.7187 58.77 29.7187 57.9021V57.9021ZM29.7187 84.5367V80.5014C29.7187 79.6354 30.4235 78.9287 31.2914 78.9287H44.9962C45.8622 78.9287 46.5688 79.6335 46.5688 80.5014V84.5367C46.5688 85.4027 45.8641 86.1094 44.9962 86.1094H31.2914C30.4254 86.1094 29.7187 85.4027 29.7187 84.5367V84.5367ZM29.7187 111.171V107.136C29.7187 106.27 30.4235 105.563 31.2914 105.563H44.9962C45.8622 105.563 46.5688 106.268 46.5688 107.136V111.171C46.5688 112.037 45.8641 112.744 44.9962 112.744H31.2914C30.4254 112.743 29.7187 112.037 29.7187 111.171V111.171ZM41.5228 122.402V116.863H44.9954C48.1338 116.863 50.6873 114.31 50.6873 111.171V107.136C50.6873 103.997 48.1338 101.444 44.9954 101.444H41.5228V90.2279H44.9954C48.1338 90.2279 50.6873 87.6744 50.6873 84.536V80.5006C50.6873 77.3622 48.1338 74.8087 44.9954 74.8087H41.5228V63.5926H44.9954C48.1338 63.5926 50.6873 61.0391 50.6873 57.9006V53.8653C50.6873 50.7268 48.1338 48.1733 44.9954 48.1733H41.5228V36.9573H44.9954C48.1338 36.9573 50.6873 34.4038 50.6873 31.2653V27.23C50.6873 24.0915 48.1338 21.538 44.9954 21.538H41.5228V15.9995C41.5228 11.2653 45.3747 7.41429 50.108 7.41429H57.4865V130.986H50.108C45.3738 130.988 41.5228 127.137 41.5228 122.402V122.402ZM143.279 122.402C143.279 127.136 139.427 130.987 134.694 130.987H61.6061V7.41553H134.694C139.428 7.41553 143.279 11.2675 143.279 16.0008V122.402ZM133.872 77.1078C133.872 78.2451 132.949 79.168 131.812 79.168H73.0711C71.9338 79.168 71.0109 78.2451 71.0109 77.1078C71.0109 75.9706 71.9338 75.0477 73.0711 75.0477H131.812C132.949 75.0486 133.872 75.9706 133.872 77.1078ZM133.872 89.7324C133.872 90.8696 132.949 91.7925 131.812 91.7925H73.0711C71.9338 91.7925 71.0109 90.8696 71.0109 89.7324C71.0109 88.5952 71.9338 87.6722 73.0711 87.6722H131.812C132.949 87.6722 133.872 88.5952 133.872 89.7324ZM133.872 102.357C133.872 103.494 132.949 104.417 131.812 104.417H73.0711C71.9338 104.417 71.0109 103.494 71.0109 102.357C71.0109 101.22 71.9338 100.297 73.0711 100.297H131.812C132.949 100.297 133.872 101.22 133.872 102.357ZM133.872 114.981C133.872 116.119 132.949 117.042 131.812 117.042H73.0711C71.9338 117.042 71.0109 116.119 71.0109 114.981C71.0109 113.844 71.9338 112.921 73.0711 112.921H131.812C132.949 112.921 133.872 113.844 133.872 114.981ZM102.443 66.8306C116.792 66.8306 128.465 55.1571 128.465 40.809C128.465 26.4608 116.791 14.7873 102.443 14.7873C88.0941 14.7873 76.4213 26.4608 76.4213 40.809C76.4213 55.1586 88.0949 66.8306 102.443 66.8306ZM88.0014 57.2568C89.2352 50.3049 95.2689 45.1797 102.443 45.1797C109.617 45.1797 115.65 50.3049 116.885 57.2568C113.027 60.6494 107.972 62.7123 102.443 62.7123C96.9142 62.7123 91.8593 60.6482 88.0014 57.2568ZM102.443 41.0603C98.9135 41.0603 96.0425 38.1883 96.0425 34.6598C96.0425 31.1304 98.9145 28.2593 102.443 28.2593C105.972 28.2593 108.843 31.1314 108.843 34.6598C108.843 38.1883 105.971 41.0603 102.443 41.0603ZM102.443 18.9062C114.52 18.9062 124.346 28.7311 124.346 40.8092C124.346 45.5937 122.799 50.023 120.185 53.6317C118.399 48.5025 114.478 44.444 109.521 42.4369C111.635 40.5109 112.964 37.7382 112.964 34.6606C112.964 28.8594 108.245 24.1407 102.444 24.1407C96.6433 24.1407 91.9243 28.8606 91.9243 34.6606C91.9243 37.7382 93.2537 40.5119 95.367 42.4369C90.4106 44.444 86.4892 48.5015 84.7033 53.6317C82.09 50.0249 80.5414 45.5956 80.5414 40.8092C80.5405 28.7321 90.3664 18.9062 102.443 18.9062H102.443Z" fill="#0834CD"/>
</svg>
