<?xml version="1.0" encoding="UTF-8"?>
<svg width="24px" height="24px" viewBox="0 0 24 24" version="1.1" xmlns="http://www.w3.org/2000/svg" xmlns:xlink="http://www.w3.org/1999/xlink">
    <!-- Generator: Sketch 61 (89581) - https://sketch.com -->
    <title>Candidates</title>
    <desc>Created with Sketch.</desc>
    <g id="Candidates" stroke="none" stroke-width="1" fill="none" fill-rule="evenodd">
        <g id="Candidates-Icon-2" transform="translate(1.000000, 1.000000)">
            <g id="Candidates-Icon">
                <rect id="Rectangle" stroke="#979797" fill="#D8D8D8" opacity="0" x="0.5" y="0.5" width="21" height="21"></rect>
                <g id="man-talking" transform="translate(0.916667, 5.500000)" fill="#FFFFFF" fill-rule="nonzero">
                    <path d="M7.39983877,8.766186 L6.84409846,15.5085333 L1.24648615,15.5085333 L0.690989538,8.766186 L7.39983877,8.766186 Z M8.06061046,7.66799733 L8.06061046,8.56297933 L0.0299741538,8.56297933 L0.0299741538,7.66799733 L8.06061046,7.66799733 Z M3.60640246,3.54389933 L4.01446523,3.98247667 L4.43556554,3.548886 C5.93037415,4.053038 6.97325538,5.59329467 7.37144862,7.48498667 L7.37144862,7.48498667 L6.45723692,7.48498667 C6.41751508,6.82761933 6.21975877,5.77967133 5.38328492,5.45055133 C5.32760123,5.3295 5.20867938,5.249838 5.07318646,5.249838 L5.07318646,5.249838 L4.65172062,5.249838 C4.46249354,5.249838 4.30848,5.407292 4.30848,5.60089933 C4.30848,5.79450667 4.46224985,5.95208533 4.65172062,5.95208533 L4.65172062,5.95208533 L5.07318646,5.95208533 C5.11071508,5.95208533 5.14763446,5.945852 5.18345723,5.93301133 C5.53632369,6.07051867 5.75333169,6.59262267 5.74809231,6.57841067 C5.77380185,6.64435933 5.92586585,7.05426333 5.91611815,7.48498667 L5.91611815,7.48498667 L2.28522462,7.48498667 L2.28522462,6.71143 C2.208096,6.93495733 2.13535385,7.19214467 2.06651077,7.48498667 L2.06651077,7.48498667 L0.718892308,7.48498667 C1.19689477,4.59172267 3.39341538,3.59601 3.60225969,3.544772 C3.60372185,3.544398 3.60494031,3.544398 3.60640246,3.54389933 L3.60640246,3.54389933 Z M4.018608,4.04643067 L4.010688,4.04643067 L3.929904,4.59882867 L3.60335631,6.83322933 L4.010688,7.40382867 L4.018608,7.40382867 L4.42618338,6.83322933 L4.018608,4.04643067 Z M3.99143631,0 C4.92459905,0 5.68107692,0.773988933 5.68107692,1.72875267 C5.68107692,2.6835164 4.92459905,3.45750533 3.99143631,3.45750533 C3.05827356,3.45750533 2.30179569,2.6835164 2.30179569,1.72875267 C2.30179569,0.773988933 3.05827356,0 3.99143631,0 Z" id="Combined-Shape"></path>
                </g>
                <g id="man-talking" transform="translate(12.833333, 5.500000)" fill="#FFFFFF" fill-rule="nonzero">
                    <path d="M7.39983877,8.766186 L6.84409846,15.5085333 L1.24648615,15.5085333 L0.690989538,8.766186 L7.39983877,8.766186 Z M8.06061046,7.66799733 L8.06061046,8.56297933 L0.0299741538,8.56297933 L0.0299741538,7.66799733 L8.06061046,7.66799733 Z M3.60640246,3.54389933 L4.01446523,3.98247667 L4.43556554,3.548886 C5.93037415,4.053038 6.97325538,5.59329467 7.37144862,7.48498667 L7.37144862,7.48498667 L6.45723692,7.48498667 C6.41751508,6.82761933 6.21975877,5.77967133 5.38328492,5.45055133 C5.32760123,5.3295 5.20867938,5.249838 5.07318646,5.249838 L5.07318646,5.249838 L4.65172062,5.249838 C4.46249354,5.249838 4.30848,5.407292 4.30848,5.60089933 C4.30848,5.79450667 4.46224985,5.95208533 4.65172062,5.95208533 L4.65172062,5.95208533 L5.07318646,5.95208533 C5.11071508,5.95208533 5.14763446,5.945852 5.18345723,5.93301133 C5.53632369,6.07051867 5.75333169,6.59262267 5.74809231,6.57841067 C5.77380185,6.64435933 5.92586585,7.05426333 5.91611815,7.48498667 L5.91611815,7.48498667 L2.28522462,7.48498667 L2.28522462,6.71143 C2.208096,6.93495733 2.13535385,7.19214467 2.06651077,7.48498667 L2.06651077,7.48498667 L0.718892308,7.48498667 C1.19689477,4.59172267 3.39341538,3.59601 3.60225969,3.544772 C3.60372185,3.544398 3.60494031,3.544398 3.60640246,3.54389933 L3.60640246,3.54389933 Z M4.018608,4.04643067 L4.010688,4.04643067 L3.929904,4.59882867 L3.60335631,6.83322933 L4.010688,7.40382867 L4.018608,7.40382867 L4.42618338,6.83322933 L4.018608,4.04643067 Z M3.99143631,0 C4.92459905,0 5.68107692,0.773988933 5.68107692,1.72875267 C5.68107692,2.6835164 4.92459905,3.45750533 3.99143631,3.45750533 C3.05827356,3.45750533 2.30179569,2.6835164 2.30179569,1.72875267 C2.30179569,0.773988933 3.05827356,0 3.99143631,0 Z" id="Combined-Shape"></path>
                </g>
                <path d="M14.3,3.3 L13.5666667,3.3 L13.5666667,6.6 L8.8,6.6 L8.8,7.33333333 C8.8,7.535 8.965,7.7 9.16666667,7.7 L13.2,7.7 L14.6666667,9.16666667 L14.6666667,3.66666667 C14.6666667,3.465 14.5016667,3.3 14.3,3.3 Z M12.8333333,5.5 L12.8333333,2.2 C12.8333333,1.99833333 12.6683333,1.83333333 12.4666667,1.83333333 L7.7,1.83333333 C7.49833333,1.83333333 7.33333333,1.99833333 7.33333333,2.2 L7.33333333,7.33333333 L8.8,5.86666667 L12.4666667,5.86666667 C12.6683333,5.86666667 12.8333333,5.70166667 12.8333333,5.5 Z" id="icon/communication/forum_24px" fill="#FFFFFF" fill-rule="nonzero"></path>
            </g>
        </g>
    </g>
</svg>