<?xml version="1.0" encoding="UTF-8"?>
<svg width="24px" height="24px" viewBox="0 0 24 24" version="1.1" xmlns="http://www.w3.org/2000/svg" xmlns:xlink="http://www.w3.org/1999/xlink">
    <!-- Generator: Sketch 61 (89581) - https://sketch.com -->
    <title>Elections</title>
    <desc>Created with Sketch.</desc>
    <g id="Elections" stroke="none" stroke-width="1" fill="none" fill-rule="evenodd">
        <path d="M14.5097561,7.89738259 L13.4412935,8.76358676 L5.64721758,8.76358676 L3.1014517,19.2643706 L20.3355356,19.2643706 L17.9324556,9.35098496 L18.673109,8.72931652 L21.4371475,20.1307349 L2,20.1307349 L4.96581645,7.89738259 L14.5097561,7.89738259 Z M9.17865302,14.4458797 L8.69534664,17.3154512 L5.16711403,17.3154512 L5.77132707,14.4458797 L9.17865302,14.4458797 Z M8.36417448,15.134327 L6.33022013,15.134327 L6.01602294,16.6266836 L8.11291282,16.6266836 L8.36417448,15.134327 Z M11.9237948,10.6558161 L13.5013465,12.5237039 L10.8724673,13.1609061 L11.9237948,10.6558161 Z M9.8233818,10.4135223 L9.81393346,10.4690914 L8.79047056,11.0633756 L7.1366916,11.0633756 L6.84027009,12.4711776 L8.81801486,12.4711776 L8.88719589,12.0607355 L9.61840096,11.6310765 L9.36745958,13.1205505 L6.03956371,13.1205505 L6.60934637,10.4135223 L9.8233818,10.4135223 Z M9.97823841,10.58087 L10.4040541,10.934622 L8.11563522,12.2791682 L7.31685053,11.4345831 L7.77117134,11.1581793 L8.22789426,11.5972867 L9.97823841,10.58087 Z M19.0311849,4.55091033 L20.7083445,6.53634188 L18.5779851,8.33600955 L17.7418875,9.04239272 L17.7391651,9.04479484 L13.9364504,12.2572289 L12.2589705,10.2713169 L19.0311849,4.55091033 Z M20.0980461,3.64947508 C20.3654821,3.42383602 20.7650345,3.45746569 20.9906736,3.72458134 L20.9906736,3.72458134 L21.8504721,4.74243929 C22.0761112,5.00955494 22.0426416,5.40926757 21.7753659,5.63522691 L21.7753659,5.63522691 L21.0343922,6.26105902 L19.3572326,4.27546733 Z" id="Combined-Shape" fill="#FFFFFF" fill-rule="nonzero"></path>
    </g>
</svg>