<?xml version="1.0" encoding="UTF-8"?>
<svg width="24px" height="24px" viewBox="0 0 24 24" version="1.1" xmlns="http://www.w3.org/2000/svg" xmlns:xlink="http://www.w3.org/1999/xlink">
    <!-- Generator: Sketch 61 (89581) - https://sketch.com -->
    <title>Offices Held</title>
    <desc>Created with Sketch.</desc>
    <g id="Offices-2" stroke="none" stroke-width="1" fill="none" fill-rule="evenodd">
        <g id="capitol-building" transform="translate(3.900000, 2.000000)" fill="#FFFFFF">
            <path d="M4.67759559,12.5852522 C4.67035651,12.6749268 4.66666667,12.7656039 4.66666667,12.8571429 C4.66666667,13.4783581 4.83660106,14.0598831 5.13251989,14.5577678 L5.13296296,18.6414815 L6.04148148,18.6414815 L6.04124094,15.5545393 C6.47756519,15.8719301 6.99386201,16.0860336 7.55420644,16.1609248 L7.55518519,18.6414815 L8.46333333,18.6414815 L8.46283751,16.158602 C9.02476971,16.0805441 9.54189427,15.862402 9.97780533,15.5405816 L9.97777778,18.6414815 L10.8859259,18.6414815 L10.885729,14.5266823 C11.1703746,14.0357447 11.3333333,13.4654743 11.3333333,12.8571429 C11.3333333,12.7656039 11.3296435,12.6749268 11.3224044,12.5852522 L15.362963,12.5851852 C15.6622222,12.5851852 15.9037037,12.8285185 15.9037037,13.1259259 C15.9037037,13.3959259 15.7081037,13.6179259 15.4508237,13.6596259 L15.362963,13.6666667 L14.8222222,13.6666667 L14.8222222,18.6414815 L15.362963,18.6414815 C15.6622222,18.6414815 15.9037037,18.8851852 15.9037037,19.1818519 C15.9037037,19.4521852 15.7081037,19.6739185 15.4508237,19.7155619 L15.362963,19.7225926 L0.655925926,19.7225926 C0.357407407,19.7225926 0.115185185,19.4822222 0.115185185,19.1818519 C0.115185185,18.9141852 0.311385185,18.6906185 0.568245185,18.6485819 L0.655925926,18.6414815 L1.19666667,18.6414815 L1.19666667,13.6666667 L0.655925926,13.6666667 C0.357407407,13.6666667 0.115185185,13.4259259 0.115185185,13.1259259 C0.115185185,12.8582593 0.311385185,12.6343926 0.568245185,12.5922959 L0.655925926,12.5851852 Z M13.3081481,13.6666667 L12.4,13.6666667 L12.4,18.6414815 L13.3081481,18.6414815 L13.3081481,13.6666667 Z M3.61851852,13.6666667 L2.71037037,13.6666667 L2.71037037,18.6414815 L3.61851852,18.6414815 L3.61851852,13.6666667 Z M13.8518519,8.54296296 C14.1511111,8.54296296 14.3925926,8.78481481 14.3925926,9.0837037 C14.3925926,9.35337037 14.1969926,9.57563704 13.9397126,9.6173937 L13.8518519,9.62444444 L13.307037,9.62444444 L13.3092593,9.63449074 L13.3114815,9.64592593 L13.3114815,11.98 L12.23,11.98 L12.23,9.64592593 L12.232037,9.63601852 L12.2340741,9.62444444 L11.7203704,9.62444444 L11.7225926,9.63449074 L11.7248148,9.64592593 L11.7248148,11.98 L11.2167024,11.9799263 C11.101468,11.5563723 10.9048124,11.1663669 10.644587,10.8277612 L10.6433333,9.64592593 L10.6455556,9.63601852 L10.6477778,9.62444444 L10.1340741,9.62444444 L10.1361111,9.63449074 L10.1381481,9.64592593 L10.1382391,10.2998827 C9.82212716,10.0352851 9.45622099,9.82820952 9.05661935,9.69475477 L9.05666667,9.64592593 L9.05888889,9.63601852 L9.06111111,9.62444444 L8.81353402,9.62379322 C8.55315666,9.55848795 8.28062812,9.52380952 8,9.52380952 C7.71937188,9.52380952 7.44684334,9.55848795 7.18646598,9.62379322 L6.96111111,9.62444444 L6.96333333,9.63449074 L6.96555556,9.64592593 L6.96527181,9.68752851 C6.56607778,9.81776117 6.20001441,10.0213079 5.88298478,10.2822656 L5.88407407,9.64592593 L5.88611111,9.63601852 L5.88814815,9.62444444 L5.37444444,9.62444444 L5.37648148,9.63449074 L5.37851852,9.64592593 L5.37793801,10.7987819 C5.10652406,11.1440447 4.90183387,11.5442362 4.78329759,11.9799263 L4.29740741,11.98 L4.29740741,9.64592593 L4.29944444,9.63601852 L4.30148148,9.62444444 L3.78777778,9.62444444 L3.78981481,9.63449074 L3.79185185,9.64592593 L3.79185185,11.98 L2.71037037,11.98 L2.71037037,9.64592593 L2.71259259,9.63601852 L2.71481481,9.62444444 L2.17,9.62444444 C1.87111111,9.62444444 1.63259259,9.38185185 1.63259259,9.0837037 C1.63259259,8.8147037 1.82909259,8.5919037 2.08574259,8.5500337 L2.17333333,8.54296296 L13.8518519,8.54296296 Z M8.00925926,-1.687539e-14 C8.05398148,-1.687539e-14 8.0924537,0.0277083333 8.10889468,0.06640625 L8.11740741,0.108148148 L8.11740741,1.62222222 L8.87444444,1.62222222 L8.87444444,2.24074074 C11.113871,2.6167264 12.8659579,4.42490076 13.1539002,6.69282247 L13.1777778,6.92111111 L13.2,6.92111111 C13.4385185,6.92111111 13.6325926,7.11555556 13.6325926,7.35333333 C13.6325926,7.56567901 13.4792501,7.74232282 13.2776548,7.77895544 L13.2,7.78592593 L2.81851852,7.78592593 C2.58,7.78592593 2.3862963,7.59222222 2.3862963,7.35296296 C2.3862963,7.14160494 2.53934614,6.9644856 2.74087639,6.9277351 L2.81851852,6.92074074 L2.84037037,6.92074074 C3.03069295,4.6232497 4.71633291,2.7530913 6.92216353,2.28270688 L7.14444444,2.24037037 L7.14444444,1.62185185 L7.90111111,1.62185185 L7.90111111,0.108148148 C7.90111111,0.0492592593 7.94962963,-1.687539e-14 8.00925926,-1.687539e-14 Z" id="Combined-Shape" fill-rule="nonzero"></path>
            <path d="M6.49239424,13.487299 L6.2967371,14.6493562 C6.27003995,14.808259 6.33531995,14.9684419 6.46551424,15.0633448 C6.59589138,15.1582476 6.76887424,15.1708648 6.91131995,15.0964419 L7.95616567,14.550979 L9.00119424,15.0964419 C9.06336567,15.1286248 9.13047424,15.1445461 9.19758281,15.1445461 C9.2855371,15.1445461 9.37294281,15.1176533 9.44699995,15.0638933 C9.57755995,14.9688076 9.64247424,14.8086248 9.61595995,14.6499048 L9.42048567,13.4876648 L10.26236,12.6620648 C10.3773771,12.5492419 10.41852,12.3810133 10.3689657,12.2281448 C10.3192285,12.0749105 10.18684,11.962819 10.0275714,11.9395962 L8.86149138,11.7666133 L8.33632567,10.7111619 C8.26482852,10.5672533 8.11781138,10.4761905 7.95634852,10.4761905 C7.7956171,10.4761905 7.64823424,10.5672533 7.57655424,10.7111619 L7.0519371,11.7666133 L5.8858571,11.9395962 C5.72640567,11.962819 5.59438281,12.0749105 5.54464567,12.2281448 C5.49490852,12.3810133 5.53568567,12.5492419 5.65125138,12.6620648 L6.49239424,13.487299 Z" id="Combined-Shape"></path>
        </g>
    </g>
</svg>