<?xml version="1.0" encoding="UTF-8"?>
<svg width="24px" height="24px" viewBox="0 0 24 24" version="1.1" xmlns="http://www.w3.org/2000/svg" xmlns:xlink="http://www.w3.org/1999/xlink">
    <!-- Generator: Sketch 61 (89581) - https://sketch.com -->
    <title>Offices</title>
    <desc>Created with Sketch.</desc>
    <g id="Offices" stroke="none" stroke-width="1" fill="none" fill-rule="evenodd">
        <g id="capitol-building" transform="translate(3.900000, 2.000000)" fill="#FFFFFF" fill-rule="nonzero">
            <path d="M2.81851852,7.78592593 L13.2,7.78592593 C13.4385185,7.78592593 13.6325926,7.59222222 13.6325926,7.35333333 C13.6325926,7.11555556 13.4385185,6.92111111 13.2,6.92111111 L13.1777778,6.92111111 C12.9822222,4.54703704 11.1885185,2.62925926 8.87444444,2.24074074 L8.87444444,1.62222222 L8.11740741,1.62222222 L8.11740741,0.108148148 C8.11740741,0.0492592593 8.06888889,0 8.00925926,0 C7.94962963,0 7.90111111,0.0492592593 7.90111111,0.108148148 L7.90111111,1.62185185 L7.14444444,1.62185185 L7.14444444,2.24037037 C4.83037037,2.62888889 3.03703704,4.54666667 2.84037037,6.92074074 L2.81851852,6.92074074 C2.58,6.92074074 2.3862963,7.11518519 2.3862963,7.35296296 C2.3862963,7.59222222 2.58,7.78592593 2.81851852,7.78592593 Z" id="Path"></path>
            <path d="M15.362963,18.6414815 L14.8222222,18.6414815 L14.8222222,13.6666667 L15.362963,13.6666667 C15.6622222,13.6666667 15.9037037,13.4259259 15.9037037,13.1259259 C15.9037037,12.8285185 15.6622222,12.5851852 15.362963,12.5851852 L0.655925926,12.5851852 C0.357407407,12.5851852 0.115185185,12.8285185 0.115185185,13.1259259 C0.115185185,13.4259259 0.357407407,13.6666667 0.655925926,13.6666667 L1.19666667,13.6666667 L1.19666667,18.6414815 L0.655925926,18.6414815 C0.357407407,18.6414815 0.115185185,18.8844444 0.115185185,19.1818519 C0.115185185,19.4822222 0.357407407,19.7225926 0.655925926,19.7225926 L15.362963,19.7225926 C15.6622222,19.7225926 15.9037037,19.4822222 15.9037037,19.1818519 C15.9037037,18.8851852 15.6622222,18.6414815 15.362963,18.6414815 Z M13.3081481,18.6414815 L12.4,18.6414815 L12.4,13.6666667 L13.3081481,13.6666667 L13.3081481,18.6414815 L13.3081481,18.6414815 Z M7.55518519,13.6666667 L8.46333333,13.6666667 L8.46333333,18.6414815 L7.55518519,18.6414815 L7.55518519,13.6666667 Z M6.04148148,18.6414815 L5.13296296,18.6414815 L5.13296296,13.6666667 L6.04148148,13.6666667 L6.04148148,18.6414815 Z M9.97777778,13.6666667 L10.8859259,13.6666667 L10.8859259,18.6414815 L9.97777778,18.6414815 L9.97777778,13.6666667 Z M2.71037037,13.6666667 L3.61851852,13.6666667 L3.61851852,18.6414815 L2.71037037,18.6414815 L2.71037037,13.6666667 Z" id="Shape"></path>
            <path d="M2.17,9.62444444 L2.71481481,9.62444444 C2.71481481,9.63259259 2.71037037,9.64 2.71037037,9.64592593 L2.71037037,11.98 L3.79185185,11.98 L3.79185185,9.64592593 C3.79185185,9.63814815 3.78777778,9.63037037 3.78777778,9.62444444 L4.30148148,9.62444444 C4.30148148,9.63259259 4.29740741,9.64 4.29740741,9.64592593 L4.29740741,11.98 L5.37851852,11.98 L5.37851852,9.64592593 C5.37851852,9.63814815 5.37444444,9.63037037 5.37444444,9.62444444 L5.88814815,9.62444444 C5.88814815,9.63259259 5.88407407,9.64 5.88407407,9.64592593 L5.88407407,11.98 L6.96555556,11.98 L6.96555556,9.64592593 C6.96555556,9.63814815 6.96111111,9.63037037 6.96111111,9.62444444 L7.47481481,9.62444444 C7.47481481,9.63259259 7.47037037,9.64 7.47037037,9.64592593 L7.47037037,11.98 L8.55185185,11.98 L8.55185185,9.64592593 C8.55185185,9.63814815 8.54740741,9.63037037 8.54740741,9.62444444 L9.06111111,9.62444444 C9.06111111,9.63259259 9.05666667,9.64 9.05666667,9.64592593 L9.05666667,11.98 L10.1381481,11.98 L10.1381481,9.64592593 C10.1381481,9.63814815 10.1340741,9.63037037 10.1340741,9.62444444 L10.6477778,9.62444444 C10.6477778,9.63259259 10.6433333,9.64 10.6433333,9.64592593 L10.6433333,11.98 L11.7248148,11.98 L11.7248148,9.64592593 C11.7248148,9.63814815 11.7203704,9.63037037 11.7203704,9.62444444 L12.2340741,9.62444444 C12.2340741,9.63259259 12.23,9.64 12.23,9.64592593 L12.23,11.98 L13.3114815,11.98 L13.3114815,9.64592593 C13.3114815,9.63814815 13.307037,9.63037037 13.307037,9.62444444 L13.8518519,9.62444444 C14.1511111,9.62444444 14.3925926,9.38333333 14.3925926,9.0837037 C14.3925926,8.78481481 14.1511111,8.54296296 13.8518519,8.54296296 L2.17333333,8.54296296 C1.87518519,8.54296296 1.63259259,8.78481481 1.63259259,9.0837037 C1.63259259,9.38185185 1.87111111,9.62444444 2.17,9.62444444 Z" id="Path"></path>
        </g>
    </g>
</svg>