<?xml version="1.0" encoding="UTF-8"?>
<svg width="24px" height="24px" viewBox="0 0 24 24" version="1.1" xmlns="http://www.w3.org/2000/svg" xmlns:xlink="http://www.w3.org/1999/xlink">
    <!-- Generator: Sketch 61 (89581) - https://sketch.com -->
    <title>Opinions</title>
    <desc>Created with Sketch.</desc>
    <g id="Opinions" stroke="none" stroke-width="1" fill="none" fill-rule="evenodd">
        <path d="M20,2 C21.1,2 22,2.9 22,4 L22,4 L22,16 C22,17.1 21.1,18 20,18 L20,18 L6,18 L2,22 L2,4 C2,2.9 2.9,2 4,2 L4,2 Z M9.39,8.33333333 L7.19666667,10.53 C7.07333333,10.65 7,10.8166667 7,11 L7,14.3333333 C7,14.7 7.3,15 7.66666667,15 L10.6666667,15 C10.9433333,15 11.18,14.8333333 11.28,14.5933333 L12.2866667,12.2433333 C12.3166667,12.1666667 12.3333333,12.0866667 12.3333333,12 L12.3333333,11.3333333 C12.3333333,10.9666667 12.0333333,10.6666667 11.6666667,10.6666667 L9.56333333,10.6666667 L9.88,9.14333333 L9.89,9.03666667 C9.89,8.9 9.83333333,8.77333333 9.74333333,8.68333333 L9.39,8.33333333 Z M6.33333333,11 L5,11 L5,15 L6.33333333,15 L6.33333333,11 Z M16.3333333,5 L13.3333333,5 C13.0566667,5 12.82,5.16666667 12.72,5.40666667 L11.7133333,7.75666667 C11.6833333,7.83333333 11.6666667,7.91333333 11.6666667,8 L11.6666667,8.66666667 C11.6666667,9.03333333 11.9666667,9.33333333 12.3333333,9.33333333 L14.4366667,9.33333333 L14.12,10.8566667 L14.11,10.9633333 C14.11,11.1 14.1666667,11.2266667 14.2566667,11.3166667 L14.61,11.6666667 L16.8033333,9.47 C16.9266667,9.35 17,9.18333333 17,9 L17,5.66666667 C17,5.3 16.7,5 16.3333333,5 Z M19,5 L17.6666667,5 L17.6666667,9 L19,9 L19,5 Z" id="positions-icon-20x20.svg" fill="#FFFFFF" fill-rule="nonzero"></path>
    </g>
</svg>