<?xml version="1.0" encoding="utf-8"?>
<!-- Svg Vector Icons : http://www.onlinewebfonts.com/icon -->
<!DOCTYPE svg PUBLIC "-//W3C//DTD SVG 1.1//EN" "http://www.w3.org/Graphics/SVG/1.1/DTD/svg11.dtd">
<svg version="1.1" xmlns="http://www.w3.org/2000/svg" xmlns:xlink="http://www.w3.org/1999/xlink" x="0px" y="0px" viewBox="0 0 1000 1000" enable-background="new 0 0 1000 1000" xml:space="preserve">
<metadata> Svg Vector Icons : http://www.onlinewebfonts.com/icon </metadata>
<g><g transform="translate(0.000000,511.000000) scale(0.100000,-0.100000)">
    <path fill="#FAFAFA" d="M5375,4979.8c-10.2-26.6,63.4-112.4,273.8-322.9l286.1-288.1l-288.1-288.1c-167.6-167.6-284.1-298.3-275.9-312.7c10.2-16.3,259.5-22.5,852.1-22.5h835.8l-4.1,629.4l-6.1,627.4l-829.7,6.1C5458.8,5012.5,5387.3,5010.5,5375,4979.8z"/>
    <path fill="#FAFAFA" d="M7242.8,4932.8c-14.3-26.6-20.4-717.3-20.4-2094.6V782.4l77.7-34.7c40.9-18.4,81.7-38.8,92-42.9c8.2-4.1,14.3,944.1,14.3,2104.8c0,1616.4-6.1,2119.1-24.5,2137.5C7345,4983.9,7267.3,4975.7,7242.8,4932.8z"/>
    <path fill="#FAFAFA" d="M4177.5,3651.5c-302.4-110.3-470-353.5-470-680.5c0-143,8.2-175.7,73.6-304.5c79.7-161.4,181.9-259.5,347.4-335.1c141-63.3,406.7-65.4,545.6,0c218.7,98.1,355.6,261.6,414.8,494.5c28.6,112.4,30.7,153.3,10.2,263.6c-44.9,239.1-181.9,427.1-386.2,527.2C4569.8,3686.3,4320.5,3702.6,4177.5,3651.5z"/>
    <path fill="#FAFAFA" d="M4167.3,2157.7c-108.3-14.3-284-69.5-349.4-110.4c-71.5-42.9-1144.4-1215.9-1193.4-1301.7c-18.4-34.7-28.6-112.4-30.7-208.4V383.9l343.3-688.7c371.9-745.9,380.1-756.1,555.8-782.7c114.4-16.3,249.3,55.2,312.7,163.5c77.7,134.9,59.3,198.2-228.9,778.6c-141,288.1-257.5,531.3-257.5,543.6c0,10.2,126.7,157.3,282,327l280,306.5l6.1-1234.3l4.1-1234.3l-194.1-672.3l-194.1-672.3l-149.2-245.2c-83.8-136.9-284.1-461.8-445.5-725.5c-282-461.8-292.2-484.3-300.4-606.9c-8.2-104.2,0-143,38.8-210.5c130.8-235,465.9-277.9,643.7-79.7c38.8,40.9,882.8,1403.9,942.1,1518.3c12.3,22.5,102.2,320.8,200.3,664.2s183.9,629.4,188,639.6c4.1,8.2,210.5-245.2,457.7-562l447.5-578.3l151.2-470c83.8-257.5,200.3-621.2,259.5-807.2c96-302.4,116.5-345.4,190.1-421c141-143,314.7-163.5,496.6-57.2c112.4,65.4,200.3,235,183.9,355.6c-12.3,102.2-517,1681.8-568.1,1777.9c-20.4,38.8-220.7,304.5-445.5,588.5l-410.7,515v705v703l886.9,6.1c860.3,6.1,888.9,8.2,944.1,49.1c92,67.4,136.9,143,145.1,247.3c10.2,110.4-36.8,200.3-143,280c-55.2,40.9-83.8,42.9-819.5,49l-760.2,6.1l-22.5,55.2c-73.6,183.9-568.1,1312-594.7,1359C4933.6,2116.8,4526.9,2204.7,4167.3,2157.7z"/>
    </g></g>
</svg>