<?xml version="1.0" encoding="UTF-8"?>
<svg width="24px" height="24px" viewBox="0 0 24 24" version="1.1" xmlns="http://www.w3.org/2000/svg" xmlns:xlink="http://www.w3.org/1999/xlink">
    <!-- Generator: Sketch 61 (89581) - https://sketch.com -->
    <title>Voter Guides</title>
    <desc>Created with Sketch.</desc>
    <g id="Voter-Guides" stroke="none" stroke-width="1" fill="none" fill-rule="evenodd">
        <path d="M3.7578125,10.2421875 C6.72277344,10.2421875 9.15351563,10.8442969 11.4140625,12.1403906 L11.4140625,12.1403906 L11.4140625,22 C9.16367187,20.5658594 6.76175781,19.6171875 3.7578125,19.6171875 C3.43394531,19.6171875 3.171875,19.3551172 3.171875,19.03125 L3.171875,19.03125 L3.171875,18.4453125 C4.46449219,18.4453125 5.515625,17.3941797 5.515625,16.1015625 L5.515625,16.1015625 L5.515625,13.7578125 C5.515625,12.4651953 4.46449219,11.4140625 3.171875,11.4140625 L3.171875,11.4140625 L3.171875,10.828125 C3.171875,10.5042578 3.43394531,10.2421875 3.7578125,10.2421875 Z M20.2421875,10.2421875 C20.5660547,10.2421875 20.828125,10.5042578 20.828125,10.828125 L20.828125,10.828125 L20.828125,11.4140625 C19.5355078,11.4140625 18.484375,12.4651953 18.484375,13.7578125 L18.484375,13.7578125 L18.484375,16.1015625 C18.484375,17.3941797 19.5355078,18.4453125 20.828125,18.4453125 L20.828125,18.4453125 L20.828125,19.03125 C20.828125,19.3551172 20.5660547,19.6171875 20.2421875,19.6171875 C17.2382422,19.6171875 14.8363281,20.5658594 12.5859375,22 L12.5859375,22 L12.5859375,12.1403906 C14.8464844,10.8442969 17.2772266,10.2421875 20.2421875,10.2421875 Z M20.828125,12.5859375 C21.4753516,12.5859375 22,13.1105859 22,13.7578125 L22,13.7578125 L22,16.1015625 C22,16.7487109 21.4753516,17.2734375 20.828125,17.2734375 C20.1808984,17.2734375 19.65625,16.7487109 19.65625,16.1015625 L19.65625,16.1015625 L19.65625,13.7578125 C19.65625,13.1105859 20.1808984,12.5859375 20.828125,12.5859375 Z M3.171875,12.5859375 C3.81910156,12.5859375 4.34375,13.1105859 4.34375,13.7578125 L4.34375,13.7578125 L4.34375,16.1015625 C4.34375,16.7487109 3.81910156,17.2734375 3.171875,17.2734375 C2.52464844,17.2734375 2,16.7487109 2,16.1015625 L2,16.1015625 L2,13.7578125 C2,13.1105859 2.52464844,12.5859375 3.171875,12.5859375 Z M13.171875,9.0703125 C13.9983594,9.0703125 14.7969922,9.28394531 15.5230469,9.64738281 C14.2898828,9.98011719 13.1288281,10.4593359 12,11.1072266 C10.8712109,10.4593359 9.71011719,9.98011719 8.47695312,9.64738281 C9.20300781,9.28394531 10.0016406,9.0703125 10.828125,9.0703125 L10.828125,9.0703125 Z M12,2 C13.9386328,2 15.515625,3.61605469 15.515625,5.5546875 C15.515625,7.49332031 13.9386328,9.0703125 12,9.0703125 C10.0613672,9.0703125 8.484375,7.49332031 8.484375,5.5546875 C8.484375,3.61605469 10.0613672,2 12,2 Z" fill="#FFFFFF" fill-rule="nonzero"></path>
    </g>
</svg>