<svg xmlns="http://www.w3.org/2000/svg" width="24" height="24" viewBox="0 0 24 24">
  <path fill-rule="evenodd" d="M18.364 4c.348 0 .636.275.636.607v15.786c0 .332-.288.607-.636.607H5.636C5.288 21 5 20.725 5 20.393V4.607C5 4.275 5.288 4 5.636 4h12.728zM10.09 6.732v.607c0 .171.14.304.318.304h.636a.307.307 0 0 0 .319-.304v-.607c0-.17-.14-.304-.319-.304h-.636a.307.307 0 0 0-.318.304zm0 2.429v.607c0 .17.14.303.318.303h.636a.307.307 0 0 0 .319-.303V9.16a.308.308 0 0 0-.319-.304h-.636a.307.307 0 0 0-.318.304zm0 2.428v.607c0 .171.14.304.318.304h.636a.307.307 0 0 0 .319-.304v-.607c0-.17-.14-.303-.319-.303h-.636a.307.307 0 0 0-.318.303zm0 2.429v.607c0 .17.14.303.318.303h.636a.307.307 0 0 0 .319-.303v-.607c0-.17-.14-.304-.319-.304h-.636a.307.307 0 0 0-.318.304zm-1.273 3.035v-.607a.307.307 0 0 0-.318-.303h-.636a.307.307 0 0 0-.319.303v.607c0 .171.14.304.319.304H8.5a.307.307 0 0 0 .318-.303zm0-2.428v-.607a.308.308 0 0 0-.318-.304h-.636a.307.307 0 0 0-.319.304v.607c0 .17.14.303.319.303H8.5a.307.307 0 0 0 .318-.303zm0-2.429v-.607a.307.307 0 0 0-.318-.303h-.636a.307.307 0 0 0-.319.303v.607c0 .171.14.304.319.304H8.5a.307.307 0 0 0 .318-.304zm0-2.428V9.16a.307.307 0 0 0-.318-.304h-.636a.307.307 0 0 0-.319.304v.607c0 .17.14.303.319.303H8.5a.307.307 0 0 0 .318-.303zm0-2.429v-.607a.308.308 0 0 0-.318-.304h-.636a.307.307 0 0 0-.319.304v.607c0 .171.14.304.319.304H8.5a.307.307 0 0 0 .318-.304zm5.091 12.143v-1.821a.308.308 0 0 0-.318-.304h-3.182a.307.307 0 0 0-.318.304v1.821c0 .17.14.304.318.304h3.182a.307.307 0 0 0 .318-.304zm0-4.857v-.607c0-.17-.14-.304-.318-.304h-.636a.307.307 0 0 0-.319.304v.607c0 .17.14.303.319.303h.636a.307.307 0 0 0 .318-.303zm0-2.429v-.607c0-.17-.14-.303-.318-.303h-.636a.307.307 0 0 0-.319.303v.607c0 .171.14.304.319.304h.636a.307.307 0 0 0 .318-.304zm0-2.428V9.16a.308.308 0 0 0-.318-.304h-.636a.307.307 0 0 0-.319.304v.607c0 .17.14.303.319.303h.636a.307.307 0 0 0 .318-.303zm0-2.429v-.607c0-.17-.14-.304-.318-.304h-.636a.307.307 0 0 0-.319.304v.607c0 .171.14.304.319.304h.636a.307.307 0 0 0 .318-.304zm2.546 9.714v-.607c0-.17-.14-.303-.319-.303H15.5a.307.307 0 0 0-.318.303v.607c0 .171.139.304.318.304h.636a.307.307 0 0 0 .319-.303zm0-2.428v-.607c0-.17-.14-.304-.319-.304H15.5a.307.307 0 0 0-.318.304v.607c0 .17.139.303.318.303h.636a.307.307 0 0 0 .319-.303zm0-2.429v-.607c0-.17-.14-.303-.319-.303H15.5a.307.307 0 0 0-.318.303v.607c0 .171.139.304.318.304h.636a.307.307 0 0 0 .319-.304zm0-2.428V9.16a.308.308 0 0 0-.319-.304H15.5a.307.307 0 0 0-.318.304v.607c0 .17.139.303.318.303h.636a.307.307 0 0 0 .319-.303zm0-2.429v-.607c0-.17-.14-.304-.319-.304H15.5a.307.307 0 0 0-.318.304v.607c0 .171.139.304.318.304h.636a.307.307 0 0 0 .319-.304z"/>
</svg>
