<svg xmlns="http://www.w3.org/2000/svg" width="24" height="24" viewBox="0 0 24 24">
  <path fill-rule="evenodd" d="M15.863 13.398l.714.714c.272.283.487.544.646.782.204.295.346.584.425.867.102.34.125.68.068 1.02-.113.408-.3.754-.561 1.037a1.979 1.979 0 0 1-1.105.629c-.113.023-.312.023-.595 0a22.843 22.843 0 0 1-.893-.11 19.582 19.582 0 0 0-1.147-.128c-.465-.045-.89-.068-1.275-.068h-.136c-.385 0-.81.023-1.275.068a19.29 19.29 0 0 0-1.147.128c-.46.062-.757.099-.893.11-.283.023-.482.023-.595 0-.442-.09-.81-.3-1.105-.629a2.487 2.487 0 0 1-.561-1.037 2.293 2.293 0 0 1 .187-1.309c.147-.34.391-.708.731-1.105.125-.136.436-.459.935-.969.26-.295.555-.64.884-1.037l.884-1.02c.397-.476.805-.788 1.224-.935a.548.548 0 0 1 .238-.068c.136-.023.329-.034.578-.034.25 0 .43.011.544.034.068 0 .147.023.238.068.42.147.827.459 1.224.935l1.768 2.057zm-.238-3.791c0-.317.08-.612.238-.884.159-.272.374-.49.646-.655a1.68 1.68 0 0 1 .884-.246c.317 0 .61.082.875.247.267.164.48.382.638.654.159.272.238.567.238.884 0 .317-.08.61-.238.876a1.856 1.856 0 0 1-.646.646 1.664 1.664 0 0 1-.876.246c-.311 0-.6-.08-.867-.238a1.856 1.856 0 0 1-.646-.646 1.679 1.679 0 0 1-.246-.884zm-3.179-2.856c0-.317.08-.61.238-.876a1.81 1.81 0 0 1 .638-.637c.266-.159.558-.238.875-.238a1.787 1.787 0 0 1 1.53.875 1.77 1.77 0 0 1 0 1.768 1.812 1.812 0 0 1-.646.663 1.68 1.68 0 0 1-.884.247c-.317 0-.61-.082-.875-.247a1.835 1.835 0 0 1-.638-.662 1.77 1.77 0 0 1-.238-.893zm-4.25 0c0-.317.08-.61.238-.876a1.81 1.81 0 0 1 .638-.637C9.338 5.079 9.63 5 9.947 5a1.787 1.787 0 0 1 1.53.875 1.77 1.77 0 0 1 0 1.768 1.812 1.812 0 0 1-.646.663 1.68 1.68 0 0 1-.884.247c-.317 0-.61-.082-.875-.247a1.835 1.835 0 0 1-.638-.662 1.77 1.77 0 0 1-.238-.893zM5 9.607c0-.317.08-.612.238-.884.159-.272.374-.49.646-.655a1.68 1.68 0 0 1 .884-.246c.317 0 .61.082.876.247.266.164.478.382.637.654.159.272.238.567.238.884 0 .317-.08.61-.238.876a1.856 1.856 0 0 1-.646.646 1.664 1.664 0 0 1-.875.246c-.312 0-.601-.08-.867-.238a1.856 1.856 0 0 1-.646-.646A1.679 1.679 0 0 1 5 9.607z"/>
</svg>
