<svg xmlns="http://www.w3.org/2000/svg" width="24" height="24" viewBox="0 0 24 24">
  <path fill-rule="evenodd" d="M17.82 18.84c.52 0 1.007-.13 1.46-.39.453-.26.813-.613 1.08-1.06.267-.446.4-.93.4-1.45 0-.52-.133-1.007-.4-1.46a3.005 3.005 0 0 0-1.08-1.08c-.453-.267-.94-.4-1.46-.4s-1 .133-1.44.4c-.44.267-.79.627-1.05 1.08-.26.453-.39.94-.39 1.46s.13 1.004.39 1.45c.26.447.61.8 1.05 1.06.44.26.92.39 1.44.39zm0-7.08a4.08 4.08 0 0 1 2.11.56 4.21 4.21 0 0 1 1.51 1.51c.373.634.56 1.337.56 2.11 0 .774-.187 1.473-.56 2.1a4.149 4.149 0 0 1-3.62 2.04 4.08 4.08 0 0 1-2.1-.55 4.094 4.094 0 0 1-1.49-1.49 4.077 4.077 0 0 1-.55-2.1 4.156 4.156 0 0 1 2.04-3.62 4.03 4.03 0 0 1 2.1-.56zm-2.88-5.44c-.453 0-.847-.16-1.18-.48-.333-.32-.5-.707-.5-1.16 0-.453.167-.847.5-1.18.333-.333.723-.5 1.17-.5.447 0 .833.17 1.16.51.327.34.49.73.49 1.17 0 .44-.163.823-.49 1.15-.327.327-.71.49-1.15.49zm-3.96 4.18l1.84 1.92v5.16h-1.64v-4.14l-2.7-2.34c-.306-.213-.46-.607-.46-1.18 0-.467.154-.853.46-1.16l2.34-2.36c.213-.307.607-.46 1.18-.46.253 0 .487.037.7.11.213.073.42.19.62.35L14.94 8c.813.84 1.8 1.26 2.96 1.26v1.68c-1.64 0-3.047-.587-4.22-1.76l-.66-.66-2.04 1.98zm-4.8 8.34c.52 0 1.003-.13 1.45-.39.447-.26.8-.613 1.06-1.06.26-.446.39-.93.39-1.45 0-.52-.13-1.007-.39-1.46a2.944 2.944 0 0 0-1.06-1.08c-.447-.267-.93-.4-1.45-.4-.52 0-1.003.133-1.45.4a3.026 3.026 0 0 0-1.07 1.08c-.267.453-.4.94-.4 1.46s.133 1.004.4 1.45c.267.447.623.8 1.07 1.06.447.26.93.39 1.45.39zm0-7.08a4.03 4.03 0 0 1 2.1.56 4.156 4.156 0 0 1 2.04 3.62c0 .774-.183 1.473-.55 2.1a4.094 4.094 0 0 1-1.49 1.49 4.08 4.08 0 0 1-2.1.55 4.149 4.149 0 0 1-3.62-2.04 4.027 4.027 0 0 1-.56-2.1c0-.773.187-1.476.56-2.11a4.21 4.21 0 0 1 1.51-1.51 4.08 4.08 0 0 1 2.11-.56z"/>
</svg>
