<svg xmlns="http://www.w3.org/2000/svg" width="24" height="24" viewBox="0 0 24 24">
  <g fill="none" fill-rule="evenodd">
    <path fill="#000" d="M9.051 13H6.899a.498.498 0 0 1-.869 0H4.737l.502 1.457a.5.5 0 0 1-.946.326l-.618-1.795c-.396-.047-.767-.228-1.114-.543A1.62 1.62 0 0 1 2 11.197c0-.463.17-.895.51-1.295.34-.401.765-.632 1.274-.694l.255-.046a2.58 2.58 0 0 1 .459-.046V8.098c0-.832.331-1.557.994-2.173A3.36 3.36 0 0 1 7.862 5c.816 0 1.513.216 2.09.647.579.401.97 1.018 1.173 1.85l.153.694.765-.093h.306c.714 0 1.334.255 1.86.763.528.509.791 1.087.791 1.734 0 .648-.263 1.21-.79 1.688a2.68 2.68 0 0 1-1.861.717h-.567l1.209 3.51c.078.228-.07.486-.33.576-.262.09-.537-.023-.616-.251L10.725 13h-.93a.498.498 0 0 1 .1.172l.543 1.576a.5.5 0 1 1-.945.325l-.543-1.576A.5.5 0 0 1 9.051 13zm-1.72 1.124l1.098 3.191a.5.5 0 0 1-.945.326L6.385 14.45a.5.5 0 0 1 .946-.326zm-1.554 3.58a.5.5 0 0 1 .636.31l.65 1.891a.5.5 0 0 1-.945.326l-.65-1.891a.5.5 0 0 1 .31-.636zm6.645.827a.5.5 0 0 1 .636.31l.65 1.891a.5.5 0 0 1-.945.326l-.651-1.891a.5.5 0 0 1 .31-.636zm-2.362-1.013a.5.5 0 0 1 .636.31l.651 1.891a.5.5 0 0 1-.945.326l-.652-1.891a.5.5 0 0 1 .31-.636z"/>
    <path fill="#000" fill-rule="nonzero" d="M17.5 9v4.987l-.167.15a2.5 2.5 0 1 0 3.333 0l-.166-.15V7a1.5 1.5 0 0 0-3 0v1h2v1h-2zm5 7a3.5 3.5 0 1 1-6-2.45V7a2.5 2.5 0 1 1 5 0v6.55c.635.648 1 1.52 1 2.45zM18 14.268V10h2v4.268a2 2 0 1 1-2 0z"/>
  </g>
</svg>
