<svg xmlns="http://www.w3.org/2000/svg" width="24" height="24" viewBox="0 0 24 24">
  <path fill-rule="evenodd" d="M17.488 10c-.407 0-.756-.146-1.049-.438A1.444 1.444 0 0 1 16 8.5c0-.417.146-.77.439-1.063A1.434 1.434 0 0 1 17.488 7c.423 0 .78.146 1.073.438.293.291.439.645.439 1.062 0 .417-.146.77-.439 1.063-.293.291-.65.437-1.073.437zm-5.476 0c-.423 0-.78-.146-1.073-.438A1.444 1.444 0 0 1 10.5 8.5c0-.417.146-.77.439-1.063.293-.291.65-.437 1.073-.437.407 0 .756.146 1.049.438.293.291.439.645.439 1.062 0 .417-.146.77-.439 1.063a1.434 1.434 0 0 1-1.049.437zm-2.65 2.46c.907-.307 1.777-.46 2.61-.46.834 0 1.713.153 2.64.46.925.306 1.388.717 1.388 1.233V16H8v-2.306c0-.517.454-.928 1.361-1.234zm7.17-.46c1.04 0 2.046.124 3.015.372.969.248 1.453.646 1.453 1.194V16h-4v-2.434c0-.371-.073-.659-.219-.863-.146-.203-.406-.429-.781-.676.146-.018.323-.027.531-.027zm-9.02-2c-.423 0-.78-.146-1.073-.438A1.444 1.444 0 0 1 6 8.5c0-.417.146-.77.439-1.063.293-.291.65-.437 1.073-.437.407 0 .756.146 1.049.438.293.291.439.645.439 1.062 0 .417-.146.77-.439 1.063A1.434 1.434 0 0 1 7.512 10zm-.043 2c.208 0 .385.009.531.027-.375.247-.635.473-.781.677-.146.203-.219.49-.219.862V16H3v-2.434c0-.548.484-.947 1.453-1.194A12.121 12.121 0 0 1 7.47 12z"/>
</svg>
