<svg xmlns="http://www.w3.org/2000/svg" width="24" height="24" viewBox="0 0 24 24">
  <path fill-rule="evenodd" d="M17.573 15.594l.35.084c.045.012.077.049.077.09v2.107c0 .052-.047.094-.105.094h-3.922c-.068 0-.12.054-.11.115.02.123.024.249.012.376a1.61 1.61 0 0 1-.658 1.142 2.01 2.01 0 0 1-1.371.392 1.953 1.953 0 0 1-1.28-.587 1.552 1.552 0 0 1-.427-1.325c.01-.06-.043-.113-.111-.113H6.105c-.058 0-.105-.043-.105-.094v-2.117c0-.044.033-.081.08-.092l.343-.07c.147-.044 2.149-.708 2.149-4.754 0-.616.434-1.136 1.224-1.463.59-.244 1.37-.379 2.2-.379 1.708 0 3.432.57 3.432 1.842 0 4.117 2.123 4.747 2.145 4.752zm-7.844-4.752c0 .088 0 .174-.002.259 0 .036.032.066.072.066h4.402c.04 0 .073-.03.072-.066a14.363 14.363 0 0 1-.003-.26c0-.438-1.042-.809-2.275-.809-.653 0-1.277.104-1.712.283-.252.105-.554.28-.554.527zm2.968 7.655a.586.586 0 0 0-.051-.466.132.132 0 0 0-.116-.063h-1.06a.132.132 0 0 0-.116.062.588.588 0 0 0 .094.709.75.75 0 0 0 .492.226.768.768 0 0 0 .617-.23.596.596 0 0 0 .14-.238zm4.072-1.561h-4.403a.141.141 0 0 1-.13-.078l-.798-1.72v-1.35c0-.05-.045-.09-.101-.09h-.979c-.055 0-.1.04-.1.09v1.51l.706 1.523c.026.055-.019.115-.085.115H7.23c-.04 0-.072-.029-.072-.064v-.409c0-.023.014-.044.037-.056.718-.364 2.05-1.382 2.43-4.021.005-.032.035-.057.072-.057h4.606c.037 0 .067.024.072.057.381 2.639 1.712 3.657 2.43 4.021a.063.063 0 0 1 .037.056v.409c0 .035-.033.064-.073.064zm-2.352-12.25c-.013.074.035.143.1.143h3.239c.056 0 .102.053.102.119v5.361c0 .066-.046.12-.102.12h-1.981c-.046 0-.086-.036-.098-.088l-.095-.396c-.317-1.337-1.717-2.168-3.652-2.168-.862 0-1.681.185-2.305.522-.703.38-1.165.95-1.335 1.65l-.096.393c-.013.05-.053.086-.098.086H6.102c-.057 0-.102-.053-.102-.119V4.948c0-.066.045-.12.102-.119h3.24c.064 0 .112-.069.1-.142l-.095-.544c-.013-.074.036-.143.1-.143h4.964c.065 0 .113.069.1.142l-.095.544zm-5.27 2.42a4.86 4.86 0 0 1 .607-.273c.032-.012.052-.05.045-.089l-.094-.536c-.006-.036-.034-.063-.065-.063H7.2c-.037 0-.067.036-.067.078v2.812c0 .042.03.077.067.077h.107c.026 0 .05-.017.06-.045a3.863 3.863 0 0 1 1.78-1.962zm3.806-.644l.182-1.053c.008-.047-.023-.092-.065-.092h-2.281c-.043 0-.074.045-.066.093l.183 1.056c.007.04.039.066.073.062a7.037 7.037 0 0 1 1.9-.005c.035.005.066-.022.074-.061zm3.704 2.65c.037 0 .067-.035.067-.078V6.222c0-.042-.03-.077-.067-.077h-2.44c-.032 0-.059.026-.065.062l-.092.528c-.007.04.013.077.045.09 1.144.424 1.992 1.202 2.404 2.242.01.027.034.045.06.045h.088z"/>
</svg>
