<svg xmlns="http://www.w3.org/2000/svg" width="24" height="24" viewBox="0 0 24 24">
  <path fill-rule="evenodd" d="M21.488 8.057c.658.787.683 1.705.067 2.458-.235.287-.494.426-.793.426-.153 0-.31-.037-.484-.112a97.673 97.673 0 0 0-2.23-.93l-.635-.26a4.17 4.17 0 0 0-.084.167l-.296.624c-.465.976-.945 1.986-1.407 2.983l-.039.087H3.923v-1.597l-.572.85L2 11.813l2.114-3.26c.318-.531.73-.758 1.374-.758h.037l7.804-.002h.016c.31 0 .506-.083.72-.306l2.214-2.19a.877.877 0 0 0 .196-.415c.097-.505.142-.827.125-1.316-.016-.414.066-.717.247-.9a.545.545 0 0 1 .388-.166c.237 0 .45.159.553.416.131.328.247.603.37.894.078.184.158.372.242.577l.043-.028c.33-.206.64-.4.963-.581l.03-.017c.15-.084.376-.211.604-.211.149 0 .284.054.38.152.337.342.03.926-.036 1.04a8.945 8.945 0 0 1-.62.902l-.12.161.44.542c.458.563.93 1.145 1.404 1.71zm-13.95 2.565a.2.2 0 0 0 .075-.226.208.208 0 0 0-.198-.14H6.68l-.227-.678a.208.208 0 0 0-.199-.14c-.09 0-.17.057-.198.14l-.227.678h-.734a.209.209 0 0 0-.199.14.2.2 0 0 0 .076.226l.594.419-.227.678a.2.2 0 0 0 .076.226.214.214 0 0 0 .245 0l.594-.418.594.418a.212.212 0 0 0 .245 0 .199.199 0 0 0 .076-.226l-.227-.678.595-.419zm3.819 0a.2.2 0 0 0 .075-.226.208.208 0 0 0-.198-.14H10.5l-.227-.678a.208.208 0 0 0-.199-.14c-.09 0-.17.057-.198.14l-.227.678h-.734a.21.21 0 0 0-.199.14.2.2 0 0 0 .076.226l.594.419-.227.678a.2.2 0 0 0 .076.226.214.214 0 0 0 .245 0l.594-.418.594.418a.213.213 0 0 0 .246 0 .2.2 0 0 0 .076-.226l-.227-.678.594-.419zm3.687 0l-.593.419.227.678a.2.2 0 0 1-.076.226.212.212 0 0 1-.246 0l-.594-.418-.593.418a.214.214 0 0 1-.246 0 .2.2 0 0 1-.076-.226l.227-.678-.594-.419a.2.2 0 0 1-.075-.226.208.208 0 0 1 .198-.14h.734l.227-.678a.208.208 0 0 1 .198-.14.21.21 0 0 1 .199.14l.227.678h.734c.09 0 .17.056.199.14a.2.2 0 0 1-.077.226zM4 19.5v-5h11v4.997h-2.75V16.35H6.848v3.15H4z"/>
</svg>
