<svg xmlns="http://www.w3.org/2000/svg" width="24" height="24" viewBox="0 0 24 24">
  <path fill-rule="evenodd" d="M5.483 17.11l-1.437 1.082L2 15.039l10.443-7.826.335.447 2.625-1.839.215.299.745-.612 1.18.716 1.526-1.254-.67-1.134L19.416 3l.67 1.134 1.019-.836.67 1.133-4.634 3.807.183.254-2.364 2.08.013.019-.27.207-.16.14-.007-.012-1.598 1.227c.387.268.948.61 1.684 1.028a18.9 18.9 0 0 0 3.804 1.26l-.928 2.047c-2.223-.513-4.258-1.271-6.018-2.215a6.067 6.067 0 0 1-.657-.497l-.095.073-1.182.203-1.636 1.232 1.194 5.868-2.696.586-.925-4.628zm3.6-4.842l2.175-1.624-.385-.661-2.175 1.624.385.661z"/>
</svg>
