<svg xmlns="http://www.w3.org/2000/svg" width="24" height="24" viewBox="0 0 24 24">
  <g fill="none" fill-rule="evenodd">
    <path fill="#000" d="M18.286 13.333v-.338c0-.327-.13-.611-.387-.854a1.282 1.282 0 0 0-.908-.363c-.348 0-.647.12-.9.363a1.148 1.148 0 0 0-.377.854v.338h2.572zm.869 0a.84.84 0 0 1 .598.234.753.753 0 0 1 .247.569v3.099a.704.704 0 0 1-.247.541.86.86 0 0 1-.598.224h-4.31a.86.86 0 0 1-.598-.224.704.704 0 0 1-.247-.541v-3.099c0-.224.082-.414.247-.57a.84.84 0 0 1 .598-.233v-.373c0-.348.097-.672.289-.97.192-.3.454-.539.784-.72.33-.18.687-.27 1.072-.27s.742.09 1.072.27c.33.181.594.42.794.72.199.298.299.622.299.97v.373z"/>
    <path fill="#000" d="M3.314 14.261l1.413-3.674c.594-1.478-1.433-1.739-1.433-1.739-.45-.24 0-.5 0-.5.47.108.82-.521.82-.521l.265-.588c.143-.347.184-.391.02-1.065-.163-.674.359-.641.45-.544.093.099.38.25.595.022.215-.228.757-.217.757-.217L6.406 5h.226l.225.435h3.972v.13h8.314v-.217h.164c.02-.174.143-.305.143-.305.676 0 .819.544.819.544h.533c.306.587-.022 1.24-.022 1.24h-.593v1.76h-1.25l-.101.283h-3.113c-2.908 0-2.396 2.587-2.396 2.587-2.19 1.065-3.563.391-3.563.391-1.085-.239-1.29.74-1.29.74l-.737 3.109c-.061.543.026.868.026.868l-.002.045h.002v.439s.017.237-.293.2l-3.435-.306a.471.471 0 0 1-.41.25c-.264 0-.478-.228-.478-.508 0-.055.01-.098.026-.135H3.07c-.246-1.458.245-2.289.245-2.289zm1.342-8.568c-.086 0-.156.075-.156.166 0 .092.07.166.156.166a.162.162 0 0 0 .157-.166.162.162 0 0 0-.157-.166zm4.33 5.133c.062.392.45.61.45.61 1.33.473 2.183.34 2.857.125.823-.263.768-1.105.768-1.105 0-1.152-1.126-1.13-1.126-1.13h-.922c-.512 1.304.737 1.892.737 1.892.165.043 0 .174 0 .174-.757-.022-1.371-1.327-1.371-1.327l.02-.543-.286-.196c-1.127 0-1.188 1.109-1.127 1.5zm-5.671 5.86c0 .18.139.328.31.328.171 0 .31-.147.31-.329a.35.35 0 0 0-.025-.13l-.568-.004a.35.35 0 0 0-.027.134z"/>
  </g>
</svg>
