<svg xmlns="http://www.w3.org/2000/svg" width="24" height="24" viewBox="0 0 24 24">
  <path fill-rule="evenodd" d="M18 7c.6 0 1.157.154 1.67.46.513.307.923.717 1.23 1.23.307.514.46 1.07.46 1.67v5H3V7h1.68v5.86h6.68V7H18zM8 12a2.41 2.41 0 0 1-1.24-.34 2.536 2.536 0 0 1-.92-.92c-.227-.386-.34-.8-.34-1.24 0-.44.113-.853.34-1.24.227-.386.534-.693.92-.92C7.147 7.114 7.56 7 8 7c.44 0 .854.114 1.24.34.387.227.693.534.92.92.227.387.34.8.34 1.24 0 .44-.113.854-.34 1.24a2.529 2.529 0 0 1-.92.92c-.386.227-.8.34-1.24.34z"/>
</svg>
