<svg xmlns="http://www.w3.org/2000/svg" width="24" height="24" viewBox="0 0 24 24">
  <path d="M19.5 5.09c.562.308.65 1.152.266 2.577a15.45 15.45 0 0 1-.616 1.789c-.018.16-.078.655-.191 1.171-.211.973-.476 1.455-.858 1.566a.355.355 0 0 1-.072.012l-.465.026c.49.52 1.07 1.351 1.002 2.337-.075 1.11-.944 2.1-2.582 2.943a1.498 1.498 0 0 1-.69.174c-.746 0-1.474-.58-2.16-1.722a8.65 8.65 0 0 1-.134-.23v1.245c0 .564-.449 1.022-1 1.022-.552 0-1-.458-1-1.022v-1.244a8.78 8.78 0 0 1-.133.23c-.688 1.141-1.415 1.721-2.161 1.721a1.49 1.49 0 0 1-.69-.174c-1.638-.842-2.507-1.832-2.583-2.943-.067-.986.512-1.818 1.003-2.337l-.465-.026a.352.352 0 0 1-.072-.012c-.382-.11-.647-.593-.858-1.566a12.476 12.476 0 0 1-.191-1.171 15.387 15.387 0 0 1-.616-1.789c-.383-1.425-.296-2.269.265-2.578A.772.772 0 0 1 4.876 5c.855 0 2.414 1.136 3.587 2.2 1.054.956 1.942 1.964 2.54 2.87a1.04 1.04 0 0 1 .22-.552l-.83-1.206a.346.346 0 0 1 .082-.475.329.329 0 0 1 .464.083l.853 1.24a.983.983 0 0 1 .416 0l.853-1.24a.33.33 0 0 1 .464-.083c.15.108.187.32.081.475l-.83 1.206c.122.153.202.343.22.551.6-.905 1.486-1.913 2.541-2.869C16.71 6.136 18.27 5 19.123 5c.144 0 .27.03.377.09zM15.471 15a.468.468 0 0 0-.471.464c0 .256.21.465.471.465.26 0 .47-.208.47-.465a.467.467 0 0 0-.47-.464zm0-3a.467.467 0 0 0-.471.465c0 .255.21.464.47.464s.471-.209.471-.464a.467.467 0 0 0-.47-.465zm-1 1a.467.467 0 0 0-.471.465c0 .255.211.464.47.464.26 0 .471-.209.471-.464a.467.467 0 0 0-.47-.465zm-6-1a.467.467 0 0 0-.471.465c0 .255.21.464.47.464s.471-.209.471-.464a.467.467 0 0 0-.47-.465zm1 1a.467.467 0 0 0-.471.465c0 .255.21.464.47.464s.471-.209.471-.464a.467.467 0 0 0-.47-.465zm-1 2c-.26 0-.471.208-.471.464s.21.465.47.465.471-.208.471-.465a.467.467 0 0 0-.47-.464zm7.47-6a.936.936 0 0 0-.941.928c0 .513.422.93.941.93a.936.936 0 0 0 .941-.93.936.936 0 0 0-.94-.928zm-8 0A.936.936 0 0 0 7 9.928c0 .513.422.93.941.93a.936.936 0 0 0 .941-.93A.936.936 0 0 0 7.941 9z"/>
</svg>
