<svg xmlns="http://www.w3.org/2000/svg" width="24" height="24" viewBox="0 0 24 24"><defs><style>.cls-1{fill:#fff;}.cls-2{fill:none;}</style></defs><g id="Layer_2" data-name="Layer 2"><g id="Layer_1-2" data-name="Layer 1"><path d="M7.19,0a3,3,0,0,0-3,3A3,3,0,0,0,5.32,5.39a3,3,0,0,0,1.87.66,3,3,0,0,0,1.86-.66A3,3,0,0,0,10.21,3,3,3,0,0,0,7.19,0Z"/><path d="M12.33,8.89a2.7,2.7,0,0,0,0-.28c0-1.32-1.12-2.46-2.75-3a3.5,3.5,0,0,1-4.86,0C3.13,6.15,2,7.29,2,8.61a2.7,2.7,0,0,0,0,.28Z"/><polygon class="cls-1" points="8.29 16.3 8.29 16.3 8.51 16.08 8.29 16.3"/><polygon class="cls-1" points="9.65 14.86 10.87 12.8 8.9 14.11 8.61 12.23 8.07 14.32 8.22 14.35 8.57 12.97 8.79 14.37 10.4 13.29 9.4 14.97 10.75 15.18 9.36 15.53 9.39 15.67 11.51 15.14 9.65 14.86"/><polygon class="cls-1" points="5.72 20.07 5.5 18.68 3.89 19.75 4.88 18.07 3.54 17.87 4.93 17.52 4.93 17.52 4.89 17.37 2.78 17.9 4.64 18.19 3.42 20.25 5.39 18.93 5.68 20.81 6.22 18.73 6.07 18.69 5.72 20.07"/><polygon class="cls-2" points="5.93 18.65 5.75 19.33 5.61 18.42 4.36 19.26 5.13 17.96 4.3 17.83 4.97 17.66 4.93 17.52 4.89 17.37 2.78 17.9 4.64 18.19 3.42 20.25 5.39 18.93 5.68 20.81 6.22 18.73 6.07 18.69 5.93 18.65"/><path class="cls-2" d="M6.39,14.84l-.2-.21h.07a.65.65,0,0,1,.53.17l.73.73h0L8,15.09l-.73-.73a1.26,1.26,0,0,0-1-.35,1.29,1.29,0,0,0-.51.14L4.14,12.59a.64.64,0,0,0-.92,0,.66.66,0,0,0-.19.46.64.64,0,0,0,.19.45l1.53,1.54a1.67,1.67,0,0,0-.19.61,1.27,1.27,0,0,0,.36,1l.72.73L6.07,17h0l-.73-.73a.65.65,0,0,1-.17-.53.73.73,0,0,1,0-.2l.25.26a.67.67,0,0,0,.46.18.62.62,0,0,0,.44-.18l0,0A.63.63,0,0,0,6.39,14.84Z"/><polygon class="cls-2" points="10.87 12.8 8.9 14.11 8.61 12.23 8.07 14.32 8.22 14.35 8.36 14.39 8.54 13.71 8.68 14.62 9.93 13.79 9.16 15.09 9.99 15.21 9.32 15.38 9.36 15.53 9.39 15.67 11.51 15.14 9.65 14.86 10.87 12.8"/><path class="cls-2" d="M9.67,18.12a1.34,1.34,0,0,0-.22-1.52l-.73-.73-.21.21-.22.22L9,17a.67.67,0,0,1,.16.6l-.27-.27a.65.65,0,0,0-.92.92l.31.32a.71.71,0,0,1-.72-.13l-.73-.73h0l-.43.43.73.73a1.25,1.25,0,0,0,.9.36,1.58,1.58,0,0,0,.72-.19l1.47,1.47a.67.67,0,0,0,.91,0l0,0a.65.65,0,0,0,0-.91Z"/><path d="M1.49,11.5l.66,9.87H12.4L13,11.5ZM6.21,14a1.26,1.26,0,0,1,1,.35l.73.73-.43.43h0l-.73-.73a.65.65,0,0,0-.53-.17H6.19l-.25-.24-.24-.24A1.29,1.29,0,0,1,6.21,14Zm-.53,6.8-.29-1.88-2,1.32,1.22-2.06L2.78,17.9l2.11-.53,0,.15,0,.15-.67.16.83.13-.77,1.3,1.25-.84.14.91.18-.68.14,0,.15,0Zm-.34-4.57.73.73h0l-.43.43-.72-.73a1.27,1.27,0,0,1-.36-1,1.67,1.67,0,0,1,.19-.61l.22.22.25.24a.73.73,0,0,0,0,.2A.65.65,0,0,0,5.34,16.24Zm.92-.63,0,0a.45.45,0,0,1-.63,0l-.31-.32-.22-.21-.21-.21L3.36,13.37a.4.4,0,0,1-.13-.31A.46.46,0,0,1,4,12.73l1.53,1.52.22.22.22.22.29.29A.45.45,0,0,1,6.26,15.61Zm1.79,3.65a1.25,1.25,0,0,1-.9-.36l-.73-.73.43-.43h0l.73.73a.71.71,0,0,0,.72.13l.25.24.22.23A1.58,1.58,0,0,1,8.05,19.26Zm3,1.12,0,0a.45.45,0,0,1-.63,0L9,19l-.24-.23-.21-.21-.37-.38A.4.4,0,0,1,8,17.83a.44.44,0,0,1,.13-.32.45.45,0,0,1,.65,0l.34.34.23.23.21.21L11,19.75A.45.45,0,0,1,11,20.38ZM8.29,16.3l.22-.22.21-.21.73.73a1.34,1.34,0,0,1,.22,1.52l-.24-.25-.25-.24A.67.67,0,0,0,9,17Zm1.1-.63,0-.14,0-.15.67-.17-.83-.12.77-1.3-1.25.83-.14-.91-.18.68-.14,0-.15,0,.54-2.09.29,1.88,2-1.31L9.65,14.86l1.86.28Z"/><rect y="9.39" width="14.45" height="1.53"/></g></g></svg>
