<svg xmlns="http://www.w3.org/2000/svg" width="24" height="24" viewBox="0 0 24 24">
  <g fill="none" fill-rule="evenodd">
    <path fill="#000" d="M11.582 23l-.08-1.309-.068-1.058c-.04-.585-.08-1.17-.118-1.755l-.067-1.037-.098-1.483-.09-1.407c-.025-.396-.055-.792-.08-1.188-.004-.075-.039-.09-.099-.09-.233.001-.467-.003-.7.002-.097.002-.137-.031-.13-.138.006-.109-.004-.219.002-.328.005-.095-.025-.129-.117-.127-.267.005-.535-.002-.803.004-.105.003-.136-.037-.134-.146.006-.262.002-.525.002-.788 0-.15.001-.15.144-.15h5.437c.103 0 .206.002.31-.002.072-.003.107.023.107.105-.002.288-.002.577 0 .865 0 .083-.033.116-.112.115-.278-.003-.556-.001-.834 0-.033 0-.067.004-.105.006 0 .155-.003.3 0 .445.003.102-.035.142-.134.14-.233-.006-.466 0-.7-.004-.078 0-.107.027-.112.113-.038.64-.08 1.28-.122 1.92l-.166 2.562c-.041.633-.08 1.265-.123 1.898l-.159 2.355-.027.48h-.824zm-.464-16.854l-.014-.043c-.035-.002-.071-.013-.104-.005-.185.046-.374.083-.553.15-.825.307-1.421.872-1.776 1.7a.414.414 0 0 0 .235.558c.12.049.123.035.183-.083.058-.11.132-.221.223-.302.095-.084.137-.05.215.055.072.097.159.19.257.258.086.06.142.02.178-.08a.57.57 0 0 1 .261-.328c.075-.04.124-.026.177.056.068.104.157.2.254.277.076.062.121.026.127-.076.006-.092.01-.185.024-.276.08-.541.245-1.045.62-1.454a.298.298 0 0 0 .064-.149c.005-.033-.016-.087-.042-.104-.024-.016-.075-.006-.106.01-.05.028-.092.073-.142.102-.103.06-.205.123-.315.166-.067.026-.162.04-.198-.055-.033-.086.009-.163.083-.209.07-.043.148-.075.222-.11.042-.02.084-.04.127-.058zM17 3.647c-.033.197-.062.395-.1.59a6.655 6.655 0 0 1-.49 1.517 6.795 6.795 0 0 1-.917 1.491c-.596.73-1.297 1.333-2.14 1.74-.374.181-.769.317-1.154.473l-.088.035.003.03c.086-.003.173-.001.258-.014.587-.086 1.125-.315 1.639-.61a6.936 6.936 0 0 0 1.664-1.322c.444-.485.816-1.018 1.002-1.669.005-.02.018-.039.042-.09.032.07.058.115.073.163.084.26.08.528.042.793-.11.745-.453 1.378-.923 1.943-.605.729-1.364 1.237-2.215 1.61-.638.28-1.3.47-1.983.586a.22.22 0 0 0-.12.055c1.607.067 2.922-.628 4.12-1.69 0 .064.006.11-.002.152-.113.595-.426 1.067-.872 1.446-.666.566-1.45.858-2.29 1.015-.46.086-.924.124-1.39.103-.725-.033-1.427-.166-2.06-.561a2.01 2.01 0 0 1-.805-.96 3.585 3.585 0 0 1-.28-1.726c.036-.402.156-.784.356-1.135.556-.978 1.389-1.578 2.445-1.86a2.42 2.42 0 0 1 .535-.058.28.28 0 0 1 .283.188c.026.066.069.071.13.06a1.26 1.26 0 0 1 .622.02c.243.072.389.297.342.53-.013.064-.034.101-.11.069-.323-.141-.601-.04-.848.181-.36.322-.511.754-.592 1.22-.01.055-.017.11-.023.165-.009.079.021.115.1.09.419-.139.845-.257 1.254-.42.613-.246 1.159-.618 1.658-1.057a6.994 6.994 0 0 0 1.479-1.846c.41-.728.709-1.5.877-2.323.039-.189.06-.38.088-.571h.065c.148.196.249.415.287.661l.038.23v.756z"/>
    <path fill="#000" d="M11.118 6.146l-.014-.043c-.035-.002-.071-.013-.104-.005-.185.046-.374.083-.553.15-.825.307-1.421.872-1.776 1.7a.414.414 0 0 0 .235.558c.12.049.123.035.183-.083.058-.11.132-.221.223-.302.095-.084.137-.05.215.055.072.097.159.19.257.258.086.06.142.02.178-.08a.57.57 0 0 1 .261-.328c.075-.04.124-.026.177.056.068.104.157.2.254.277.076.062.121.026.127-.076.006-.092.01-.185.024-.276.08-.541.245-1.045.62-1.454a.298.298 0 0 0 .064-.149c.005-.033-.016-.087-.042-.104-.024-.016-.075-.006-.106.01-.05.028-.092.073-.142.102-.103.06-.205.123-.315.166-.067.026-.162.04-.198-.055-.033-.086.009-.163.083-.209.07-.043.148-.075.222-.11.042-.02.084-.04.127-.058zM17 3.647c-.033.197-.062.395-.1.59a6.655 6.655 0 0 1-.49 1.517 6.795 6.795 0 0 1-.917 1.491c-.596.73-1.297 1.333-2.14 1.74-.374.181-.769.317-1.154.473l-.088.035.003.03c.086-.003.173-.001.258-.014.587-.086 1.125-.315 1.639-.61a6.936 6.936 0 0 0 1.664-1.322c.444-.485.816-1.018 1.002-1.669.005-.02.018-.039.042-.09.032.07.058.115.073.163.084.26.08.528.042.793-.11.745-.453 1.378-.923 1.943-.605.729-1.364 1.237-2.215 1.61-.638.28-1.3.47-1.983.586a.22.22 0 0 0-.12.055c1.607.067 2.922-.628 4.12-1.69 0 .064.006.11-.002.152-.113.595-.426 1.067-.872 1.446-.666.566-1.45.858-2.29 1.015-.46.086-.924.124-1.39.103-.725-.033-1.427-.166-2.06-.561a2.01 2.01 0 0 1-.805-.96 3.585 3.585 0 0 1-.28-1.726c.036-.402.156-.784.356-1.135.556-.978 1.389-1.578 2.445-1.86a2.42 2.42 0 0 1 .535-.058.28.28 0 0 1 .283.188c.026.066.069.071.13.06a1.26 1.26 0 0 1 .622.02c.243.072.389.297.342.53-.013.064-.034.101-.11.069-.323-.141-.601-.04-.848.181-.36.322-.511.754-.592 1.22-.01.055-.017.11-.023.165-.009.079.021.115.1.09.419-.139.845-.257 1.254-.42.613-.246 1.159-.618 1.658-1.057a6.994 6.994 0 0 0 1.479-1.846c.41-.728.709-1.5.877-2.323.039-.189.06-.38.088-.571h.065c.148.196.249.415.287.661l.038.23v.756z"/>
  </g>
</svg>
