<?xml version="1.0" encoding="UTF-8"?>
<svg id="Layer_2" data-name="Layer 2" xmlns="http://www.w3.org/2000/svg" viewBox="0 0 20.66 18.82">
  <g id="Layer_1-2" data-name="Layer 1">
    <g>
      <path d="m20.51,16.22c-.12-.23-.32-.4-.55-.53,0-.17-.01-.4-.03-.65-.03-2.71-.14-10.76-.62-12.22-.5-1.52-1.11-2.26-8.14-2.32,0,0,0,0,0,0,0-.27-.42-.5-.94-.5s-.94.22-.94.5c0,0,0,0,0,0C2.26.56,1.65,1.3,1.15,2.82c-.53,1.64-.62,11.6-.62,12.96-.16.12-.29.27-.38.44-.16.31-.19.66-.09.99l.23.7c.22.67.97,1.06,1.67.85,5.48-1.61,11.27-1.61,16.74,0h0c.13.04.26.06.38.06.57,0,1.1-.36,1.29-.91l.22-.69c.11-.33.08-.68-.09-.99Zm-4.28-12.49h1.28l1.47,9.59h-1.13l-.29-2.28h-1.42l-.29,2.28h-1.09l1.47-9.59Zm-3.31-.18c.64,0,1.08.59,1.38,1.22l-.59,1.34c-.2-.41-.42-.69-.79-.69-.62,0-1.08,1.16-1.08,3.08s.38,3.11,1.13,3.11c.18,0,.36-.1.46-.28v-1.66h-.69v-1.77h1.64v4.42c-.31.6-.87,1.16-1.48,1.16-1.21,0-2.17-1.68-2.17-4.92s.96-5.02,2.19-5.02Zm-5.25.18h1.28l1.47,9.59h-1.13l-.29-2.28h-1.42l-.29,2.28h-1.09l1.47-9.59Zm-5.4,0h1.12l.46,3.4.16,1.33h.03l.16-1.33.46-3.4h1.12v9.59h-.9v-2.97c0-1.08.09-3.42.14-4.45h-.02l-.36,2.57-.37,2.31h-.52l-.37-2.31-.34-2.57h-.02c.05,1.04.14,3.37.14,4.45v2.97h-.89V3.74Zm17.37,13.17l-.22.69c-.06.17-.25.26-.44.21-5.66-1.67-11.65-1.67-17.31,0-.19.05-.38-.04-.44-.21l-.23-.7c-.03-.08,0-.16.02-.21.05-.09.14-.17.25-.2,2.96-.87,6-1.31,9.04-1.31s6.08.44,9.04,1.31c.11.03.21.11.25.2.03.05.05.13.02.21Z"/>
      <path d="m17.24,8.47c-.12-.96-.26-2.08-.38-3.09h-.03c-.12,1.01-.25,2.13-.37,3.09l-.11.88h1l-.11-.88Z"/>
      <path d="m8.69,8.47c-.12-.96-.26-2.08-.38-3.09h-.03c-.12,1.01-.25,2.13-.37,3.09l-.11.88h1l-.11-.88Z"/>
    </g>
  </g>
</svg>