<svg xmlns="http://www.w3.org/2000/svg" width="24" height="24" viewBox="0 0 24 24">
  <path fill-rule="evenodd" d="M21 15.072c-.846-.335-4.644-.472-6.48.335.612-.394 3.618-3.131 4.95-7.543-.774.394-4.698 2.757-6.066 5.672 0 0 1.242-4.53-1.422-10.536C9.3 8.987 10.56 13.536 10.56 13.536c-1.368-2.915-5.292-5.278-6.066-5.672 1.35 4.412 4.338 7.15 4.986 7.563-1.8-.847-5.598-.67-6.48-.335 1.908 1.615 5.58 2.422 6.462 2.383-.954.335-3.546 1.634-3.744 2.324 3.024.216 5.292-1.32 6.048-1.93v2.855c0 .138.126.276.252.276s.252-.118.252-.276V17.87c.72.59 3.024 2.146 6.048 1.93-.198-.67-2.79-1.97-3.762-2.344.846.04 4.536-.788 6.444-2.383z"/>
</svg>
