<svg xmlns="http://www.w3.org/2000/svg" width="24" height="24" viewBox="0 0 24 24">
  <path fill-rule="evenodd" d="M16.522 15.762v-.286c.417-.168.79-.404 1.104-.694.503.327 1.008.684 1.516 1.07V5.293c-.413.314-.825.61-1.236.886a4.022 4.022 0 0 0-1.384-.717v-.057c1.017-.634 1.9-1.31 2.62-1.905.781 0 1.428.642 1.428 1.416v4.251c.793 0 1.43.63 1.43 1.417C22 11.37 21.363 12 20.57 12v4.25c0 .775-.647 1.417-1.428 1.417a24.589 24.589 0 0 0-2.62-1.905zm-5.519-2.187c-.303-.05-.61-.088-.923-.114-1.328.443-1.786 1.982-.915 2.868-.782 1.272.222 2.168 1.405 3.086-.691 1.352-3.57 1.374-4.597.433-.648-1.97-1.607-3.941-.826-6.432H3.785A1.783 1.783 0 0 1 2 11.647V9.52c0-.973.803-1.77 1.785-1.77h5.357c.75 0 1.48-.077 2.182-.212a3.102 3.102 0 0 0-.188 1.069c0 .141.006.276.017.405-.194.03-.388.056-.583.077v2.989c.359.039.717.093 1.074.162l-.401.527a1.19 1.19 0 0 0-.24.808zm4.52 1.148v1.073a.194.194 0 0 1-.197.197h-.828a.198.198 0 0 1-.197-.197v-1.073c-1.435-.203-2.22-1.062-2.25-1.099a.202.202 0 0 1-.013-.251l.631-.828a.2.2 0 0 1 .142-.073.164.164 0 0 1 .147.055c.012.006.871.828 1.957.828.601 0 1.251-.319 1.251-1.012 0-.589-.724-.878-1.552-1.209-1.104-.435-2.478-.987-2.478-2.527 0-1.128.883-2.061 2.165-2.306V5.197c0-.111.092-.197.197-.197h.828c.11 0 .196.086.196.197v1.079c1.245.141 1.908.816 1.932.841a.195.195 0 0 1 .031.233l-.497.895a.182.182 0 0 1-.14.098.2.2 0 0 1-.167-.043c-.006-.006-.748-.662-1.668-.662-.779 0-1.319.387-1.319.944 0 .651.748.939 1.62 1.277 1.128.435 2.404.932 2.404 2.41 0 1.252-.896 2.239-2.196 2.454z"/>
</svg>
