<svg xmlns="http://www.w3.org/2000/svg" width="24" height="24" viewBox="0 0 24 24">
  <path fill-rule="evenodd" d="M17.36 19.36c.346 0 .643-.12.89-.36.246-.24.37-.54.37-.9s-.12-.656-.36-.89a1.226 1.226 0 0 0-.89-.35c-.354 0-.65.12-.89.36a1.2 1.2 0 0 0-.36.88c0 .347.12.644.36.89.24.247.533.37.88.37zM14 4.36c1.213 0 2.333.3 3.36.9a6.53 6.53 0 0 1 2.4 2.38c.613 1.04.92 2.16.92 3.36H14V4.36zm-4.14 15c.346 0 .643-.12.89-.36.246-.24.37-.54.37-.9s-.12-.656-.36-.89a1.226 1.226 0 0 0-.89-.35c-.354 0-.65.12-.89.36a1.2 1.2 0 0 0-.36.88c0 .347.12.644.36.89.24.247.533.37.88.37zm10.44-5.32a7.167 7.167 0 0 1-1.02 1.88c.307.28.546.61.72.99.173.38.26.777.26 1.19 0 .533-.13 1.02-.39 1.46-.26.44-.614.79-1.06 1.05-.447.26-.93.39-1.45.39-.48 0-.93-.11-1.35-.33a2.957 2.957 0 0 1-1.04-.9 2.646 2.646 0 0 1-.49-1.27h-1.76a2.912 2.912 0 0 1-.96 1.78 2.748 2.748 0 0 1-1.9.72c-.52 0-1.007-.13-1.46-.39a2.876 2.876 0 0 1-1.07-1.05 2.815 2.815 0 0 1-.39-1.46c0-.533.14-1.03.42-1.49.28-.46.646-.816 1.1-1.07-.08-.12-.4-.766-.96-1.94l-.8-1.74H4.86v-1.68h2.9l.78 1.68h12.14c0 .747-.127 1.474-.38 2.18z"/>
</svg>
