<svg xmlns="http://www.w3.org/2000/svg" width="24" height="24" viewBox="0 0 24 24">
  <path d="M13 13.96V18h2a1 1 0 0 1 0 2h-2v2a1 1 0 0 1-2 0v-2H9a1 1 0 0 1 0-2h2v-3.024a1 1 0 0 1-.151-.178L9.2 12.333c-.079-.083-.141-.264-.188-.543a.85.85 0 0 1 1.459-.723l.475.474a.896.896 0 0 0 1.392-.158.62.62 0 0 0-.525-.95h-.072a.634.634 0 1 1 0-1.266h2.147a1.112 1.112 0 0 1 .785 1.9l-1.674 2.892zm.012-7.46a.5.5 0 0 1 .5-.5h.27a.5.5 0 0 1 .5.5v1.533a.5.5 0 0 1-.5.5h-.27a.5.5 0 0 1-.5-.5.5.5 0 0 1-.5.5h-.27a.5.5 0 0 1-.5-.5.5.5 0 0 1-.5.5h-.271a.5.5 0 0 1-.5-.5V9.3a.5.5 0 0 1-.5.5H9.7a.5.5 0 0 1-.5-.5V7.767a.5.5 0 0 1 .5-.5h.27a.5.5 0 0 1 .5.5V6.5a.5.5 0 0 1 .5-.5h.271a.5.5 0 0 1 .5.5.5.5 0 0 1 .5-.5h.27a.5.5 0 0 1 .5.5zm4.291 8.139a1.262 1.262 0 0 1-1.767 0 1.223 1.223 0 0 1 0-1.745 4.89 4.89 0 0 0 0-6.98 5.046 5.046 0 0 0-7.072 0 4.89 4.89 0 0 0 0 6.98 1.223 1.223 0 0 1 0 1.745 1.262 1.262 0 0 1-1.767 0 7.336 7.336 0 0 1 0-10.47c2.929-2.892 7.677-2.892 10.606 0a7.336 7.336 0 0 1 0 10.47z"/>
</svg>
