<svg xmlns="http://www.w3.org/2000/svg" width="24" height="24" viewBox="0 0 19.49 17.16"><defs><style>.cls-1{fill:none;}</style></defs><g id="Layer_2" data-name="Layer 2"><g id="Layer_1-2" data-name="Layer 1"><path class="cls-1" d="M17.05,13.46h-.58c-.17,0-.29.16-.29.37v.74a.33.33,0,0,0,.29.37h.58a.34.34,0,0,0,.29-.37v-.74A.33.33,0,0,0,17.05,13.46Z"/><path class="cls-1" d="M15.11,13.46H13.8a.33.33,0,0,0-.29.37V16a.33.33,0,0,0,.29.37h1.31A.33.33,0,0,0,15.4,16V13.83A.33.33,0,0,0,15.11,13.46Z"/><path d="M17.34,10.92V9.05H16.18v.89l-1.32-1.1a.79.79,0,0,0-1.06,0L9.37,12.62a.12.12,0,0,0,0,.09s0,0,0,0h1v3.82c0,.33.16.6.36.6H18c.2,0,.37-.27.37-.6V12.74h1.16ZM12.5,14.57a.34.34,0,0,1-.29.37h-.58a.33.33,0,0,1-.29-.37v-.74c0-.21.12-.37.29-.37h.58a.33.33,0,0,1,.29.37ZM15.4,16a.33.33,0,0,1-.29.37H13.8a.33.33,0,0,1-.29-.37V13.83a.33.33,0,0,1,.29-.37h1.31a.33.33,0,0,1,.29.37Zm1.94-1.47a.34.34,0,0,1-.29.37h-.58a.33.33,0,0,1-.29-.37v-.74c0-.21.12-.37.29-.37h.58a.33.33,0,0,1,.29.37Z"/><rect class="cls-1" x="1.83" y="7.94" width="1.73" height="1.73" rx="0.43"/><rect class="cls-1" x="1.83" y="11.39" width="1.73" height="1.73" rx="0.43"/><rect class="cls-1" x="4.34" y="7.94" width="1.73" height="1.73" rx="0.43"/><path class="cls-1" d="M6.44,6.49A2.09,2.09,0,1,0,4.36,4.41,2.09,2.09,0,0,0,6.44,6.49Zm-.26-2.3.23-1.67L6.7,4.18l0,0,1,.2-1.11.26a.35.35,0,0,1-.2.07H6.35v0a.33.33,0,0,1-.25-.32A.33.33,0,0,1,6.18,4.19Z"/><rect class="cls-1" x="9.4" y="7.94" width="1.73" height="1.73" rx="0.43"/><rect class="cls-1" x="6.89" y="7.94" width="1.73" height="1.73" rx="0.43"/><path class="cls-1" d="M7.45,11.39h-2c-.11,0-.2.19-.2.43v2.59c0,.25.09.43.2.43h2c.11,0,.2-.18.2-.43V11.82C7.65,11.58,7.56,11.39,7.45,11.39Z"/><path d="M9.41,13.24h0l-.53,0v-.5a.6.6,0,0,1,.21-.48l3.18-2.71v-3h.66L6.44,0,0,6.49H.65V15c0,.38.24.7.53.7H9.84V13.24Zm0-4.87a.43.43,0,0,1,.43-.43h.86a.42.42,0,0,1,.43.43v.87a.42.42,0,0,1-.43.43H9.83a.43.43,0,0,1-.43-.43Zm-3-6A2.09,2.09,0,1,1,4.36,4.41,2.1,2.1,0,0,1,6.44,2.32ZM3.55,12.69a.42.42,0,0,1-.43.43H2.26a.43.43,0,0,1-.43-.43v-.87a.43.43,0,0,1,.43-.43h.86a.42.42,0,0,1,.43.43Zm0-3.45a.42.42,0,0,1-.43.43H2.26a.43.43,0,0,1-.43-.43V8.37a.43.43,0,0,1,.43-.43h.86a.42.42,0,0,1,.43.43Zm.79,0V8.37a.42.42,0,0,1,.43-.43h.86a.43.43,0,0,1,.43.43v.87a.43.43,0,0,1-.43.43H4.77A.42.42,0,0,1,4.34,9.24Zm3.31,5.17c0,.25-.09.43-.2.43h-2c-.11,0-.2-.18-.2-.43V11.82c0-.24.09-.43.2-.43h2c.11,0,.2.19.2.43Zm1-5.17a.42.42,0,0,1-.43.43H7.32a.43.43,0,0,1-.43-.43V8.37a.43.43,0,0,1,.43-.43h.86a.42.42,0,0,1,.43.43Z"/><path d="M6.35,4.73v0h.09a.35.35,0,0,0,.2-.07l1.11-.26-1-.2,0,0L6.41,2.52,6.18,4.19a.33.33,0,0,0-.08.22A.33.33,0,0,0,6.35,4.73Z"/></g></g></svg>
