<svg xmlns="http://www.w3.org/2000/svg" width="24" height="24" viewBox="0 0 18 15"><g id="Layer_2" data-name="Layer 2"><g id="Layer_1-2" data-name="Layer 1"><path d="M14.68,0H5.48A.58.58,0,0,0,4.9.58v3c.13.23.32.53.45.73l1.54-.08h0a.5.5,0,0,1,.5.46l0,.28A.51.51,0,0,1,7,5.54L5,5.82H4.92V7.24a.57.57,0,0,0,.57.58H14.7a.57.57,0,0,0,.58-.58V.58A.61.61,0,0,0,14.68,0Z"/><path d="M2.63,2.71A1.12,1.12,0,1,0,1.51,1.59,1.12,1.12,0,0,0,2.63,2.71Z"/><path d="M4.24,10.67H4a.14.14,0,0,0-.11,0,1.47,1.47,0,0,1-1,.41,1.53,1.53,0,0,1-1-.41.17.17,0,0,0-.11,0H1.38a.5.5,0,0,0-.5.56L.69,13.14a.64.64,0,0,0,.42.55,7,7,0,0,0,3.47,0A.62.62,0,0,0,5,13.14l-.2-1.91A.58.58,0,0,0,4.24,10.67Z"/><path d="M2.8,8.45A1.16,1.16,0,1,0,4,9.61,1.16,1.16,0,0,0,2.8,8.45Z"/><path d="M9.4,10.67H9.11a.14.14,0,0,0-.11,0,1.49,1.49,0,0,1-1,.41,1.51,1.51,0,0,1-1-.41.17.17,0,0,0-.11,0H6.54a.49.49,0,0,0-.5.56l-.19,1.91a.61.61,0,0,0,.41.55A7,7,0,0,0,8,13.91a7,7,0,0,0,1.73-.22.59.59,0,0,0,.42-.55L10,11.23A.58.58,0,0,0,9.4,10.67Z"/><path d="M6.81,9.61A1.16,1.16,0,1,0,8,8.45,1.16,1.16,0,0,0,6.81,9.61Z"/><path d="M15.13,11.23a.59.59,0,0,0-.56-.56h-.29a.14.14,0,0,0-.11,0,1.47,1.47,0,0,1-1,.41,1.53,1.53,0,0,1-1-.41.17.17,0,0,0-.11,0h-.29a.5.5,0,0,0-.5.56L11,13.14a.64.64,0,0,0,.42.55,7,7,0,0,0,3.47,0,.59.59,0,0,0,.41-.55Z"/><path d="M12,9.61a1.16,1.16,0,1,0,1.15-1.16A1.16,1.16,0,0,0,12,9.61Z"/><path d="M1,5.37l.42-.87-.13,3a.35.35,0,0,0,.34.35H3.66A.34.34,0,0,0,4,7.53L3.9,4.31l.69.93.15.19A.2.2,0,0,0,5,5.51c.08,0,1.51-.19,2-.27A.2.2,0,0,0,7.12,5l0-.27c0-.1-.1-.18-.19-.16l-1.74.08s-.61-1-.69-1.12a3.82,3.82,0,0,0-.3-.42L4,3.05l-.58-.22a1.44,1.44,0,0,1-.82.24,1.6,1.6,0,0,1-.81-.24L1.24,3A.49.49,0,0,0,1,3.33L.26,5a.79.79,0,0,0-.08.3L0,7.31a.16.16,0,0,0,.13.16l.4,0a.16.16,0,0,0,.16-.13Z"/></g></g></svg>
