<svg xmlns="http://www.w3.org/2000/svg" width="24" height="24" viewBox="0 0 18 18"><g id="Layer_2" data-name="Layer 2"><g id="Layer_1-2" data-name="Layer 1"><path d="M15.19,4.49H11.57V1a1,1,0,0,0-1-1H5.7a1,1,0,0,0-1,1V4.49H1a1,1,0,0,0-1,1v4.81A1,1,0,0,0,1,11.4H4.67v3.46a1,1,0,0,0,1,1h4.84a1,1,0,0,0,1-1V11.4h3.62a1,1,0,0,0,1-1.05V5.54A1,1,0,0,0,15.19,4.49Zm-6.53,7.4v1a.16.16,0,0,1-.17.17H7.74a.17.17,0,0,1-.18-.17v-1a3.54,3.54,0,0,1-2-1,.18.18,0,0,1,0-.23l.57-.75a.21.21,0,0,1,.13-.07.15.15,0,0,1,.13.05,2.89,2.89,0,0,0,1.77.75c.55,0,1.14-.29,1.14-.91s-.66-.8-1.41-1.1c-1-.39-2.24-.89-2.24-2.29a2.23,2.23,0,0,1,2-2.09v-1a.17.17,0,0,1,.18-.17h.75a.16.16,0,0,1,.17.17v1A3,3,0,0,1,10.41,5a.17.17,0,0,1,0,.21L10,6a.14.14,0,0,1-.13.08.17.17,0,0,1-.15,0,2.48,2.48,0,0,0-1.51-.6c-.7,0-1.19.35-1.19.85s.68.85,1.46,1.16c1,.39,2.18.84,2.18,2.18A2.25,2.25,0,0,1,8.66,11.89Z"/></g></g></svg>
