<svg xmlns="http://www.w3.org/2000/svg" width="24" height="24" viewBox="0 0 24 24">
  <path fill-rule="evenodd" d="M12.872 5c2.964 0 5.45 2.13 6.128 5H3c.679-2.87 3.164-5 6.128-5h3.744zM8.417 7.643a.228.228 0 0 0 .077-.248.214.214 0 0 0-.202-.153h-.75l-.23-.743a.214.214 0 0 0-.203-.154.214.214 0 0 0-.203.154l-.231.743h-.75a.214.214 0 0 0-.202.153.227.227 0 0 0 .077.248l.606.459-.231.743a.227.227 0 0 0 .077.248.206.206 0 0 0 .25 0l.606-.459.607.46a.207.207 0 0 0 .25 0 .227.227 0 0 0 .077-.249l-.232-.743.607-.459zm3.897 0a.228.228 0 0 0 .077-.248.214.214 0 0 0-.202-.153h-.75l-.23-.743a.214.214 0 0 0-.203-.154.214.214 0 0 0-.203.154l-.231.743h-.75a.214.214 0 0 0-.202.153.228.228 0 0 0 .077.248l.606.459-.231.743a.227.227 0 0 0 .077.248.206.206 0 0 0 .25 0l.606-.459.606.46a.207.207 0 0 0 .25 0 .228.228 0 0 0 .078-.249l-.232-.743.607-.459zm3.762 0l-.606.459.232.743a.228.228 0 0 1-.077.248.207.207 0 0 1-.25 0l-.607-.459-.606.46a.206.206 0 0 1-.25 0 .227.227 0 0 1-.077-.249l.231-.743-.606-.459a.227.227 0 0 1-.077-.248.214.214 0 0 1 .203-.153h.749l.231-.743a.214.214 0 0 1 .203-.154c.092 0 .174.062.203.154l.23.743h.75c.092 0 .174.062.202.153a.229.229 0 0 1-.078.248zm4.884 6.297H23v3.27c0 1.538-1.25 2.79-2.785 2.79-1.523 0-2.716-1.226-2.716-2.79v-1.997a.654.654 0 0 0-.64-.677.68.68 0 0 0-.68.682v4.686h-3.242v-4.558H6.454v4.558H3v-8.478c0-.143.005-.285.015-.426h16.507c.01.141.015.283.015.426v2.514h.002v3.269c0 .37.232.746.676.746.41 0 .745-.335.745-.746v-3.27z"/>
</svg>
