<svg width="20" height="60" viewBox="0 0 20 60" fill="none" xmlns="http://www.w3.org/2000/svg">
<path d="M7.21762 24.8446H13.0655L16.0786 15.2014C16.5023 13.8467 16.5908 12.4094 16.3367 11.013C16.0825 9.6165 15.4933 8.30256 14.6196 7.18394L10.8331 2.3375C10.751 2.23239 10.6461 2.14736 10.5263 2.08888C10.4065 2.0304 10.2749 2 10.1416 2C10.0082 2 9.87666 2.0304 9.75683 2.08888C9.63701 2.14736 9.53209 2.23239 9.45006 2.3375L5.66354 7.18394C4.78983 8.30256 4.20061 9.6165 3.94648 11.013C3.69234 12.4094 3.78088 13.8467 4.20449 15.2014L7.21762 24.8446ZM7.21762 24.8446L2.8317 27.7685C2.8317 27.7685 -0.0922473 21.9206 5.02466 18.2657M7.21762 29.2305C7.21762 32.1545 10.1416 33.6164 10.1416 33.6164C10.1416 33.6164 13.0655 32.1545 13.0655 29.2305M15.8886 18.2657C21.0055 21.9206 18.0816 27.7685 18.0816 27.7685L13.6956 24.8446" stroke="#AC5204" stroke-width="2.19296" stroke-linecap="round" stroke-linejoin="round"/>
<path d="M10.1427 16.0727C9.36722 16.0727 8.6235 15.7647 8.07516 15.2163C7.52681 14.668 7.21875 13.9243 7.21875 13.1488C7.21875 12.3733 7.52681 11.6296 8.07516 11.0813C8.6235 10.5329 9.36722 10.2249 10.1427 10.2249C10.9182 10.2249 11.6619 10.5329 12.2102 11.0813C12.7586 11.6296 13.0666 12.3733 13.0666 13.1488C13.0666 13.9243 12.7586 14.668 12.2102 15.2163C11.6619 15.7647 10.9182 16.0727 10.1427 16.0727Z" stroke="#AC5204" stroke-width="2.19296" stroke-linecap="round" stroke-linejoin="round"/>
<path d="M10.0283 38.9297L10.0283 59.0001" stroke="#848484" stroke-width="0.802817" stroke-linecap="round"/>
<path d="M3.60547 33.3098L3.60547 53.3802" stroke="#848484" stroke-width="0.802817" stroke-linecap="round"/>
<path d="M16.4512 33.3098L16.4512 53.3802" stroke="#848484" stroke-width="0.802817" stroke-linecap="round"/>
</svg>
