<svg xmlns="http://www.w3.org/2000/svg" width="24" height="24" viewBox="0 0 24 24">
  <circle cx="12" cy="12" r="10" fill="#FF4921"/>
  <path fill="#FFFFFF" d="M5,18.8199997 L7.36399994,18.8199997 L7.36399994,11.7279999 L5,11.7279999 L5,18.8199997 L5,18.8199997 Z M18.0019997,12.3189999 C18.0019997,11.6688999 17.4700997,11.1369999 16.8199997,11.1369999 L13.0907898,11.1369999 L13.6522398,8.43612996 L13.6699698,8.24700997 C13.6699698,8.00469997 13.5694998,7.78011998 13.4099298,7.62054998 L12.7834698,7 L8.8946899,10.8946899 C8.67601991,11.1074499 8.54599991,11.4029499 8.54599991,11.7279999 L8.54599991,17.6379997 C8.54599991,18.2880997 9.07789989,18.8199997 9.72799988,18.8199997 L15.0469997,18.8199997 C15.5375297,18.8199997 15.9571397,18.5244997 16.1344397,18.0989797 L17.9192597,13.9324298 C17.9724497,13.7964998 18.0019997,13.6546598 18.0019997,13.5009998 L18.0019997,12.3721899 L17.9960897,12.3662799 L18.0019997,12.3189999 L18.0019997,12.3189999 Z" transform="rotate(-180 11.501 12.91)"/>
  <path d="M0 0h24v24H0z" fill="none"/>
</svg>
