<svg xmlns="http://www.w3.org/2000/svg" width="24" height="24" viewBox="0 0 24 24">
  <path fill-rule="evenodd" d="M2 6h20v11H2V6zm7 9c-.82-1.056-1.23-2.389-1.23-4 0-1.611.41-2.944 1.23-4H5.385a2.72 2.72 0 0 1-.708 1.875c-.472.528-1.031.792-1.677.792V13c.497 0 .92.194 1.267.583.348.39.522.861.522 1.417H9zm4.826-2.055c.116-.13.174-.325.174-.586a.92.92 0 0 0-.043-.312c-.058-.156-.116-.26-.174-.313a2.066 2.066 0 0 0-.305-.234 1.576 1.576 0 0 0-.435-.195c-.029 0-.13-.026-.304-.078-.029-.027-.087-.04-.174-.04h-.174v-1.21c.03.026.08.052.152.078a.541.541 0 0 0 .153.039c.174.104.275.273.304.508h.87c0-.13-.058-.3-.174-.508a.985.985 0 0 0-.392-.43 2.052 2.052 0 0 0-.608-.234.762.762 0 0 0-.305-.078V9h-.782v.352a.722.722 0 0 0-.261.078c-.29.052-.493.117-.609.195-.174.13-.304.26-.391.39-.116.209-.174.391-.174.547 0 .13.014.235.043.313.03.13.087.221.174.273.145.13.261.222.348.274.174.104.348.17.522.195.029.026.087.04.174.04h.174v1.366a1.803 1.803 0 0 1-.392-.156c-.145-.078-.231-.17-.26-.273a1.132 1.132 0 0 1-.087-.352H10c0 .156.058.365.174.625.116.156.26.3.435.43.232.156.449.247.652.273.174.052.29.078.348.078V14h.782v-.352c.087 0 .218-.026.392-.078.29-.052.492-.117.608-.195.116-.078.261-.221.435-.43zM21 13V9.667c-.646 0-1.205-.264-1.677-.792A2.72 2.72 0 0 1 18.615 7H15c.82 1.056 1.23 2.389 1.23 4 0 1.611-.41 2.944-1.23 4h4.211c0-.556.174-1.028.522-1.417.348-.389.77-.583 1.267-.583zM5.5 13c-1 0-1.5-.5-1.5-1.5S4.5 10 5.5 10s1.5.5 1.5 1.5S6.5 13 5.5 13zm13 0c-1 0-1.5-.5-1.5-1.5s.5-1.5 1.5-1.5 1.5.5 1.5 1.5-.5 1.5-1.5 1.5zm-6.02-.935c.109.043.19.086.246.129.082.064.123.16.123.29 0 .086-.014.15-.041.193-.055.086-.11.14-.164.162l-.329.129-.04.032h-.124v-1c.028 0 .082.005.164.016.082.01.137.027.164.049zm-1.165-1.834c.028-.052.096-.103.206-.154a.66.66 0 0 1 .246-.077v1a.729.729 0 0 1-.37-.192c-.109-.103-.164-.205-.164-.308a.59.59 0 0 1 .082-.27z"/>
</svg>
