<svg xmlns="http://www.w3.org/2000/svg" width="24" height="24" viewBox="0 0 24 24">
  <path fill-rule="evenodd" d="M20.784 5.154c.13.055.215.183.216.326v1.687c0 .291-.115.563-.324.764a1.054 1.054 0 0 1-1.214.186l-.04-.02c-.26.66-.892 2.125-2.016 3.944-1.435 2.32-3.328 2.887-3.709 2.98l-2.434 1.46A1.65 1.65 0 0 1 8.8 14.722c.092-.438.35-.81.728-1.05 1.422-.907 2.032-1.251 2.325-1.383.153-.422.574-1.056.988-1.569a4.04 4.04 0 0 1-.984-.33h-.002l-.015-.009a3.788 3.788 0 0 1-.282-.15c-.368.43-1.095.852-1.637 1.084.138.196.283.448.37.732a.354.354 0 0 1-.152.405c-.196.122-.415.258-.656.41l-.335.212c-.54.343-.909.877-1.041 1.502a2.363 2.363 0 0 0 2.308 2.85c.426 0 .845-.117 1.213-.338l2.306-1.384a.327.327 0 0 1 .083-.036c.137-.04.424-.134.811-.316a.355.355 0 0 1 .505.32v3.62h1.063a.354.354 0 0 1 0 .708H4.355a.354.354 0 0 1 0-.708h1.062v-6.73c0-.195.158-.354.354-.354h1.551L7.218 12a1.761 1.761 0 0 1 .066-1.703l1.47-2.451a1.78 1.78 0 0 1 .897-.747L14.1 5.43a.35.35 0 0 1-.105-.527l1.416-1.77c.1-.124.27-.167.416-.105l4.958 2.126z"/>
</svg>
