<svg xmlns="http://www.w3.org/2000/svg" width="24" height="24" viewBox="0 0 15.55 22.28"><defs><style>.cls-1{fill:#fff;}.cls-2{fill:none;stroke:#000;stroke-linecap:round;stroke-linejoin:round;stroke-width:0;}</style></defs><g id="Layer_2" data-name="Layer 2"><g id="Layer_1-2" data-name="Layer 1"><path class="cls-1" d="M6.12,5a4.12,4.12,0,1,0,4.12,4.11A4.12,4.12,0,0,0,6.12,5Zm2.31,6.16H3.69V9.69H8.43Zm0-2.52H3.69V7.17H8.43Z"/><line class="cls-2" x1="6.12" y1="22.28" x2="6.12" y2="22.28"/><line class="cls-2" x1="6.12" y1="14.05" x2="6.12" y2="14.06"/><line class="cls-2" x1="2.27" y1="18.14" x2="2.27" y2="18.14"/><line class="cls-2" x1="9.85" y1="18.14" x2="9.85" y2="18.14"/><rect x="3.69" y="7.17" width="4.73" height="1.5"/><rect x="3.69" y="9.69" width="4.73" height="1.5"/><path d="M13.87,5.48,15.55,0,10,1.28l1.1,1.19L9.42,4A6.11,6.11,0,1,0,4.87,15.13v1.76H2.27v2.5h2.6v2.89h2.5V19.39H9.85v-2.5H7.37V15.13a6.11,6.11,0,0,0,3.84-9.38L12.76,4.3ZM6.12,14.06h0Zm0-.8a4.12,4.12,0,1,1,4.12-4.12A4.13,4.13,0,0,1,6.12,13.26Z"/></g></g></svg>
