<?xml version="1.0" encoding="utf-8"?>
<!-- Generator: Adobe Illustrator 19.1.0, SVG Export Plug-In . SVG Version: 6.00 Build 0)  -->
<svg version="1.1" id="Layer_1" xmlns="http://www.w3.org/2000/svg" xmlns:xlink="http://www.w3.org/1999/xlink" x="0px" y="0px"
	 viewBox="0 0 48 48" style="enable-background:new 0 0 48 48;" xml:space="preserve">

<g id="netflix">
	<path d="M33.5,12h-19c-1.381,0-2.5,1.119-2.5,2.5v19c0,1.381,1.119,2.5,2.5,2.5h19c1.381,0,2.5-1.119,2.5-2.5v-19
		C36,13.119,34.881,12,33.5,12z M28.224,30.897c0.006,0.393-0.121,0.549-0.518,0.572c-0.582,0.034-1.165,0.099-1.74,0.193
		c-0.437,0.072-0.64-0.068-0.786-0.494c-0.844-2.453-1.718-4.896-2.582-7.341c-0.044-0.126-0.096-0.249-0.145-0.373
		c-0.051,0.002-0.102,0.005-0.154,0.007c-0.01,0.194-0.028,0.388-0.028,0.583c0,2.475-0.009,4.949,0.015,7.424
		c0.005,0.481-0.141,0.682-0.626,0.704c-0.496,0.022-0.991,0.102-1.482,0.181c-0.307,0.05-0.414-0.076-0.408-0.358
		c0.002-0.103-0.001-0.206-0.001-0.309c0.001-5.052,0.002-10.105,0.004-15.158c0-0.702,0.003-0.704,0.726-0.705
		c0.481-0.001,0.963,0.02,1.443,0.001c0.331-0.013,0.487,0.121,0.595,0.43c0.916,2.628,1.845,5.25,2.773,7.874
		c0.087,0.247,0.209,0.488,0.304,0.732c0.051-0.009,0.173-0.019,0.173-0.028c0-0.212,0-0.425,0-0.637
		c0-2.595-0.013-5.19-0.033-7.785c-0.004-0.446,0.107-0.627,0.568-0.592c0.444,0.033,0.891,0.036,1.335,0.001
		c0.463-0.036,0.578,0.145,0.576,0.59c-0.017,3.592-0.012,7.183-0.013,10.775C28.219,28.423,28.204,29.66,28.224,30.897z"/>
</g>
</svg>
