<?xml version="1.0" encoding="utf-8"?>
<!-- Generator: Adobe Illustrator 19.1.0, SVG Export Plug-In . SVG Version: 6.00 Build 0)  -->
<svg version="1.1" id="Layer_1" xmlns="http://www.w3.org/2000/svg" xmlns:xlink="http://www.w3.org/1999/xlink" x="0px" y="0px"
	 viewBox="0 0 48 48" style="enable-background:new 0 0 48 48;" xml:space="preserve">

<g id="amazon">
	<path d="M21.656,24.258c0,0.801,0.415,1.344,1.127,1.344c0.52,0,0.988-0.322,1.281-0.844c0.365-0.643,0.348-1.244,0.348-1.965
		v-0.404C23.072,22.389,21.656,22.678,21.656,24.258z"/>
	<path d="M33.5,12h-19c-1.375,0-2.5,1.125-2.5,2.5v19c0,1.375,1.125,2.5,2.5,2.5h19c1.375,0,2.5-1.125,2.5-2.5v-19
		C36,13.125,34.875,12,33.5,12z M24.186,19.322c-0.226-0.342-0.659-0.483-1.04-0.483c-0.707,0-1.336,0.363-1.489,1.113
		c-0.032,0.168-0.154,0.332-0.322,0.342L19.539,20.1c-0.152-0.033-0.32-0.154-0.277-0.389c0.412-2.176,2.381-2.836,4.145-2.836
		c0.901,0,2.08,0.24,2.791,0.922c0.902,0.844,0.816,1.967,0.816,3.191v2.887c0,0.867,0.359,1.248,0.698,1.719
		c0.118,0.166,0.146,0.367-0.006,0.49c-0.378,0.318-1.052,0.902-1.421,1.231L26.28,27.31c-0.122,0.111-0.3,0.117-0.438,0.043
		c-0.616-0.512-0.726-0.746-1.061-1.234c-1.019,1.037-1.738,1.348-3.057,1.348c-1.56,0-2.773-0.963-2.773-2.889
		c0-1.506,0.814-2.529,1.977-3.029c1.005-0.441,2.41-0.521,3.484-0.642v-0.24C24.412,20.225,24.447,19.703,24.186,19.322z
		 M14.814,28.383c-0.166-0.151-0.223-0.361-0.15-0.55c0.068-0.175,0.236-0.287,0.43-0.287c0.094,0,0.188,0.034,0.281,0.079
		c2.256,1.094,5.24,2.141,8.414,2.141c2.301,0,4.748-0.518,6.895-1.428c0.088-0.038,0.18-0.057,0.272-0.057
		c0.261,0,0.487,0.156,0.563,0.391c0.078,0.237-0.016,0.489-0.244,0.658c-1.973,1.455-4.802,2.67-7.58,2.67
		C20.199,32,17.375,30.692,14.814,28.383z M31.961,31.203c-0.111,0.093-0.359,0.406-0.672,0.328
		c-0.312-0.078-0.13-0.979-0.067-1.135c0.604-1.512,0.778-1.973,0.688-2.185C31.818,28,31.653,28,31.151,28
		c-0.497,0-1.192,0.203-1.548,0.203c-0.006,0-0.011,0-0.016,0c-0.26,0-0.417-0.041-0.47-0.208c-0.06-0.189,0.028-0.368,0.227-0.507
		c0.767-0.539,1.731-0.604,2.239-0.604c0.194,0,1.179,0.095,1.461,0.444C33.418,27.791,33.135,30.221,31.961,31.203z"/>
</g>
</svg>
