<?xml version="1.0" encoding="utf-8"?>
<!-- Generator: Adobe Illustrator 19.1.0, SVG Export Plug-In . SVG Version: 6.00 Build 0)  -->
<svg version="1.1" id="Layer_1" xmlns="http://www.w3.org/2000/svg" xmlns:xlink="http://www.w3.org/1999/xlink" x="0px" y="0px"
	 viewBox="0 0 48 48" style="enable-background:new 0 0 48 48;" xml:space="preserve">

<g id="github_2_">
	<path d="M33.5,12h-19c-1.381,0-2.5,1.119-2.5,2.5v19c0,1.381,1.119,2.5,2.5,2.5h19c1.381,0,2.5-1.119,2.5-2.5v-19
		C36,13.119,34.881,12,33.5,12z M22,28h-2v-3h2V28z M25,29h-2v-1h2V29z M28,28h-2v-3h2V28z M27,19L27,19l4-2l0.062,4
		C31.785,21.867,32,22.782,32,24v1c0,1.844-1.01,3.437-2.494,4.304C29.81,28.953,30,28.501,30,28v-2c0-1.104-0.896-2-2-2h-8
		c-1.105,0-2,0.896-2,2v2c0,0.501,0.19,0.953,0.494,1.304C17.01,28.437,16,26.844,16,25v-1c0-1.143,0.355-2.158,1-3v-4l4,1.998
		L27,19z"/>
</g>
</svg>
