<?xml version="1.0" encoding="utf-8"?>
<!-- Generator: Adobe Illustrator 19.1.0, SVG Export Plug-In . SVG Version: 6.00 Build 0)  -->
<svg version="1.1" id="Layer_1" xmlns="http://www.w3.org/2000/svg" xmlns:xlink="http://www.w3.org/1999/xlink" x="0px" y="0px"
	 viewBox="0 0 48 48" style="enable-background:new 0 0 48 48;" xml:space="preserve">

<g id="whatsapp">
	<path d="M33.5,12h-19c-1.381,0-2.5,1.119-2.5,2.5v19c0,1.381,1.119,2.5,2.5,2.5h19c1.381,0,2.5-1.119,2.5-2.5v-19
		C36,13.119,34.881,12,33.5,12z M24.257,32.357c-1.392,0-2.77-0.341-3.995-0.986l-4.775,1.252l1.278-4.669
		c-0.709-1.271-1.083-2.713-1.082-4.177c0.002-4.727,3.848-8.572,8.574-8.572c2.293,0.001,4.447,0.894,6.065,2.515
		c1.619,1.62,2.509,3.774,2.508,6.064C32.828,28.512,28.982,32.357,24.257,32.357z M24.26,17.202c-3.627,0-6.579,2.95-6.58,6.576
		c0,1.242,0.347,2.452,1.005,3.5l0.234,0.372l-0.592,2.163l2.221-0.583l0.359,0.214c1.01,0.599,2.167,0.916,3.347,0.916
		c3.628,0,6.578-2.95,6.58-6.576c0.001-1.758-0.683-3.41-1.925-4.653S26.016,17.202,24.26,17.202z M28.587,26.835
		c-0.228,0.639-1.199,1.114-1.634,1.18c-0.165,0.024-0.348,0.043-0.545,0.043c-0.308,0-0.608-0.046-0.892-0.136
		c-0.307-0.097-0.701-0.229-1.207-0.446c-1.752-0.757-3.021-2.312-3.622-3.172c-0.305-0.412-0.935-1.363-0.935-2.363
		c0-1.07,0.535-1.642,0.764-1.886c0.333-0.363,0.677-0.397,0.811-0.397c0.143,0,0.286,0.001,0.411,0.007
		c0.258,0,0.528,0.062,0.728,0.54l0.233,0.565c0.172,0.419,0.36,0.878,0.396,0.951c0.11,0.22,0.116,0.432,0.018,0.63
		c-0.084,0.171-0.136,0.275-0.248,0.406l-0.103,0.124c-0.078,0.094-0.156,0.188-0.224,0.256c0.099,0.3,0.487,0.917,1.048,1.417
		c0.625,0.557,1.159,0.789,1.446,0.913l0.151,0.068c0.245-0.16,0.603-0.587,0.718-0.76c0.129-0.193,0.295-0.291,0.494-0.291
		c0.119,0,0.226,0.035,0.325,0.072c0.218,0.079,1.305,0.616,1.444,0.686l0.11,0.055c0.18,0.087,0.322,0.155,0.409,0.302
		C28.823,25.832,28.739,26.41,28.587,26.835z"/>
</g>
</svg>
