<?xml version="1.0" encoding="utf-8"?>
<!-- Generator: Adobe Illustrator 19.1.0, SVG Export Plug-In . SVG Version: 6.00 Build 0)  -->
<svg version="1.1" id="Layer_1" xmlns="http://www.w3.org/2000/svg" xmlns:xlink="http://www.w3.org/1999/xlink" x="0px" y="0px"
	 viewBox="0 0 48 48" style="enable-background:new 0 0 48 48;" xml:space="preserve">

<g id="ios">
	<path d="M24.055,21.216c0.604,0.618,0.984,1.66,0.971,2.659c-0.021,1.566-0.911,2.794-2.025,2.794
		c-1.004,0-2.084-0.932-2.084-2.979c0-2.051,1.08-2.984,2.084-2.984C23.361,20.705,23.727,20.882,24.055,21.216z M36,14.5v19
		c0,1.375-1.125,2.5-2.5,2.5h-19c-1.375,0-2.5-1.125-2.5-2.5v-19c0-1.375,1.125-2.5,2.5-2.5h19C34.875,12,36,13.125,36,14.5z
		 M18.016,21.953h-2.03V28H18L18.016,21.953z M18.41,19.979c0-0.735-0.63-1.333-1.403-1.333c-0.773,0-1.403,0.598-1.403,1.333
		c0,0.736,0.63,1.334,1.403,1.334C17.78,21.312,18.41,20.715,18.41,19.979z M27.126,23.693c0-2.833-1.7-4.812-4.135-4.812
		c-2.489,0-4.162,1.932-4.162,4.808c0,2.874,1.673,4.806,4.162,4.806C25.31,28.495,27.126,26.386,27.126,23.693z M33.236,25.672
		c0.104-1.756-1.503-2.417-2.569-2.965c-1.066-0.548-1.119-0.812-1.07-1.251c0.044-0.399,0.62-0.8,1.294-0.8
		c0.997,0,1.53,0.609,1.53,0.609l0.459-1.709c0,0-0.893-0.682-2.286-0.682c-1.703,0-2.963,0.967-3.144,2.115
		c-0.191,1.23,0.482,2.777,1.939,3.236c1.138,0.359,1.799,0.823,1.814,1.271c0.012,0.354-0.071,1.061-1.295,1.145
		c-1.104,0.076-2.183-0.676-2.183-0.676l-0.583,1.805c0,0,1.278,0.619,2.91,0.606c0.326-0.003,0.602-0.034,0.833-0.107
		C31.557,28.06,33.124,27.568,33.236,25.672z"/>
</g>
</svg>
