<?xml version="1.0" encoding="utf-8"?>
<!-- Generator: Adobe Illustrator 19.1.0, SVG Export Plug-In . SVG Version: 6.00 Build 0)  -->
<svg version="1.1" id="Layer_1" xmlns="http://www.w3.org/2000/svg" xmlns:xlink="http://www.w3.org/1999/xlink" x="0px" y="0px"
	 viewBox="0 0 48 48" style="enable-background:new 0 0 48 48;" xml:space="preserve">

<g id="last-fm">
	<path d="M33.5,12h-19c-1.375,0-2.5,1.125-2.5,2.5v19c0,1.375,1.125,2.5,2.5,2.5h19c1.375,0,2.5-1.125,2.5-2.5v-19
		C36,13.125,34.875,12,33.5,12z M29.354,29.256c-1.807-0.008-2.957-0.823-3.739-2.646l-0.196-0.436l-1.702-3.88
		c-0.536-1.305-1.885-2.179-3.36-2.179c-2.024,0-3.671,1.646-3.671,3.671c0,2.025,1.647,3.673,3.671,3.673
		c1.372,0,2.62-0.756,3.256-1.972l0.194-0.371L24.71,27.2l-0.077,0.095c-1.055,1.285-2.613,2.022-4.276,2.022
		c-3.049,0-5.53-2.482-5.53-5.53s2.481-5.53,5.53-5.53c2.307,0,4.17,1.242,5.109,3.408l0.073,0.172
		c0.24,0.561,0.997,2.328,1.671,3.863c0.469,1.066,0.84,1.717,2.056,1.758c0.001,0,0.003,0,0.005,0c1.2,0,2.002-0.658,2.002-1.564
		c0-0.819-0.493-1.016-1.709-1.421c-2.09-0.688-3.3-1.437-3.3-3.221c0-1.755,1.21-2.889,3.081-2.889c1.228,0,2.129,0.54,2.754,1.65
		l0.103,0.181l-1.479,0.756l-0.101-0.141c-0.377-0.528-0.778-0.754-1.342-0.754c-0.716,0-1.235,0.486-1.235,1.157
		c0,0.79,0.571,1.005,1.761,1.378l0.461,0.147c1.804,0.589,2.849,1.301,2.849,3.2C33.116,27.829,31.499,29.256,29.354,29.256z"/>
</g>
</svg>
