<?xml version="1.0" encoding="utf-8"?>
<!-- Generator: Adobe Illustrator 19.1.0, SVG Export Plug-In . SVG Version: 6.00 Build 0)  -->
<svg version="1.1" id="Layer_1" xmlns="http://www.w3.org/2000/svg" xmlns:xlink="http://www.w3.org/1999/xlink" x="0px" y="0px"
	 viewBox="0 0 48 48" style="enable-background:new 0 0 48 48;" xml:space="preserve">

<g id="paypal">
	<path d="M23.084,22.909h-0.741l0.52-2.637c0.031-0.159,0.203-0.276,0.404-0.276h0.34c0.887,0,1.724,0,2.156,0.404
		c0.258,0.242,0.336,0.601,0.239,1.097C25.733,22.909,24.387,22.909,23.084,22.909z M36,14.5v19c0,1.381-1.119,2.5-2.5,2.5h-19
		c-1.381,0-2.5-1.119-2.5-2.5v-19c0-1.381,1.119-2.5,2.5-2.5h19C34.881,12,36,13.119,36,14.5z M18.085,31.094h2.45
		c0.351,0,0.649-0.255,0.704-0.601l0.56-3.55c0.054-0.347,0.353-0.602,0.704-0.602h1.623c3.38,0,5.33-1.635,5.84-4.877
		c0.23-1.417,0.009-2.531-0.654-3.311c-0.73-0.857-2.023-1.311-3.739-1.311h-5.13c-0.351,0-0.65,0.255-0.705,0.602L17.663,30.6
		C17.622,30.859,17.823,31.094,18.085,31.094z M31.258,20.059c-0.012-0.014-0.029-0.022-0.041-0.036
		c0.035,0.511,0.029,1.046-0.066,1.632c-0.604,3.849-3.034,5.886-7.024,5.886c0,0-0.376,0-0.768,0s-0.474,0.221-0.52,0.51
		s-0.415,2.629-0.415,2.629c-0.206,1.32-0.862,1.398-2.187,1.398h-0.893l-0.033,0.428C19.269,32.765,19.47,33,19.732,33h3.205
		c0.351,0,0.649-0.255,0.704-0.601l0.634-2.75c0.054-0.347,0.283-0.558,0.678-0.602c3.551,0,6.568-2.259,7.077-5.501
		C32.26,22.129,31.921,20.839,31.258,20.059z"/>
</g>
</svg>
