<?xml version="1.0" encoding="utf-8"?>
<!-- Generator: Adobe Illustrator 19.1.0, SVG Export Plug-In . SVG Version: 6.00 Build 0)  -->
<svg version="1.1" id="Layer_1" xmlns="http://www.w3.org/2000/svg" xmlns:xlink="http://www.w3.org/1999/xlink" x="0px" y="0px"
	 viewBox="0 0 48 48" style="enable-background:new 0 0 48 48;" xml:space="preserve">

<g id="steam">
	<path d="M36,14.5v19c0,1.381-1.119,2.5-2.5,2.5h-19c-1.381,0-2.5-1.119-2.5-2.5v-6.069l5.138,2.063
		c0.354,1.626,1.804,2.85,3.533,2.85c1.873,0,3.419-1.436,3.598-3.264l4.641-3.393c2.675,0,4.846-2.167,4.846-4.841
		c0-2.676-2.17-4.846-4.846-4.846c-2.661,0-4.822,2.146-4.846,4.801l-3.019,4.327c-0.123-0.013-0.248-0.02-0.374-0.02
		c-0.675,0-1.305,0.185-1.846,0.509L12,22.872V14.5c0-1.381,1.119-2.5,2.5-2.5h19C34.881,12,36,13.119,36,14.5z M19.629,30.497
		c-0.437-0.178-0.875-0.353-1.312-0.529c0.444,0.845,1.33,1.417,2.355,1.417c1.475,0,2.66-1.185,2.66-2.66
		c0-1.474-1.185-2.66-2.66-2.66c-0.197,0-0.389,0.025-0.574,0.065l1.108,0.444c1.084,0.436,1.614,1.666,1.178,2.75
		C21.948,30.409,20.713,30.933,19.629,30.497z M28.911,24.09c-1.792,0-3.249-1.451-3.249-3.244s1.456-3.249,3.249-3.249
		c1.792,0,3.249,1.456,3.249,3.249S30.703,24.09,28.911,24.09z M28.924,23.426c1.432,0,2.595-1.163,2.595-2.595
		c0-1.432-1.163-2.595-2.595-2.595c-1.432,0-2.595,1.163-2.595,2.595C26.329,22.263,27.491,23.426,28.924,23.426z"/>
</g>
</svg>
