<?xml version="1.0" encoding="utf-8"?>
<!-- Generator: Adobe Illustrator 19.1.0, SVG Export Plug-In . SVG Version: 6.00 Build 0)  -->
<svg version="1.1" id="Layer_1" xmlns="http://www.w3.org/2000/svg" xmlns:xlink="http://www.w3.org/1999/xlink" x="0px" y="0px"
	 viewBox="0 0 48 48" style="enable-background:new 0 0 48 48;" xml:space="preserve">

<g id="vk">
	<path d="M33.5,12h-19c-1.381,0-2.5,1.119-2.5,2.5v19c0,1.381,1.119,2.5,2.5,2.5h19c1.381,0,2.5-1.119,2.5-2.5v-19
		C36,13.119,34.881,12,33.5,12z M30.549,25.858c0.851,0.791,1.422,1.446,1.696,1.949c0.199,0.332,0.237,0.608,0.115,0.842
		c-0.22,0.419-0.863,0.45-0.87,0.45l-2.182,0.031c-0.014,0.004-0.058,0.009-0.143,0.009c-0.2,0-0.606-0.049-1.084-0.377
		c-0.345-0.236-0.668-0.606-0.98-0.965c-0.348-0.399-0.743-0.853-0.992-0.853c-0.421,0.127-0.508,1-0.503,1.326
		c0.001,0.06-0.004,0.371-0.188,0.57c-0.181,0.193-0.481,0.245-0.569,0.257L23.828,29.1c-0.555,0-2.498-0.138-4.206-1.916
		c-2.1-2.188-3.939-6.483-3.958-6.525c-0.017-0.044-0.147-0.404,0.041-0.625c0.179-0.212,0.555-0.232,0.629-0.233l2.351-0.016
		c0.067,0.006,0.314,0.057,0.499,0.19c0.157,0.116,0.246,0.304,0.269,0.358c0.042,0.104,0.407,1.004,0.871,1.806
		c0.874,1.508,1.264,1.825,1.438,1.825c0.265-0.127,0.374-1.138,0.3-2.224c-0.002-0.347-0.057-0.81-0.206-1.012
		c-0.159-0.217-0.495-0.274-0.593-0.286l-0.055-0.007l-0.097-0.061l-0.051-0.108c-0.047-0.26,0.266-0.548,0.506-0.665
		c0.392-0.192,0.998-0.231,1.787-0.231l0.352,0.002c0.703,0.008,0.913,0.051,1.199,0.121c0.781,0.188,0.756,0.822,0.714,1.873
		c-0.013,0.309-0.027,0.667-0.027,1.08l-0.006,0.301c-0.013,0.46-0.028,1.03,0.228,1.195c0.129-0.015,0.533-0.245,1.439-1.783
		c0.502-0.854,0.893-1.884,0.896-1.894c0.021-0.048,0.122-0.259,0.303-0.367c0.122-0.073,0.261-0.088,0.356-0.088L31.32,19.8
		c0.011-0.004,0.074-0.011,0.232-0.011c0.579,0,0.776,0.211,0.84,0.388c0.157,0.441-0.26,1.301-1.314,2.705
		c-0.212,0.283-0.399,0.525-0.563,0.737C29.521,24.904,29.521,24.904,30.549,25.858z"/>
</g>
</svg>
