<?xml version="1.0" encoding="utf-8"?>
<!-- Generator: Adobe Illustrator 19.1.0, SVG Export Plug-In . SVG Version: 6.00 Build 0)  -->
<svg version="1.1" id="Layer_1" xmlns="http://www.w3.org/2000/svg" xmlns:xlink="http://www.w3.org/1999/xlink" x="0px" y="0px"
	 viewBox="0 0 48 48" style="enable-background:new 0 0 48 48;" xml:space="preserve">

<g id="gmail">
	<path d="M33.5,12h-19c-1.381,0-2.5,1.119-2.5,2.5v19c0,1.381,1.119,2.5,2.5,2.5h19c1.381,0,2.5-1.119,2.5-2.5v-19
		C36,13.119,34.881,12,33.5,12z M30,18l-5.939,4.34L18,18H30z M30,31H18v-7.779l5.53,4.014l0.588,0.422L30,24.754V31z M26.04,25.017
		l-1.926,1.404l-0.315-0.225l-1.685-1.222L17,21.258V31h-0.821c-0.536,0-0.988-0.357-1.131-0.847C15.016,30.048,15,29.936,15,29.82
		V19.121C15,18.47,15.528,18,16.179,18h0.176l7.706,5.577L31.767,18h0.054C32.472,18,33,18.47,33,19.121v0.815L26.04,25.017z
		 M32.952,30.153C32.809,30.643,32.357,31,31.821,31H31v-6.725l2-0.971v6.516C33,29.936,32.984,30.048,32.952,30.153z"/>
</g>
</svg>
