<?xml version="1.0" encoding="utf-8"?>
<!-- Generator: Adobe Illustrator 19.1.0, SVG Export Plug-In . SVG Version: 6.00 Build 0)  -->
<svg version="1.1" id="Layer_1" xmlns="http://www.w3.org/2000/svg" xmlns:xlink="http://www.w3.org/1999/xlink" x="0px" y="0px"
	 viewBox="0 0 48 48" style="enable-background:new 0 0 48 48;" xml:space="preserve">

<g id="_x34_square">
	<path d="M28.457,18c-0.304,0-7.789,0-7.789,0C20.315,18,20,18.343,20,18.614v12.033c0,0.036,0.068,0.046,0.097,0.013
		c0,0,2.889-3.625,3.208-4.022C23.624,26.242,23.788,26,24.264,26c0,0,2.317,0,2.618,0c0.357,0,0.559-0.121,0.595-0.297
		c0.037-0.176,0.342-1.749,0.407-2.07C27.95,23.312,27.655,23,27.355,23c-0.3,0-3.208,0-3.208,0C23.391,23,23,22.97,23,22.329
		v-0.672C23,21.032,23.484,21,24.145,21c0,0,3.513,0,3.781,0c0.268,0,0.557-0.121,0.606-0.351l0.407-2.075
		C29.012,18.222,28.744,18,28.457,18z"/>
	<path d="M33.5,12h-19c-1.375,0-2.5,1.125-2.5,2.5v19c0,1.375,1.125,2.5,2.5,2.5h19c1.375,0,2.5-1.125,2.5-2.5v-19
		C36,13.125,34.875,12,33.5,12z M31.01,18.328l-0.608,3.038c-0.488,2.458-1.05,5.12-1.122,5.412C29.15,27.301,28.95,28,27.705,28
		c-0.96,0-2.726,0-2.965,0c-0.119,0-0.119,0.191-0.238,0.31c-0.079,0.079-4.661,5.491-4.661,5.491
		c-0.357,0.412-0.989,0.386-1.205,0.298C18.421,34.013,18,33.796,18,33.081c0,0,0-14.786,0-15.42C18,17.026,18.467,16,19.806,16
		c1.339,0,9.705,0,9.705,0C30.937,16,31.32,16.822,31.01,18.328z"/>
</g>
</svg>
