<?xml version="1.0" encoding="utf-8"?>
<!-- Generator: Adobe Illustrator 19.1.0, SVG Export Plug-In . SVG Version: 6.00 Build 0)  -->
<svg version="1.1" id="Layer_1" xmlns="http://www.w3.org/2000/svg" xmlns:xlink="http://www.w3.org/1999/xlink" x="0px" y="0px"
	 viewBox="0 0 48 48" style="enable-background:new 0 0 48 48;" xml:space="preserve">
<g id="pinterest">
	<path d="M33.5,12h-19c-1.375,0-2.5,1.125-2.5,2.5v19c0,1.375,1.125,2.5,2.5,2.5h19c1.375,0,2.5-1.125,2.5-2.5v-19
		C36,13.125,34.875,12,33.5,12z M25.203,28.402c-0.77,0-1.561-0.317-2.06-0.789c-0.333,0.958-0.784,2.267-0.854,2.521
		c-0.346,1.252-1.259,2.503-1.635,2.982c-0.098,0.124-0.219,0.184-0.35,0.184c-0.21,0-0.383-0.149-0.412-0.356
		c-0.196-1.349-0.182-2.567,0.032-3.476c0.158-0.669,1.32-4.642,1.53-5.358c-0.089-0.22-0.265-0.738-0.265-1.422
		c0-1.454,0.882-2.593,2.008-2.593c0.894,0,1.494,0.655,1.494,1.63c0,0.562-0.216,1.263-0.445,2.004
		c-0.123,0.399-0.249,0.81-0.344,1.208c-0.081,0.34-0.015,0.665,0.184,0.917c0.211,0.268,0.548,0.421,0.922,0.421
		c1.43,0,2.508-1.897,2.508-4.411c0-1.908-1.297-3.094-3.385-3.094c-2.638,0-4.062,2.031-4.062,3.942c0,0.64,0.164,1.13,0.514,1.543
		c0.202,0.239,0.282,0.415,0.188,0.765l-0.181,0.711c-0.077,0.294-0.3,0.477-0.582,0.477c-0.088,0-0.178-0.019-0.267-0.055
		c-1.251-0.512-1.999-1.881-1.999-3.661c0-2.867,2.48-5.833,6.63-5.833c3.698,0,5.907,2.732,5.907,5.374
		C30.283,25.724,28.146,28.402,25.203,28.402z"/>
</g>
</svg>
