<?xml version="1.0" encoding="utf-8"?>
<!-- Generator: Adobe Illustrator 19.1.0, SVG Export Plug-In . SVG Version: 6.00 Build 0)  -->
<svg version="1.1" id="Layer_1" xmlns="http://www.w3.org/2000/svg" xmlns:xlink="http://www.w3.org/1999/xlink" x="0px" y="0px"
	 viewBox="0 0 48 48" style="enable-background:new 0 0 48 48;" xml:space="preserve">

<g id="playstation">
	<path d="M33.5,12h-19c-1.375,0-2.5,1.125-2.5,2.5v19c0,1.375,1.125,2.5,2.5,2.5h19c1.375,0,2.5-1.125,2.5-2.5v-19
		C36,13.125,34.875,12,33.5,12z M21.394,25.738l-2.96,1.06c-0.524,0.19-0.604,0.453-0.18,0.593c0.426,0.14,1.195,0.101,1.719-0.089
		l1.42-0.514v1.491c-0.091,0.016-0.191,0.031-0.283,0.047c-1.422,0.233-3.13,0.402-4.62-0.091c-1.39-0.391-1.668-1.403-1.036-1.873
		c0.587-0.434,1.825-0.828,1.825-0.828l4.115-1.463V25.738z M25.031,19.594L25,29.906l-3.049-0.911v-12.59
		c1.22,0.226,2.998,0.632,3.953,0.954c2.431,0.834,3.255,2.002,3.255,4.341c0,2.281-1.409,3.145-3.197,2.281v-4.249
		c0-0.497-0.091-0.956-0.561-1.088C25.045,18.531,25.031,19.096,25.031,19.594z M32.825,26.81c-0.345,0.434-1.188,0.743-1.188,0.743
		l-6.271,2.252v-1.661l4.616-1.645c0.522-0.188,0.603-0.451,0.179-0.591c-0.426-0.14-1.082-0.056-1.72,0.089l-3.075,1.082v-1.724
		l0.177-0.06c0,0,0.889-0.313,2.139-0.451c1.25-0.138,2.78,0.018,3.981,0.472C33.016,25.746,33.169,26.375,32.825,26.81z"/>
</g>
</svg>
