<?xml version="1.0" encoding="utf-8"?>
<!-- Generator: Adobe Illustrator 19.1.0, SVG Export Plug-In . SVG Version: 6.00 Build 0)  -->
<svg version="1.1" id="Layer_1" xmlns="http://www.w3.org/2000/svg" xmlns:xlink="http://www.w3.org/1999/xlink" x="0px" y="0px"
	 viewBox="0 0 48 48" style="enable-background:new 0 0 48 48;" xml:space="preserve">

<g id="posterous-spaces">
	<path d="M33.5,12h-19c-1.375,0-2.5,1.125-2.5,2.5v19c0,1.375,1.125,2.5,2.5,2.5h19c1.375,0,2.5-1.125,2.5-2.5v-19
		C36,13.125,34.875,12,33.5,12z M23,32c0,0.553-0.448,1-1,1h-6c-0.552,0-1-0.447-1-1v-6c0-0.553,0.448-1,1-1h6c0.552,0,1,0.447,1,1
		V32z M23,22c0,0.553-0.448,1-1,1h-6c-0.552,0-1-0.447-1-1v-6c0-0.553,0.448-1,1-1h6c0.552,0,1,0.447,1,1V22z M33,32
		c0,0.553-0.448,1-1,1h-6c-0.552,0-1-0.447-1-1v-6c0-0.553,0.448-1,1-1h6c0.552,0,1,0.447,1,1V32z M33,22c0,0.553-0.448,1-1,1h-6
		c-0.552,0-1-0.447-1-1v-6c0-0.553,0.448-1,1-1h6c0.552,0,1,0.447,1,1V22z M19,21.156c-1.191,0-2.156-0.966-2.156-2.156
		s0.965-2.156,2.156-2.156c1.191,0,2.156,0.966,2.156,2.156S20.191,21.156,19,21.156z M31.156,19c0-1.19-0.965-2.156-2.156-2.156
		c-1.191,0-2.156,0.966-2.156,2.156s0.965,2.156,2.156,2.156C30.191,21.156,31.156,20.19,31.156,19z M21.156,29
		c0-1.19-0.965-2.156-2.156-2.156c-1.191,0-2.156,0.966-2.156,2.156s0.965,2.156,2.156,2.156C20.191,31.156,21.156,30.19,21.156,29z
		 M31.156,29c0-1.19-0.965-2.156-2.156-2.156c-1.191,0-2.156,0.966-2.156,2.156s0.965,2.156,2.156,2.156
		C30.191,31.156,31.156,30.19,31.156,29z"/>
</g>
</svg>
