<?xml version="1.0" encoding="utf-8"?>
<!-- Generator: Adobe Illustrator 19.1.0, SVG Export Plug-In . SVG Version: 6.00 Build 0)  -->
<svg version="1.1" id="Layer_1" xmlns="http://www.w3.org/2000/svg" xmlns:xlink="http://www.w3.org/1999/xlink" x="0px" y="0px"
	 viewBox="0 0 48 48" style="enable-background:new 0 0 48 48;" xml:space="preserve">

<g id="snapchat">
	<path d="M30.613,28.729c-0.408,0.116-0.807,0.35-1.085,1.062c-0.009,0.023-0.017,0.046-0.021,0.06
		c-0.301-0.065-0.561-0.121-0.826-0.121c-1.189,0.008-2.058,0.547-2.824,1.023c-0.615,0.381-1.147,0.711-1.742,0.711
		c-0.719,0-1.186-0.294-1.832-0.7c-0.346-0.217-0.738-0.464-1.212-0.683c-0.512-0.235-1.069-0.349-1.704-0.349
		c-0.276,0-0.569,0.021-0.885,0.064l-0.044,0.007c-0.27-0.637-0.627-0.908-1.07-1.061c0.396-0.259,0.772-0.572,1.121-0.936
		c1.984-2.067,1.788-3.37,1.274-4.1c-0.056-0.08-0.121-0.153-0.198-0.223c0.823-0.506,0.709-1.427,0.664-1.786
		c-0.011-0.084-0.021-0.162-0.025-0.245c-0.08-1.417-0.087-2.49,0.554-3.391c0.693-0.979,1.861-1.541,3.204-1.541
		c0.092,0,0.184,0.003,0.276,0.008c1.422,0.083,2.632,0.795,3.237,1.903c0.469,0.856,0.393,2.01,0.318,3.124l-0.025,0.399
		c-0.04,0.652,0.144,1.146,0.546,1.466c0.038,0.031,0.078,0.06,0.12,0.085c-0.194,0.173-0.338,0.373-0.429,0.595
		c-0.411,1.005,0.246,2.005,0.639,2.603C29.03,27.299,29.678,28.113,30.613,28.729z M36,14.5v19c0,1.381-1.119,2.5-2.5,2.5h-19
		c-1.381,0-2.5-1.119-2.5-2.5v-19c0-1.381,1.119-2.5,2.5-2.5h19C34.881,12,36,13.119,36,14.5z M34.11,28.315
		c-0.266-0.762-0.998-0.933-1.499-1.048c-0.04-0.01-0.079-0.019-0.113-0.031c-0.767-0.283-1.451-0.878-2.034-1.766
		c-0.131-0.2-0.219-0.348-0.276-0.455c0.106-0.045,0.216-0.088,0.294-0.118c0.676-0.263,1.441-0.562,1.75-1.331
		c0.116-0.29,0.203-0.75-0.049-1.294c-0.308-0.666-0.863-1.018-1.607-1.018c-0.177,0-0.358,0.019-0.562,0.059
		c0.067-1.055,0.132-2.581-0.607-3.934c-0.972-1.778-2.856-2.916-5.043-3.045c-0.127-0.006-0.251-0.01-0.377-0.01
		c-2.05,0-3.928,0.921-5.022,2.465c-1.092,1.533-1.039,3.254-0.971,4.547c-0.188-0.047-0.363-0.069-0.535-0.069
		c-0.379,0-0.731,0.114-1.048,0.341c-0.703,0.506-0.8,1.094-0.757,1.499c0.114,1.027,1.168,1.478,2.016,1.839l0.168,0.072
		c-0.098,0.216-0.344,0.648-0.937,1.267c-0.416,0.434-0.868,0.747-1.349,0.933c-0.025,0.011-0.058,0.016-0.163,0.035
		c-0.387,0.08-1.033,0.215-1.386,0.825c-0.206,0.357-0.244,0.784-0.106,1.199c0.317,0.964,1.396,1.228,2.107,1.401
		c0.183,0.048,0.321,0.073,0.445,0.082l0.012,0.032c0.285,0.843,0.819,1.27,1.59,1.27c0.197,0,0.38-0.027,0.52-0.053l0.214-0.033
		c0.21-0.029,0.401-0.045,0.578-0.045c0.313,0,0.571,0.049,0.787,0.149c0.341,0.156,0.654,0.354,0.967,0.55
		c0.81,0.508,1.648,1.033,2.998,1.033c1.221,0,2.117-0.555,2.908-1.044c0.594-0.369,1.107-0.688,1.656-0.69
		c0.038,0.001,0.121,0.021,0.309,0.061c0.242,0.054,0.575,0.128,0.912,0.128c0.307,0,0.573-0.061,0.815-0.185
		c0.62-0.319,0.778-0.893,0.833-1.154l0.112-0.021c0.667-0.121,1.581-0.287,2.131-0.977C34.266,29.185,34.227,28.655,34.11,28.315z"
		/>
</g>
</svg>
