<?xml version="1.0" encoding="utf-8"?>
<!-- Generator: Adobe Illustrator 19.1.0, SVG Export Plug-In . SVG Version: 6.00 Build 0)  -->
<svg version="1.1" id="Layer_1" xmlns="http://www.w3.org/2000/svg" xmlns:xlink="http://www.w3.org/1999/xlink" x="0px" y="0px"
	 viewBox="0 0 48 48" style="enable-background:new 0 0 48 48;" xml:space="preserve">

<g id="slideshare">
	<path d="M21.529,25.886c0.812-0.041,1.334,0.139,1.651,0.473c0.056,0.047,0.896,0.784,1.245,1.032
		c0.072-0.954,0.603-1.577,2.045-1.505c1.923,0.06,5.436,0.433,9.53-1.686v-9.7c0-1.381-1.119-2.5-2.5-2.5h-19
		c-1.381,0-2.5,1.119-2.5,2.5v9.7C16.094,26.319,19.607,25.946,21.529,25.886z M28.585,17.633c2.238,0,4.054,1.697,4.054,3.792
		c0,2.095-1.816,3.792-4.054,3.792c-2.238,0-4.054-1.697-4.054-3.792C24.53,19.331,26.346,17.633,28.585,17.633z M19.839,17.676
		c2.213,0,4.008,1.678,4.008,3.749c0,2.071-1.795,3.75-4.008,3.75c-2.213,0-4.008-1.678-4.008-3.75
		C15.83,19.354,17.626,17.676,19.839,17.676z M30.648,27.586c-1.898,2.008-4.945,2.57-7.638,2.414c-0.004,1.941-0.008,5.018-0.01,6
		h2c0,0,0-3.562,0-4C28.922,31.594,30.328,29.578,30.648,27.586z M15.319,36H14.5c-1.381,0-2.5-1.119-2.5-2.5v-6.385
		c0.951,0.612,2.07,1.21,3.383,1.749C14.494,31.894,14.634,34.257,15.319,36z M36,27.115V33.5c0,1.381-1.119,2.5-2.5,2.5h-0.815
		c0.685-1.743,0.824-4.106-0.068-7.136C33.93,28.325,35.049,27.726,36,27.115z"/>
</g>
</svg>
