<?xml version="1.0" encoding="utf-8"?>
<!-- Generator: Adobe Illustrator 19.1.0, SVG Export Plug-In . SVG Version: 6.00 Build 0)  -->
<svg version="1.1" id="Layer_1" xmlns="http://www.w3.org/2000/svg" xmlns:xlink="http://www.w3.org/1999/xlink" x="0px" y="0px"
	 viewBox="0 0 48 48" style="enable-background:new 0 0 48 48;" xml:space="preserve">

<g id="badoo">
	<path d="M33.5,12h-19c-1.375,0-2.5,1.125-2.5,2.5v19c0,1.375,1.125,2.5,2.5,2.5h19c1.375,0,2.5-1.125,2.5-2.5v-19
		C36,13.125,34.875,12,33.5,12z M29.105,30.854c-1.348,1.349-3.139,2.091-5.045,2.091c-1.906,0-3.697-0.742-5.044-2.091
		c-1.348-1.347-2.09-3.139-2.09-5.044v-9.547c0-0.584,0.476-1.06,1.06-1.06c0.584,0,1.059,0.476,1.059,1.06v4.475
		c1.344-1.331,3.124-2.062,5.016-2.062c1.906,0,3.697,0.742,5.045,2.089c1.347,1.349,2.089,3.14,2.089,5.046
		C31.194,27.718,30.452,29.508,29.105,30.854z"/>
	<path d="M24.06,20.795c-1.341,0-2.6,0.52-3.546,1.469c-0.948,0.947-1.47,2.208-1.47,3.547c0,1.34,0.522,2.6,1.469,3.546
		c0.946,0.947,2.205,1.47,3.546,1.47c1.34,0,2.599-0.523,3.546-1.47c0.948-0.946,1.47-2.206,1.47-3.546
		c0-1.339-0.522-2.6-1.47-3.547C26.659,21.315,25.4,20.795,24.06,20.795z M22.295,28.032c-0.954,0-1.731-0.776-1.731-1.73
		s0.777-1.732,1.731-1.732s1.731,0.777,1.731,1.732S23.249,28.032,22.295,28.032z"/>
</g>
</svg>
