<?xml version="1.0" encoding="utf-8"?>
<!-- Generator: Adobe Illustrator 19.1.0, SVG Export Plug-In . SVG Version: 6.00 Build 0)  -->
<svg version="1.1" id="Layer_1" xmlns="http://www.w3.org/2000/svg" xmlns:xlink="http://www.w3.org/1999/xlink" x="0px" y="0px"
	 viewBox="0 0 48 48" style="enable-background:new 0 0 48 48;" xml:space="preserve">

<g id="jolicloud">
	<path d="M33.5,12h-19c-1.375,0-2.5,1.125-2.5,2.5v19c0,1.375,1.125,2.5,2.5,2.5h19c1.375,0,2.5-1.125,2.5-2.5v-19
		C36,13.125,34.875,12,33.5,12z M32.981,28c-0.419,0-12.64,0-12.64,0c-2.997,0-4.56-1.217-4.56-3.374s1.297-3.095,4.026-3.09
		c0.583-1.458,2.243-3.653,4.991-3.653c2.748,0,4.951,1.977,5.258,4.238c0.368,2.717,0.896,3.832,3.062,5.453
		C33.389,27.776,33.399,28,32.981,28z"/>
</g>
</svg>
