<?xml version="1.0" encoding="utf-8"?>
<!-- Generator: Adobe Illustrator 19.1.0, SVG Export Plug-In . SVG Version: 6.00 Build 0)  -->
<svg version="1.1" id="Layer_1" xmlns="http://www.w3.org/2000/svg" xmlns:xlink="http://www.w3.org/1999/xlink" x="0px" y="0px"
	 viewBox="0 0 48 48" style="enable-background:new 0 0 48 48;" xml:space="preserve">

<g id="dropbox">
	<polygon points="19.516,22.5 23.997,25.302 28.477,22.493 24.02,19.687 	"/>
	<path d="M33.5,12h-19c-1.375,0-2.5,1.125-2.5,2.5v19c0,1.375,1.125,2.5,2.5,2.5h19c1.375,0,2.5-1.125,2.5-2.5v-19
		C36,13.125,34.875,12,33.5,12z M24.176,32.263c-0.082,0.052-0.172,0.077-0.268,0.077c-0.095,0-0.185-0.026-0.267-0.079
		l-3.702-2.346L24,26.578l3.922,3.297L24.176,32.263z M32.969,20.084c-0.03,0.013-2.324,1.746-3.194,2.413
		c0,0,2.639,2.106,3.018,2.398c0.379,0.292,0.707,0.308,0.207,0.651c-0.5,0.344-5.481,3.576-5.481,3.576L24.04,26.1l-3.524,2.932
		c0,0-5.74-3.474-5.74-3.734c0-0.216,0.122-0.338,0.199-0.397c0.007-0.005,2.186-1.735,3.035-2.406
		c-0.846-0.672-3.038-2.4-3.038-2.4c-0.098-0.07-0.267-0.188-0.267-0.396c0-0.229,0.185-0.346,0.275-0.402l5.147-3.314
		c0.08-0.053,0.175-0.081,0.274-0.081c0.119,0,0.235,0.042,0.326,0.118l3.188,2.662l3.196-2.661
		c0.107-0.087,0.247-0.117,0.343-0.117c0.032,0,0.197,0.004,0.316,0.082l5.132,3.296c0.17,0.07,0.332,0.195,0.332,0.439
		C33.234,19.962,33.084,20.031,32.969,20.084z"/>
</g>
</svg>
