<?xml version="1.0" encoding="utf-8"?>
<!-- Generator: Adobe Illustrator 19.1.0, SVG Export Plug-In . SVG Version: 6.00 Build 0)  -->
<svg version="1.1" id="Layer_1" xmlns="http://www.w3.org/2000/svg" xmlns:xlink="http://www.w3.org/1999/xlink" x="0px" y="0px"
	 viewBox="0 0 48 48" style="enable-background:new 0 0 48 48;" xml:space="preserve">

<g id="medium">
	<path d="M33.5,12h-19c-1.381,0-2.5,1.119-2.5,2.5v19c0,1.381,1.119,2.5,2.5,2.5h19c1.381,0,2.5-1.119,2.5-2.5v-19
		C36,13.119,34.881,12,33.5,12z M31.2,29.532c0,0.378-0.245,0.632-0.61,0.632c-0.145,0-0.298-0.039-0.455-0.118l-2.43-0.941
		l1.027-4.708l-2.373,4.035l-3.279-1.64l-1.055-2.963l0.028,6.062c0,0.395-0.24,0.669-0.584,0.669c-0.114,0-0.232-0.03-0.352-0.09
		l-3.82-1.904c-0.28-0.141-0.499-0.495-0.499-0.807v-9.386c0-0.338,0.209-0.574,0.508-0.574c0.097,0,0.198,0.025,0.298,0.076
		l4.183,2.091l0.057,0.072l2.742,4.662l-0.868-3.038l2.216-3.603c0.121-0.196,0.343-0.317,0.58-0.317
		c0.103,0,0.205,0.023,0.294,0.068c0,0,4.164,2.082,4.222,2.11c0.105,0.054,0.168,0.156,0.168,0.271V29.532z"/>
</g>
</svg>
