<?xml version="1.0" encoding="utf-8"?>
<!-- Generator: Adobe Illustrator 19.1.0, SVG Export Plug-In . SVG Version: 6.00 Build 0)  -->
<svg version="1.1" id="Layer_1" xmlns="http://www.w3.org/2000/svg" xmlns:xlink="http://www.w3.org/1999/xlink" x="0px" y="0px"
	 viewBox="0 0 48 48" style="enable-background:new 0 0 48 48;" xml:space="preserve">

<g id="yahoo">
	<path d="M33.5,12h-19c-1.375,0-2.5,1.125-2.5,2.5v19c0,1.375,1.125,2.5,2.5,2.5h19c1.375,0,2.5-1.125,2.5-2.5v-19
		C36,13.125,34.875,12,33.5,12z M32.412,20.372l-2.05,0.416L26,25v3h2.437l-0.157,1.438l-8.819,0.012l0.236-1.353l2.287-0.325L22,25
		l-4.523-5.599l-2.561-0.375l-0.037-1.265l8.995-0.002l-0.171,1.196l-2.293,0.219l3.164,4.239l2.686-2.791l-1.82-0.253L25,19h8
		L32.412,20.372z"/>
</g>
</svg>
