<?xml version="1.0" encoding="utf-8"?>
<!-- Generator: Adobe Illustrator 19.1.0, SVG Export Plug-In . SVG Version: 6.00 Build 0)  -->
<svg version="1.1" id="Layer_1" xmlns="http://www.w3.org/2000/svg" xmlns:xlink="http://www.w3.org/1999/xlink" x="0px" y="0px"
	 viewBox="0 0 48 48" style="enable-background:new 0 0 48 48;" xml:space="preserve">

<g id="facebook">
	<path d="M36,14.5v19c0,1.381-1.119,2.5-2.5,2.5H28v-9h3l0.75-4H28l0.094-2.047c0-0.994,0.262-1.57,1.602-1.57l2.125-0.001
		l0.479-3.578c0,0-2.274-0.304-3.613-0.304c-3.008,0-4.749,2.006-4.749,5.094L24,23h-3v4h3v9h-9.5c-1.381,0-2.5-1.119-2.5-2.5v-19
		c0-1.381,1.119-2.5,2.5-2.5h19C34.881,12,36,13.119,36,14.5z"/>
</g>
</svg>
