<?xml version="1.0" encoding="utf-8"?>
<!-- Generator: Adobe Illustrator 19.1.0, SVG Export Plug-In . SVG Version: 6.00 Build 0)  -->
<svg version="1.1" id="Layer_1" xmlns="http://www.w3.org/2000/svg" xmlns:xlink="http://www.w3.org/1999/xlink" x="0px" y="0px"
	 viewBox="0 0 48 48" style="enable-background:new 0 0 48 48;" xml:space="preserve">

<g id="instagram">
	<g>
		<path d="M18.888,18H18v-6h-1v6h-1v-6h-1v6h-1v-5.949c-1.138,0.233-2,1.245-2,2.449V19h6.068C18.31,18.642,18.586,18.309,18.888,18
			z"/>
		<path d="M31.155,23c0,3.949-3.205,7.154-7.155,7.154c-3.95,0-7.155-3.205-7.155-7.154c0-1.072,0.243-2.087,0.667-3H12v13.5
			c0,1.375,1.125,2.5,2.5,2.5h19c1.375,0,2.5-1.125,2.5-2.5V20h-5.512C30.912,20.913,31.155,21.928,31.155,23z"/>
		<path d="M33.5,12H19v5.889c1.29-1.263,3.053-2.043,5-2.043c2.469,0,4.646,1.252,5.932,3.154H36v-4.5C36,13.125,34.875,12,33.5,12z
			 M34,17c0,0.55-0.45,1-1,1h-2c-0.55,0-1-0.45-1-1v-2c0-0.55,0.45-1,1-1h2c0.55,0,1,0.45,1,1V17z"/>
	</g>
	<path class="st0" d="M34,17c0,0.55-0.45,1-1,1h-2c-0.55,0-1-0.45-1-1v-2c0-0.55,0.45-1,1-1h2c0.55,0,1,0.45,1,1V17z"/>
	<rect x="18" y="12" class="st1" width="1" height="6"/>
	<rect x="16" y="12" class="st1" width="1" height="6"/>
	<rect x="14" y="12" class="st1" width="1" height="6"/>
	<g class="st0">
		<g>
			<path d="M24,18.656c-0.458,0-0.891,0.09-1.305,0.222c0.499,0.368,0.826,0.954,0.826,1.622c0,1.115-0.904,2.021-2.02,2.021
				c-0.668,0-1.254-0.328-1.623-0.827c-0.131,0.415-0.222,0.849-0.222,1.307c0,2.397,1.946,4.344,4.345,4.344
				c2.399,0,4.344-1.946,4.344-4.344S26.399,18.656,24,18.656z"/>
		</g>
		<g>
			<path class="st1" d="M24,18.656c-0.458,0-0.891,0.09-1.305,0.222c0.499,0.368,0.826,0.954,0.826,1.622
				c0,1.115-0.904,2.021-2.02,2.021c-0.668,0-1.254-0.328-1.623-0.827c-0.131,0.415-0.222,0.849-0.222,1.307
				c0,2.397,1.946,4.344,4.345,4.344c2.399,0,4.344-1.946,4.344-4.344S26.399,18.656,24,18.656z"/>
		</g>
	</g>
	<path d="M24,17.479c-3.049,0-5.521,2.474-5.521,5.521c0,3.048,2.472,5.521,5.521,5.521c3.049,0,5.52-2.473,5.52-5.521
		C29.52,19.953,27.049,17.479,24,17.479z M24,27.344c-2.399,0-4.345-1.946-4.345-4.344s1.946-4.344,4.345-4.344
		c2.399,0,4.344,1.946,4.344,4.344S26.399,27.344,24,27.344z"/>
</g>
</svg>
