<?xml version="1.0" encoding="utf-8"?>
<!-- Generator: Adobe Illustrator 19.1.0, SVG Export Plug-In . SVG Version: 6.00 Build 0)  -->
<svg version="1.1" id="Layer_1" xmlns="http://www.w3.org/2000/svg" xmlns:xlink="http://www.w3.org/1999/xlink" x="0px" y="0px"
	 viewBox="0 0 48 48" style="enable-background:new 0 0 48 48;" xml:space="preserve">

<g id="vimeo_1_">
	<path d="M33.5,12h-19c-1.375,0-2.5,1.125-2.5,2.5v19c0,1.375,1.125,2.5,2.5,2.5h19c1.375,0,2.5-1.125,2.5-2.5v-19
		C36,13.125,34.875,12,33.5,12z M28.372,26.898c-2.187,2.835-4.036,4.252-5.55,4.252c-0.937,0-1.73-0.865-2.377-2.594
		c-0.434-1.586-0.865-3.172-1.299-4.758c-0.48-1.729-0.997-2.594-1.549-2.594c-0.12,0-0.541,0.252-1.262,0.757l-0.756-0.973
		c0.793-0.696,1.572-1.394,2.341-2.091c1.058-0.913,1.851-1.392,2.38-1.441c1.248-0.119,2.017,0.733,2.306,2.56
		c0.312,1.97,0.527,3.194,0.649,3.675c0.359,1.634,0.756,2.45,1.188,2.45c0.337,0,0.84-0.528,1.513-1.585
		c0.674-1.058,1.033-1.861,1.082-2.414c0.096-0.913-0.266-1.37-1.082-1.37c-0.384,0-0.781,0.085-1.189,0.253
		c0.793-2.57,2.307-3.82,4.541-3.748c1.658,0.048,2.438,1.117,2.342,3.207C31.579,22.046,30.486,24.184,28.372,26.898z"/>
</g>
</svg>
