<?xml version="1.0" encoding="utf-8"?>
<!-- Generator: Adobe Illustrator 19.1.0, SVG Export Plug-In . SVG Version: 6.00 Build 0)  -->
<svg version="1.1" id="Layer_1" xmlns="http://www.w3.org/2000/svg" xmlns:xlink="http://www.w3.org/1999/xlink" x="0px" y="0px"
	 viewBox="0 0 48 48" style="enable-background:new 0 0 48 48;" xml:space="preserve">

<g id="rss_1_">
	<path d="M33.5,12h-19c-1.375,0-2.5,1.125-2.5,2.5v19c0,1.375,1.125,2.5,2.5,2.5h19c1.375,0,2.5-1.125,2.5-2.5v-19
		C36,13.125,34.875,12,33.5,12z M18.182,31.98C16.977,31.98,16,31.005,16,29.8c0-1.204,0.977-2.181,2.182-2.181
		c1.203,0,2.182,0.977,2.182,2.181C20.363,31.005,19.385,31.98,18.182,31.98z M23.653,32c0-2.057-0.798-3.994-2.243-5.447
		c-1.443-1.451-3.354-2.251-5.41-2.251v-3.149c5.826,0,10.803,5.021,10.803,10.848H23.653z M29.217,32
		c0-7.323-6.019-13.281-13.217-13.281V15.57c8.91,0,16.365,7.37,16.365,16.43H29.217z"/>
</g>
</svg>
