<?xml version="1.0" encoding="utf-8"?>
<!-- Generator: Adobe Illustrator 19.1.0, SVG Export Plug-In . SVG Version: 6.00 Build 0)  -->
<svg version="1.1" id="Layer_1" xmlns="http://www.w3.org/2000/svg" xmlns:xlink="http://www.w3.org/1999/xlink" x="0px" y="0px"
	 viewBox="0 0 48 48" style="enable-background:new 0 0 48 48;" xml:space="preserve">

<g id="spotify">
	<path d="M33.5,12h-19c-1.375,0-2.5,1.125-2.5,2.5v19c0,1.375,1.125,2.5,2.5,2.5h19c1.375,0,2.5-1.125,2.5-2.5v-19
		C36,13.125,34.875,12,33.5,12z M23.625,32.562c-3.048-0.299-5.15-2.739-5.035-6.253c0.106-3.312,3.21-5.857,5.91-5.56
		c2.984,0.328,4.81,2.312,4.81,5.947C29.199,30.141,26.812,32.875,23.625,32.562z M27.808,19.271
		c-1.028-0.685-2.509-1.093-3.96-1.093c-0.625,0-1.217,0.072-1.76,0.217c-0.055,0.015-0.113,0.022-0.17,0.022
		c-0.3,0-0.563-0.203-0.64-0.494c-0.046-0.169-0.022-0.348,0.066-0.501c0.089-0.152,0.232-0.262,0.403-0.307
		c0.662-0.176,1.374-0.265,2.115-0.265c1.716,0,3.42,0.481,4.677,1.317c0.147,0.097,0.247,0.246,0.282,0.42
		c0.035,0.173,0,0.35-0.098,0.497c-0.122,0.185-0.328,0.295-0.551,0.295C28.043,19.38,27.916,19.343,27.808,19.271z M27.944,20.671
		c-0.106,0.161-0.285,0.257-0.478,0.257c-0.112,0-0.221-0.032-0.312-0.094c-0.911-0.603-2.012-0.908-3.271-0.908
		c-0.556,0-1.151,0.06-1.769,0.178l-0.111,0.011c-0.271,0-0.505-0.194-0.555-0.462c-0.029-0.152,0.004-0.305,0.091-0.431
		c0.086-0.124,0.215-0.207,0.362-0.234c0.691-0.133,1.362-0.2,1.993-0.2c1.479,0,2.786,0.368,3.886,1.094
		C28.041,20.055,28.115,20.409,27.944,20.671z M29.615,17.213c-0.139,0.217-0.375,0.347-0.633,0.347
		c-0.146,0-0.287-0.042-0.41-0.121c-1.111-0.715-2.842-1.143-4.627-1.143c-0.773,0-1.49,0.082-2.073,0.237
		c-0.063,0.017-0.128,0.025-0.194,0.025c-0.342,0-0.641-0.231-0.728-0.562c-0.052-0.195-0.024-0.399,0.077-0.574
		c0.102-0.174,0.266-0.297,0.46-0.348c0.706-0.188,1.557-0.287,2.459-0.287c2.095,0,4.079,0.504,5.443,1.381
		C29.739,16.396,29.84,16.865,29.615,17.213z"/>
	<path d="M24.059,23.349L24,23.348c-1,0-2.214,1.232-2.278,3.217c-0.032,0.976,0.155,1.798,0.557,2.375
		c0.372,0.536,0.907,0.83,1.56,0.851c1.41,0,2.289-1.165,2.352-3.117c0.034-1.063-0.145-1.925-0.529-2.492
		C25.299,23.652,24.765,23.371,24.059,23.349z"/>
</g>
</svg>
