<?xml version="1.0" encoding="utf-8"?>
<!-- Generator: Adobe Illustrator 19.1.0, SVG Export Plug-In . SVG Version: 6.00 Build 0)  -->
<svg version="1.1" id="Layer_1" xmlns="http://www.w3.org/2000/svg" xmlns:xlink="http://www.w3.org/1999/xlink" x="0px" y="0px"
	 viewBox="0 0 48 48" style="enable-background:new 0 0 48 48;" xml:space="preserve">

<g id="readability">
	<path d="M33.5,12h-19c-1.375,0-2.5,1.125-2.5,2.5v19c0,1.375,1.125,2.5,2.5,2.5h19c1.375,0,2.5-1.125,2.5-2.5v-19
		C36,13.125,34.875,12,33.5,12z M19,29.501C19,29.831,18.831,30,18.501,30h-1.002C17.169,30,17,29.831,17,29.501V28l-1.395-2.491
		c-0.415-0.378-0.681-0.923-0.681-1.509c0-1.158,0.88-2.1,2.038-2.1C18.12,21.9,19,22.842,19,24V29.501z M28,26v3h-8v-3.451
		c1-1.09,2.549-1.648,4.05-1.648s2.87,0.559,3.992,1.574L28,26z M28,24v0.773l-0.117-0.15c-1.089-0.982-2.461-1.523-3.908-1.523
		c-1.446,0-2.781,0.541-3.87,1.523L20,24.773V24c0-1.121-0.713-2.151-1.74-2.626l-0.103-0.036l0.013-0.083
		c0.765-2.565,3.162-4.354,5.837-4.354c2.676,0,5.076,1.79,5.841,4.354l0.023,0.083l-0.13,0.036C28.714,21.849,28,22.879,28,24z
		 M32.437,25.535l-1.393,2.512L31,28.625v0.876C31,29.831,30.831,30,30.501,30h-1.002C29.169,30,29,29.831,29,29.501V24
		c0-1.158,0.893-2.1,2.05-2.1c1.158,0,2.075,0.941,2.075,2.1C33.125,24.586,32.873,25.131,32.437,25.535z"/>
</g>
</svg>
