<?xml version="1.0" encoding="utf-8"?>
<!-- Generator: Adobe Illustrator 19.1.0, SVG Export Plug-In . SVG Version: 6.00 Build 0)  -->
<svg version="1.1" id="Layer_1" xmlns="http://www.w3.org/2000/svg" xmlns:xlink="http://www.w3.org/1999/xlink" x="0px" y="0px"
	 viewBox="0 0 48 48" style="enable-background:new 0 0 48 48;" xml:space="preserve">

<g id="skype_1_">
	<path d="M36,14.5v19c0,1.375-1.125,2.5-2.5,2.5h-19c-1.375,0-2.5-1.125-2.5-2.5v-19c0-1.375,1.125-2.5,2.5-2.5h19
		C34.875,12,36,13.125,36,14.5z M33.221,27.488c0.002-1.017-0.297-1.962-0.811-2.757c0.029-0.282,0.045-0.568,0.045-0.858
		c0.012-4.656-3.755-8.44-8.412-8.451c-0.431-0.001-0.851,0.04-1.264,0.102c-0.777-0.502-1.699-0.797-2.691-0.8
		c-2.756-0.007-4.996,2.223-5.002,4.979c-0.002,0.912,0.244,1.766,0.67,2.503c-0.104,0.527-0.162,1.07-0.164,1.628
		c-0.012,4.656,3.755,8.44,8.411,8.452c0.674,0.002,1.327-0.085,1.956-0.232c0.659,0.315,1.394,0.498,2.174,0.5
		C30.935,32.559,33.213,30.292,33.221,27.488z M28.145,24.391c-0.576-1.113-1.856-1.521-2.983-1.829
		c-0.874-0.239-3.352-0.492-2.97-1.916c0.296-1.104,2.124-1.233,2.958-0.786c0.769,0.412,1.159,2.49,2.347,1.72
		c1.097-0.712,0.105-2.204-0.639-2.735c-1.043-0.744-2.452-0.847-3.684-0.669c-1.147,0.166-2.321,0.707-2.801,1.829
		c-0.502,1.175-0.13,2.543,0.902,3.285c0.985,0.709,2.26,0.866,3.398,1.188c0.972,0.273,2.19,1.072,1.41,2.234
		c-0.603,0.898-2.159,1.088-3.073,0.618c-0.941-0.486-1.087-2.565-2.352-2.249c-1.339,0.334-0.463,2.136,0.086,2.761
		c0.868,0.987,2.186,1.296,3.453,1.296C26.618,29.137,29.565,27.158,28.145,24.391C27.953,24.019,28.336,24.762,28.145,24.391z"/>
</g>
</svg>
