<?xml version="1.0" encoding="utf-8"?>
<!-- Generator: Adobe Illustrator 19.1.0, SVG Export Plug-In . SVG Version: 6.00 Build 0)  -->
<svg version="1.1" id="Layer_1" xmlns="http://www.w3.org/2000/svg" xmlns:xlink="http://www.w3.org/1999/xlink" x="0px" y="0px"
	 viewBox="0 0 48 48" style="enable-background:new 0 0 48 48;" xml:space="preserve">

<g id="stumbleupon">
	<path d="M33.5,12h-19c-1.381,0-2.5,1.119-2.5,2.5v19c0,1.381,1.119,2.5,2.5,2.5h19c1.381,0,2.5-1.119,2.5-2.5v-19
		C36,13.119,34.881,12,33.5,12z M24.756,20.14c-0.145-0.117-0.547-0.189-0.806-0.189c-0.24,0-0.95,0.054-0.95,0.55v7
		c0,2.81-1.928,3.854-3.963,3.854c-1.088,0-2.097,0.075-2.866-0.643C15.319,29.917,15,28.776,15,27.5V25h3v2.5
		c0,0.765,0.635,0.925,1,0.925c0.365,0,1-0.16,1-0.925v-7c0-2.252,1.605-3.95,4-3.95c2.394,0,4,1.698,4,3.95v1.318l-1.5,0.647
		L25,21.818V20.5C25,20.273,24.828,20.198,24.756,20.14z M33,27.5c0,2.252-1.705,3.95-4.1,3.95c-1.041,0-1.878-0.332-2.632-0.936
		C25.353,29.782,25,28.712,25,27.5v-2.899l1.5,0.648l1.5-0.648V27.5c0,0.496,0.76,0.55,1,0.55c0.24,0,1-0.054,1-0.55v-2.658l3-0.039
		V27.5z"/>
</g>
</svg>
