<?xml version="1.0" encoding="utf-8"?>
<!-- Generator: Adobe Illustrator 19.1.0, SVG Export Plug-In . SVG Version: 6.00 Build 0)  -->
<svg version="1.1" id="Layer_1" xmlns="http://www.w3.org/2000/svg" xmlns:xlink="http://www.w3.org/1999/xlink" x="0px" y="0px"
	 viewBox="0 0 48 48" style="enable-background:new 0 0 48 48;" xml:space="preserve">

<g id="android">
	<circle cx="26.456" cy="18.457" r="0.543"/>
	<path d="M33.5,12h-19c-1.375,0-2.5,1.125-2.5,2.5v19c0,1.375,1.125,2.5,2.5,2.5h19c1.375,0,2.5-1.125,2.5-2.5v-19
		C36,13.125,34.875,12,33.5,12z M19,25.5c0,0.55-0.45,1-1,1c-0.55,0-1-0.45-1-1V21c0-0.55,0.45-1,1-1c0.55,0,1,0.45,1,1V25.5z
		 M28,27.456C28,27.757,27.756,28,27.455,28H27v3.03c0,0.536-0.465,0.97-1,0.97c-0.536,0-1-0.434-1-0.97V28h-2v3.03
		c0,0.536-0.464,0.97-1,0.97c-0.536,0-1-0.434-1-0.97V28h-0.454C20.245,28,20,27.757,20,27.456V21h8V27.456z M20,20
		c0,0,0.079-2.218,1.661-3.338l-0.859-1.095c-0.179-0.282-0.101-0.622,0.155-0.784c0.089-0.055,0.189-0.083,0.292-0.083
		c0.191,0,0.366,0.097,0.468,0.257l0.971,1.238c0.39-0.116,0.816-0.199,1.331-0.197c0.499,0.002,0.915,0.084,1.297,0.197
		l0.986-1.264c0.083-0.135,0.258-0.231,0.449-0.231c0.102,0,0.203,0.028,0.29,0.083c0.258,0.162,0.336,0.502,0.175,0.759
		l-0.873,1.118C27.935,17.777,28,20,28,20H20z M31,25.5c0,0.55-0.45,1-1,1c-0.55,0-1-0.45-1-1V21c0-0.55,0.45-1,1-1
		c0.55,0,1,0.45,1,1V25.5z"/>
	<circle cx="21.544" cy="18.457" r="0.543"/>
</g>
</svg>
