<?xml version="1.0" encoding="utf-8"?>
<!-- Generator: Adobe Illustrator 19.1.0, SVG Export Plug-In . SVG Version: 6.00 Build 0)  -->
<svg version="1.1" id="Layer_1" xmlns="http://www.w3.org/2000/svg" xmlns:xlink="http://www.w3.org/1999/xlink" x="0px" y="0px"
	 viewBox="0 0 48 48" style="enable-background:new 0 0 48 48;" xml:space="preserve">

<g id="linux-foundation">
	<path d="M33.5,12h-19c-1.381,0-2.5,1.119-2.5,2.5v19c0,1.381,1.119,2.5,2.5,2.5h19c1.381,0,2.5-1.119,2.5-2.5v-19
		C36,13.119,34.881,12,33.5,12z M23,32h-5.49C16.682,32,16,31.318,16,30.49V22h3v6.5c0,0.275,0.225,0.5,0.5,0.5H23V32z M31,30.49
		c0,0.828-0.682,1.51-1.51,1.51H24v-3h3.5c0.275,0,0.5-0.225,0.5-0.5v-8c0-0.275-0.225-0.5-0.5-0.5h-8c-0.275,0-0.5,0.225-0.5,0.5
		V21h-3v-2.49c0-0.828,0.682-1.51,1.51-1.51h11.98c0.828,0,1.51,0.682,1.51,1.51V30.49z"/>
</g>
</svg>
