<?xml version="1.0" encoding="utf-8"?>
<!-- Generator: Adobe Illustrator 19.1.0, SVG Export Plug-In . SVG Version: 6.00 Build 0)  -->
<svg version="1.1" id="Layer_1" xmlns="http://www.w3.org/2000/svg" xmlns:xlink="http://www.w3.org/1999/xlink" x="0px" y="0px"
	 viewBox="0 0 48 48" style="enable-background:new 0 0 48 48;" xml:space="preserve">

<g id="vine">
	<path d="M33.5,12h-19c-1.375,0-2.5,1.125-2.5,2.5v19c0,1.375,1.125,2.5,2.5,2.5h19c1.375,0,2.5-1.125,2.5-2.5v-19
		C36,13.125,34.875,12,33.5,12z M32,26.499l-0.06,0.066c-0.619,0.194-1.182,0.296-1.914,0.296c-0.463,0-0.928-0.039-1.386-0.118
		c-0.902,1.885-2.885,4.303-4.62,5.631c-0.312,0.239-0.618,0.355-0.933,0.355c-0.308,0-0.621-0.113-0.958-0.345
		c-1.224-0.839-2.298-1.927-3.282-3.325c-1.326-1.886-2.243-4.07-2.725-6.493c-0.27-1.364-0.406-2.719-0.404-4.025
		c0-0.121-0.004-0.317-0.006-0.54h3.006c-0.003,0.234-0.006,0.435-0.005,0.551c0.028,2.299,0.403,4.309,1.146,6.144
		c0.715,1.76,1.735,3.05,3.236,4.622c1.088-0.958,1.994-2.161,2.758-3.664c-1.55-1.04-2.539-2.538-2.938-4.454
		c-0.141-0.672-0.195-1.303-0.167-1.924c0.088-1.865,1.359-3.29,3.162-3.544c0.248-0.035,0.493-0.055,0.733-0.055
		c0.914,0,1.723,0.267,2.401,0.802c0.815,0.644,1.27,1.507,1.354,2.581c0.092,1.191-0.133,3.599-0.143,3.702L30.23,23h-3.039
		l0.077-0.33c0.004-0.018,0.392-1.838,0.155-3.291c-0.049-0.301-0.208-0.667-0.684-0.704c-0.06-0.005-0.304-0.005-0.362,0.006
		c-0.447,0.074-0.659,0.309-0.661,0.739c-0.002,1.359,0.29,2.382,0.941,3.217c0.621,0.798,1.686,1.473,2.853,1.473
		c1.17,0,2.214-0.454,2.226-0.459L32,23.48V26.499z"/>
</g>
</svg>
