<?xml version="1.0" encoding="utf-8"?>
<!-- Generator: Adobe Illustrator 19.1.0, SVG Export Plug-In . SVG Version: 6.00 Build 0)  -->
<svg version="1.1" id="Layer_1" xmlns="http://www.w3.org/2000/svg" xmlns:xlink="http://www.w3.org/1999/xlink" x="0px" y="0px"
	 viewBox="0 0 48 48" style="enable-background:new 0 0 48 48;" xml:space="preserve">

<g id="stackoverflow">
	<path d="M33.5,12h-19c-1.381,0-2.5,1.119-2.5,2.5v19c0,1.381,1.119,2.5,2.5,2.5h19c1.381,0,2.5-1.119,2.5-2.5v-19
		C36,13.119,34.881,12,33.5,12z M23.577,16.937l6.531,5.439l-1.088,1.306l-6.531-5.439L23.577,16.937z M21.074,20.482l7.705,3.588
		l-0.718,1.541l-7.705-3.588L21.074,20.482z M19.606,24.342l8.318,1.748l-0.35,1.664l-8.318-1.748L19.606,24.342z M19.087,28.175
		h8.5v1.7h-8.5V28.175z M31.1,33.1H15.9V26.9h1.2v5h12.8v-5h1.2V33.1z M30.414,22.057l-5.073-6.82l1.364-1.015l5.073,6.82
		L30.414,22.057z"/>
</g>
</svg>
