<?xml version="1.0" encoding="utf-8"?>
<!-- Generator: Adobe Illustrator 19.1.0, SVG Export Plug-In . SVG Version: 6.00 Build 0)  -->
<svg version="1.1" id="Layer_1" xmlns="http://www.w3.org/2000/svg" xmlns:xlink="http://www.w3.org/1999/xlink" x="0px" y="0px"
	 viewBox="0 0 48 48" style="enable-background:new 0 0 48 48;" xml:space="preserve">

<g id="behance">
	<path id="behance_2_" d="M30.022,25h-3.167c0.027-0.55,0.145-1.908,1.618-1.908C30.25,23.092,30.022,25,30.022,25z M20.508,25H18v2
		l2.578-0.016c0.85,0,1.447-0.107,1.447-0.896C22.025,25.086,21.428,25,20.508,25z M21.66,21.979c0-0.934-0.713-0.979-1.48-0.979H18
		v2h2.344C21.098,23,21.66,22.802,21.66,21.979z M36,14.5v19c0,1.375-1.125,2.5-2.5,2.5h-19c-1.375,0-2.5-1.125-2.5-2.5v-19
		c0-1.375,1.125-2.5,2.5-2.5h19C34.875,12,36,13.125,36,14.5z M26,21h5v-1h-5V21z M24.209,26.1c0-1.22-0.357-2.202-1.55-2.544
		c0.85-0.41,1.085-1.11,1.085-2.071C23.744,19.662,22.938,19,21,19s-5,0-5,0v10h5C22.768,29,24.209,28.089,24.209,26.1z M26.855,26
		H32c0-3-1.06-4.256-3.472-4.256c-2.151,0-3.619,1.569-3.619,3.695c0,2.193,1.351,3.801,3.619,3.801
		c2.269,0,3.455-1.594,3.472-2.239c0,0-1.531-0.001-1.969-0.001c-0.312,0.344-0.812,0.625-1.469,0.625
		C27.48,27.625,26.91,27,26.855,26z"/>
</g>
</svg>
