<?xml version="1.0" encoding="utf-8"?>
<!-- Generator: Adobe Illustrator 19.1.0, SVG Export Plug-In . SVG Version: 6.00 Build 0)  -->
<svg version="1.1" id="Layer_1" xmlns="http://www.w3.org/2000/svg" xmlns:xlink="http://www.w3.org/1999/xlink" x="0px" y="0px"
	 viewBox="0 0 48 48" style="enable-background:new 0 0 48 48;" xml:space="preserve">

<g id="ebay">
	<path d="M25.775,20h-4.549c0.271-1.007,1.183-1.755,2.275-1.755S25.504,18.993,25.775,20z M18,22v6h2v-6H18z M21,22v6h2v-6H21z
		 M24,22v6h2v-6H24z M36,14.5v19c0,1.381-1.119,2.5-2.5,2.5h-19c-1.381,0-2.5-1.119-2.5-2.5v-19c0-1.381,1.119-2.5,2.5-2.5h19
		C34.881,12,36,13.119,36,14.5z M30,20h-2.637c-0.295-1.874-1.908-3.315-3.863-3.315S19.932,18.126,19.637,20H17v9.5
		c0,0.825,0.9,1.5,2,1.5h9c1.1,0,2-0.675,2-1.5V20z M27,22v6h2v-6H27z"/>
</g>
</svg>
