<?xml version="1.0" encoding="utf-8"?>
<!-- Generator: Adobe Illustrator 19.1.0, SVG Export Plug-In . SVG Version: 6.00 Build 0)  -->
<svg version="1.1" id="Layer_1" xmlns="http://www.w3.org/2000/svg" xmlns:xlink="http://www.w3.org/1999/xlink" x="0px" y="0px"
	 viewBox="0 0 48 48" style="enable-background:new 0 0 48 48;" xml:space="preserve">

<g id="dribbble">
	<path id="dribbble_2_" d="M18.944,28.446c-1.007-1.212-1.558-2.731-1.558-4.306l0.034-0.011c0.837,0,3.767-0.069,6.804-0.95
		c0.135,0.268,0.265,0.54,0.389,0.811c-0.02,0.006-0.039,0.012-0.058,0.018C21.354,25.045,19.484,27.609,18.944,28.446z
		 M21.114,18.108c-1.758,0.883-3.059,2.509-3.531,4.41c0.834-0.008,3.183-0.095,5.866-0.775
		C22.474,20.038,21.472,18.607,21.114,18.108z M20.124,29.562c1.168,0.866,2.548,1.322,4.004,1.322c0.859,0,1.695-0.16,2.488-0.476
		c-0.131-0.728-0.523-2.628-1.374-4.889C21.893,26.743,20.457,28.971,20.124,29.562z M28.459,18.975
		c-1.214-1.02-2.745-1.578-4.33-1.578c-0.435,0-0.866,0.041-1.284,0.122c0.404,0.559,1.405,1.991,2.34,3.685
		C27.138,20.438,28.137,19.372,28.459,18.975z M26.931,25.108c0.71,2.001,1.073,3.669,1.219,4.443
		c1.359-1.015,2.296-2.511,2.606-4.168c-0.412-0.114-1.413-0.351-2.651-0.351C27.705,25.033,27.311,25.059,26.931,25.108z M36,14.5
		v19c0,1.375-1.125,2.5-2.5,2.5h-19c-1.375,0-2.5-1.125-2.5-2.5v-19c0-1.375,1.125-2.5,2.5-2.5h19C34.875,12,36,13.125,36,14.5z
		 M32.459,24.129c0-4.593-3.737-8.329-8.33-8.329c-4.593,0-8.329,3.736-8.329,8.329s3.736,8.33,8.329,8.33
		C28.722,32.459,32.459,28.722,32.459,24.129z M25.899,22.59c0.13,0.273,0.466,1.045,0.466,1.045
		c0.465-0.052,0.962-0.078,1.476-0.078c1.361,0,2.524,0.182,3.025,0.273c-0.062-1.374-0.53-2.665-1.363-3.761
		C29.095,20.546,27.955,21.708,25.899,22.59z"/>
</g>
</svg>
