<?xml version="1.0" encoding="utf-8"?>
<!-- Generator: Adobe Illustrator 19.1.0, SVG Export Plug-In . SVG Version: 6.00 Build 0)  -->
<svg version="1.1" id="Layer_1" xmlns="http://www.w3.org/2000/svg" xmlns:xlink="http://www.w3.org/1999/xlink" x="0px" y="0px"
	 viewBox="0 0 48 48" style="enable-background:new 0 0 48 48;" xml:space="preserve">

<g id="goodreads">
	<path d="M20.975,20.095c-1.808,0-2.449,1.7-2.449,3.155c0,1.389,0.641,3.01,2.449,3.01c1.639,0,2.385-1.561,2.385-3.01
		C23.36,21.795,22.736,20.095,20.975,20.095z"/>
	<path d="M25.03,26.907c0,2.938-1.326,4.366-4.054,4.366c-1.66,0-3.653-0.741-3.806-2.83l-0.022-0.305h1.582l0.04,0.235
		c0.226,1.317,1.619,1.46,2.207,1.46c1.694,0,2.449-0.902,2.449-2.927v-0.229c-0.601,0.705-1.468,1.105-2.449,1.105
		c-2.58,0-4.12-1.736-4.12-4.646c0-2.688,1.694-4.564,4.12-4.564c0.947,0,1.847,0.417,2.449,1.092V18.82h1.605V26.907z
		 M31.48,21.059l-0.336-0.063c-0.271-0.051-0.531-0.077-0.754-0.077c-1.228,0-2.021,1.032-2.021,2.631v4.483h-2.444v-9.229h2.329
		v0.889c0.53-0.623,1.368-1.119,2.235-1.119c0.349,0,0.488,0.02,0.615,0.037l0.377,0.037V21.059z M33.5,12h-19
		c-1.375,0-2.5,1.125-2.5,2.5v19c0,1.375,1.125,2.5,2.5,2.5h19c1.375,0,2.5-1.125,2.5-2.5v-19C36,13.125,34.875,12,33.5,12z"/>
</g>
</svg>
