<?xml version="1.0" encoding="utf-8"?>
<!-- Generator: Adobe Illustrator 19.1.0, SVG Export Plug-In . SVG Version: 6.00 Build 0)  -->
<svg version="1.1" id="Layer_1" xmlns="http://www.w3.org/2000/svg" xmlns:xlink="http://www.w3.org/1999/xlink" x="0px" y="0px"
	 viewBox="0 0 48 48" style="enable-background:new 0 0 48 48;" xml:space="preserve">

<g id="yelp">
	<path d="M33.5,12h-19c-1.375,0-2.5,1.125-2.5,2.5v19c0,1.375,1.125,2.5,2.5,2.5h19c1.375,0,2.5-1.125,2.5-2.5v-19
		C36,13.125,34.875,12,33.5,12z M19.344,17.015c0.172-0.276,0.493-0.385,0.507-0.389l3.043-1.132c0.133-0.039,0.198-0.06,0.289-0.06
		c0.146,0,0.315,0.059,0.516,0.181c0.323,0.195,0.396,0.824,0.403,0.896l0.03,5.232c-0.004,0.04-0.083,0.712-0.577,0.833
		c-0.058,0.015-0.117,0.022-0.176,0.022c-0.361,0-0.62-0.263-0.63-0.274l-3.175-4.326C19.559,17.979,19.086,17.426,19.344,17.015z
		 M18.159,26.248c-0.256,0-0.375-0.114-0.429-0.209c-0.129-0.226-0.102-0.668-0.099-0.718l0.213-2.626
		c0.021-0.227,0.219-0.439,0.405-0.549c0.071-0.042,0.162-0.063,0.271-0.063c0.25,0,0.527,0.112,0.539,0.117l3.282,1.658
		c0.021,0.01,0.551,0.274,0.539,0.737c-0.014,0.495-0.24,0.606-0.389,0.679l-0.113,0.057l-3.824,0.846
		C18.557,26.177,18.361,26.248,18.159,26.248z M23.739,31.065c-0.081,0.023-0.177,0.036-0.284,0.036
		c-0.167,0-0.306-0.028-0.311-0.03l-2.581-0.812c-0.236-0.113-0.37-0.273-0.448-0.525c-0.094-0.304,0.217-0.736,0.253-0.784
		l2.566-2.826c0.019-0.018,0.294-0.259,0.599-0.259c0.087,0,0.169,0.019,0.243,0.058c0.348,0.179,0.366,0.59,0.367,0.607
		l-0.058,3.821C24.087,30.36,24.151,30.944,23.739,31.065z M25.188,23.083l2.076-3.268c0.004-0.01,0.226-0.439,0.611-0.439
		c0.406,0.032,0.581,0.326,0.588,0.338l1.744,2.053c0.021,0.037,0.181,0.386,0.103,0.688c-0.082,0.312-0.575,0.519-0.631,0.541
		L26,24.071c-0.01,0.003-0.088,0.018-0.198,0.018c-0.292,0-0.514-0.103-0.624-0.288C24.978,23.462,25.179,23.098,25.188,23.083z
		 M30.177,27.457l-1.559,2.229c-0.031,0.029-0.327,0.272-0.641,0.272c-0.32,0-0.646-0.424-0.682-0.473l-1.971-3.288
		c-0.015-0.032-0.251-0.556,0.056-0.864c0.159-0.161,0.361-0.195,0.501-0.195c0.109,0,0.187,0.021,0.195,0.022l3.683,1.183
		c0.012,0.001,0.596,0.111,0.59,0.54C30.346,27.152,30.184,27.444,30.177,27.457z"/>
</g>
</svg>
