<?xml version="1.0" encoding="utf-8"?>
<!-- Generator: Adobe Illustrator 19.1.0, SVG Export Plug-In . SVG Version: 6.00 Build 0)  -->
<svg version="1.1" id="Layer_1" xmlns="http://www.w3.org/2000/svg" xmlns:xlink="http://www.w3.org/1999/xlink" x="0px" y="0px"
	 viewBox="0 0 48 48" style="enable-background:new 0 0 48 48;" xml:space="preserve">

<g id="linux">
	<path d="M27.436,12H33.5c1.381,0,2.5,1.119,2.5,2.5v18.905c-0.179-0.399-0.52-0.719-0.979-0.892l-0.996-0.372l0.335-3.504
		c0.023-0.209,0.04-0.421,0.04-0.637v-1.5c0-2.184-1.229-4.128-3-4.957V17.5C31.4,14.89,29.828,12.83,27.436,12z M12.972,32.515
		l1.003-0.375c0,0-0.375-3.924-0.375-4.14v-1.5c0-2.184,1.229-4.128,3-4.957V17.5c0-2.61,1.572-4.67,3.964-5.5H14.5
		c-1.381,0-2.5,1.119-2.5,2.5v18.905C12.179,33.007,12.517,32.687,12.972,32.515z M34.584,34.277c0,0-2.519,1.149-3.168,1.445
		C30.767,36.019,29.776,36,29.5,36H29c-1.105,0-2-0.896-2-2v-0.5c0-0.276,0-1.333,0.277-1.916c0.277-0.583,1.445-3.168,1.445-3.168
		c0.153-0.23,0.356-0.206,0.453,0.052l0.65,1.735c0.097,0.259,0.391,0.407,0.656,0.333l2.28-0.643
		c0.266-0.075,0.421,0.08,0.346,0.346l-0.643,2.28c-0.075,0.266,0.074,0.56,0.333,0.656l1.735,0.649
		C34.79,33.922,34.814,34.124,34.584,34.277z M13.468,33.825l1.735-0.649c0.259-0.097,0.408-0.391,0.333-0.656l-0.643-2.28
		c-0.075-0.266,0.08-0.42,0.346-0.346l2.28,0.643c0.266,0.075,0.56-0.074,0.656-0.333l0.65-1.735
		c0.097-0.259,0.299-0.282,0.453-0.052c0,0,1.168,2.585,1.445,3.168C21,32.167,21,33.224,21,33.5V34c0,1.104-0.895,2-2,2h-0.5
		c-0.276,0-1.267,0.019-1.916-0.277c-0.649-0.296-3.168-1.445-3.168-1.445C13.186,34.124,13.21,33.922,13.468,33.825z M25.6,33.939
		C25.406,33.979,25.205,34,25,34h-2c-0.205,0-0.406-0.021-0.6-0.061V34c0,0.75-0.252,1.437-0.664,2h4.528
		c-0.413-0.563-0.664-1.25-0.664-2V33.939z M30,22.558V17.5c0-2.75-2.25-4.5-5-4.5h-2c-2.75,0-5,1.75-5,4.5v5.058
		c-1.688,0.281-3,1.938-3,3.942V28c0,0.164,0.014,0.325,0.031,0.484c0.028-0.001,0.054-0.009,0.082-0.009
		c0.169,0,0.339,0.024,0.507,0.072l1.52,0.429l0.374-0.999c0.259-0.69,0.848-1.119,1.536-1.119c0.348,0,0.672,0.124,0.951,0.33
		c0,0,1.35-1.688,3-1.688h2c1.65,0,3,1.688,3,1.688c0.279-0.207,0.603-0.33,0.951-0.33c0.689,0,1.278,0.43,1.536,1.12l0.373,0.997
		l1.522-0.43c0.168-0.047,0.338-0.071,0.506-0.071c0.028,0,0.054,0.008,0.082,0.009C32.986,28.325,33,28.164,33,28v-1.5
		C33,24.496,31.688,22.84,30,22.558z M25,18.5c0-0.55,0.45-1,1-1h1c0.55,0,1,0.45,1,1v1c0,0.479-0.348,0.863-0.8,0.959V20
		c0-0.386-0.314-0.7-0.7-0.7s-0.7,0.314-0.7,0.7v0.459c-0.452-0.096-0.8-0.48-0.8-0.959V18.5z M20,18.5c0-0.55,0.45-1,1-1h1
		c0.55,0,1,0.45,1,1v1c0,0.479-0.348,0.863-0.8,0.959V20c0-0.386-0.314-0.7-0.7-0.7s-0.7,0.314-0.7,0.7v0.459
		c-0.452-0.096-0.8-0.48-0.8-0.959V18.5z M27.687,23.492l-3.105,1.553c-0.16,0.08-0.367,0.124-0.582,0.124s-0.421-0.044-0.582-0.124
		l-3.105-1.553c-0.35-0.175-0.613-0.602-0.613-0.992c0-0.403,0.285-0.815,0.663-0.957l1.653-0.62C22.011,20.949,22,20.973,22,21
		c0,0.275,0.225,0.5,0.5,0.5S23,21.275,23,21c0-0.153-0.073-0.285-0.182-0.377l0.609-0.228c0.158-0.059,0.361-0.091,0.574-0.091
		s0.416,0.032,0.574,0.091l0.609,0.228C25.073,20.715,25,20.847,25,21c0,0.275,0.225,0.5,0.5,0.5S26,21.275,26,21
		c0-0.027-0.011-0.051-0.016-0.077l1.653,0.62c0.378,0.142,0.663,0.554,0.663,0.957C28.3,22.891,28.037,23.317,27.687,23.492z"/>
</g>
</svg>
