<?xml version="1.0" encoding="utf-8"?>
<!-- Generator: Adobe Illustrator 19.1.0, SVG Export Plug-In . SVG Version: 6.00 Build 0)  -->
<svg version="1.1" id="Layer_1" xmlns="http://www.w3.org/2000/svg" xmlns:xlink="http://www.w3.org/1999/xlink" x="0px" y="0px"
	 viewBox="0 0 48 48" style="enable-background:new 0 0 48 48;" xml:space="preserve">

<g id="buffer">
	<path d="M33.5,12h-19c-1.381,0-2.5,1.119-2.5,2.5v19c0,1.381,1.119,2.5,2.5,2.5h19c1.381,0,2.5-1.119,2.5-2.5v-19
		C36,13.119,34.881,12,33.5,12z M32.422,28.611l-7.885,3.942c-0.295,0.147-0.778,0.147-1.073,0l-7.885-3.942
		c-0.295-0.148-0.295-0.389,0-0.537l0.927-0.463c0.295-0.148,0.778-0.148,1.073,0l5.885,2.942c0.295,0.147,0.778,0.147,1.073,0
		l5.885-2.942c0.295-0.148,0.778-0.148,1.073,0l0.927,0.463C32.717,28.222,32.717,28.464,32.422,28.611z M32.422,24.611
		l-7.885,3.942c-0.295,0.147-0.778,0.147-1.073,0l-7.885-3.942c-0.295-0.148-0.295-0.389,0-0.537l0.927-0.463
		c0.295-0.148,0.778-0.148,1.073,0l5.885,2.942c0.295,0.147,0.778,0.147,1.073,0l5.885-2.942c0.295-0.148,0.778-0.148,1.073,0
		l0.927,0.463C32.717,24.222,32.717,24.464,32.422,24.611z M32.422,20.611l-7.885,3.942c-0.295,0.148-0.778,0.148-1.073,0
		l-7.885-3.942c-0.295-0.148-0.295-0.389,0-0.537l7.885-3.942c0.295-0.148,0.778-0.148,1.073,0l7.885,3.942
		C32.717,20.222,32.717,20.464,32.422,20.611z"/>
</g>
</svg>
