<?xml version="1.0" encoding="utf-8"?>
<!-- Generator: Adobe Illustrator 19.1.0, SVG Export Plug-In . SVG Version: 6.00 Build 0)  -->
<svg version="1.1" id="Layer_1" xmlns="http://www.w3.org/2000/svg" xmlns:xlink="http://www.w3.org/1999/xlink" x="0px" y="0px"
	 viewBox="0 0 48 48" style="enable-background:new 0 0 48 48;" xml:space="preserve">
<g id="evernote_1_">
	<path d="M29,25c-0.46,0.05-1.137-0.596-1.648-0.596c-0.389,0-1.254,0.717-1.352,0.596c-0.1-0.12,0.268-3,1-3
		C27.733,22,29.773,24.916,29,25z M36,14.5v19c0,1.375-1.125,2.5-2.5,2.5h-19c-1.375,0-2.5-1.125-2.5-2.5v-19
		c0-1.375,1.125-2.5,2.5-2.5h19C34.875,12,36,13.125,36,14.5z M16,20c0,0,2.346,0,2.811,0C19.748,20,20,19.234,20,19.009
		c0-0.226,0-2.812,0-2.812L16,20z M31,19c0-0.571-1.048-1-2-1c-0.952,0-4,0-4,0s-0.566-1.803-1.503-1.803
		c-0.938,0-1.239-0.005-1.874,0C20.989,16.205,21,16.225,21,17s0,1.438,0,2c0,2-0.546,2-1,2h-3c-0.631-0.042-1,0.301-1,0.818
		c0,0.52,0.741,5.466,1.76,6.485c0.591,0.592,4.205,1.003,4.967,1.003c0.761,0,0.508-2.818,0.72-2.818
		c0.211,0,0.444,1.275,1.643,1.579C26.288,28.37,27.917,28.133,28,29c0.112,1.143-0.015,3-0.755,3H26c-0.714,0-0.762-1,0-1
		c0.508,0,1,0,1,0v-1c0,0-2.889-0.804-3,1c-0.102,1.65-0.381,2.619,0,3c0.381,0.381,0.333,0,3.245,0C31.786,34,31,19.571,31,19z"/>
</g>
</svg>
