<?xml version="1.0" encoding="utf-8"?>
<!-- Generator: Adobe Illustrator 19.1.0, SVG Export Plug-In . SVG Version: 6.00 Build 0)  -->
<svg version="1.1" id="Layer_1" xmlns="http://www.w3.org/2000/svg" xmlns:xlink="http://www.w3.org/1999/xlink" x="0px" y="0px"
	 viewBox="0 0 48 48" style="enable-background:new 0 0 48 48;" xml:space="preserve">

<g id="apple">
	<path d="M33.5,12h-19c-1.375,0-2.5,1.125-2.5,2.5v19c0,1.375,1.125,2.5,2.5,2.5h19c1.375,0,2.5-1.125,2.5-2.5v-19
		C36,13.125,34.875,12,33.5,12z M24.511,15.677c0.605-0.712,1.658-1.255,2.499-1.293c0.111,1.005-0.287,1.993-0.868,2.721
		c-0.606,0.715-1.577,1.262-2.522,1.191C23.496,17.33,23.975,16.305,24.511,15.677z M29.361,29.245
		c-0.696,1.041-1.427,2.061-2.587,2.078c-1.127,0.025-1.506-0.661-2.798-0.661c-1.304,0-1.707,0.644-2.788,0.687
		c-1.105,0.04-1.949-1.11-2.671-2.145c-1.444-2.108-2.567-5.944-1.06-8.553c0.73-1.279,2.061-2.103,3.485-2.125
		c1.106-0.022,2.131,0.748,2.811,0.748c0.666,0,1.936-0.921,3.244-0.783c0.548,0.016,2.105,0.214,3.11,1.682
		c-0.081,0.047-1.856,1.09-1.836,3.234c0.023,2.568,2.249,3.417,2.274,3.427C30.531,26.894,30.196,28.06,29.361,29.245z"/>
</g>
</svg>
