<?xml version="1.0" encoding="utf-8"?>
<!-- Generator: Adobe Illustrator 19.1.0, SVG Export Plug-In . SVG Version: 6.00 Build 0)  -->
<svg version="1.1" id="Layer_1" xmlns="http://www.w3.org/2000/svg" xmlns:xlink="http://www.w3.org/1999/xlink" x="0px" y="0px"
	 viewBox="0 0 48 48" style="enable-background:new 0 0 48 48;" xml:space="preserve">

<g id="e-mail-envelope">
	<path d="M33.5,12h-19c-1.381,0-2.5,1.119-2.5,2.5v19c0,1.381,1.119,2.5,2.5,2.5h19c1.381,0,2.5-1.119,2.5-2.5v-19
		C36,13.119,34.881,12,33.5,12z M31.211,30.011c-0.024,0.057-0.104,0.189-0.334,0.189H17.123c-0.23,0-0.31-0.133-0.334-0.189
		c-0.023-0.058-0.061-0.208,0.104-0.374l4.361-4.371c0.094-0.094,0.22-0.146,0.353-0.146c0.134,0,0.26,0.052,0.354,0.146l1.969,1.97
		c0,0,0.038,0.024,0.07,0.024s0.07-0.024,0.07-0.024l1.969-1.967c0.094-0.093,0.218-0.145,0.352-0.145s0.26,0.052,0.354,0.146
		l4.361,4.366C31.271,29.803,31.234,29.953,31.211,30.011z M16.8,27.289v-6.578c0-0.097,0-0.354,0.231-0.354
		c0.1,0,0.173,0.064,0.233,0.125l3.144,3.166c0.188,0.188,0.177,0.505-0.022,0.705l-3.12,3.165
		c-0.062,0.062-0.135,0.126-0.234,0.126C16.8,27.644,16.8,27.386,16.8,27.289z M27.658,23.647l3.075-3.164
		c0.062-0.062,0.136-0.127,0.235-0.127c0.231,0,0.231,0.258,0.231,0.354c0,0,0,6.495,0,6.595s0.01,0.209-0.13,0.304
		c-0.14,0.095-0.274-0.031-0.335-0.091l-3.079-3.167C27.465,24.158,27.465,23.842,27.658,23.647z M31.107,18.362l-6.755,6.8
		c-0.094,0.095-0.22,0.146-0.353,0.146s-0.259-0.052-0.353-0.146l-6.755-6.801c-0.165-0.165-0.127-0.316-0.104-0.373
		c0.024-0.058,0.104-0.189,0.334-0.189h13.754c0.23,0,0.31,0.132,0.334,0.189C31.234,18.046,31.272,18.197,31.107,18.362z"/>
</g>
</svg>
