<?xml version="1.0" encoding="utf-8"?>
<!-- Generator: Adobe Illustrator 19.1.0, SVG Export Plug-In . SVG Version: 6.00 Build 0)  -->
<svg version="1.1" id="Layer_1" xmlns="http://www.w3.org/2000/svg" xmlns:xlink="http://www.w3.org/1999/xlink" x="0px" y="0px"
	 viewBox="0 0 48 48" style="enable-background:new 0 0 48 48;" xml:space="preserve">

<g id="blogger">
	<path d="M26.616,26.128h-5.167c-0.51,0-0.924,0.416-0.924,0.927c0,0.511,0.414,0.926,0.924,0.926h5.167
		c0.511,0,0.926-0.415,0.926-0.926C27.542,26.544,27.127,26.128,26.616,26.128z"/>
	<path d="M21.455,22.959h2.574c0.536,0,0.972-0.437,0.972-0.973c0-0.536-0.436-0.973-0.972-0.973h-2.574
		c-0.536,0-0.972,0.436-0.972,0.973C20.483,22.522,20.919,22.959,21.455,22.959z"/>
	<path d="M33.5,12h-19c-1.375,0-2.5,1.125-2.5,2.5v19c0,1.375,1.125,2.5,2.5,2.5h19c1.375,0,2.5-1.125,2.5-2.5v-19
		C36,13.125,34.875,12,33.5,12z M31,27c0,2.45-2.549,4-5,4h-4c-2.451,0-5-1.55-5-4v-5c0-2.45,1.549-4,4-4h3
		c2.45,0,4.306,1.521,4.306,3.972c0.039,0.544,0.481,0.954,1.009,0.954L30.189,23C30.636,23,31,23.364,31,23.81V27z"/>
</g>
</svg>
