<?xml version="1.0" encoding="utf-8"?>
<!-- Generator: Adobe Illustrator 19.1.0, SVG Export Plug-In . SVG Version: 6.00 Build 0)  -->
<svg version="1.1" id="Layer_1" xmlns="http://www.w3.org/2000/svg" xmlns:xlink="http://www.w3.org/1999/xlink" x="0px" y="0px"
	 viewBox="0 0 48 48" style="enable-background:new 0 0 48 48;" xml:space="preserve">

<g id="wikipedia">
	<path d="M33.5,12h-19c-1.381,0-2.5,1.119-2.5,2.5v19c0,1.381,1.119,2.5,2.5,2.5h19c1.381,0,2.5-1.119,2.5-2.5v-19
		C36,13.119,34.881,12,33.5,12z M34.32,19.598c-0.118,0.153-0.253,0.186-0.347,0.186c-0.365,0.036-0.684,0.16-0.925,0.369
		c-0.252,0.218-0.524,0.658-0.808,1.308l-4.59,10.343c-0.021,0.069-0.129,0.293-0.48,0.293c-0.194,0-0.359-0.093-0.464-0.263
		l-2.379-4.958l-2.725,4.947c-0.112,0.181-0.277,0.273-0.471,0.273c-0.229,0-0.408-0.107-0.49-0.294L16.132,21.46
		c-0.265-0.604-0.541-0.919-0.821-1.15C15.039,20.086,14.645,20,14.138,20c-0.001,0-0.188-0.139-0.299-0.272
		c-0.08-0.095-0.123-0.264-0.123-0.387c0-0.474,0.329-0.525,0.395-0.525c0.409,0,0.835,0.005,1.281,0.041
		c0.402,0.035,0.78,0.047,1.133,0.047c0.361,0,0.787-0.022,1.279-0.057c0.529-0.036,0.998-0.056,1.404-0.056
		c0.066,0,0.395,0.024,0.395,0.497c0,0.448-0.238,0.497-0.34,0.497c-0.333,0.025-0.608,0.112-0.799,0.257
		c-0.169,0.128-0.248,0.283-0.248,0.488c0,0.075,0.021,0.213,0.123,0.441l3.473,7.966l1.858-3.452l-1.919-4.016
		c-0.421-0.884-0.677-1.118-0.818-1.25C20.747,20.043,20.041,20,20.039,20c-0.06,0-0.18-0.141-0.289-0.279
		c-0.073-0.094-0.112-0.26-0.112-0.381c0-0.474,0.313-0.525,0.376-0.525c0.412,0,0.79,0.006,1.133,0.041
		c0.317,0.036,0.653,0.047,1.009,0.047c0.353,0,0.726-0.022,1.12-0.057c0.422-0.036,0.837-0.056,1.246-0.056
		c0.066,0,0.394,0.024,0.394,0.497c0,0.433-0.213,0.497-0.34,0.497c-0.426,0.029-0.955,0.13-0.955,0.438
		c0,0.08,0.033,0.281,0.253,0.732l1.089,2.209l1.067-1.993c0.159-0.305,0.241-0.558,0.241-0.75c0-0.178,0-0.594-0.967-0.637
		c0,0-0.347-0.037-0.347-0.497c0-0.11,0.033-0.215,0.098-0.31c0.104-0.155,0.229-0.188,0.314-0.188c0.294,0,0.654,0.019,1.083,0.055
		c0.395,0.035,0.717,0.054,0.969,0.054c0.182,0,0.448-0.016,0.799-0.044c0.462-0.043,0.851-0.064,1.163-0.064
		c0.06,0,0.358,0.022,0.358,0.462c0,0.394-0.231,0.533-0.448,0.533c-0.396,0.043-0.735,0.157-0.981,0.34
		c-0.175,0.13-0.49,0.472-0.998,1.361l-1.663,3.081l2.041,4.163l3.244-7.538c0.105-0.261,0.16-0.503,0.16-0.716
		c0-0.302-0.11-0.653-0.967-0.691c0,0-0.347-0.037-0.347-0.497c0-0.367,0.222-0.498,0.412-0.498c0.3,0,0.655,0.019,1.066,0.055
		c0.365,0.035,0.668,0.054,0.914,0.054c0.256,0,0.554-0.019,0.892-0.054c0.37-0.036,0.702-0.055,0.998-0.055
		c0.173,0,0.376,0.121,0.376,0.462C34.44,19.377,34.4,19.494,34.32,19.598z"/>
</g>
</svg>
