<?xml version="1.0" encoding="utf-8"?>
<!-- Generator: Adobe Illustrator 19.1.0, SVG Export Plug-In . SVG Version: 6.00 Build 0)  -->
<svg version="1.1" id="Layer_1" xmlns="http://www.w3.org/2000/svg" xmlns:xlink="http://www.w3.org/1999/xlink" x="0px" y="0px"
	 viewBox="0 0 48 48" style="enable-background:new 0 0 48 48;" xml:space="preserve">

<g id="twitter">
	<path d="M33.5,12h-19c-1.375,0-2.5,1.125-2.5,2.5v19c0,1.375,1.125,2.5,2.5,2.5h19c1.375,0,2.5-1.125,2.5-2.5v-19
		C36,13.125,34.875,12,33.5,12z M31.143,20.908c0.006,0.153,0.01,0.309,0.01,0.464c0,4.738-3.606,10.2-10.2,10.2
		c-2.025,0-3.909-0.593-5.495-1.611c0.281,0.033,0.566,0.051,0.855,0.051c1.679,0,3.225-0.573,4.452-1.534
		c-1.569-0.028-2.892-1.065-3.349-2.489c0.219,0.043,0.444,0.062,0.675,0.062c0.327,0,0.643-0.045,0.944-0.125
		c-1.641-0.328-2.876-1.777-2.876-3.516c0-0.016,0-0.028,0-0.044c0.483,0.268,1.036,0.431,1.624,0.446
		c-0.961-0.642-1.595-1.739-1.595-2.982c0-0.657,0.177-1.273,0.485-1.802c1.768,2.168,4.409,3.596,7.39,3.745
		c-0.062-0.263-0.093-0.536-0.093-0.818c0-1.978,1.605-3.583,3.585-3.583c1.031,0,1.963,0.434,2.617,1.132
		c0.816-0.161,1.583-0.459,2.276-0.871c-0.267,0.839-0.836,1.54-1.576,1.983c0.726-0.084,1.416-0.277,2.059-0.563
		C32.45,19.771,31.843,20.401,31.143,20.908z"/>
</g>
</svg>
