<?xml version="1.0" encoding="utf-8"?>
<!-- Generator: Adobe Illustrator 19.1.0, SVG Export Plug-In . SVG Version: 6.00 Build 0)  -->
<svg version="1.1" id="Layer_1" xmlns="http://www.w3.org/2000/svg" xmlns:xlink="http://www.w3.org/1999/xlink" x="0px" y="0px"
	 viewBox="0 0 48 48" style="enable-background:new 0 0 48 48;" xml:space="preserve">

<g id="etsy">
	<path d="M33.5,12h-19c-1.381,0-2.5,1.119-2.5,2.5v19c0,1.381,1.119,2.5,2.5,2.5h19c1.381,0,2.5-1.119,2.5-2.5v-19
		C36,13.119,34.881,12,33.5,12z M29.349,32.349c-0.451,0-0.261-0.23-2.242-0.23c-1.981,0-8.817,0.044-9.96,0.044
		c-0.424,0-0.512-0.12-0.512-0.381c0-0.261,0.137-0.457,0.497-0.457c0.359,0,1.868-0.149,1.868-2.086V19.17
		c0-1.045-0.214-2.24-1.498-2.371c-0.501-0.043-0.461-0.261-0.472-0.511c-0.01-0.228,0.08-0.414,0.385-0.414
		c0.305,0,3.398,0.098,5.477,0.098c4.31,0,5.345-0.348,6.086-0.348c0.414,0.011,0.501,0.327,0.501,0.512s-0.196,0.577-0.196,1.088
		c0,0.512,0.12,1.206,0.12,1.652s-0.381,0.599-0.588,0.599c-0.207,0-0.337-0.076-0.348-0.457c-0.022-0.729,0.512-1.785-4.724-1.785
		c-2.667,0-2.732,0.305-2.732,1.154s0.022,3.635,0.022,4.07c0,0.436,0.131,0.543,0.479,0.543h4.121c0.74,0,1.491-0.38,1.578-1.425
		c0.033-0.555,0.185-0.566,0.457-0.566c0.272,0,0.522,0.223,0.479,0.746c-0.044,0.523-0.102,1.081-0.102,1.832
		c0,0.751,0.102,1.493,0.102,2.037c0,0.544-0.719,0.609-0.86,0.021C27.145,25.057,26.939,24,25.262,24h-3.696
		C21.196,24,21,24.341,21,24.95v4.343c0,0.751,0.234,1.556,1.758,1.556c1.524,0,4.291,0.163,5.554-0.827
		c0.544-0.446,0.709-1.067,0.894-2.079c0.087-0.468,1.1-0.457,1.057,0.62C30.23,29.065,29.75,30.31,29.75,31
		C29.75,31.577,29.883,32.349,29.349,32.349z"/>
</g>
</svg>
