<?xml version="1.0" encoding="utf-8"?>
<!-- Generator: Adobe Illustrator 19.1.0, SVG Export Plug-In . SVG Version: 6.00 Build 0)  -->
<svg version="1.1" id="Layer_1" xmlns="http://www.w3.org/2000/svg" xmlns:xlink="http://www.w3.org/1999/xlink" x="0px" y="0px"
	 viewBox="0 0 48 48" style="enable-background:new 0 0 48 48;" xml:space="preserve">

<g id="quora">
	<path d="M33.5,12h-19c-1.375,0-2.5,1.125-2.5,2.5v19c0,1.375,1.125,2.5,2.5,2.5h19c1.375,0,2.5-1.125,2.5-2.5v-19
		C36,13.125,34.875,12,33.5,12z M28.671,29.875l0.098,0.025c0.419,0.109,0.549,0.935,0.498,1.328
		c-0.058,0.454-0.315,0.503-0.423,0.503c-0.185,0-1.144-0.017-1.878-0.346c-0.453-0.202-0.892-0.452-1.286-1.238
		c-0.381,0.112-0.646,0.153-0.646,0.153c-0.523,0.091-1.042,0.137-1.541,0.137c-2.258,0-4.189-0.944-5.435-2.658
		c-1.414-1.942-1.771-4.604-0.958-7.118c0.689-2.131,2.748-4.7,6.284-4.929c0.21-0.014,0.415-0.021,0.616-0.021
		c3.855,0,6.526,2.53,6.803,6.447c0.215,3.052-0.99,5.705-3.232,7.143C27.978,29.701,28.346,29.794,28.671,29.875z"/>
	<path d="M23.727,17.94c-0.164,0-0.334,0.011-0.51,0.032c-0.565,0.071-1.026,0.287-1.271,0.466c-0.867,0.635-1.45,2.247-1.522,4.209
		c-0.079,2.165,0.484,4.146,1.403,4.928c0.482,0.412,1.211,0.648,2,0.648c0.377,0,0.744-0.054,1.074-0.158
		c-0.533-0.903-1.421-0.961-1.769-0.983c-0.23-0.02-0.391-0.135-0.377-0.415c0.019-0.397,0.408-1.193,0.87-1.193
		c0,0,1.575-0.172,2.81,0.899c0.033,0.028,0.062,0.064,0.092,0.099c0.919-2.065,0.863-5.477-0.161-7.124
		C26.039,18.821,25.261,17.94,23.727,17.94z"/>
</g>
</svg>
