<?xml version="1.0" encoding="utf-8"?>
<!-- Generator: Adobe Illustrator 19.1.0, SVG Export Plug-In . SVG Version: 6.00 Build 0)  -->
<svg version="1.1" id="Layer_1" xmlns="http://www.w3.org/2000/svg" xmlns:xlink="http://www.w3.org/1999/xlink" x="0px" y="0px"
	 viewBox="0 0 48 48" style="enable-background:new 0 0 48 48;" xml:space="preserve">

<g id="open-id">
	<path d="M33.5,12h-19c-1.381,0-2.5,1.119-2.5,2.5v19c0,1.381,1.119,2.5,2.5,2.5h19c1.381,0,2.5-1.119,2.5-2.5v-19
		C36,13.119,34.881,12,33.5,12z M26.078,29.953l-2.156,0.999l-0.227-0.02c-4.604-0.406-7.945-2.834-7.945-5.773
		c0-2.724,3.099-5.076,7.272-5.678v2.263c-2.378,0.524-4.115,1.886-4.115,3.415c0,1.719,2.041,3.222,4.852,3.574l0.163,0.021V16.374
		l2.156-1.054V29.953z M27.201,23.684l1.685-1.294c-0.504-0.238-1.321-0.512-1.908-0.643v-2.261
		c1.558,0.225,2.649,0.591,3.836,1.278l1.567-1.383l0.888,4.883L27.201,23.684z"/>
</g>
</svg>
