<?xml version="1.0" encoding="utf-8"?>
<!-- Generator: Adobe Illustrator 19.1.0, SVG Export Plug-In . SVG Version: 6.00 Build 0)  -->
<svg version="1.1" id="Layer_1" xmlns="http://www.w3.org/2000/svg" xmlns:xlink="http://www.w3.org/1999/xlink" x="0px" y="0px"
	 viewBox="0 0 48 48" style="enable-background:new 0 0 48 48;" xml:space="preserve">

<g id="myspace">
	<path d="M33.5,12h-19c-1.381,0-2.5,1.119-2.5,2.5v19c0,1.381,1.119,2.5,2.5,2.5h19c1.381,0,2.5-1.119,2.5-2.5v-19
		C36,13.119,34.881,12,33.5,12z M29.256,19.344c1.427,0,2.588,1.158,2.588,2.581c0,1.423-1.161,2.581-2.588,2.581
		c-1.428,0-2.59-1.158-2.59-2.581C26.666,20.502,27.828,19.344,29.256,19.344z M23.488,20.301c1.291,0,2.34,1.046,2.34,2.332
		c0,1.285-1.05,2.332-2.34,2.332c-1.291,0-2.341-1.047-2.341-2.332C21.147,21.347,22.197,20.301,23.488,20.301z M18.246,21.16
		c1.167,0,2.117,0.945,2.117,2.109c0,1.162-0.95,2.108-2.117,2.108s-2.117-0.945-2.117-2.108
		C16.129,22.105,17.079,21.16,18.246,21.16z M20.561,28.799c0,0.166-0.135,0.301-0.302,0.301h-3.958
		c-0.237,0-0.373-0.135-0.373-0.301v-0.781c0-1.228,0.935-2.27,2.129-2.373l0.19-0.008l0.105,0.003
		c1.273,0.108,2.208,1.15,2.208,2.378V28.799z M26.05,28.776c0,0.179-0.145,0.323-0.323,0.323h-4.398
		c-0.258,0-0.403-0.145-0.403-0.323v-0.867c0-1.358,1.035-2.512,2.355-2.627l0.134-0.007h0.153l0.127,0.007
		c1.32,0.114,2.355,1.269,2.355,2.627V28.776z M32.092,28.752c0,0.191-0.157,0.348-0.349,0.348h-4.886
		c-0.28,0-0.437-0.156-0.437-0.348v-0.964c0-1.504,1.145-2.78,2.606-2.906l0.104-0.009l0.254,0.001l0.103,0.008
		c1.46,0.126,2.605,1.402,2.605,2.906V28.752z"/>
</g>
</svg>
