<?xml version="1.0" encoding="utf-8"?>
<!-- Generator: Adobe Illustrator 19.1.0, SVG Export Plug-In . SVG Version: 6.00 Build 0)  -->
<svg version="1.1" id="Layer_1" xmlns="http://www.w3.org/2000/svg" xmlns:xlink="http://www.w3.org/1999/xlink" x="0px" y="0px"
	 viewBox="0 0 48 48" style="enable-background:new 0 0 48 48;" xml:space="preserve">

<g id="tumblr">
	<path d="M33.5,12h-19c-1.375,0-2.5,1.125-2.5,2.5v19c0,1.375,1.125,2.5,2.5,2.5h19c1.375,0,2.5-1.125,2.5-2.5v-19
		C36,13.125,34.875,12,33.5,12z M23.647,32.25c-0.343,0-0.583-0.002-0.935,0C21.168,32.262,19,31.815,19,29.315V23h-2v-3
		c0,0,1.554-0.022,2.477-1.096c0.923-1.073,0.902-1.881,0.957-2.904H23v4h4v3h-4v5.816c0,0.342,0.978,0.852,1.819,0.852
		c0.811,0,1.523-0.322,2.181-0.735v2.811C26.458,32.033,26.006,32.25,23.647,32.25z M30.5,32.581c-1.147,0-2.081-0.935-2.081-2.081
		s0.935-2.081,2.081-2.081c1.146,0,2.081,0.935,2.081,2.081S31.646,32.581,30.5,32.581z"/>
</g>
</svg>
