<?xml version="1.0" encoding="utf-8"?>
<!-- Generator: Adobe Illustrator 19.1.0, SVG Export Plug-In . SVG Version: 6.00 Build 0)  -->
<svg version="1.1" id="Layer_1" xmlns="http://www.w3.org/2000/svg" xmlns:xlink="http://www.w3.org/1999/xlink" x="0px" y="0px"
	 viewBox="0 0 48 48" style="enable-background:new 0 0 48 48;" xml:space="preserve">

<g id="deviantart_2_">
	<path d="M33.5,12h-19c-1.375,0-2.5,1.125-2.5,2.5v19c0,1.375,1.125,2.5,2.5,2.5h19c1.375,0,2.5-1.125,2.5-2.5v-19
		C36,13.125,34.875,12,33.5,12z M24,26v1h-9c-0.018-0.134,0-0.488,0-0.626c0-1.42,0.728-3.148,2.459-4.207
		c1.046-0.641,2.332-1.084,4.062-1.25l-0.043,0.688c-2.666,0.562-3.66,2.051-3.966,3.679l-0.134,0.714L22,26v-7h2V26z M34,27h-9v-4
		h2v3c0,0,3.457-0.016,4.646-0.016C31.828,24.163,30.187,22,25.344,22c-0.103,0-0.233,0-0.333,0l0.011-0.896
		c0.1-0.001,0.221-0.007,0.322-0.007c2.699,0,4.395,0.203,6.115,1.257C33.189,23.412,34,24.602,34,26.021C34,26.159,34,27,34,27z"/>
</g>
</svg>
