<?xml version="1.0" encoding="utf-8"?>
<!-- Generator: Adobe Illustrator 19.1.0, SVG Export Plug-In . SVG Version: 6.00 Build 0)  -->
<svg version="1.1" id="Layer_1" xmlns="http://www.w3.org/2000/svg" xmlns:xlink="http://www.w3.org/1999/xlink" x="0px" y="0px"
	 viewBox="0 0 48 48" style="enable-background:new 0 0 48 48;" xml:space="preserve">
<g id="wordpress">
	<path d="M33.5,12h-19c-1.375,0-2.5,1.125-2.5,2.5v19c0,1.375,1.125,2.5,2.5,2.5h19c1.375,0,2.5-1.125,2.5-2.5v-19
		C36,13.125,34.875,12,33.5,12z M23.547,14.818c3.865,0,6.389,2.701,6.389,2.701s-0.263-0.028-0.694-0.028
		c-0.955,0-1.355,0.687-1.355,1.329c0,0.599,0.36,1.043,0.784,1.754c0.424,0.711,0.9,1.56,0.9,2.66c0,0.728-0.243,1.53-0.591,2.643
		l-1.106,3.699L24.465,19.43c0,0,1.24-0.095,1.242-0.095c0.145-0.018,0.148-0.134,0.146-0.169c-0.002-0.034-0.018-0.146-0.151-0.146
		c-0.025,0.001-1.431,0.11-2.333,0.11c-0.848,0-2.236-0.105-2.295-0.11l0,0c-0.15,0-0.162,0.134-0.162,0.16
		c-0.002,0.055,0.014,0.146,0.136,0.154c0.015,0.001,1.038,0.089,1.038,0.089l1.416,3.884l-2.104,6.312L17.973,19.43
		c0,0,1.238-0.095,1.24-0.095c0.144-0.018,0.148-0.134,0.146-0.169c-0.002-0.034-0.02-0.146-0.152-0.146
		c-0.025,0.001-2.851,0.09-3.254,0.09C17.068,17.158,20.147,14.818,23.547,14.818z M14.694,23.672c0-1.25,0.448-2.958,0.969-4.054
		c0.337,1.096,4.118,11.429,4.466,12.238C17.619,30.762,14.694,27.994,14.694,23.672z M23.547,32.525
		c-0.846,0-1.928-0.097-2.701-0.419c0.438-1.201,2.848-8.276,2.848-8.276s2.842,7.628,3.026,8.113
		C25.619,32.429,24.553,32.525,23.547,32.525z M27.999,31.325l-0.466,0.272l2.818-8.152c0.443-1.106,0.647-2.067,0.647-3.034
		c0-0.308-0.021-0.595-0.057-0.862l0.374-0.123c0.709,1.293,1.084,2.762,1.084,4.247C32.4,26.809,30.714,29.741,27.999,31.325z"/>
</g>
</svg>
