<?xml version="1.0" encoding="utf-8"?>
<!-- Generator: Adobe Illustrator 19.1.0, SVG Export Plug-In . SVG Version: 6.00 Build 0)  -->
<svg version="1.1" id="Layer_1" xmlns="http://www.w3.org/2000/svg" xmlns:xlink="http://www.w3.org/1999/xlink" x="0px" y="0px"
	 viewBox="0 0 48 48" style="enable-background:new 0 0 48 48;" xml:space="preserve">

<g id="flickr_2_">
	<g>
		<path d="M33.5,12h-19c-1.381,0-2.5,1.119-2.5,2.5v19c0,1.381,1.119,2.5,2.5,2.5h19c1.381,0,2.5-1.119,2.5-2.5v-19
			C36,13.119,34.881,12,33.5,12z M19.5,27.25c-1.934,0-3.5-1.566-3.5-3.5s1.566-3.5,3.5-3.5c1.934,0,3.5,1.566,3.5,3.5
			S21.434,27.25,19.5,27.25z M28.5,27.25c-1.934,0-3.5-1.566-3.5-3.5s1.566-3.5,3.5-3.5c1.934,0,3.5,1.566,3.5,3.5
			S30.434,27.25,28.5,27.25z"/>
	</g>
	<g class="st0">
		<circle cx="19.5" cy="23.75" r="3.5"/>
	</g>
</g>
</svg>
