<?xml version="1.0" encoding="utf-8"?>
<!-- Generator: Adobe Illustrator 19.1.0, SVG Export Plug-In . SVG Version: 6.00 Build 0)  -->
<svg version="1.1" id="Layer_1" xmlns="http://www.w3.org/2000/svg" xmlns:xlink="http://www.w3.org/1999/xlink" x="0px" y="0px"
	 viewBox="0 0 48 48" style="enable-background:new 0 0 48 48;" xml:space="preserve">

<g id="pocket">
	<path d="M28.761,21.302c0.438,0.457,0.423,1.182-0.034,1.62l-3.929,3.769c-0.222,0.213-0.508,0.319-0.793,0.319
		c-0.286,0-0.571-0.106-0.793-0.319l-3.93-3.769c-0.457-0.438-0.472-1.163-0.034-1.619c0.438-0.457,1.163-0.472,1.62-0.034
		l3.137,3.008l3.136-3.008C27.598,20.831,28.324,20.846,28.761,21.302z M36,14.5v19c0,1.381-1.119,2.5-2.5,2.5h-19
		c-1.381,0-2.5-1.119-2.5-2.5v-19c0-1.381,1.119-2.5,2.5-2.5h19C34.881,12,36,13.119,36,14.5z M32,18c0-0.55-0.45-1-1-1H17
		c-0.55,0-1,0.45-1,1c0,0,0,4,0,6s1.886,7.334,8.005,7.334S32,26,32,24S32,18,32,18z"/>
</g>
</svg>
