<?xml version="1.0" encoding="utf-8"?>
<!-- Generator: Adobe Illustrator 19.1.0, SVG Export Plug-In . SVG Version: 6.00 Build 0)  -->
<svg version="1.1" id="Layer_1" xmlns="http://www.w3.org/2000/svg" xmlns:xlink="http://www.w3.org/1999/xlink" x="0px" y="0px"
	 viewBox="0 0 48 48" style="enable-background:new 0 0 48 48;" xml:space="preserve">

<g id="picasa">
	<path d="M33.5,12h-19c-1.375,0-2.5,1.125-2.5,2.5v19c0,1.375,1.125,2.5,2.5,2.5h19c1.375,0,2.5-1.125,2.5-2.5v-19
		C36,13.125,34.875,12,33.5,12z M23.871,16.146c1.125,0,2.129,0.098,3.129,0.563c0,0.111,0,5.018,0,5.377
		c0-0.243-5.719-5.24-5.927-5.429C21.959,16.326,22.935,16.146,23.871,16.146z M16.127,24c0-2.962,1.638-5.63,4.275-6.984
		c0.09,0.082,2.84,2.578,2.973,2.699c-0.137,0.123-6.749,6.131-6.962,6.325C16.229,25.359,16.127,24.675,16.127,24z M20,30.813
		c-1.25-0.729-2.521-1.896-3.245-3.909C16.846,26.822,20,24.193,20,23.955C20,24.316,20,30.605,20,30.813z M21,31.313
		c0-0.334,0-2.071,0-3.36h9.854c-0.998,1.674-2.604,2.798-4.167,3.423C25.125,32.001,22.437,32.042,21,31.313z M31.312,27
		C31.188,27,28,27,28,27c0-1,0-9.374,0-9.812c1.259,0.684,3.187,2.708,3.583,4.541S31.937,25.063,31.312,27z"/>
</g>
</svg>
