<?xml version="1.0" encoding="utf-8"?>
<!-- Generator: Adobe Illustrator 19.1.0, SVG Export Plug-In . SVG Version: 6.00 Build 0)  -->
<svg version="1.1" id="Layer_1" xmlns="http://www.w3.org/2000/svg" xmlns:xlink="http://www.w3.org/1999/xlink" x="0px" y="0px"
	 viewBox="0 0 48 48" style="enable-background:new 0 0 48 48;" xml:space="preserve">

<g id="google-drive">
	<path d="M33.5,12h-19c-1.381,0-2.5,1.119-2.5,2.5v19c0,1.381,1.119,2.5,2.5,2.5h19c1.381,0,2.5-1.119,2.5-2.5v-19
		C36,13.119,34.881,12,33.5,12z M26.958,15.981l6.044,10.298h-5.998l-5.863-10.315L26.958,15.981z M14.806,26.868l6.003-10.334
		l2.882,5.071l-6.059,10.431L14.806,26.868z M30.275,32.034l-11.983,0.002l3.012-5.186h11.993L30.275,32.034z"/>
</g>
</svg>
