<?xml version="1.0" encoding="utf-8"?>
<!-- Generator: Adobe Illustrator 19.1.0, SVG Export Plug-In . SVG Version: 6.00 Build 0)  -->
<svg version="1.1" id="Layer_1" xmlns="http://www.w3.org/2000/svg" xmlns:xlink="http://www.w3.org/1999/xlink" x="0px" y="0px"
	 viewBox="0 0 48 48" style="enable-background:new 0 0 48 48;" xml:space="preserve">

<g id="xbox">
	<path d="M33.5,12h-19c-1.375,0-2.5,1.125-2.5,2.5v19c0,1.375,1.125,2.5,2.5,2.5h19c1.375,0,2.5-1.125,2.5-2.5v-19
		C36,13.125,34.875,12,33.5,12z M23.99,16.776c1.792,0,3.314,0.618,4.693,1.733c0,0-2.133-1.262-4.694,1.037
		c-2.893-2.109-4.69-1.037-4.69-1.037C20.56,17.428,22.2,16.776,23.99,16.776z M16.764,23.998c0-1.903,0.736-3.635,1.942-4.924
		c0,0,1.262,0.558,3.388,1.867c-4.743,4.905-3.752,7.564-3.752,7.564C17.352,27.27,16.764,25.703,16.764,23.998z M23.99,31.213
		c-2.053,0-3.907-0.857-5.22-2.234c0,0,1.172-3.505,5.195-6.473c4.488,3.312,5.254,6.463,5.254,6.463
		C27.907,30.353,26.049,31.213,23.99,31.213z M29.645,28.506c0,0,0.992-2.659-3.749-7.564c2.125-1.31,3.387-1.867,3.387-1.867
		c1.207,1.289,1.943,3.021,1.943,4.924C31.227,25.703,30.635,27.27,29.645,28.506z"/>
</g>
</svg>
