<?xml version="1.0" encoding="utf-8"?>
<!-- Generator: Adobe Illustrator 19.1.0, SVG Export Plug-In . SVG Version: 6.00 Build 0)  -->
<svg version="1.1" id="Layer_1" xmlns="http://www.w3.org/2000/svg" xmlns:xlink="http://www.w3.org/1999/xlink" x="0px" y="0px"
	 viewBox="0 0 48 48" style="enable-background:new 0 0 48 48;" xml:space="preserve">

<g id="google-plus">
	<path d="M33.5,12h-19c-1.375,0-2.5,1.125-2.5,2.5v19c0,1.375,1.125,2.5,2.5,2.5h19c1.375,0,2.5-1.125,2.5-2.5v-19
		C36,13.125,34.875,12,33.5,12z M21.1,31.24c-3.97,0-7.2-3.23-7.2-7.2s3.23-7.2,7.2-7.2c1.838,0,3.507,0.651,4.827,1.884
		l0.154,0.145l-2.19,2.109l-0.139-0.133c-0.486-0.468-1.34-1.024-2.651-1.024c-2.283,0-4.14,1.893-4.14,4.22c0,2.28,1.78,4,4.14,4
		c2.475,0,3.472-1.874,3.723-2.84H20.8v-2.4h6.91c0.145,0,0.31,0,0.31,1.38C28.02,28.337,25.174,31.24,21.1,31.24z M35,25h-2v2h-2
		v-2h-2v-2h2v-2h2v2h2V25z"/>
</g>
</svg>
