<?xml version="1.0" encoding="utf-8"?>
<!-- Generator: Adobe Illustrator 19.1.0, SVG Export Plug-In . SVG Version: 6.00 Build 0)  -->
<svg version="1.1" id="Layer_1" xmlns="http://www.w3.org/2000/svg" xmlns:xlink="http://www.w3.org/1999/xlink" x="0px" y="0px"
	 viewBox="0 0 48 48" style="enable-background:new 0 0 48 48;" xml:space="preserve">

<g id="bitbucket">
	<path d="M28.023,18.925c-0.035,0.235-1.476,0.692-4.024,0.692c-2.537-0.004-3.988-0.468-4.022-0.704
		c0.035-0.235,1.475-0.692,3.991-0.692h0.033C26.538,18.225,27.989,18.688,28.023,18.925z M25.896,24.293
		c0,1.046-0.851,1.896-1.896,1.896s-1.896-0.851-1.896-1.896c0-1.045,0.851-1.896,1.896-1.896S25.896,23.248,25.896,24.293z
		 M25.249,24.293c0-0.689-0.561-1.251-1.25-1.251s-1.251,0.562-1.251,1.251s0.562,1.25,1.251,1.25S25.249,24.982,25.249,24.293z
		 M36,14.5v19c0,1.381-1.119,2.5-2.5,2.5h-19c-1.381,0-2.5-1.119-2.5-2.5v-19c0-1.381,1.119-2.5,2.5-2.5h19
		C34.881,12,36,13.119,36,14.5z M29.173,27.93c0-0.301-0.218-0.458-0.434-0.458c-0.167,0-0.289,0.1-0.305,0.113
		c-0.016,0.013-1.612,1.243-4.435,1.243s-4.419-1.23-4.428-1.236c-0.023-0.021-0.146-0.12-0.312-0.12
		c-0.215,0-0.434,0.157-0.425,0.551c0.253,1.352,0.438,2.312,0.47,2.458c0.244,1.1,2.219,1.898,4.695,1.898s4.451-0.799,4.695-1.898
		C28.727,30.335,28.912,29.374,29.173,27.93z M30.795,19.142c0-1.495-3.455-2.389-6.795-2.389s-6.795,0.894-6.795,2.389
		c0,0.296,0.56,3.57,1.108,6.745c0.175,1.007,2.458,2.125,5.488,2.172l0.2,0.002c3.129,0,5.507-1.146,5.685-2.174
		C30.453,21.459,30.795,19.379,30.795,19.142z"/>
</g>
</svg>
