<?xml version="1.0" encoding="utf-8"?>
<!-- Generator: Adobe Illustrator 19.1.0, SVG Export Plug-In . SVG Version: 6.00 Build 0)  -->
<svg version="1.1" id="Layer_1" xmlns="http://www.w3.org/2000/svg" xmlns:xlink="http://www.w3.org/1999/xlink" x="0px" y="0px"
	 viewBox="0 0 48 48" style="enable-background:new 0 0 48 48;" xml:space="preserve">

<g id="soundcloud">
	<path d="M28.492,18.93c2.683,0,4.898,1.981,5.276,4.56c0.203-0.038,0.411-0.063,0.625-0.063c0.585,0,1.127,0.162,1.607,0.425V14.5
		c0-1.381-1.119-2.5-2.5-2.5h-19c-1.381,0-2.5,1.119-2.5,2.5V16v17v0.5c0,1.381,1.119,2.5,2.5,2.5h19c1.381,0,2.5-1.119,2.5-2.5
		v-3.761c-0.19,0.103-0.386,0.195-0.595,0.261H25v-9.75C25.936,19.433,27.151,18.93,28.492,18.93z M22,21.017V30h-1v-8.932
		c0.249-0.04,0.503-0.066,0.764-0.066C21.844,21.003,21.921,21.013,22,21.017z M19,21.895c0.309-0.22,0.643-0.404,1-0.546V30h-1
		V21.895z M18,22.85V30h-1v-6.511c0.169,0.034,0.334,0.078,0.495,0.133C17.636,23.346,17.811,23.092,18,22.85z M14,24.441v4.698
		c-0.594-0.603-0.966-1.425-0.966-2.341C13.034,25.88,13.404,25.049,14,24.441z M15,29.84v-6.097c0.311-0.143,0.647-0.232,1-0.275
		V30h-0.604C15.259,29.957,15.129,29.899,15,29.84z M23,30v-8.828c0.321,0.087,0.63,0.201,0.921,0.348
		c0.024-0.04,0.054-0.075,0.079-0.114V30H23z"/>
</g>
</svg>
