<?xml version="1.0" encoding="utf-8"?>
<!-- Generator: Adobe Illustrator 19.1.0, SVG Export Plug-In . SVG Version: 6.00 Build 0)  -->
<svg version="1.1" id="Layer_1" xmlns="http://www.w3.org/2000/svg" xmlns:xlink="http://www.w3.org/1999/xlink" x="0px" y="0px"
	 viewBox="0 0 48 48" style="enable-background:new 0 0 48 48;" xml:space="preserve">

<g id="youtube_1_">
	<g>
		<path d="M23.431,21.793c0.118,0,0.32-0.04,0.348-0.068C23.827,21.674,24,21.601,24,21.501v-3.106c0-0.069-0.169-0.114-0.213-0.155
			c-0.047-0.041-0.189-0.061-0.281-0.061c-0.105,0-0.288,0.033-0.309,0.053C23.153,18.275,23,18.324,23,18.395v3.106
			c0,0.107,0.118,0.184,0.157,0.229C23.182,21.757,23.324,21.793,23.431,21.793z"/>
		<path d="M33.5,12h-19c-1.375,0-2.5,1.125-2.5,2.5v19c0,1.375,1.125,2.5,2.5,2.5h19c1.375,0,2.5-1.125,2.5-2.5v-19
			C36,13.125,34.875,12,33.5,12z M26,17h1v4.506c0,0.135,0.097,0.174,0.153,0.184c0.009,0,0.275-0.004,0.396-0.087
			C27.632,21.548,28,21.477,28,21.391V17h1v6h-1v-0.308c0,0.086-0.381,0.159-0.486,0.22c-0.242,0.138-0.57,0.207-0.803,0.207
			c-0.308,0-0.44-0.116-0.601-0.336C25.958,22.575,26,22.287,26,21.901V17z M24.611,17.261C24.929,17.573,25,17.979,25,18.469v2.947
			c0,0.54-0.067,0.974-0.379,1.289c-0.314,0.316-0.698,0.477-1.232,0.477c-0.519,0-0.77-0.166-1.086-0.491
			C21.989,22.368,22,21.933,22,21.395v-2.957c0-0.498,0.017-0.903,0.344-1.203c0.323-0.296,0.636-0.446,1.168-0.446
			C24.004,16.788,24.295,16.947,24.611,17.261z M19.31,15l0.653,2.604L20.584,15h1.643L21,19.629V23h-1.827l0.009-3.139L17.681,15
			H19.31z M31,29c0,1.656-1.343,3-3,3h-8c-1.657,0-3-1.344-3-3v-2c0-1.656,1.343-3,3-3h8c1.657,0,3,1.344,3,3V29z"/>
	</g>
	<g>
		<path d="M28.027,30.968c-0.314,0-0.564-0.104-0.743-0.309c-0.182-0.209-0.274-0.505-0.274-0.879v-1.87
			c0-0.333,0.101-0.607,0.3-0.814c0.201-0.209,0.455-0.311,0.775-0.311c0.324,0,0.573,0.095,0.742,0.284
			c0.173,0.189,0.26,0.472,0.26,0.841v0.96h-1.48v0.885c0,0.24,0.03,0.406,0.09,0.507c0.073,0.117,0.189,0.176,0.348,0.176
			c0.162,0,0.28-0.05,0.351-0.149c0.064-0.091,0.095-0.26,0.095-0.534v-0.189h0.597v0.213c0,0.4-0.089,0.702-0.265,0.897
			C28.647,30.873,28.388,30.968,28.027,30.968z M28.053,27.314c-0.195,0-0.296,0.085-0.347,0.156
			c-0.066,0.093-0.099,0.234-0.099,0.432v0.522h0.884v-0.522c0-0.196-0.032-0.337-0.098-0.432
			C28.341,27.399,28.241,27.314,28.053,27.314z M21.676,30.916c-0.146,0-0.253-0.047-0.325-0.146
			c-0.077-0.105-0.116-0.273-0.116-0.499V26.89h0.573v3.093c0,0.123,0.022,0.212,0.069,0.274c0.037,0.049,0.108,0.106,0.238,0.106
			c0.078,0,0.167-0.035,0.272-0.105c0.096-0.065,0.184-0.147,0.261-0.244l0.021-3.125h0.575v3.965H22.67v-0.632l-0.177,0.209
			c-0.136,0.161-0.276,0.284-0.418,0.364C21.938,30.875,21.803,30.916,21.676,30.916z M25.617,30.909
			c-0.134,0-0.252-0.026-0.36-0.081c-0.105-0.054-0.202-0.137-0.297-0.255l-0.178-0.22v0.502H24.2v-5.446h0.582v1.997l0.177-0.215
			c0.096-0.116,0.199-0.206,0.305-0.267c0.1-0.057,0.204-0.085,0.307-0.085c0.212,0,0.37,0.073,0.48,0.225
			c0.116,0.16,0.175,0.401,0.175,0.718v2.312c0,0.272-0.054,0.48-0.162,0.618C25.962,30.844,25.816,30.909,25.617,30.909z
			 M25.205,27.299c-0.069,0-0.139,0.017-0.207,0.05c-0.065,0.033-0.128,0.083-0.189,0.148l-0.027,2.665
			c0.101,0.147,0.171,0.202,0.241,0.235c0.068,0.037,0.146,0.056,0.229,0.056c0.129,0,0.226-0.043,0.29-0.129
			c0.059-0.077,0.088-0.19,0.088-0.346v-2.151c0-0.161-0.035-0.288-0.104-0.38C25.452,27.351,25.342,27.299,25.205,27.299z
			 M19.47,30.855v-4.826h-0.901v-0.62h2.476v0.62h-0.902v4.826H19.47z"/>
	</g>
</g>
</svg>
