<?xml version="1.0" encoding="utf-8"?>
<!-- Generator: Adobe Illustrator 19.1.0, SVG Export Plug-In . SVG Version: 6.00 Build 0)  -->
<svg version="1.1" id="Layer_1" xmlns="http://www.w3.org/2000/svg" xmlns:xlink="http://www.w3.org/1999/xlink" x="0px" y="0px"
	 viewBox="0 0 48 48" style="enable-background:new 0 0 48 48;" xml:space="preserve">

<g id="e-mail_2_">
	<path d="M24.195,21.243c-0.541,0-1.002,0.342-1.41,1.046c-0.422,0.726-0.636,1.438-0.636,2.115c0,0.385,0.086,0.695,0.255,0.924
		c0.159,0.214,0.38,0.317,0.676,0.317c0.54,0,1-0.442,1.368-1.314c0.392-0.928,0.59-1.662,0.59-2.183
		c0-0.265-0.075-0.478-0.232-0.654C24.656,21.325,24.456,21.243,24.195,21.243z"/>
	<path d="M33.5,12h-19c-1.375,0-2.5,1.125-2.5,2.5v19c0,1.375,1.125,2.5,2.5,2.5h19c1.375,0,2.5-1.125,2.5-2.5v-19
		C36,13.125,34.875,12,33.5,12z M26.688,25.438c0.082,0.108,0.215,0.16,0.407,0.16c0.44,0,0.9-0.308,1.368-0.915
		c0.48-0.625,0.724-1.473,0.724-2.518c0-1.554-0.647-2.638-1.978-3.315c-0.841-0.432-1.802-0.649-2.856-0.649
		c-1.938,0-3.516,0.599-4.687,1.78c-1.053,1.065-1.587,2.36-1.587,3.848c0,1.65,0.623,2.976,1.852,3.938
		c1.097,0.858,2.457,1.293,4.043,1.293c1.087,0,2.117-0.202,3.062-0.603c0.515-0.212,1.055-0.517,1.608-0.907l0.381-0.273l0.86,1.32
		l-0.146,0.113c-0.851,0.659-1.785,1.168-2.777,1.512c-0.993,0.346-2.037,0.521-3.104,0.521c-2.496,0-4.459-0.791-5.837-2.35
		c-1.143-1.293-1.722-2.847-1.722-4.617c0-1.981,0.724-3.685,2.149-5.062c1.494-1.451,3.431-2.188,5.756-2.188
		c1.896,0,3.49,0.506,4.74,1.503c1.33,1.062,2.005,2.49,2.005,4.243c0,1.38-0.427,2.582-1.269,3.574
		c-0.85,1.001-1.839,1.508-2.939,1.508c-0.597,0-1.066-0.176-1.396-0.521c-0.225-0.235-0.373-0.48-0.444-0.732
		c-0.142,0.196-0.292,0.368-0.449,0.512c-0.535,0.487-1.188,0.734-1.938,0.734c-0.77,0-1.418-0.281-1.93-0.835
		c-0.508-0.547-0.766-1.315-0.766-2.284c0-1.107,0.381-2.158,1.13-3.122c0.763-0.978,1.715-1.475,2.83-1.475
		c0.672,0,1.205,0.192,1.584,0.571c0.127,0.13,0.238,0.356,0.331,0.495L25.909,20h2.089l-1.205,4.066
		c-0.068,0.24-0.121,0.405-0.159,0.559c0,0-0.08,0.338-0.08,0.438C26.554,25.202,26.599,25.319,26.688,25.438z"/>
</g>
</svg>
