<?xml version="1.0" encoding="utf-8"?>
<!-- Generator: Adobe Illustrator 19.1.0, SVG Export Plug-In . SVG Version: 6.00 Build 0)  -->
<svg version="1.1" id="Layer_1" xmlns="http://www.w3.org/2000/svg" xmlns:xlink="http://www.w3.org/1999/xlink" x="0px" y="0px"
	 viewBox="0 0 48 48" style="enable-background:new 0 0 48 48;" xml:space="preserve">

<g id="stackexchange_1_">
	<path d="M33.5,12h-19c-1.381,0-2.5,1.119-2.5,2.5v19c0,1.381,1.119,2.5,2.5,2.5h19c1.381,0,2.5-1.119,2.5-2.5v-19
		C36,13.119,34.881,12,33.5,12z M32,28.661C32,29.93,30.999,31,29.772,31h-0.645L25,34v-3h-6.782C16.993,31,16,29.93,16,28.661V28
		h16V28.661z M32,27H16v-3h16V27z M32,23H16v-3h16V23z M32,19H16v-1.057C16,16.674,16.993,16,18.218,16h11.554
		C30.999,16,32,16.674,32,17.943V19z"/>
</g>
</svg>
