<svg id="Layer_1" data-name="Layer 1" xmlns="http://www.w3.org/2000/svg" viewBox="0 0 336.7 98.4"><defs><style>.cls-1{font-size:95.23px;font-family:HelveticaNeue, Helvetica Neue;}.cls-1,.cls-3{fill:#fff;}.cls-2{fill:none;stroke:#fff;stroke-miterlimit:10;stroke-width:2px;}</style></defs><title>Untitled-3</title><text class="cls-1" transform="translate(21.8 80.3)">+2</text><rect class="cls-2" x="142" y="10" width="77.8" height="77.8"/><rect class="cls-2" x="232.4" y="10" width="77.8" height="77.8"/><path class="cls-3" d="M190.4,23.2H152.3V79h15V64h8.2V79h15V23.2Zm-25,37.5h-8.2V52.3h8.2Zm0-11.7h-8.2V40.6h8.2Zm0-11.7h-8.2V28.8h8.2Zm10,23.5h-8.2V52.3h8.2Zm0-11.7h-8.2V40.6h8.2Zm0-11.7h-8.2V28.8h8.2Zm10,23.5h-8.2V52.3h8.2Zm0-11.7h-8.2V40.6h8.2Zm0-11.7h-8.2V28.8h8.2Z"/><path class="cls-3" d="M282.4,45.7s-1.9,9-9.7,8.9-10-8.9-10-8.9a10.7,10.7,0,0,1-3.2-8.5c0-.7.5-1.6,1.2-1.6,0-4.3-.5-12.4,6.4-15s12.6.2,14.2,2.1,3.8,4.5,3,12.7c.9,0,1.9,1,1.4,3.6S283.7,45.3,282.4,45.7Z"/><path class="cls-3" d="M264.8,54.6s7.9,8,15.9,0c1.6.9,11.5,5.2,11.5,5.2s8.8,3,8.4,14.8c0,1,.1,2.6-4.6,3.4s-15.1,2.3-23.3,2.3-21.9-1.8-24.2-2.5-4.1-1.1-3.9-3.9,1.6-10.6,7.4-13.4S264.8,54.6,264.8,54.6Z"/><path class="cls-3" d="M191.6,38.1V79H198V64h6.5V79h6.4V38.1Zm12.9,21.6H198V53h6.5Zm0-10H198V43h6.5Z"/></svg>