<?xml version="1.0" encoding="utf-8"?>
<!-- Generator: Adobe Illustrator 21.1.0, SVG Export Plug-In . SVG Version: 6.00 Build 0)  -->
<svg version="1.1" id="Layer_1" xmlns="http://www.w3.org/2000/svg" xmlns:xlink="http://www.w3.org/1999/xlink" x="0px" y="0px"
	 viewBox="0 0 175 109" style="enable-background:new 0 0 175 109;" xml:space="preserve">
<style type="text/css">
	.st0{fill:#FFFFFF;}
</style>
<title>Asset 6</title>
<g>
	<path class="st0" d="M58.5,79.2c-0.7-0.4-1.5-0.7-2.4-0.7c-1.3,0-2.4,0.4-3.1,1.2c-0.7,0.8-1.2,1.9-1.2,3.2c0,1.3,0.3,2.2,1,3
		c0.7,0.7,1.5,1,2.6,1c0.7,0,1.2-0.1,1.6-0.3c0.4-0.2,0.8-0.6,1.2-1.1h0.1c-0.1,1-0.2,1.8-0.5,2.3c-0.3,0.6-0.7,1-1.3,1.3
		c-0.6,0.3-1.3,0.4-2.2,0.4c-0.5,0-1-0.1-1.6-0.1v2.1c0.4,0.1,1,0.1,1.7,0.1c2.1,0,3.7-0.6,4.7-1.9c1-1.3,1.6-3.1,1.6-5.6
		c0-1.2-0.2-2.1-0.6-3C59.8,80.3,59.3,79.6,58.5,79.2z M57.5,84.4c-0.4,0.4-0.8,0.5-1.4,0.5s-1-0.1-1.3-0.5
		c-0.3-0.4-0.4-0.8-0.4-1.5c0-0.7,0.1-1.3,0.4-1.6c0.3-0.4,0.7-0.6,1.3-0.6c0.6,0,1,0.2,1.4,0.7c0.4,0.4,0.5,1,0.5,1.7
		C58.1,83.6,57.9,84,57.5,84.4z"/>
	<polygon class="st0" points="122,81 128.3,81 123.5,91.3 126.3,91.3 131.2,80.4 131.2,78.7 122,78.7 	"/>
	<path class="st0" d="M108.5,77.3H74.6c-4.2,0-7.7,3.5-7.7,7.7s3.5,7.7,7.7,7.7h33.9c4.2,0,7.7-3.5,7.7-7.7
		C116.2,80.8,112.7,77.3,108.5,77.3z M108.5,91.6H97.3v-13h11.2c3.6,0,6.5,3,6.5,6.5C115,88.6,112,91.6,108.5,91.6z"/>
	<path class="st0" d="M150,84.4c-0.6-0.6-1.5-0.5-2.1,0.1c-1,1-2,2-3,3c0-2.4,0-6.9,0-8.4c0-0.7-0.3-1.2-0.9-1.4
		c-0.6-0.2-1.1-0.1-1.4,0.2c-0.4,0.4-0.5,0.8-0.5,1.3c0,2.1,0,5.7,0,8.2c-1-1-2.1-2.1-3.1-3.1c-0.4-0.4-1-0.6-1.6-0.4
		c-0.6,0.2-0.8,0.7-0.9,1.2c0,0.6,0.2,1,0.5,1.3c1.8,1.8,3.6,3.6,5.3,5.3c0.8,0.8,1.6,0.8,2.4,0c1.8-1.8,3.5-3.5,5.3-5.3
		C150.6,85.9,150.7,85,150,84.4z"/>
	<path class="st0" d="M35.8,74.7c-5.7,0-10.4,4.6-10.4,10.4c0,5.7,4.6,10.4,10.4,10.4c5.7,0,10.4-4.6,10.4-10.4
		C46.1,79.3,41.5,74.7,35.8,74.7z M42.7,85.8c-0.7,0.6-1.6,0.5-2.3-0.1c-1-1-2.1-2.1-3.2-3.2c0,2.6,0,7.3,0,8.8c0,0.7-0.3,1.2-1,1.5
		c-0.6,0.2-1.1,0.1-1.5-0.2c-0.4-0.4-0.5-0.9-0.5-1.3c0-2.2,0-6,0-8.7c-1.1,1.1-2.1,2.1-3.3,3.3c-0.5,0.5-1.1,0.7-1.7,0.4
		c-0.6-0.2-0.9-0.7-0.9-1.3c0-0.7,0.2-1,0.6-1.3c1.9-1.9,3.7-3.7,5.6-5.6c0.8-0.8,1.6-0.8,2.5,0c1.9,1.9,3.7,3.7,5.6,5.6
		C43.3,84.2,43.4,85.1,42.7,85.8z"/>
</g>
</svg>
