<svg width="15" height="16" viewBox="0 0 15 16" fill="none" xmlns="http://www.w3.org/2000/svg">
    <path d="M3.63998 2.77L7.49998 6.63L11.34 2.79C11.4248 2.69972 11.527 2.62749 11.6404 2.57766C11.7538 2.52783 11.8761 2.50141 12 2.5C12.2652 2.5 12.5196 2.60536 12.7071 2.79289C12.8946 2.98043 13 3.23478 13 3.5C13.0023 3.6226 12.9796 3.74439 12.9331 3.85788C12.8867 3.97138 12.8176 4.07419 12.73 4.16L8.83998 8L12.73 11.89C12.8948 12.0512 12.9914 12.2696 13 12.5C13 12.7652 12.8946 13.0196 12.7071 13.2071C12.5196 13.3946 12.2652 13.5 12 13.5C11.8725 13.5053 11.7454 13.484 11.6266 13.4375C11.5078 13.3911 11.4 13.3204 11.31 13.23L7.49998 9.37L3.64998 13.22C3.56549 13.3073 3.46454 13.3769 3.35298 13.425C3.24142 13.4731 3.12144 13.4986 2.99998 13.5C2.73476 13.5 2.48041 13.3946 2.29287 13.2071C2.10534 13.0196 1.99998 12.7652 1.99998 12.5C1.99765 12.3774 2.0204 12.2556 2.06682 12.1421C2.11325 12.0286 2.18239 11.9258 2.26998 11.84L6.15998 8L2.26998 4.11C2.10516 3.94876 2.00852 3.73041 1.99998 3.5C1.99998 3.23478 2.10534 2.98043 2.29287 2.79289C2.48041 2.60536 2.73476 2.5 2.99998 2.5C3.23998 2.503 3.46998 2.6 3.63998 2.77Z" fill="#757575"/>
</svg>
