<svg width="25" height="24" viewBox="0 0 25 24" fill="none" xmlns="http://www.w3.org/2000/svg">
    <path d="M16.734 14.255H15.944L15.664 13.985C16.644 12.845 17.234 11.365 17.234 9.755C17.234 6.165 14.324 3.255 10.734 3.255C7.14401 3.255 4.23401 6.165 4.23401 9.755C4.23401 13.345 7.14401 16.255 10.734 16.255C12.344 16.255 13.824 15.665 14.964 14.685L15.234 14.965V15.755L20.234 20.745L21.724 19.255L16.734 14.255ZM10.734 14.255C8.24401 14.255 6.23401 12.245 6.23401 9.755C6.23401 7.265 8.24401 5.255 10.734 5.255C13.224 5.255 15.234 7.265 15.234 9.755C15.234 12.245 13.224 14.255 10.734 14.255Z" fill="#7A7A7A"/>
</svg>
