<svg width="24" height="25" viewBox="0 0 24 25" fill="none" xmlns="http://www.w3.org/2000/svg">
<path d="M2.80804 1.89148L21.193 20.2765L19.778 21.6905L16.032 17.9435L12 21.9835L3.52204 13.4915C2.53626 12.3859 1.99426 10.9548 2.00035 9.47365C2.00644 7.99246 2.5602 6.56587 3.55504 5.46848L1.39404 3.30648L2.80804 1.89148ZM4.98004 12.1215L12 19.1525L14.618 16.5295L4.97204 6.88448C4.34353 7.61252 3.99839 8.54266 3.99986 9.50447C4.00133 10.4663 4.34931 11.3954 4.98004 12.1215ZM20.243 5.25548C21.3264 6.33867 21.9544 7.79522 21.9982 9.32657C22.0421 10.8579 21.4986 12.348 20.479 13.4915L18.844 15.1275L17.43 13.7135L19.02 12.1215C19.6841 11.3533 20.0311 10.3614 19.9908 9.34684C19.9505 8.33226 19.5259 7.37099 18.8031 6.65792C18.0802 5.94486 17.1132 5.53339 16.0982 5.50693C15.0832 5.48048 14.0961 5.84103 13.337 6.51548L12.002 7.71348L10.666 6.51648C10.3255 6.21078 9.9348 5.96618 9.51104 5.79348L7.26104 3.54348C8.11121 3.43771 8.97417 3.51554 9.79169 3.77172C10.6092 4.02789 11.3623 4.45645 12 5.02848C13.1426 4.00568 14.6335 3.45935 16.1664 3.50175C17.6993 3.54416 19.1578 4.17208 20.242 5.25648" fill="#848484"/>
</svg>
