<svg width="24" height="25" viewBox="0 0 24 25" fill="none" xmlns="http://www.w3.org/2000/svg">
<g id="heart_line">
<path id="Vector" d="M16.5 3.32349C14.76 3.32349 13.09 4.13349 12 5.41349C10.91 4.13349 9.24 3.32349 7.5 3.32349C4.42 3.32349 2 5.74349 2 8.82349C2 12.6035 5.4 15.6835 10.55 20.3635L12 21.6735L13.45 20.3535C18.6 15.6835 22 12.6035 22 8.82349C22 5.74349 19.58 3.32349 16.5 3.32349ZM12.1 18.8735L12 18.9735L11.9 18.8735C7.14 14.5635 4 11.7135 4 8.82349C4 6.82349 5.5 5.32349 7.5 5.32349C9.04 5.32349 10.54 6.31349 11.07 7.68349H12.94C13.46 6.31349 14.96 5.32349 16.5 5.32349C18.5 5.32349 20 6.82349 20 8.82349C20 11.7135 16.86 14.5635 12.1 18.8735Z" fill="#848484"/>
</g>
</svg>
