<?xml version="1.0" encoding="UTF-8" standalone="no"?>
<svg width="20px" height="20px" viewBox="0 0 20 20" version="1.1" xmlns="http://www.w3.org/2000/svg" xmlns:xlink="http://www.w3.org/1999/xlink">
    <!-- Generator: Sketch 3.8.1 (29687) - http://www.bohemiancoding.com/sketch -->
    <title>thumbs-down-color-icon</title>
    <desc>Created with Sketch.</desc>
    <defs>
        <rect id="path-1" x="0" y="0" width="20" height="20" rx="10"></rect>
    </defs>
    <g id="Assets" stroke="none" stroke-width="1" fill="none" fill-rule="evenodd">
        <g id="Thumbs-Down---Circle">
            <g id="Opposed-icon-(Org)">
                <mask id="mask-2" fill="white">
                    <use xlink:href="#path-1"></use>
                </mask>
                <use id="Rectangle-223" fill="#FF4921" xlink:href="#path-1"></use>
                <path d="M3,16.8199997 L5.36399994,16.8199997 L5.36399994,9.72799988 L3,9.72799988 L3,16.8199997 L3,16.8199997 Z M16.0019997,10.3189999 C16.0019997,9.66889988 15.4700997,9.13699989 14.8199997,9.13699989 L11.0907898,9.13699989 L11.6522398,6.43612996 L11.6699698,6.24700997 C11.6699698,6.00469997 11.5694998,5.78011998 11.4099298,5.62054998 L10.7834698,5 L6.8946899,8.8946899 C6.67601991,9.10744989 6.54599991,9.40294989 6.54599991,9.72799988 L6.54599991,15.6379997 C6.54599991,16.2880997 7.07789989,16.8199997 7.72799988,16.8199997 L13.0469997,16.8199997 C13.5375297,16.8199997 13.9571397,16.5244997 14.1344397,16.0989797 L15.9192597,11.9324298 C15.9724497,11.7964998 16.0019997,11.6546598 16.0019997,11.5009998 L16.0019997,10.3721899 L15.9960897,10.3662799 L16.0019997,10.3189999 L16.0019997,10.3189999 Z" id="Shape" fill="#FFFFFF" mask="url(#mask-2)" transform="translate(9.501000, 10.910000) rotate(-180.000000) translate(-9.501000, -10.910000) "></path>
            </g>
        </g>
    </g>
</svg>