<svg xmlns="http://www.w3.org/2000/svg" width="40" height="40" viewBox="0 0 80 80">
  <g fill="none" fill-rule="evenodd">
    <path fill="#C0C0C0" d="M50.4 57.52c0 3.2 3.76 4.16 5.68 4.64 6.08 1.6 18.24 4.72 18.24 4.72 2.56.88 4.56 2.8 5.68 5.28V80H0v-7.84c1.04-2.48 3.12-4.4 5.68-5.28 0 0 12.16-3.12 18.24-4.72 1.92-.48 5.68-1.44 5.68-4.64V48.8h20.8v8.72z"/><path fill="#A4A4A4" d="M50.4 55.23c-3.137 4.44-7.28 6.143-10 6.29H39.92c-2.815-.152-7.15-1.97-10.32-6.757V48.8h20.8v6.43z"/><path fill="#CCC" d="M39.68 12.8c15.28 0 16.56 11.04 16.64 12.08.88 9.52-2.4 22.48-5.44 26.96-3.2 4.72-7.84 6.48-10.8 6.64h-.4c-3.04-.24-7.68-2-10.88-6.72-3.04-4.48-6.32-17.44-5.44-27.04.08-.96 1.04-11.92 16.32-11.92z"/>
  </g>
</svg>
