<svg fill="#e6e6e6" height="24" viewBox="0 0 510 510" width="24" xmlns="http://www.w3.org/2000/svg">
  <path d="M0 0h24v24H0z" fill="none"/>
  <path transform="rotate(180) translate(-200, -510) translate(200,0) scale(-1, 1)" d="M438 104l0-15c0-2-2-4-5-4l-188 0c-3 0-5 2-5 4l0 15c0 2 2 5 4 6l59 38c2 1 3 4 3 6l0 13c-9 0-16 15-16 24l0 42c0 27 22 49 49 49 27 0 49-22 49-49l0-42c0-9-7-24-16-24l0-13c0-2 1-5 3-6l59-38c2-1 4-4 4-6m-99-77c-80 0-144 65-144 145 0 29 8 56 23 79 4 5 8 10 12 14 26 31 65 51 109 51 80 0 144-65 144-144 0-80-64-145-144-145m-168 265c0-1-1-2-3-2l-116 0c-2 0-3 1-3 2l0 10c0 1 1 3 2 4l37 23c1 1 2 3 2 4l0 8c-6 0-10 9-10 15l0 25c0 17 13 31 30 31 17 0 30-14 30-31l0-25c0-3 0-6-2-9-2-3-5-6-8-6l0-8c0-1 1-3 2-4l37-23c1-1 2-3 2-4z m70 119c0 1 1 2 2 2l24 16c0 0 1 1 1 2l0 5c-1 0-3 1-4 3-1 2-3 5-3 7l0 17c0 11 9 20 20 20 11 0 20-9 20-20l0-17c0-3-3-10-6-10l0-5c0-1 0-2 1-2l24-16c1 0 1-1 1-2l0-6c0-1 0-2-1-2l-77 0c-1 0-2 1-2 2z m98-77c-50 0-94-22-124-58l-18 14c9 15 15 33 15 53 0 14-3 28-9 40l26 15c12-16 31-26 53-26 36 0 66 29 66 66 0 36-30 66-66 66-37 0-66-30-66-66 0-9 1-17 4-24l-26-14c-18 26-48 43-83 43-55 0-101-45-101-100 0-56 46-101 101-101 30 0 56 13 75 33l18-13c-18-26-28-57-28-90 0-90 73-163 163-163 90 0 163 73 163 163 0 89-73 162-163 162" />
</svg>
