<svg fill="#C0C0C0" height="40" viewBox="0 0 510 510" width="40" xmlns="http://www.w3.org/2000/svg">
  <path transform="rotate(180) translate(-200, -510) translate(200,0) scale(-1, 1)" d="M345 150l37-27-251 0 36 27-3 0c-8 0-14 5-14 13 0 7 6 13 14 13l185 0c7 0 13-6 13-13 0-8-6-13-13-13z m-10 233l53 0 0-132-53-53-158 0-53 53 0 132 53 0 0-53 53 0 0 53 52 0 0-53 53 0z m53 0l0-132-53-53-158 0-53 53 0 132 53 0 0-53 53 0 0 53 52 0 0-53 53 0 0 53z m-257-260l36 27-3 0c-8 0-14 5-14 13 0 7 6 13 14 13l185 0c7 0 13-6 13-13 0-8-6-13-13-13l-4 0 37-27z m287-27c-1-2-3-3-4-4-2 5-7 9-13 9l-290 0c-5 0-10-3-12-7 0 0-1 1-2 2-42 42-66 99-66 160 0 61 24 117 66 160 43 43 100 67 161 67 60 0 117-24 160-67 43-43 67-99 67-160 0-61-24-118-67-160m-160 411c-139 0-252-112-252-251 0-78 36-148 91-194 26-21 55-37 87-46 23-8 48-11 74-11 26 0 50 3 74 11 30 9 58 24 83 43 57 47 94 117 94 197 0 139-112 251-251 251"/>
</svg>
