<svg xmlns="http://www.w3.org/2000/svg" width="31.167" height="26" viewBox="16.417 13.457 31.167 26"><path fill="#496580" d="M22.196 20.514h2.212l7.24-4.827s.446-.282.785 0c.34.283 7.166 4.827 7.166 4.827h2.07L32 13.934l-9.804 6.58z"/><path fill="#496580" d="M29.838 39.066H24.86v-17.75l7.074-4.724 7.105 4.626v17.848h-4.98v-5.782h-4.247M40.295 28.545h6.45v10.52h-6.45z"/><path fill="#FFF" d="M42.22 29.903h2.563v2.488H42.22zM42.22 33.6h2.563v2.488H42.22z"/><path fill="#496580" d="M17.256 28.545h6.45v10.52h-6.45z"/><path fill="#FFF" d="M19.18 29.903h2.563v2.488H19.18zM26.948 22.36h2.564v2.49h-2.564zM30.72 22.36h2.563v2.49H30.72zM34.49 22.36h2.564v2.49H34.49zM26.948 26.058h2.564v2.488h-2.564zM30.72 26.058h2.563v2.488H30.72zM34.49 26.058h2.564v2.488H34.49zM26.948 29.903h2.564v2.488h-2.564zM30.72 29.903h2.563v2.488H30.72zM34.49 29.903h2.564v2.488H34.49zM19.18 33.6h2.563v2.488H19.18z"/><path fill="#496580" d="M40.295 27h7.09v.83h-7.09zM16.616 27h7.09v.83h-7.09z"/></svg>