<svg width="24" height="25" viewBox="0 0 24 25" fill="none" xmlns="http://www.w3.org/2000/svg">
<path d="M17.1171 22.6067V20.7614H6.15393V22.6067H17.1171Z" fill="white"/>
<path d="M4.58484 13.7158C4.60457 13.5283 4.61444 13.3408 4.64405 13.1533C4.71312 12.6698 4.86114 12.2159 5.06836 11.7718C5.34466 11.1797 5.71964 10.6567 6.17356 10.193C6.71629 9.63049 7.34783 9.17657 8.04845 8.82133C8.65039 8.52529 9.27206 8.3082 9.93321 8.20952C10.1108 8.17992 10.2983 8.16018 10.4759 8.19965C10.7226 8.24899 10.8904 8.38714 10.9299 8.6437V8.65357C11.0285 8.63384 11.1272 8.6141 11.2259 8.59437C11.5713 8.54503 11.9068 8.55489 12.2423 8.66344C12.3804 8.71278 12.5087 8.78185 12.6074 8.8904C12.7653 9.05815 12.8047 9.25551 12.785 9.4726C12.7751 9.54168 12.7653 9.61075 12.7554 9.68969C12.7258 9.66996 12.6962 9.66009 12.6765 9.65022C12.341 9.48247 12.0055 9.48247 11.6601 9.61075C11.3246 9.73903 11.0581 9.95613 10.8312 10.2226C10.5351 10.5778 10.3477 10.9922 10.2194 11.4363C10.1207 11.7718 10.0615 12.1172 10.022 12.4626C10.022 12.4823 10.022 12.502 10.022 12.5218C10.1207 12.502 10.2194 12.4823 10.3181 12.4626C11.2752 12.2455 12.1929 11.9198 13.0712 11.4758C13.979 11.0219 14.8079 10.4495 15.5579 9.75877C16.6828 8.78185 17.561 7.59771 18.2518 6.27542C18.7452 5.31824 19.13 4.32159 19.3866 3.2756C19.4951 2.83155 19.5839 2.37763 19.6333 1.92371C19.6333 1.91384 19.6333 1.90397 19.6333 1.8941H19.6432C19.7912 2.01252 19.8997 2.1704 19.9885 2.33816C20.1267 2.62432 20.2056 2.93023 20.2451 3.246C20.2648 3.42362 20.2747 3.60124 20.2944 3.78873C20.2944 3.92688 20.2944 4.05516 20.2944 4.19331C20.2846 4.31172 20.2846 4.42027 20.2747 4.53868C20.2254 5.11102 20.1267 5.67349 19.9885 6.23595C19.7616 7.13393 19.4261 7.98256 18.9919 8.80159C18.2814 10.1436 17.344 11.3179 16.1795 12.3047C14.9757 13.3112 13.6139 14.0414 12.1239 14.5052C11.9857 14.5447 11.8476 14.5841 11.7094 14.6335C11.7094 14.6532 11.7094 14.6631 11.7094 14.6828C11.7094 14.7026 11.7094 14.7124 11.7094 14.7322C11.7292 14.7322 11.7489 14.7322 11.7686 14.7322C12.1633 14.7223 12.558 14.6631 12.9429 14.5545C13.6336 14.3769 14.2948 14.0908 14.9263 13.7552C15.7158 13.3309 16.446 12.8277 17.1269 12.2455C17.7683 11.7027 18.3505 11.1008 18.8439 10.41C19.1892 9.92652 19.4853 9.40353 19.6826 8.84106C19.732 8.69304 19.7714 8.55489 19.8208 8.39701C19.8306 8.41674 19.8405 8.42661 19.8504 8.44635C19.9195 8.5845 19.9688 8.73252 19.9984 8.88053C20.0872 9.30485 20.0675 9.72917 19.9885 10.1535C19.8899 10.716 19.7024 11.2389 19.4458 11.7521C19.0807 12.4922 18.5972 13.1434 18.0248 13.7355C17.5018 14.2684 16.9295 14.7322 16.3078 15.1269C15.3013 15.7683 14.2257 16.2419 13.081 16.5873C12.3508 16.8044 11.6206 16.9722 10.8707 17.0906C10.7818 17.1004 10.7818 17.1103 10.7917 17.1991C10.8016 17.1991 10.8213 17.209 10.8312 17.209C11.0779 17.209 11.3147 17.2287 11.5614 17.2189C12.2324 17.1991 12.8936 17.0906 13.5448 16.9031C14.4823 16.6367 15.3506 16.2321 16.1795 15.7288C16.8604 15.3144 17.492 14.8407 18.0742 14.298C18.084 14.2881 18.084 14.2881 18.0939 14.2881C18.0544 14.6927 17.8965 15.1959 17.7091 15.5611C17.413 16.1433 16.9986 16.6268 16.4953 17.0314C15.9131 17.5149 15.2618 17.8701 14.5711 18.1464C13.7718 18.4721 12.9429 18.6793 12.0844 18.7977C11.4726 18.8865 10.8608 18.9161 10.249 18.9063C9.71611 18.8964 9.19312 18.8372 8.67999 18.7385C8.11752 18.63 7.57479 18.4721 7.0518 18.2254C6.61761 18.028 6.2229 17.7715 5.87753 17.4359C5.58149 17.1498 5.35453 16.8143 5.18678 16.4393C4.95982 15.9163 4.77233 15.3736 4.69339 14.8111C4.66378 14.6039 4.64405 14.3868 4.62431 14.1697C4.58484 14.0118 4.58484 13.8638 4.58484 13.7158ZM9.49902 12.7981C9.42995 12.6599 9.43981 12.5316 9.44968 12.3836C9.49902 11.9494 9.57796 11.5251 9.71611 11.1107C9.874 10.6469 10.0812 10.2226 10.397 9.83771C10.4562 9.76864 10.5253 9.69956 10.5746 9.63049C10.6536 9.53181 10.7029 9.4134 10.6733 9.28511C10.6536 9.17657 10.4957 9.07789 10.3871 9.1963C10.3674 9.21604 10.3477 9.23577 10.3181 9.25551C10.1207 9.4134 9.91347 9.56141 9.67664 9.65022C9.57796 9.6897 9.46942 9.7193 9.36087 9.69956C9.26219 9.67983 9.21285 9.60088 9.23259 9.50221C9.26219 9.37392 9.351 9.28511 9.44968 9.21604C9.5681 9.12723 9.70625 9.07789 9.85426 9.05815C9.93321 9.04829 9.99241 9.01868 10.0319 8.94961C10.0615 8.90027 10.0516 8.85093 9.99241 8.84106C9.94307 8.83119 9.89373 8.83119 9.85426 8.84106C9.70625 8.87066 9.55823 8.8904 9.41021 8.92987C8.41356 9.17657 7.52545 9.66996 6.79523 10.4199C6.27224 10.9528 5.88739 11.5646 5.63083 12.2652C5.60123 12.3343 5.61109 12.3836 5.6407 12.4527C5.73938 12.65 5.85779 12.8277 6.05515 12.9461C6.17356 13.0152 6.29197 13.0546 6.43012 13.0349C6.43012 13.0152 6.43999 13.0053 6.43999 12.9856C6.48933 12.7981 6.56827 12.6303 6.68669 12.4724C6.79523 12.3441 6.92352 12.2652 7.0814 12.2356C7.12087 12.2257 7.14061 12.2356 7.15048 12.2751C7.17021 12.3343 7.19982 12.3836 7.22942 12.433C7.31823 12.5908 7.43664 12.7389 7.6044 12.8375C7.71294 12.9066 7.83136 12.9362 7.95964 12.9165C7.95964 12.8967 7.96951 12.8869 7.96951 12.877C8.01885 12.6994 8.08792 12.5316 8.19647 12.3935C8.31488 12.2455 8.4629 12.1369 8.66025 12.1271C8.67999 12.1764 8.70959 12.2257 8.72933 12.2751C8.82801 12.4626 8.95629 12.6303 9.14378 12.7389C9.25233 12.7882 9.37074 12.8079 9.49902 12.7981Z" fill="#FFD100"/>
<path d="M9.49915 12.7981C9.37087 12.8079 9.25246 12.7882 9.15378 12.729C8.96629 12.6204 8.83801 12.4527 8.73933 12.2652C8.70973 12.2159 8.68999 12.1665 8.67026 12.1172C8.4729 12.1369 8.32488 12.2356 8.20647 12.3836C8.08805 12.5316 8.01898 12.6994 7.97951 12.8671C7.97951 12.877 7.96964 12.8967 7.96964 12.9066C7.84136 12.9165 7.72294 12.8869 7.6144 12.8277C7.44664 12.729 7.3381 12.5908 7.23942 12.4231C7.20982 12.3737 7.18021 12.3244 7.16048 12.2652C7.15061 12.2257 7.12101 12.2257 7.0914 12.2257C6.93352 12.2553 6.79537 12.3441 6.69669 12.4626C6.56841 12.6106 6.49933 12.7882 6.44999 12.9757C6.44999 12.9954 6.44012 13.0053 6.44012 13.025C6.30197 13.0349 6.18356 13.0053 6.06515 12.9362C5.87766 12.8178 5.75924 12.6402 5.6507 12.4428C5.62109 12.3836 5.62109 12.3244 5.64083 12.2553C5.90726 11.5646 6.28224 10.9429 6.80523 10.41C7.52559 9.66996 8.41369 9.17657 9.42021 8.92C9.56823 8.88053 9.71625 8.8608 9.86426 8.83119C9.9136 8.82132 9.96294 8.82132 10.0024 8.83119C10.0616 8.84106 10.0814 8.8904 10.0419 8.93974C10.0024 9.00881 9.93334 9.03842 9.86426 9.04828C9.71625 9.06802 9.5781 9.11736 9.45968 9.20617C9.361 9.27525 9.27219 9.36406 9.24259 9.49234C9.22285 9.59102 9.27219 9.66996 9.37087 9.68969C9.47942 9.70943 9.58796 9.67983 9.68664 9.64035C9.92347 9.55154 10.1307 9.40353 10.3281 9.24564C10.3478 9.22591 10.3774 9.21604 10.3971 9.18643C10.5057 9.06802 10.6636 9.17657 10.6833 9.27524C10.7129 9.41339 10.6636 9.52194 10.5846 9.62062C10.5254 9.68969 10.4563 9.75877 10.407 9.82784C10.0912 10.2028 9.884 10.637 9.72611 11.1008C9.58796 11.5152 9.50902 11.9396 9.45968 12.3737C9.43995 12.5316 9.43008 12.6698 9.49915 12.7981Z" fill="white"/>
</svg>
