<svg width="24" height="20" viewBox="0 0 24 20" fill="none" xmlns="http://www.w3.org/2000/svg">
<path fill-rule="evenodd" clip-rule="evenodd" d="M20.2094 4.01396C20.6308 4.55092 21.0641 5.1031 21.4984 5.64017C22.1434 6.43789 22.1676 7.37029 21.5637 8.1343C21.3337 8.42545 21.0799 8.56671 20.7876 8.56671C20.6377 8.56671 20.4829 8.52908 20.3131 8.45257C19.5981 8.12928 18.8844 7.82794 18.1285 7.50888L18.0412 7.47203C17.864 7.3972 17.6858 7.32202 17.5061 7.2458L17 11H5L4.47859 9.543L3.30435 10.8333L2 9.16667L4.47859 6.1436C4.7909 5.60379 5.19379 5.37348 5.82494 5.37348L5.86142 5.37379L13.5064 5.37207L13.5215 5.37238C13.8255 5.37238 14.0168 5.28787 14.2272 5.06101L16.3957 2.8378C16.4827 2.74342 16.5585 2.57832 16.5881 2.41699C16.6824 1.90525 16.7264 1.57757 16.7102 1.08213C16.6941 0.661787 16.7753 0.353706 16.9525 0.1687C17.0566 0.0600485 17.1915 0 17.3318 0C17.5643 0 17.7724 0.161331 17.8744 0.421907C17.9991 0.746134 18.1101 1.01899 18.2268 1.30578L18.2364 1.32953C18.313 1.51626 18.391 1.70707 18.4731 1.91465C18.4821 1.90844 18.4915 1.90229 18.5009 1.89612C18.5059 1.8928 18.511 1.88947 18.516 1.88612L18.5608 1.85712C18.8662 1.65924 19.1565 1.47122 19.4593 1.29661L19.4886 1.27983C19.6352 1.19438 19.8564 1.06551 20.0803 1.06551C20.226 1.06551 20.358 1.12023 20.4528 1.21978C20.7827 1.56675 20.4807 2.15939 20.417 2.27447C20.2397 2.59478 20.0306 2.88452 19.8095 3.19072L19.7948 3.21105C19.7604 3.2585 19.726 3.30595 19.6916 3.35425C19.7316 3.40518 19.7716 3.45611 19.8116 3.50705C19.9154 3.63926 20.0193 3.77152 20.123 3.90394L20.2094 4.01396ZM7.25065 8.66799L7.83269 8.24295C7.90426 8.19058 7.93404 8.09792 7.90691 8.01326C7.87931 7.92844 7.80104 7.87121 7.71232 7.87121H6.99323L6.77089 7.1834C6.74345 7.09858 6.66502 7.04135 6.57646 7.04135C6.4879 7.04135 6.40948 7.09858 6.38203 7.1834L6.1597 7.87121H5.4406C5.35204 7.87121 5.27346 7.92844 5.24617 8.01326C5.21889 8.09777 5.24883 8.19058 5.32055 8.24295L5.90243 8.66799L5.67978 9.35612C5.65281 9.44094 5.68259 9.53344 5.75447 9.58581C5.82603 9.63817 5.92286 9.63817 5.99473 9.58581L6.57646 9.16076L7.15835 9.58581C7.19436 9.61215 7.23631 9.625 7.27856 9.625C7.32081 9.625 7.36307 9.61215 7.39862 9.58581C7.47049 9.53344 7.50043 9.44094 7.47299 9.35612L7.25065 8.66799ZM10.992 8.66799L11.5741 8.24295C11.6455 8.19058 11.6756 8.09792 11.6481 8.01326C11.6207 7.92844 11.5423 7.87121 11.454 7.87121H10.7346L10.5124 7.1834C10.4848 7.09858 10.4066 7.04135 10.3179 7.04135C10.2295 7.04135 10.1507 7.09858 10.1236 7.1834L9.90109 7.87121H9.182C9.09344 7.87121 9.01486 7.92844 8.98757 8.01326C8.96044 8.09777 8.99053 8.19058 9.06179 8.24295L9.64367 8.66799L9.42149 9.35612C9.3942 9.44094 9.42414 9.53344 9.49571 9.58581C9.56743 9.63817 9.66441 9.63817 9.73598 9.58581L10.3179 9.16076L10.8996 9.58581C10.9358 9.61215 10.9777 9.625 11.0198 9.625C11.0621 9.625 11.1043 9.61215 11.14 9.58581C11.2117 9.53344 11.2417 9.44094 11.2144 9.35612L10.992 8.66799ZM14.6048 8.66799L15.1864 8.24295C15.2583 8.19058 15.2877 8.09792 15.2609 8.01326C15.2335 7.92844 15.1549 7.87121 15.0663 7.87121H14.3472L14.1251 7.1834C14.0976 7.09858 14.019 7.04135 13.9305 7.04135C13.8424 7.04135 13.7636 7.09858 13.7364 7.1834L13.5139 7.87121H12.7946C12.7064 7.87121 12.6279 7.92844 12.6005 8.01326C12.5731 8.09777 12.6031 8.19058 12.6747 8.24295L13.2566 8.66799L13.0343 9.35612C13.0073 9.44094 13.0369 9.53344 13.1085 9.58581C13.18 9.63817 13.2772 9.63817 13.3487 9.58581L13.9305 9.16076L14.5124 9.58581C14.5482 9.61215 14.5903 9.625 14.6326 9.625C14.6748 9.625 14.7169 9.61215 14.7528 9.58581C14.824 9.53344 14.8543 9.44094 14.8272 9.35612L14.6048 8.66799ZM8 17.003L5 17.0028V12.5002L17 12.5004V17.0001L14 17.0028V14.1667H8V17.003Z" fill="#206DB3"/>
</svg>
