<svg width="24" height="20" viewBox="0 0 24 20" fill="none" xmlns="http://www.w3.org/2000/svg">
<path fill-rule="evenodd" clip-rule="evenodd" d="M12.5 0.999756C7.80557 0.999755 4 4.80412 4 9.49704C4 9.49724 4 9.49743 4.00003 9.49761C4.00216 9.50907 4.13548 9.49619 12.5 9.49735C14.7057 9.49735 16.5275 9.49717 17.9274 9.49703C19.5069 9.49687 20.5493 9.49676 21 9.49704C21 4.80412 17.1944 0.999756 12.5 0.999756ZM8.76708 8.02956L8.04301 7.5991L7.31893 8.02785C7.18633 8.10674 7.02407 7.99012 7.05896 7.84263L7.25089 7.03315L6.61056 6.48779C6.49366 6.38832 6.55647 6.19967 6.71001 6.18767L7.55273 6.11735L7.88249 5.35418C7.94181 5.21527 8.1442 5.21527 8.20352 5.35418L8.53328 6.11907L9.376 6.18938C9.52954 6.20139 9.59235 6.39003 9.47545 6.4895L8.83513 7.03487L9.02705 7.84434C9.06195 7.99183 8.89968 8.10845 8.76708 8.02956ZM13.0171 8.02956L12.293 7.5991L11.5689 8.02785C11.4363 8.10674 11.2741 7.99012 11.309 7.84263L11.5009 7.03315L10.8606 6.48779C10.7437 6.38832 10.8065 6.19967 10.96 6.18767L11.8027 6.11735L12.1325 5.35418C12.1918 5.21527 12.3942 5.21527 12.4535 5.35418L12.7833 6.11907L13.626 6.18938C13.7795 6.20139 13.8424 6.39003 13.7255 6.4895L13.0851 7.03487L13.2771 7.84434C13.3119 7.99183 13.1497 8.10845 13.0171 8.02956ZM16.543 7.5991L17.2671 8.02956C17.3997 8.10845 17.5619 7.99183 17.5271 7.84434L17.3351 7.03487L17.9755 6.4895C18.0924 6.39003 18.0295 6.20139 17.876 6.18938L17.0333 6.11907L16.7035 5.35418C16.6442 5.21527 16.4418 5.21527 16.3825 5.35418L16.0527 6.11735L15.21 6.18767C15.0565 6.19967 14.9937 6.38832 15.1106 6.48779L15.7509 7.03315L15.559 7.84263C15.5241 7.99012 15.6863 8.10674 15.8189 8.02785L16.543 7.5991Z" fill="#206DB3"/>
<path fill-rule="evenodd" clip-rule="evenodd" d="M4.05786 10.5H20.942C20.8818 11.0155 20.7753 11.5169 20.627 12H4.37291C4.22456 11.5169 4.11813 11.0155 4.05786 10.5ZM4.99718 13.5C6.42773 16.1779 9.25096 18.0002 12.4999 18.0002C15.7489 18.0002 18.5722 16.1779 20.0027 13.5H4.99718Z" fill="#CB2649"/>
</svg>
