<svg width="24" height="20" viewBox="0 0 24 20" fill="none" xmlns="http://www.w3.org/2000/svg">
<path fill-rule="evenodd" clip-rule="evenodd" d="M8.38322 3H12.2838C15.3703 3 17.9601 5.12918 18.6667 8H2C2.70694 5.12918 5.29633 3 8.38322 3ZM7.01082 6.10202L7.64232 5.64297C7.71994 5.58655 7.75239 5.48627 7.72329 5.39486C7.69351 5.30362 7.60836 5.24168 7.51217 5.24168H6.73196L6.49074 4.49869C6.46096 4.40712 6.37581 4.34534 6.27979 4.34534C6.1836 4.34534 6.09862 4.40712 6.06868 4.49869L5.82762 5.24168H5.04724C4.95122 5.24168 4.86591 5.30362 4.8363 5.39486C4.80652 5.4861 4.83898 5.58639 4.91676 5.64297L5.54809 6.10202L5.30687 6.84501C5.27726 6.93642 5.30955 7.03653 5.3875 7.09312C5.46529 7.1497 5.57034 7.1497 5.6483 7.09312L6.27962 6.63407L6.91095 7.09312C6.94976 7.12124 6.99543 7.13547 7.0411 7.13547C7.08694 7.13547 7.13294 7.12124 7.17142 7.09312C7.2492 7.0367 7.28166 6.93658 7.25188 6.84501L7.01082 6.10202ZM11.0703 6.10202L11.7018 5.64297C11.7794 5.58655 11.812 5.48627 11.7826 5.39486C11.7528 5.30362 11.6677 5.24168 11.5718 5.24168H10.7913L10.5502 4.49869C10.5204 4.40712 10.4353 4.34534 10.3391 4.34534C10.2433 4.34534 10.1578 4.40712 10.1283 4.49869L9.8871 5.24168H9.10672C9.01054 5.24168 8.92539 5.30362 8.89561 5.39486C8.866 5.4861 8.89862 5.58639 8.97608 5.64297L9.60757 6.10202L9.36652 6.84501C9.33674 6.93642 9.36919 7.03653 9.44698 7.09312C9.52477 7.1497 9.62999 7.1497 9.70761 7.09312L10.3389 6.63407L10.9701 7.09312C11.0092 7.12124 11.0551 7.13547 11.1006 7.13547C11.1464 7.13547 11.1923 7.12124 11.2309 7.09312C11.3085 7.0367 11.341 6.93658 11.3115 6.84501L11.0703 6.10202ZM14.9901 6.10202L15.6213 5.64297C15.699 5.58655 15.7315 5.48627 15.7026 5.39486C15.673 5.30362 15.5876 5.24168 15.4916 5.24168H14.7111L14.4703 4.49869C14.4404 4.40712 14.3551 4.34534 14.2591 4.34534C14.1632 4.34534 14.0779 4.40712 14.0483 4.49869L13.8072 5.24168H13.0267C12.9308 5.24168 12.8455 5.30362 12.8157 5.39486C12.786 5.4861 12.8183 5.58639 12.896 5.64297L13.5274 6.10202L13.2865 6.84501C13.2565 6.93642 13.289 7.03653 13.3668 7.09312C13.4444 7.1497 13.5498 7.1497 13.6276 7.09312L14.2587 6.63407L14.8902 7.09312C14.9289 7.12124 14.9749 7.13547 15.0205 7.13547C15.066 7.13547 15.1117 7.12124 15.1509 7.09312C15.228 7.0367 15.2608 6.93658 15.2312 6.84501L14.9901 6.10202ZM19.5 15.2476C20 15.2476 20 15.029 20 14.6667V11.5556H22V14.5901C22 15.9464 20.9079 17 19.5 17C17 17 16.5 15.9696 16.5 14.5901V12.831C16.5 12.4433 16.051 12.2342 15.78 12.2342C15.4358 12.2342 15 12.5032 15 12.8351V17H12V13.1111H5V17H2V9.5H19V14.6667C19 14.9932 19 15.2476 19.5 15.2476Z" fill="#CB2649"/>
</svg>
