<svg width="24" height="25" viewBox="0 0 24 25" fill="none" xmlns="http://www.w3.org/2000/svg">
<path d="M7.34229 20.2539C7.38016 20.2809 7.43427 20.2701 7.46132 20.2322C7.46674 20.2268 7.46673 20.2214 7.47215 20.216L8.17554 19.0851C8.208 19.0473 8.20259 18.9932 8.17013 18.9661C8.16472 18.9607 8.15931 18.9607 8.1539 18.9553L7.92665 18.8146L7.11504 20.1132L7.34229 20.2539ZM6.83909 20.5514L6.12488 21.6985L5.64873 21.4009L7.72104 18.0679L8.6084 18.6198C8.85729 18.7767 8.86811 19.031 8.72743 19.2529L7.86713 20.6326C7.72645 20.8599 7.47756 20.941 7.25572 20.8003L6.83909 20.5514ZM9.70677 20.1835L9.67972 20.1781L9.03043 21.8013L9.3659 21.8987L9.70677 20.1835ZM8.04568 22.7049L9.6689 19.0906L10.3452 19.2907L9.71218 23.2027L9.13865 23.0296L9.25768 22.4344L8.83565 22.3099L8.61922 22.8781L8.04568 22.7049ZM11.752 21.5362C11.817 21.5416 11.844 21.4983 11.8494 21.4442L11.9685 20.1186C11.9739 20.0645 11.9576 20.0158 11.8873 20.0104L11.6222 19.9833L11.4869 21.5091L11.752 21.5362ZM11.4382 22.0232L11.3192 23.3704L10.7565 23.3217L11.1082 19.4152L12.147 19.5072C12.4392 19.5342 12.5636 19.7561 12.542 20.0212L12.3959 21.6661C12.3797 21.8663 12.2823 22.0719 11.9901 22.0773L12.1903 22.2991L12.3851 23.4678L11.8007 23.4137L11.5789 22.034L11.4382 22.0232ZM15.0959 22.97L14.5494 23.1161L13.6782 19.8264L13.2183 19.9509L13.0831 19.4422L14.5494 19.0527L14.6846 19.5613L14.2193 19.6857L15.0959 22.97ZM16.5946 19.6641L16.0481 18.214L16.5297 17.911L17.2547 20.2106L18.1096 21.5578L17.6389 21.8554L16.8002 20.5244L14.9931 18.8849L15.4908 18.5657L16.5784 19.6749L16.5946 19.6641ZM2.94337 15.8333L5.4323 15.0866L5.65414 15.6764L2.0993 17.3754L1.88828 16.8126L4.45296 15.7359L4.44755 15.7143L1.78007 16.515L1.60151 16.0389L4.13914 14.8864L4.12832 14.8648L1.4933 15.7521L1.28228 15.1894L5.09143 14.1668L5.31327 14.762L2.93255 15.8171L2.94337 15.8333ZM4.40968 12.7925C4.40427 12.7221 4.35557 12.7059 4.30687 12.7113L1.63398 12.8682C1.57987 12.8736 1.53658 12.8953 1.53658 12.9656L1.5474 13.1604C1.5474 13.2091 1.58528 13.2524 1.63398 13.2578H1.65562L4.33393 13.1009C4.38803 13.1009 4.43132 13.0576 4.42591 13.0035V12.9981L4.40968 12.7925ZM4.95616 13.1875C4.97239 13.4526 4.77761 13.6311 4.50707 13.6474L1.53658 13.8205C1.27146 13.8367 1.05503 13.7015 1.0388 13.4093L1.00092 12.7762C0.984689 12.4841 1.18489 12.3271 1.45001 12.3109L4.4205 12.1378C4.69103 12.1215 4.90205 12.2785 4.91828 12.5436L4.95616 13.1875ZM3.28425 10.4226C3.30048 10.3576 3.25719 10.3252 3.20309 10.3144L1.90451 10.0276C1.8504 10.0168 1.80171 10.0276 1.78548 10.0925L1.72596 10.3522L3.22473 10.6823L3.28425 10.4226ZM3.73334 10.7959L5.05355 11.0881L4.93452 11.64L1.09831 10.7905L1.32556 9.77329C1.39049 9.48652 1.62856 9.39454 1.88287 9.44864L3.48985 9.80575C3.68464 9.84904 3.87943 9.97348 3.84696 10.2603L4.09585 10.0871L5.2808 10.0438L5.15636 10.6174L3.76039 10.6606L3.73334 10.7959ZM4.37721 7.91741L6.2385 8.24205L5.94632 8.77771L5.01568 8.57752L5.70284 9.21598L5.45395 9.66507L2.01814 7.76591L2.30491 7.24648L3.83614 8.09596L3.84696 8.07432L2.52133 6.8515L2.79187 6.36994L4.37721 7.91741ZM3.59726 5.34515L3.97509 4.92084L6.90461 7.52989L6.52678 7.9542L3.59726 5.34515ZM6.90943 4.79542L5.87057 3.31288L6.3413 2.98824L8.58675 6.20221L8.14308 6.51062L6.63348 5.13089L6.61725 5.14712L7.75891 6.78116L7.299 7.10039L5.05355 3.88642L5.50264 3.5726L6.8932 4.80624L6.90943 4.79542ZM10.448 5.49882L10.2262 5.57457L10.0422 5.40683C10.0206 5.55833 9.91238 5.68819 9.76088 5.73148L9.43083 5.8451C9.18193 5.93167 8.95468 5.79099 8.86811 5.53669L7.91041 2.7177C7.82384 2.46881 7.89418 2.22533 8.17013 2.12794L8.77072 1.92233C9.05208 1.82494 9.25227 1.98185 9.33885 2.23074L9.63102 3.08563L9.10077 3.26419L8.85729 2.55538C8.85188 2.50669 8.80859 2.47422 8.7599 2.47963C8.75449 2.47963 8.74367 2.48504 8.73825 2.48504L8.55429 2.54997C8.50559 2.56079 8.47313 2.60949 8.48395 2.65819C8.48395 2.6636 8.48936 2.66901 8.48936 2.67983L9.34967 5.21746C9.3659 5.26615 9.42001 5.29862 9.4687 5.28239H9.47411L9.75006 5.1904L9.44706 4.29764L9.26309 4.36256L9.10077 3.88101L9.81499 3.63753L10.448 5.49882ZM14.6035 1.74377L13.4889 5.50423L14.0191 5.66114L14.6251 3.62671L15.269 3.81608L15.4151 3.31829L14.7766 3.12892L14.9876 2.40929L15.6802 2.6149L15.8317 2.10629L14.6035 1.74377ZM16.9626 3.79985L16.9409 3.78903L15.9399 5.22287L16.2429 5.39601L16.9626 3.79985ZM14.7658 5.87216L17.1736 2.73394L17.785 3.08563L16.2808 6.73787L15.7614 6.44028L16.0157 5.88839L15.6315 5.66655L15.2906 6.16975L14.7658 5.87216ZM18.3152 6.71082L18.8238 5.70442L18.8076 5.68819L16.9517 7.36551L16.5838 6.9543L19.4948 4.32469L19.8681 4.74131L19.2621 5.88298L19.2783 5.89921L20.4687 5.41224L20.8529 5.83428L17.9419 8.46389L17.5631 8.04186L19.419 6.36453L19.4082 6.35371L18.3585 6.7541L18.3152 6.71082ZM18.1616 8.93776L21.6438 7.13166L21.9054 7.63605L18.4231 9.4421L18.1616 8.93776ZM22.4274 8.87511L22.5843 9.41618L19.3162 10.3576L19.5002 10.9961L18.997 11.1422L18.6615 9.96807L22.4274 8.87511ZM19.0461 11.6331L22.9583 11.3451L23 11.9117L19.0878 12.1997L19.0461 11.6331ZM18.9375 14.0478L19.4569 14.1127L19.5489 13.3876L21.1396 13.5933L21.0531 14.2696L21.5671 14.3399L21.6537 13.6582L22.4057 13.7556L22.3083 14.4806L22.8332 14.5455L22.9955 13.2686L19.1052 12.7654L18.9375 14.0478ZM21.1613 16.0984C20.9665 16.0173 20.8853 16.0227 20.7663 16.0605L19.8302 16.3311C19.5759 16.4014 19.419 16.3906 19.1593 16.2824L18.6723 16.0768C18.4234 15.974 18.299 15.7359 18.4018 15.4924L18.6507 14.8972C18.7535 14.6538 19.0078 14.578 19.2567 14.6808L19.9926 14.9892L19.7761 15.5087L19.1755 15.2543C19.1268 15.2327 19.0727 15.2543 19.0457 15.303L18.9645 15.4924C18.9429 15.5357 18.9591 15.5844 19.0024 15.606C19.0078 15.6115 19.0132 15.6115 19.0186 15.6115L19.208 15.6926C19.4244 15.7846 19.5002 15.7846 19.7761 15.7143L20.5931 15.4924C20.842 15.4275 20.9665 15.4058 21.2316 15.5141L21.9945 15.8333C22.238 15.9361 22.3787 16.1471 22.2651 16.4177L22.027 16.9804C21.9134 17.2509 21.6645 17.2996 21.421 17.1968L20.4741 16.8018L20.6905 16.2878L21.5021 16.6287C21.54 16.6557 21.5941 16.6449 21.6212 16.6016C21.6266 16.5962 21.6266 16.5908 21.632 16.5854L21.6969 16.4231C21.7186 16.3798 21.7023 16.3203 21.6591 16.2986C21.6536 16.2986 21.6482 16.2932 21.6428 16.2932L21.1613 16.0984ZM5.03191 17.0832L5.19964 17.8677L5.89763 17.4403L5.43771 18.122L6.26014 18.306L5.43771 18.4845L5.89763 19.1717L5.19964 18.7389L5.03191 19.5288L4.86959 18.7389L4.16619 19.1717L4.63152 18.4845L3.80909 18.306L4.63152 18.122L4.16619 17.4403L4.86959 17.8677L5.03191 17.0832ZM18.9753 17.0832L19.1431 17.8677L19.8411 17.4403L19.3811 18.122L20.2036 18.306L19.3811 18.4845L19.8411 19.1717L19.1431 18.7389L18.9753 19.5288L18.813 18.7389L18.1096 19.1717L18.5749 18.4845L17.7525 18.306L18.5749 18.122L18.1096 17.4403L18.813 17.8677L18.9753 17.0832ZM12.0063 2.24156L12.1741 3.03153L12.872 2.59867L12.4067 3.28583L13.2292 3.46438L12.4067 3.64835L12.872 4.3301L12.1741 3.90265L12.0063 4.69262L11.8386 3.90265L11.1406 4.3301L11.6059 3.64835L10.7835 3.46438L11.6059 3.28583L11.1406 2.59867L11.8386 3.03153L12.0063 2.24156Z" fill="#F4563B"/>
</svg>
