<svg width="24" height="24" viewBox="0 0 24 24" fill="none" xmlns="http://www.w3.org/2000/svg">
  <path d="M3.6665 11.9166C5.30101 12.1109 6.82263 12.8494 7.98653 14.0133C9.15043 15.1772 9.88892 16.6988 10.0832 18.3333C10.8934 17.8662 11.5712 17.2001 12.0524 16.3982C12.5336 15.5962 12.8023 14.6847 12.8332 13.75C14.3724 13.2085 15.7164 12.2228 16.6954 10.9175C17.6744 9.61215 18.2443 8.04585 18.3332 6.41663C18.3332 5.68728 18.0434 4.98781 17.5277 4.47208C17.012 3.95636 16.3125 3.66663 15.5832 3.66663C13.9539 3.75546 12.3876 4.3254 11.0823 5.30439C9.77701 6.28338 8.7913 7.62744 8.24984 9.16663C7.31508 9.1975 6.40363 9.46623 5.60165 9.94742C4.79966 10.4286 4.13363 11.1064 3.6665 11.9166Z" stroke="#6B6B6B" stroke-width="2" stroke-linecap="round" stroke-linejoin="round"/>
  <path d="M6.4167 12.8333C5.46266 13.3719 4.69122 14.1831 4.20126 15.163C3.7113 16.1429 3.52516 17.2469 3.6667 18.3333C4.7531 18.4748 5.85701 18.2886 6.83692 17.7987C7.81683 17.3087 8.62809 16.5373 9.1667 15.5833M12.8334 8.24992C12.8334 8.49303 12.9299 8.72619 13.1019 8.8981C13.2738 9.07001 13.5069 9.16659 13.75 9.16659C13.9931 9.16659 14.2263 9.07001 14.3982 8.8981C14.5701 8.72619 14.6667 8.49303 14.6667 8.24992C14.6667 8.0068 14.5701 7.77365 14.3982 7.60174C14.2263 7.42983 13.9931 7.33325 13.75 7.33325C13.5069 7.33325 13.2738 7.42983 13.1019 7.60174C12.9299 7.77365 12.8334 8.0068 12.8334 8.24992Z" stroke="#6B6B6B" stroke-width="2" stroke-linecap="round" stroke-linejoin="round"/>
</svg>
