<svg viewBox="0 0 24 24" fill="none" xmlns="http://www.w3.org/2000/svg">
  <path d="M1.6665 9.91663C3.30101 10.1109 4.82263 10.8494 5.98653 12.0133C7.15043 13.1772 7.88892 14.6988 8.08317 16.3333C8.89343 15.8662 9.57119 15.2001 10.0524 14.3982C10.5336 13.5962 10.8023 12.6847 10.8332 11.75C12.3724 11.2085 13.7164 10.2228 14.6954 8.91747C15.6744 7.61215 16.2443 6.04585 16.3332 4.41663C16.3332 3.68728 16.0434 2.98781 15.5277 2.47208C15.012 1.95636 14.3125 1.66663 13.5832 1.66663C11.9539 1.75546 10.3876 2.3254 9.08233 3.30439C7.77701 4.28338 6.7913 5.62744 6.24984 7.16663C5.31508 7.1975 4.40363 7.46623 3.60165 7.94742C2.79966 8.42861 2.13363 9.10637 1.6665 9.91663Z" stroke="#000" stroke-width="2" stroke-linecap="round" stroke-linejoin="round"/>
  <path d="M4.4167 10.8333C3.46266 11.3719 2.69122 12.1831 2.20126 13.163C1.7113 14.1429 1.52516 15.2469 1.6667 16.3333C2.7531 16.4748 3.85701 16.2886 4.83692 15.7987C5.81683 15.3087 6.62809 14.5373 7.1667 13.5833M10.8334 6.24992C10.8334 6.49303 10.9299 6.72619 11.1019 6.8981C11.2738 7.07001 11.5069 7.16659 11.75 7.16659C11.9931 7.16659 12.2263 7.07001 12.3982 6.8981C12.5701 6.72619 12.6667 6.49303 12.6667 6.24992C12.6667 6.0068 12.5701 5.77365 12.3982 5.60174C12.2263 5.42983 11.9931 5.33325 11.75 5.33325C11.5069 5.33325 11.2738 5.42983 11.1019 5.60174C10.9299 5.77365 10.8334 6.0068 10.8334 6.24992Z" stroke="#000" stroke-width="2" stroke-linecap="round" stroke-linejoin="round"/>
</svg>
