<svg xmlns="http://www.w3.org/2000/svg" width="28.5" height="24.167" viewBox="19.871 16.881 28.5 24.167"><g stroke="#486580" stroke-linejoin="bevel" stroke-miterlimit="10"><g stroke-width=".75"><path fill="#FFF" d="M33.618 23.552s-1.704-.855-2.61 1.098c.67 1.6 4.147 9.877 4.147 9.877s1.786.82 2.612-1.098l-4.15-9.878zM22.922 30.544s-2.968 1.618-2.124 3.628c.65 1.55 2.214 1.614 4.078 1.022l-1.954-4.65zM29.28 38.824c.243.49.043 1.088-.45 1.332-.49.244-1.087.043-1.332-.448l-3.47-6.985c-.242-.49-.042-1.088.45-1.333.492-.244 1.088-.043 1.332.447l3.47 6.987z"/><path fill="#486580" d="M24.876 35.194l10.28-.67-4.15-9.873-8.084 5.894z"/></g><path fill="none" stroke-linecap="round" d="M36.227 22.96l2.395-4.814M37.71 26.733l9.587-5.023M39.775 31.452l6.368.774"/></g></svg>