<svg xmlns="http://www.w3.org/2000/svg" viewBox="18.5 18.4 25.5 25.5"><path fill="#486580" d="M31.167 18.695c-5.21 0-9.67 3.196-11.53 7.734h23.06c-1.862-4.54-6.322-7.735-11.53-7.735zM31.167 43.61c5.21 0 9.67-3.196 11.53-7.734h-23.06c1.86 4.538 6.32 7.733 11.53 7.733z"/><path fill="#FFF" stroke="#231F20" stroke-width=".25" stroke-miterlimit="10" d="M42.696 26.43h-23.06c-.598 1.456-.928 3.05-.928 4.723 0 1.672.33 3.268.928 4.724h23.06c.597-1.456.928-3.052.928-4.724 0-1.674-.332-3.268-.928-4.724z"/><text transform="translate(20.878 33.97)" font-family="'Roboto-Bold'" font-size="8.451">VOTE</text><path fill="#FFF" d="M24.614 23.866l.944.11-.66.683.186.93-.853-.418-.827.466.135-.942-.7-.643.936-.163.396-.863M28.136 23.866l.943.11-.662.683.188.93-.853-.418-.828.466.133-.942-.7-.643.937-.163.397-.863M31.656 23.866l.945.11-.66.683.186.93-.852-.418-.83.466.137-.942-.7-.643.937-.163.396-.863M35.178 23.866l.944.11-.66.683.186.93-.853-.418-.828.466.133-.942-.698-.643.936-.163.396-.863M38.7 23.866l.943.11-.66.683.186.93-.854-.418-.828.466.136-.942-.7-.643.935-.163.396-.863M24.614 37.465l.944.11-.66.683.186.93-.853-.417-.827.466.135-.94-.7-.643.936-.164.396-.864M28.136 37.465l.943.11-.662.683.188.93-.853-.417-.828.466.133-.94-.7-.643.937-.164.397-.864M31.656 37.465l.945.11-.66.683.186.93-.852-.417-.83.466.137-.94-.7-.643.937-.164.396-.864M35.178 37.465l.944.11-.66.683.186.93-.853-.417-.828.466.133-.94-.698-.643.936-.164.396-.864M38.7 37.465l.943.11-.66.683.186.93-.854-.417-.828.466.136-.94-.7-.643.935-.164.396-.864"/></svg>
