<svg xmlns="http://www.w3.org/2000/svg" width="200" height="66" viewBox="0 0 500 165">
  <g fill="none" fill-rule="evenodd">
    <path fill="#FFFFFF" d="M430.902 84.8419L443.574 84.8419C444.499 84.8419 445.149 84.6949 445.526 84.3959 445.902 84.0989 446.09 83.5189 446.09 82.6539 446.09 80.7639 445.352 79.2229 443.877 78.0329 442.402 76.8449 440.592 76.2499 438.453 76.2499 436.426 76.2499 434.663 76.8319 433.159 77.9919 431.654 79.1549 430.902 80.6819 430.902 82.5719L430.902 84.8419zM419.706 92.1329L419.706 84.7549C419.706 80.0119 421.557 75.9329 425.261 72.5179 428.963 69.1049 433.448 67.3979 438.713 67.3979 443.631 67.3979 447.84 68.9529 451.341 72.0629 454.842 75.1719 456.592 79.0799 456.592 83.7879 456.592 85.5079 456.375 86.9249 455.942 88.0419 455.508 89.1599 454.842 89.9469 453.946 90.4069 453.048 90.8649 452.223 91.1519 451.471 91.2659 450.718 91.3819 449.735 91.4389 448.521 91.4389L430.902 91.4389 430.902 92.7399C430.902 95.2299 431.827 97.2399 433.679 98.7729 435.531 100.3069 437.989 101.0719 441.056 101.0719 443.256 101.0719 445.425 100.5229 447.566 99.4229 449.706 98.3239 451.094 97.7739 451.732 97.7739 452.947 97.7739 453.959 98.3389 454.77 99.4669 455.58 100.5959 455.985 101.6799 455.985 102.7219 455.985 104.3419 454.524 105.9469 451.602 107.5379 448.679 109.1299 445.049 109.9249 440.71 109.9249 434.518 109.9249 429.47 108.2909 425.564 105.0219 421.659 101.7529 419.706 97.4569 419.706 92.1329zM184.9289 61.0841C184.9289 59.8691 185.7099 58.8141 187.2729 57.9151 188.8349 57.0201 190.4539 56.5701 192.1329 56.5701 194.2149 56.5701 195.4589 57.3231 195.8649 58.8271L206.4849 95.0801 213.8619 64.8761C214.3839 62.7941 216.2349 61.7521 219.4179 61.7521 222.5429 61.7521 224.3649 62.7941 224.8849 64.8761L232.2619 95.0801 242.6629 58.8271C243.0669 57.3231 244.3119 56.5701 246.3949 56.5701 248.0729 56.5701 249.6919 57.0201 251.2549 57.9151 252.8169 58.8141 253.5979 59.8691 253.5979 61.0841 253.5979 61.4321 253.5399 61.7781 253.4249 62.1261L239.5539 105.9291C238.6859 108.4761 236.2259 109.7481 232.1769 109.7481 230.4399 109.7481 228.8779 109.4141 227.4889 108.7501 226.1009 108.0861 225.2609 107.1451 224.9719 105.9291L219.4179 82.4951 213.7769 105.9291C213.4859 107.1451 212.6479 108.0861 211.2589 108.7501 209.8709 109.4141 208.3079 109.7481 206.5719 109.7481 204.7779 109.7481 203.1879 109.4141 201.7989 108.7511 200.4099 108.0861 199.5419 107.1451 199.1949 105.9291L185.1029 62.1261C184.9859 61.7781 184.9289 61.4321 184.9289 61.0841zM263.7184 84.9259L276.3904 84.9259C277.3154 84.9259 277.9654 84.7779 278.3424 84.4799 278.7184 84.1819 278.9064 83.6019 278.9064 82.7379 278.9064 80.8469 278.1684 79.3059 276.6934 78.1169 275.2174 76.9279 273.4084 76.3339 271.2694 76.3339 269.2424 76.3339 267.4784 76.9149 265.9754 78.0749 264.4704 79.2379 263.7184 80.7649 263.7184 82.6559L263.7184 84.9259zM252.5224 92.2159L252.5224 84.8389C252.5224 80.0949 254.3724 76.0169 258.0764 72.6019 261.7794 69.1879 266.2644 67.4809 271.5294 67.4809 276.4474 67.4809 280.6564 69.0359 284.1574 72.1459 287.6574 75.2549 289.4084 79.1629 289.4084 83.8719 289.4084 85.5919 289.1914 87.0089 288.7574 88.1259 288.3234 89.2439 287.6574 90.0309 286.7624 90.4899 285.8644 90.9479 285.0394 91.2359 284.2874 91.3489 283.5344 91.4649 282.5514 91.5219 281.3364 91.5219L263.7184 91.5219 263.7184 92.8229C263.7184 95.3129 264.6434 97.3239 266.4954 98.8559 268.3464 100.3899 270.8054 101.1549 273.8724 101.1549 276.0724 101.1549 278.2414 100.6069 280.3814 99.5069 282.5224 98.4079 283.9104 97.8579 284.5484 97.8579 285.7634 97.8579 286.7754 98.4219 287.5864 99.5499 288.3964 100.6789 288.8014 101.7629 288.8014 102.8049 288.8014 104.4249 287.3394 106.0309 284.4184 107.6209 281.4954 109.2129 277.8654 110.0089 273.5264 110.0089 267.3334 110.0089 262.2854 108.3749 258.3804 105.1059 254.4754 101.8359 252.5224 97.5399 252.5224 92.2159zM308.2331 61.174C308.2331 59.844 309.0001 58.731 310.5341 57.832 312.0651 56.936 313.6711 56.487 315.3501 56.487 317.4901 56.487 318.7631 57.24 319.1691 58.744L329.2951 94.997 339.5351 58.744C339.9391 57.24 341.2121 56.487 343.3541 56.487 344.9721 56.487 346.5651 56.951 348.1271 57.876 349.6891 58.803 350.4701 59.903 350.4701 61.174 350.4701 61.291 350.4131 61.579 350.2971 62.042L336.5861 105.846C336.2391 107.062 335.3711 108.002 333.9831 108.667 332.5941 109.331 331.0321 109.664 329.2951 109.664 325.3021 109.664 322.8731 108.393 322.0041 105.846L308.4071 62.042C308.2901 61.579 308.2331 61.291 308.2331 61.174zM361.6081 92.1066C361.6081 94.1726 362.3601 96.0116 363.8651 97.6206 365.3681 99.2286 367.1621 100.0306 369.2461 100.0306 371.2701 100.0306 373.0491 99.2286 374.5831 97.6206 376.1161 96.0116 376.8821 94.1726 376.8821 92.1066L376.8821 85.0436C376.8821 83.0916 376.1161 81.3126 374.5831 79.7046 373.0491 78.0956 371.2701 77.2916 369.2461 77.2916 367.1621 77.2916 365.3681 78.0826 363.8651 79.6606 362.3601 81.2396 361.6081 83.0336 361.6081 85.0436L361.6081 92.1066zM350.4121 92.1326L350.4121 85.0166C350.4121 80.2726 352.2621 76.1496 355.9661 72.6486 359.6691 69.1476 364.0941 67.3976 369.2461 67.3976 374.2801 67.3976 378.6751 69.1326 382.4381 72.6056 386.1991 76.0766 388.0801 80.2136 388.0801 85.0156L388.0801 92.1326C388.0801 96.8206 386.1991 100.9576 382.4381 104.5446 378.6751 108.1326 374.2801 109.9246 369.2461 109.9246 364.2111 109.9246 359.8141 108.1326 356.0531 104.5446 352.2911 100.9576 350.4121 96.8206 350.4121 92.1326zM392.7018 95.2482L392.7018 59.4872C392.7018 58.5172 393.2798 57.7012 394.4378 57.0432 395.5958 56.3872 396.8688 56.0572 398.2578 56.0572 399.7608 56.0572 401.0778 56.3762 402.2058 57.0162 403.3348 57.6562 403.8978 58.4502 403.8978 59.3962L403.8978 67.9182 414.1388 67.9182C415.0078 67.9182 415.7018 68.3582 416.2228 69.2372 416.7438 70.1152 417.0038 71.1512 417.0038 72.3442 417.0038 73.5382 416.7438 74.5742 416.2228 75.4522 415.7018 76.3312 415.0078 76.7702 414.1388 76.7702L403.8978 76.7702 403.8978 94.8702C403.8978 96.4682 404.2598 97.5972 404.9838 98.2592 405.7068 98.9202 406.9648 99.2492 408.7588 99.2492L412.1438 99.2492C413.6468 99.2492 414.8188 99.7342 415.6588 100.7022 416.4958 101.6702 416.9168 102.8202 416.9168 104.1522 416.9168 105.5442 416.4958 106.7232 415.6588 107.6922 414.8188 108.6602 413.6468 109.1442 412.1438 109.1442L408.7588 109.1442C398.0548 109.1442 392.7018 104.5142 392.7018 95.2482zM151.6437 54.5461L131.2207 89.9191 121.3207 72.7731 133.1007 52.3691C133.1017 52.3691 133.1017 52.3681 133.1017 52.3681 133.4787 51.7131 134.1867 51.3061 134.9487 51.3061L149.7737 51.3061C150.8987 51.3061 151.4567 52.0621 151.6437 52.3861 151.8307 52.7111 152.2057 53.5711 151.6437 54.5461zM118.2047 112.4661C117.6407 113.4411 116.7077 113.5461 116.3327 113.5461 115.9587 113.5461 115.0257 113.4411 114.4627 112.4661L79.1527 51.3061 97.7147 51.3061C98.4777 51.3061 99.1887 51.7151 99.5687 52.3741L126.2337 98.5591 118.2047 112.4661zM88.4287 112.4661C87.8667 113.4411 86.9337 113.5461 86.5587 113.5461 86.1837 113.5461 85.2507 113.4411 84.6877 112.4661L51.2477 54.5461C50.6857 53.5711 51.0607 52.7111 51.2477 52.3861 51.4357 52.0621 51.9937 51.3061 53.1187 51.3061L67.9307 51.3061C68.6997 51.3061 69.4157 51.7201 69.8007 52.3861L96.4577 98.5591 88.4287 112.4661zM159.1247 48.0671C157.1737 44.6861 153.6777 42.6671 149.7737 42.6671L134.9487 42.6671C131.1097 42.6671 127.5357 44.7301 125.6197 48.0511L116.3337 64.1331 107.0507 48.0551C105.1327 44.7321 101.5547 42.6671 97.7147 42.6671L53.1187 42.6671C49.2147 42.6671 45.7187 44.6861 43.7667 48.0671 41.8147 51.4471 41.8147 55.4841 43.7667 58.8651L77.2067 116.7851C79.1587 120.1661 82.6557 122.1851 86.5597 122.1851 90.4627 122.1851 93.9587 120.1661 95.9097 116.7851L101.4457 107.1961 106.9817 116.7851C108.9337 120.1661 112.4297 122.1851 116.3327 122.1851 120.2377 122.1851 123.7327 120.1661 125.6857 116.7851 125.6857 116.7851 134.9607 100.7201 134.9617 100.7181L159.1247 58.8651C161.0777 55.4841 161.0777 51.4471 159.1247 48.0671z"/>
  </g>
</svg>
