<svg xmlns="http://www.w3.org/2000/svg" width="500" height="500" viewBox="0 0 500 500">
  <path fill="#2E3C5D" fill-rule="evenodd" d="M405.8164,180.8984 L342.5094,290.5504 L311.8214,237.3984 L348.3364,174.1514 C348.3374,174.1514 348.3374,174.1484 348.3374,174.1484 C349.5094,172.1184 351.7054,170.8564 354.0634,170.8564 L400.0194,170.8564 C403.5064,170.8564 405.2354,173.1974 405.8164,174.2044 C406.3974,175.2114 407.5604,177.8774 405.8164,180.8984 Z M302.1604,360.4394 C300.4144,363.4604 297.5224,363.7874 296.3604,363.7874 C295.1984,363.7874 292.3074,363.4604 290.5634,360.4394 L181.1074,170.8564 L238.6444,170.8564 C241.0114,170.8564 243.2144,172.1254 244.3944,174.1684 L327.0484,317.3294 L302.1604,360.4394 Z M209.8604,360.4394 C208.1184,363.4604 205.2264,363.7874 204.0644,363.7874 C202.9024,363.7874 200.0104,363.4604 198.2654,360.4394 L94.6084,180.8984 C92.8644,177.8774 94.0264,175.2114 94.6084,174.2044 C95.1904,173.1974 96.9184,170.8564 100.4054,170.8564 L146.3214,170.8564 C148.7044,170.8564 150.9254,172.1374 152.1184,174.2044 L234.7524,317.3294 L209.8604,360.4394 Z M429.0074,160.8144 C422.9574,150.3344 412.1214,144.0774 400.0194,144.0774 L354.0634,144.0774 C342.1654,144.0774 331.0854,150.4714 325.1454,160.7654 L296.3614,210.6184 L267.5864,160.7784 C261.6394,150.4784 250.5494,144.0774 238.6444,144.0774 L100.4054,144.0774 C88.3044,144.0774 77.4684,150.3344 71.4174,160.8144 C65.3664,171.2944 65.3664,183.8074 71.4174,194.2884 L175.0764,373.8294 C181.1274,384.3094 191.9644,390.5664 204.0664,390.5664 C216.1664,390.5664 227.0034,384.3094 233.0514,373.8294 L250.2124,344.1074 L267.3724,373.8294 C273.4224,384.3094 284.2584,390.5664 296.3604,390.5664 C308.4624,390.5664 319.2984,384.3094 325.3494,373.8294 C325.3494,373.8294 354.1024,324.0304 354.1054,324.0244 L429.0064,194.2884 C435.0584,183.8074 435.0584,171.2944 429.0074,160.8144 Z"/>
</svg>
