<svg xmlns="http://www.w3.org/2000/svg" width="24" height="24" viewBox="0 0 24 24">
  <path fill="#FFF" d="M10.608 7a1 1 0 1 1 0-2h8.361a1 1 0 0 1 0 2h-8.36zm0 7a1 1 0 1 1 0-2h8.361a1 1 0 0 1 0 2h-8.36zm0 7a1 1 0 1 1 0-2h8.361a1 1 0 0 1 0 2h-8.36zM4 4v2h2V4H4zm0-2h2a2 2 0 0 1 2 2v2a2 2 0 0 1-2 2H4a2 2 0 0 1-2-2V4a2 2 0 0 1 2-2zm2.168 7.445a1 1 0 0 1 1.664 1.11l-2.667 4a1 1 0 0 1-1.539.152l-1.333-1.333a1 1 0 1 1 1.414-1.414l.47.47 1.99-2.985zm0 7a1 1 0 1 1 1.664 1.11l-2.667 4a1 1 0 0 1-1.539.152l-1.333-1.333a1 1 0 1 1 1.414-1.414l.47.47 1.99-2.985z"/>
</svg>
