<svg xmlns="http://www.w3.org/2000/svg" width="16" height="16" viewBox="0 0 16 16">
  <path fill="#305B84" fill-rule="evenodd" d="M11.496 10.493A4.24 4.24 0 0 1 8.25 12h-3.5c-.046 0-.091 0-.136-.002l-1.43.799a1 1 0 0 1-1.47-1.064l.165-.849A4.25 4.25 0 0 1 4.75 3.5h1.26A4.24 4.24 0 0 1 9.25 2h2a4.25 4.25 0 0 1 3.184 7.065l.362 1.876a.5.5 0 0 1-.736.53l-1.9-1.069a4.25 4.25 0 0 1-.664.091zm-1.513.007H9.25a4.25 4.25 0 0 1-3.874-6H4.75a3.25 3.25 0 0 0-2.014 5.8.5.5 0 0 1 .18.488l-.22 1.136 1.555-.869a.5.5 0 0 1 .277-.062c.074.005.148.007.222.007h3.5c.637 0 1.231-.183 1.733-.5zm-6.233-2a.75.75 0 1 0 0-1.5.75.75 0 0 0 0 1.5zm4-1.5a.75.75 0 1 0 0-1.5.75.75 0 0 0 0 1.5zm2.5 0a.75.75 0 1 0 0-1.5.75.75 0 0 0 0 1.5zm2.5 0a.75.75 0 1 0 0-1.5.75.75 0 0 0 0 1.5z"/>
</svg>
