<svg xmlns="http://www.w3.org/2000/svg" width="24" height="24" viewBox="0 0 24 24">
  <g fill="none" fill-rule="evenodd">
    <path fill="#FFF" fill-rule="nonzero" d="M9.26 10.748a17.726 17.726 0 0 1-.875-2.417c2.937-4.533 6.707-7.247 9.115-5.857.932.538 1.436 1.562 1.555 2.888a1 1 0 0 1-1.992.18c-.066-.739-.28-1.173-.563-1.336-1.218-.703-4.59 1.95-7.098 6.294l-.142.248zM7.273 15.54c-.574 2.182-.494 3.838.227 4.254.315.182.878.12 1.654-.286a1 1 0 0 1 .928 1.771c-1.322.693-2.57.831-3.582.247-2-1.155-2.018-4.54-.557-8.412a28.023 28.023 0 0 0 1.33 2.426z"/>
    <path fill="#FFF" fill-rule="nonzero" d="M18.148 13.042c-.568.214-1.22.399-1.931.548a22.68 22.68 0 0 0-1.537-3.2 23.201 23.201 0 0 0-1.377-2.119 1 1 0 0 1 1.613-1.182c.527.72 1.029 1.49 1.496 2.3a24.51 24.51 0 0 1 1.736 3.653zm.972 3.918c.229 2.23-.146 3.65-1.535 4.455-2.607 1.511-6.816-1.8-9.833-7.025C4.738 9.168 3.975 3.87 6.583 2.364c.879-.508 1.946-.469 3.08.009a1 1 0 1 1-.777 1.843c-.607-.256-1.04-.272-1.303-.12-1.218.703-.606 4.95 1.901 9.294a22.005 22.005 0 0 0 2.564 3.584c.142.235.332.438.554.596 1.674 1.714 3.234 2.547 3.98 2.115.483-.28.676-.902.577-2.197a17.475 17.475 0 0 0 1.96-.528zM2.976 9.04a1 1 0 1 1 1.077 1.685C3.328 11.189 3 11.64 3 12c0 .364.335.82 1.075 1.289a1 1 0 0 1-1.07 1.69C1.743 14.18 1 13.168 1 12c0-1.158.732-2.164 1.976-2.96z"/>
    <path fill="#FFF" fill-rule="nonzero" d="M13.83 16.936a1 1 0 0 1-.141-1.995c4.257-.302 7.31-1.746 7.31-2.94 0-.601-.894-1.394-2.61-2.02a1 1 0 0 1 .685-1.878C21.494 8.984 23 10.319 23 12c0 2.699-3.95 4.565-9.17 4.936z"/>
    <circle cx="12" cy="12" r="2" fill="#FFF"/>
  </g>
</svg>
