<?xml version="1.0"?><svg width="640" height="480" xmlns="http://www.w3.org/2000/svg">
 <title>house grey</title>

 <metadata id="metadata7">image/svg+xml</metadata>
 <g>
  <path fill="#FAFAFA" stroke="#FAFAFA" stroke-width="5" stroke-miterlimit="4" id="rect2391" d="m469.805786,237.095795l0,0zm0,0l-162.8125,-144.187515l-162.906235,144.250015l0,206.125c0,5.323364 4.30162,9.59375 9.625,9.59375l101.812515,0l0,-90.375c0,-5.323425 4.270355,-9.625 9.59375,-9.625l83.656219,0c5.323364,0 9.59375,4.301636 9.59375,9.625l0,90.375l101.84375,0c5.323364,0 9.593781,-4.270325 9.59375,-9.59375l0,-206.1875zm-325.71875,0.0625l0,0z"/>
  <path fill="#FAFAFA" stroke="#FAFAFA" stroke-width="5" stroke-miterlimit="4" id="path2399" d="m306.048523,11l-231.048523,204.583557l24.33831,27.457397l207.655403,-183.884186l207.608093,183.884186l24.291016,-27.457397l-231.001221,-204.583557l-0.897888,1.0397l-0.94519,-1.0397z"/>
  <path fill="#FAFAFA" stroke="#FAFAFA" stroke-width="5" stroke-miterlimit="4" id="rect2404" d="m143.087051,30.449039l58.571442,0l-0.510391,34.691097l-58.06105,52.451752l0,-87.142849z"/>
  <title>Layer 1</title>
 </g>
</svg>