<?xml version="1.0" encoding="UTF-8"?>
<svg width="24px" height="24px" viewBox="0 0 24 24" version="1.1" xmlns="http://www.w3.org/2000/svg" xmlns:xlink="http://www.w3.org/1999/xlink">
    <!-- Generator: Sketch 61 (89581) - https://sketch.com -->
    <title>Issues</title>
    <desc>Created with Sketch.</desc>
    <g id="Issues" stroke="none" stroke-width="1" fill="none" fill-rule="evenodd">
        <path d="M6.86729371,13.0422784 L10.9577216,17.1331612 C11.1353049,17.3107981 11.1353049,17.5987477 10.9577216,17.7763846 L6.86729371,21.8672674 C6.68965675,22.0448507 6.40170723,22.0448507 6.22407028,21.8672674 L2.13318749,17.7763846 C1.95560417,17.5987477 1.95560417,17.3107981 2.13318749,17.1331612 L6.22407028,13.0422784 C6.40170723,12.8646951 6.68965675,12.8646951 6.86729371,13.0422784 Z M8.10461175,16.2047178 C7.45606206,15.3119275 6.21785659,15.0913539 5.30090333,15.7052658 C4.38395008,16.3191778 4.11615787,17.5480361 4.69453282,18.4878093 C5.27290778,19.4275824 6.49061902,19.742201 7.4518355,19.2002102 L7.4518355,19.2002102 L7.40407139,19.3944509 C7.36738429,19.5707405 7.47670296,19.7444733 7.65150779,19.7876848 C7.82631262,19.8308964 8.00398702,19.728108 8.05366336,19.5550293 L8.05366336,19.5550293 L8.3852828,18.2162694 C8.43759588,18.0051975 8.27747236,17.800949 8.06003191,17.800949 L8.06003191,17.800949 L6.72127198,17.800949 C6.536365,17.800949 6.38646827,17.9508457 6.38646827,18.1357527 C6.38646827,18.3206597 6.536365,18.4705564 6.72127198,18.4705564 L6.72127198,18.4705564 L7.40543608,18.4705564 C7.35166403,18.4783043 7.30059953,18.4990737 7.25668497,18.5310576 C6.6385661,18.9800292 5.77352195,18.8429334 5.32451615,18.2248394 C4.87551034,17.6067453 5.01255833,16.7416936 5.6306275,16.2926536 C6.24869667,15.8436136 7.11375599,15.9806137 7.56283021,16.598658 C7.63320086,16.6954379 7.7498575,16.747324 7.86885672,16.7347712 C7.98785594,16.7222184 8.09111892,16.6471339 8.1397475,16.5378011 C8.18837607,16.4284684 8.1749824,16.3014977 8.10461175,16.2047178 Z" id="Shape" fill="#FFFFFF" fill-rule="nonzero"></path>
        <path d="M20.0534759,10.2139037 C20.2385027,10.2139037 20.3973262,10.1497326 20.5294118,10.0213904 C20.6609626,9.89304813 20.7272727,9.73262032 20.7272727,9.54010695 C20.7272727,9.34759358 20.6631016,9.18930481 20.5347594,9.06417112 C20.4079917,8.93992766 20.2362642,8.87239437 20.0588235,8.87700535 C19.8695187,8.87700535 19.7112299,8.94117647 19.5828877,9.06951872 C19.45666,9.19318398 19.3870145,9.3634286 19.3903743,9.54010695 C19.3903743,9.72566845 19.4545455,9.88449198 19.5828877,10.0160428 C19.7112299,10.1481283 19.8679144,10.2139037 20.0534759,10.2139037 Z M18.2566845,2.19251337 C18.9053476,2.19251337 19.5042781,2.35294118 20.0534759,2.67379679 C20.5855684,2.97804913 21.0282041,3.41699622 21.3368984,3.94652406 C21.6647059,4.5026738 21.828877,5.10160428 21.828877,5.74331551 L18.2566845,5.74331551 L18.2566845,2.19251337 Z M16.0427807,10.2139037 C16.2278075,10.2139037 16.386631,10.1497326 16.5187166,10.0213904 C16.6502674,9.89304813 16.7165775,9.73262032 16.7165775,9.54010695 C16.7165775,9.34759358 16.6524064,9.18930481 16.5240642,9.06417112 C16.3972966,8.93992766 16.2255691,8.87239437 16.0481283,8.87700535 C15.8588235,8.87700535 15.7005348,8.94117647 15.5721925,9.06951872 C15.4459648,9.19318398 15.3763193,9.3634286 15.3796791,9.54010695 C15.3796791,9.72566845 15.4438503,9.88449198 15.5721925,10.0160428 C15.7005348,10.1481283 15.8572193,10.2139037 16.0427807,10.2139037 L16.0427807,10.2139037 Z M21.6256684,7.36898396 C21.4951603,7.72949647 21.3112951,8.06838526 21.0802139,8.37433155 C21.244385,8.52406417 21.3721925,8.70053476 21.4652406,8.90374332 C21.557754,9.10695187 21.6042781,9.31925134 21.6042781,9.54010695 C21.6042781,9.82513369 21.5347594,10.0855615 21.3957219,10.3208556 C21.2566845,10.5561497 21.0673797,10.7433155 20.828877,10.8823529 C20.5898396,11.0213904 20.3315508,11.0909091 20.0534759,11.0909091 C19.7967914,11.0909091 19.5561497,11.0320856 19.3315508,10.9144385 C19.1109168,10.7999523 18.9203801,10.6350648 18.7754011,10.4331551 C18.6303236,10.2334994 18.5399902,9.99936998 18.513369,9.7540107 L17.5721925,9.7540107 C17.5202815,10.1224426 17.3381681,10.4601112 17.0588235,10.7058824 C16.7817705,10.9593183 16.4182138,11.0970872 16.0427807,11.0909091 C15.7647059,11.0909091 15.5042781,11.0213904 15.2620321,10.8823529 C15.0250167,10.7490623 14.8275781,10.5553142 14.6898396,10.3208556 C14.550459,10.0844794 14.4783414,9.81450085 14.4812834,9.54010695 C14.4812834,9.25508021 14.5561497,8.98930481 14.7058824,8.74331551 C14.855615,8.4973262 15.0513369,8.30695187 15.2941176,8.17112299 C15.2513369,8.10695187 15.0802139,7.76149733 14.7807487,7.13368984 L14.3529412,6.20320856 L13.368984,6.20320856 L13.368984,5.30481283 L14.9197861,5.30481283 L15.3368984,6.20320856 L21.828877,6.20320856 C21.828877,6.6026738 21.7609626,6.99144385 21.6256684,7.36898396 L21.6256684,7.36898396 Z" id="Shape" fill="#FFFFFF" fill-rule="nonzero"></path>
        <path d="M6.59090909,2 C8.85025579,2 10.6818182,3.83156239 10.6818182,6.09090909 L7.04545455,6.09090909 L7.04545455,9.72727273 C7.04545455,10.4803883 6.43493375,11.0909091 5.68181818,11.0909091 C4.92870261,11.0909091 4.31818182,10.4803883 4.31818182,9.72727273 L4.31818182,9.27272727 L5.22727273,9.27272727 L5.22727273,9.72727273 C5.22727273,9.97831125 5.43077966,10.1818182 5.68181818,10.1818182 C5.9328567,10.1818182 6.13636364,9.97831125 6.13636364,9.72727273 L6.13636364,6.09090909 L2.5,6.09090909 C2.5,3.83156239 4.33156239,2 6.59090909,2 Z" id="Path" fill="#FFFFFF" fill-rule="nonzero"></path>
        <path d="M17.4545455,14.2248804 L12.9090909,16.7501329 L17.4545455,19.2753854 L21.1681521,17.2046784 L21.1681521,20.1238703 L22,20.1238703 L22,16.7501329 L17.4545455,14.2248804 Z M17.4545455,20.1238703 L14.5732818,18.5082137 L14.5732818,20.2046784 L17.4545455,21.800638 L20.3358091,20.2046784 L20.3358091,18.5082137 L17.4545455,20.1238703 Z" id="Shape" fill="#FFFFFF" fill-rule="nonzero"></path>
    </g>
</svg>