<?xml version="1.0" encoding="UTF-8"?>
<svg width="24px" height="24px" viewBox="0 0 24 24" version="1.1" xmlns="http://www.w3.org/2000/svg" xmlns:xlink="http://www.w3.org/1999/xlink">
    <!-- Generator: Sketch 61 (89581) - https://sketch.com -->
    <title>Politicans</title>
    <desc>Created with Sketch.</desc>
    <g id="Politicans" stroke="none" stroke-width="1" fill="none" fill-rule="evenodd">
        <path d="M16.7544785,13.8051164 L15.9887585,22.8848 L8.2761563,22.8848 L7.51077203,13.8051164 L16.7544785,13.8051164 Z M17.6649148,12.3262241 L17.6649148,13.5314651 L6.6,13.5314651 L6.6,12.3262241 L17.6649148,12.3262241 Z M11.5277383,6.77244541 L12.0899827,7.36306219 L12.6701906,6.77916078 C14.7297945,7.45808467 16.1667158,9.53229451 16.7153615,12.07977 L16.7153615,12.07977 L15.455726,12.07977 C15.4009957,11.1945164 15.1285196,9.78328145 13.9759943,9.34006705 C13.8992712,9.17705145 13.7354162,9.06977341 13.5487289,9.06977341 L13.5487289,9.06977341 L12.9680173,9.06977341 C12.707293,9.06977341 12.4950874,9.28181122 12.4950874,9.54253545 C12.4950874,9.80325968 12.7069573,10.0154654 12.9680173,10.0154654 L12.9680173,10.0154654 L13.5487289,10.0154654 C13.6004372,10.0154654 13.6513061,10.0070712 13.7006641,9.98977907 C14.1868569,10.1749554 14.4858587,10.8780546 14.4786397,10.8589158 C14.5140633,10.9477266 14.7235828,11.49973 14.7101521,12.07977 L14.7101521,12.07977 L9.70736948,12.07977 L9.70736948,11.0380483 C9.60109875,11.3390647 9.50087186,11.6854099 9.40601726,12.07977 L9.40601726,12.07977 L7.54921752,12.07977 C8.20782741,8.18351249 11.2342767,6.84262103 11.5220303,6.7736206 C11.5240449,6.77311695 11.5257237,6.77311695 11.5277383,6.77244541 L11.5277383,6.77244541 Z M12.0956907,7.4491868 L12.0847783,7.4491868 L11.973471,8.19308189 L11.5235412,11.2020712 L12.0847783,11.9704774 L12.0956907,11.9704774 L12.6572635,11.2020712 L12.0956907,7.4491868 Z M12.0582526,2 C13.3439995,2 14.3863034,3.04230385 14.3863034,4.32805082 C14.3863034,5.61379778 13.3439995,6.65610163 12.0582526,6.65610163 C10.7725056,6.65610163 9.73020174,5.61379778 9.73020174,4.32805082 C9.73020174,3.04230385 10.7725056,2 12.0582526,2 Z" id="Combined-Shape" fill="#FFFFFF" fill-rule="nonzero"></path>
    </g>
</svg>