<?xml version="1.0" encoding="UTF-8"?>
<svg width="24px" height="24px" viewBox="0 0 24 24" version="1.1" xmlns="http://www.w3.org/2000/svg" xmlns:xlink="http://www.w3.org/1999/xlink">
    <!-- Generator: Sketch 61 (89581) - https://sketch.com -->
    <title>Representatives</title>
    <desc>Created with Sketch.</desc>
    <g id="Elected-Officials" stroke="none" stroke-width="1" fill="none" fill-rule="evenodd">
        <path d="M16.6544785,13.8051164 L15.8887585,22.8848 L8.1761563,22.8848 L7.41077203,13.8051164 L16.6544785,13.8051164 Z M11.9579168,14.978963 C10.1968111,14.978963 8.76878768,16.4069864 8.76878768,18.1684279 C8.76878768,19.9298694 10.1969789,21.3578928 11.9579168,21.3578928 C13.7195262,21.3578928 15.1478853,19.9298694 15.1478853,18.1684279 C15.1478853,16.4069864 13.719694,14.978963 11.9579168,14.978963 Z M11.9582526,15.8460852 C12.1064943,15.8460852 12.2414733,15.9296915 12.307116,16.0618164 L12.307116,16.0618164 L12.7892796,17.0308443 L13.8598774,17.1896628 C14.0061046,17.2109841 14.1276528,17.3138971 14.1733173,17.4545841 C14.2188139,17.5949353 14.1810399,17.7493888 14.0754408,17.8529734 L14.0754408,17.8529734 L13.3025017,18.6109708 L13.48197,19.678043 C13.5063132,19.8237666 13.4467143,19.9708332 13.3268449,20.058133 C13.2588518,20.1074909 13.1786031,20.1321816 13.0978508,20.1321816 C13.0362373,20.1321816 12.9746238,20.117564 12.9175431,20.0880164 L12.9175431,20.0880164 L11.9580847,19.5872177 L10.9987941,20.0880164 C10.8680123,20.1563453 10.7091938,20.1447612 10.5894923,20.0576293 C10.4699587,19.9704974 10.4100241,19.8234308 10.4345352,19.6775394 L10.4345352,19.6775394 L10.6141713,18.610635 L9.84190377,17.8529734 C9.73580093,17.7493888 9.69836274,17.5949353 9.74402725,17.4545841 C9.78969177,17.3138971 9.91090419,17.2109841 10.0572993,17.1896628 L10.0572993,17.1896628 L11.1278971,17.0308443 L11.609557,16.0618164 C11.6753676,15.9296915 11.8106823,15.8460852 11.9582526,15.8460852 Z M17.5649148,12.3262241 L17.5649148,13.5314651 L6.5,13.5314651 L6.5,12.3262241 L17.5649148,12.3262241 Z M11.4277383,6.77244541 L11.9899827,7.36306219 L12.5701906,6.77916078 C14.6297945,7.45808467 16.0667158,9.53229451 16.6153615,12.07977 L16.6153615,12.07977 L15.355726,12.07977 C15.3009957,11.1945164 15.0285196,9.78328145 13.8759943,9.34006705 C13.7992712,9.17705145 13.6354162,9.06977341 13.4487289,9.06977341 L13.4487289,9.06977341 L12.8680173,9.06977341 C12.607293,9.06977341 12.3950874,9.28181122 12.3950874,9.54253545 C12.3950874,9.80325968 12.6069573,10.0154654 12.8680173,10.0154654 L12.8680173,10.0154654 L13.4487289,10.0154654 C13.5004372,10.0154654 13.5513061,10.0070712 13.6006641,9.98977907 C14.0868569,10.1749554 14.3858587,10.8780546 14.3786397,10.8589158 C14.4140633,10.9477266 14.6235828,11.49973 14.6101521,12.07977 L14.6101521,12.07977 L9.60736948,12.07977 L9.60736948,11.0380483 C9.50109875,11.3390647 9.40087186,11.6854099 9.30601726,12.07977 L9.30601726,12.07977 L7.44921752,12.07977 C8.10782741,8.18351249 11.1342767,6.84262103 11.4220303,6.7736206 C11.4240449,6.77311695 11.4257237,6.77311695 11.4277383,6.77244541 L11.4277383,6.77244541 Z M11.9956907,7.4491868 L11.9847783,7.4491868 L11.873471,8.19308189 L11.4235412,11.2020712 L11.9847783,11.9704774 L11.9956907,11.9704774 L12.5572635,11.2020712 L11.9956907,7.4491868 Z M11.9582526,2 C13.2439995,2 14.2863034,3.04230385 14.2863034,4.32805082 C14.2863034,5.61379778 13.2439995,6.65610163 11.9582526,6.65610163 C10.6725056,6.65610163 9.63020174,5.61379778 9.63020174,4.32805082 C9.63020174,3.04230385 10.6725056,2 11.9582526,2 Z" id="Combined-Shape" fill="#FFFFFF" fill-rule="nonzero"></path>
    </g>
</svg>